<svg width="25" height="25" viewBox="0 0 25 25" fill="none" xmlns="http://www.w3.org/2000/svg">
<path d="M12.5 2.5C18.02 2.5 22.5 6.98 22.5 12.5C22.5 18.02 18.02 22.5 12.5 22.5C6.98 22.5 2.5 18.02 2.5 12.5C2.5 6.98 6.98 2.5 12.5 2.5ZM12.5 17.5C10.76 17.5 9.15961 18.06 7.84961 19C9.15961 19.94 10.76 20.5 12.5 20.5C14.24 20.5 15.8404 19.94 17.1504 19C15.8404 18.06 14.24 17.5 12.5 17.5ZM12.5 4.5C8.08 4.5 4.5 8.08 4.5 12.5C4.5 14.45 5.20035 16.2301 6.36035 17.6201C8.05033 16.3002 10.1801 15.5 12.5 15.5C14.8199 15.5 16.9497 16.3002 18.6396 17.6201C19.7996 16.2301 20.5 14.45 20.5 12.5C20.5 8.08 16.92 4.5 12.5 4.5ZM12.5 6.5C14.43 6.5 16 8.07 16 10C16 11.93 14.43 13.5 12.5 13.5C10.57 13.5 9 11.93 9 10C9 8.07 10.57 6.5 12.5 6.5ZM12.5 8.5C11.67 8.5 11 9.17 11 10C11 10.83 11.67 11.5 12.5 11.5C13.33 11.5 14 10.83 14 10C14 9.17 13.33 8.5 12.5 8.5Z" fill="#2A2A2A"/>
</svg>
