<svg width="25" height="24" viewBox="0 0 25 24" fill="none" xmlns="http://www.w3.org/2000/svg">
<path d="M12.5 2C18.02 2 22.5 6.48 22.5 12C22.5 17.52 18.02 22 12.5 22C6.98 22 2.5 17.52 2.5 12C2.5 6.48 6.98 2 12.5 2ZM12.5 17C10.76 17 9.15961 17.56 7.84961 18.5C9.15961 19.44 10.76 20 12.5 20C14.24 20 15.8404 19.44 17.1504 18.5C15.8404 17.56 14.24 17 12.5 17ZM12.5 4C8.08 4 4.5 7.58 4.5 12C4.5 13.95 5.20035 15.7301 6.36035 17.1201C8.05033 15.8002 10.1801 15 12.5 15C14.8199 15 16.9497 15.8002 18.6396 17.1201C19.7996 15.7301 20.5 13.95 20.5 12C20.5 7.58 16.92 4 12.5 4ZM12.5 6C14.43 6 16 7.57 16 9.5C16 11.43 14.43 13 12.5 13C10.57 13 9 11.43 9 9.5C9 7.57 10.57 6 12.5 6ZM12.5 8C11.67 8 11 8.67 11 9.5C11 10.33 11.67 11 12.5 11C13.33 11 14 10.33 14 9.5C14 8.67 13.33 8 12.5 8Z" fill="white"/>
</svg>
