<svg width="24" height="25" viewBox="0 0 24 25" fill="none" xmlns="http://www.w3.org/2000/svg">
<path d="M20.01 15.8912C18.78 15.8912 17.59 15.6912 16.48 15.3312C16.13 15.2112 15.74 15.3012 15.47 15.5712L13.9 17.5412C11.07 16.1912 8.42 13.6412 7.01 10.7112L8.96 9.05123C9.23 8.77123 9.31 8.38123 9.2 8.03123C8.83 6.92123 8.64 5.73123 8.64 4.50123C8.64 3.96123 8.19 3.51123 7.65 3.51123H4.19C3.65 3.51123 3 3.75123 3 4.50123C3 13.7912 10.73 21.5112 20.01 21.5112C20.72 21.5112 21 20.8812 21 20.3312V16.8812C21 16.3412 20.55 15.8912 20.01 15.8912Z" fill="#3C68B0"/>
</svg>
