<svg width="18" height="18" viewBox="0 0 18 18" fill="none" xmlns="http://www.w3.org/2000/svg">
<path fill-rule="evenodd" clip-rule="evenodd" d="M17.3816 1.66016H16.777V2.26479C16.777 2.93264 16.2356 3.47404 15.5678 3.47404C14.8999 3.47404 14.3585 2.93264 14.3585 2.26479V1.66016H12.5446V2.26479C12.5446 2.93264 12.0032 3.47404 11.3354 3.47404C10.6675 3.47404 10.1261 2.93264 10.1261 2.26479V1.66016H8.31221V2.26479C8.31221 2.93264 7.7708 3.47404 7.10295 3.47404C6.43509 3.47404 5.89369 2.93264 5.89369 2.26479V1.66016H4.0798V2.26479C4.0798 2.93264 3.5384 3.47404 2.87054 3.47404C2.20269 3.47404 1.66128 2.93264 1.66128 2.26479V1.66016H1.05666C0.722728 1.66016 0.452026 1.93086 0.452026 2.26479V4.6833H17.9863V2.26479C17.9863 1.93086 17.7156 1.66016 17.3816 1.66016Z" fill="#E10098"/>
<path fill-rule="evenodd" clip-rule="evenodd" d="M2.87056 2.87164C3.20449 2.87164 3.47519 2.60094 3.47519 2.26701V1.05775C3.47519 0.723827 3.20449 0.453125 2.87056 0.453125C2.53663 0.453125 2.26593 0.723827 2.26593 1.05775V2.26701C2.26593 2.60094 2.53663 2.87164 2.87056 2.87164Z" fill="#E10098"/>
<path fill-rule="evenodd" clip-rule="evenodd" d="M11.3354 2.87164C11.6693 2.87164 11.94 2.60094 11.94 2.26701V1.05775C11.94 0.723827 11.6693 0.453125 11.3354 0.453125C11.0015 0.453125 10.7308 0.723827 10.7308 1.05775V2.26701C10.7308 2.60094 11.0015 2.87164 11.3354 2.87164Z" fill="#E10098"/>
<path fill-rule="evenodd" clip-rule="evenodd" d="M7.10298 2.87164C7.43691 2.87164 7.70761 2.60094 7.70761 2.26701V1.05775C7.70761 0.723827 7.43691 0.453125 7.10298 0.453125C6.76905 0.453125 6.49835 0.723827 6.49835 1.05775V2.26701C6.49835 2.60094 6.76905 2.87164 7.10298 2.87164Z" fill="#E10098"/>
<path fill-rule="evenodd" clip-rule="evenodd" d="M15.5678 2.87164C15.9017 2.87164 16.1724 2.60094 16.1724 2.26701V1.05775C16.1724 0.723827 15.9017 0.453125 15.5678 0.453125C15.2338 0.453125 14.9631 0.723827 14.9631 1.05775V2.26701C14.9631 2.60094 15.2338 2.87164 15.5678 2.87164Z" fill="#E10098"/>
<path fill-rule="evenodd" clip-rule="evenodd" d="M14.0562 11.6378C14.0562 8.96639 11.8906 6.80078 9.21917 6.80078C6.54775 6.80078 4.38214 8.96639 4.38214 11.6378C4.38518 14.308 6.54902 16.4718 9.21917 16.4748C11.8906 16.4748 14.0562 14.3092 14.0562 11.6378ZM9.17812 9.03213C8.67315 9.03213 8.46519 8.78094 7.73208 8.78094C6.86006 8.78094 6.15068 9.45286 6.15068 10.2789C6.15068 10.7611 6.22945 11.2391 6.38492 11.6994L7.16046 13.9949C7.25826 14.2848 7.53698 14.4796 7.85427 14.4796C8.11421 14.4796 8.35471 14.3442 8.48184 14.1263L8.97527 13.2803C9.01342 13.2151 9.09301 13.173 9.17804 13.173C9.26306 13.173 9.34265 13.2151 9.38064 13.2801L9.8744 14.1265C10.0018 14.3443 10.2422 14.4796 10.5019 14.4796C10.8191 14.4796 11.0979 14.2848 11.1957 13.995L11.9712 11.6995C12.1266 11.2391 12.2055 10.7611 12.2055 10.2789C12.2055 9.45286 11.496 8.78094 10.6239 8.78094C9.89195 8.78094 9.68284 9.03213 9.17812 9.03213Z" fill="#E10098"/>
<path fill-rule="evenodd" clip-rule="evenodd" d="M0.452026 17.3816C0.452026 17.7156 0.722728 17.9863 1.05666 17.9863H17.3816C17.7156 17.9863 17.9863 17.7156 17.9863 17.3816V5.28906H0.452026V17.3816ZM9.21915 6.19601C12.2196 6.19601 14.6608 8.6372 14.6608 11.6377C14.6608 14.6381 12.2196 17.0793 9.21915 17.0793C6.21868 17.0793 3.77749 14.6381 3.77749 11.6377C3.77749 8.6372 6.21868 6.19601 9.21915 6.19601Z" fill="#E10098"/>
</svg>
