<svg width="101" height="32" viewBox="0 0 101 32" fill="none" xmlns="http://www.w3.org/2000/svg">
<g clip-path="url(#clip0_1152_78208)">
<path d="M2.97373 15.7311C1.36169 14.0357 0.555664 11.8632 0.555664 9.1579C0.555664 6.45263 1.38485 4.3264 3.04785 2.58001C4.68768 0.861427 6.80465 -0.000183105 9.35242 -0.000183105C13.6141 -0.000183105 16.4352 2.5059 17.4219 6.95292L13.7161 7.9118C13.0119 4.9286 11.4972 3.43699 9.20419 3.43699C7.81913 3.43699 6.70737 3.96971 5.82723 5.03051C4.94709 6.09131 4.49313 7.45784 4.49313 9.15326C4.49313 10.8487 4.94709 12.2152 5.82723 13.2482C6.70737 14.309 7.87008 14.8417 9.28294 14.8417C11.5528 14.8417 13.0119 13.6281 13.6697 11.2239L17.5516 11.8539C16.4445 16.1295 13.6697 18.2789 9.20882 18.2789C6.66105 18.2789 4.59504 17.4173 2.98299 15.7265L2.97373 15.7311Z" fill="white"/>
<path d="M19.4834 17.9316V0.35199H32.0879V3.61314H23.2402V7.43016H30.4759V10.6913H23.2402V14.6612H32.213V17.9223H19.4834V17.9316Z" fill="white"/>
<path d="M33.8809 17.9317V0.352051H37.6377L45.5265 12.1644V0.352051H49.1582V17.9317H45.3783L37.5126 6.14707V17.9317H33.8809Z" fill="white"/>
<path d="M56.2638 17.9316V3.7938H50.8672V0.35199H65.3895V3.7938H60.0206V17.9316H56.2638Z" fill="white"/>
<path d="M81.904 14.3926V17.8853C81.6029 17.9873 81.2462 18.0382 80.82 18.0382C79.2312 18.0382 77.8971 17.6584 76.8131 16.8755C75.7291 16.1158 74.6961 14.6752 73.765 12.5489L73.2369 11.4603H70.8652V17.9363H67.1084V0.352051H74.9741C76.864 0.352051 78.402 0.856973 79.5647 1.84365C80.7228 2.83034 81.3064 4.19687 81.3064 5.93862C81.3064 8.59293 79.7917 10.3903 77.1698 10.923C78.6058 13.6792 79.7917 14.4621 81.2786 14.4621C81.5288 14.4621 81.7326 14.4343 81.9086 14.388L81.904 14.3926ZM70.8606 3.61783V8.22235H74.5664C76.4332 8.22235 77.3643 7.46265 77.3643 5.92009C77.3643 4.37753 76.4054 3.61783 74.5155 3.61783H70.8606Z" fill="white"/>
<path d="M91.8814 18.2837C89.2827 18.2837 87.1148 17.4221 85.4286 15.7035C83.7378 13.9849 82.8809 11.8077 82.8809 9.15338C82.8809 6.49906 83.7378 4.32188 85.4286 2.5755C87.1194 0.85691 89.2873 -0.00469971 91.8814 -0.00469971C94.4755 -0.00469971 96.6481 0.85691 98.3342 2.5755C100.025 4.32188 100.882 6.49443 100.882 9.15338C100.882 11.8123 100.025 13.9849 98.3342 15.7035C96.6435 17.4221 94.4755 18.2837 91.8814 18.2837ZM95.541 13.2761C96.4721 12.2385 96.9538 10.8488 96.9538 9.15338C96.9538 7.45795 96.4767 6.06826 95.541 5.00746C94.6099 3.96982 93.373 3.43711 91.8861 3.43711C90.3991 3.43711 89.1901 3.96982 88.2543 5.00746C87.3232 6.06826 86.8415 7.46258 86.8415 9.15338C86.8415 10.8442 87.3186 12.2385 88.2543 13.2761C89.1854 14.3138 90.3991 14.8465 91.8861 14.8465C93.373 14.8465 94.6099 14.3138 95.541 13.2761Z" fill="white"/>
<path d="M0.5 31.773V20.4609H4.94239C7.00376 20.4609 8.8011 21.2762 9.92212 23.0319C10.4919 23.912 10.7652 24.9358 10.7652 26.1263C10.7652 28.4887 9.51448 30.3092 7.78199 31.1384C6.92038 31.56 5.96613 31.773 4.94239 31.773H0.5ZM2.91807 29.5588H4.68761C5.71135 29.5588 6.55443 29.2809 7.23538 28.7111C7.91633 28.1552 8.25912 27.2936 8.25912 26.1077C8.25912 24.9219 7.91633 24.0741 7.23538 23.5044C6.55443 22.9485 5.71135 22.6752 4.68761 22.6752H2.91807V29.5588Z" fill="white"/>
<path d="M12.1826 31.773V20.4609H20.2938V22.5594H14.6007V25.0191H19.2562V27.1176H14.6007V29.6746H20.3772V31.773H12.1872H12.1826Z" fill="white"/>
<path d="M25.7597 31.0225C24.8981 30.3879 24.4766 29.5402 24.4766 28.5165C24.4766 28.0764 24.5599 27.6039 24.7035 27.1314L27.0243 27.6687C26.941 27.8818 26.8946 28.1412 26.8946 28.4192C26.8946 29.3966 27.8674 30.0127 29.359 30.0127C30.707 30.0127 31.5316 29.4753 31.5316 28.5813C31.5316 27.8957 31.0267 27.4603 30.0075 27.2611L28.5159 27.0017C25.9033 26.5477 24.7545 25.4545 24.7545 23.634C24.7545 22.6566 25.1436 21.8413 25.9404 21.1928C26.7186 20.5581 27.7562 20.2339 29.0533 20.2339C32.0226 20.2339 33.5605 21.5865 33.7412 24.0602L31.3555 24.352C31.1749 22.9345 30.3828 22.2211 28.9699 22.2211C27.9137 22.2211 27.1679 22.7261 27.1679 23.5089C27.1679 24.2084 27.7516 24.667 28.9375 24.8755L30.4291 25.1349C32.8935 25.5749 33.9311 26.6172 33.9311 28.359C33.9311 29.4476 33.5096 30.3277 32.6665 30.9947C31.8049 31.6618 30.6885 32.0046 29.3081 32.0046C27.7979 32.0046 26.6167 31.6803 25.7551 31.0272L25.7597 31.0225Z" fill="white"/>
<path d="M35.3301 31.773V20.4609H43.4413V22.5594H37.7481V25.0191H42.4036V27.1176H37.7481V29.6746H43.5246V31.773H35.3347H35.3301Z" fill="white"/>
<path d="M45.8599 30.3556C44.8362 29.267 44.3174 27.8634 44.3174 26.1217C44.3174 24.3799 44.8686 23.0134 45.9572 21.8877C47.0458 20.7806 48.4216 20.2294 50.0939 20.2294C52.8177 20.2294 54.6845 21.582 55.2218 23.9399L52.7713 24.5745C52.4286 23.1431 51.4233 22.3927 50.0151 22.3927C49.0887 22.3927 48.3429 22.7355 47.7453 23.4349C47.1431 24.1344 46.8513 25.0284 46.8513 26.1217C46.8513 27.2797 47.1755 28.1877 47.8101 28.8547C48.4448 29.5218 49.2369 29.8646 50.2097 29.8646C51.8819 29.8646 53.1466 28.9196 53.3411 27.4233H50.1309V25.5009H55.6804V31.7685H53.4894V29.9943C52.7899 31.3284 51.5577 31.9954 49.7742 31.9954C48.1854 31.9954 46.8883 31.4396 45.8646 30.351L45.8599 30.3556Z" fill="white"/>
<path d="M62.2438 32C60.6688 32 59.4691 31.5924 58.6445 30.7632C57.8014 29.934 57.3799 28.762 57.3799 27.2473V20.4609H59.7979V26.974C59.7979 28.7991 60.641 29.7904 62.2484 29.7904C63.8559 29.7904 64.6989 28.7991 64.6989 26.974V20.4609H67.117V27.2473C67.117 28.7759 66.6955 29.9479 65.8663 30.7632C65.0232 31.5924 63.8234 32 62.2484 32H62.2438Z" fill="white"/>
<path d="M78.4388 29.4939V31.7406C78.2443 31.8055 78.0173 31.8379 77.7393 31.8379C76.7156 31.8379 75.8586 31.5924 75.1591 31.0875C74.4597 30.6011 73.7972 29.67 73.195 28.3034L72.8523 27.604H71.3282V31.773H68.9102V20.4609H73.9733C75.1916 20.4609 76.1783 20.7852 76.9241 21.4198C77.6699 22.0545 78.0451 22.9346 78.0451 24.0556C78.0451 25.7649 77.0723 26.923 75.3861 27.2612C76.3126 29.0353 77.0723 29.5403 78.0312 29.5403C78.1933 29.5403 78.323 29.5217 78.4388 29.4893V29.4939ZM71.3329 22.5594V25.5241H73.7185C74.9183 25.5241 75.5205 25.0377 75.5205 24.0417C75.5205 23.0458 74.9044 22.5594 73.6861 22.5594H71.3329Z" fill="white"/>
<path d="M84.8636 32C83.1914 32 81.797 31.4441 80.7131 30.337C79.6245 29.2299 79.0732 27.8309 79.0732 26.1216C79.0732 24.4123 79.6245 23.0133 80.7131 21.8877C81.8017 20.7806 83.196 20.2293 84.8636 20.2293C86.5313 20.2293 87.9302 20.7852 89.0142 21.8877C90.1028 23.0087 90.654 24.4123 90.654 26.1216C90.654 27.8309 90.1028 29.2299 89.0142 30.337C87.9256 31.4441 86.5313 32 84.8636 32ZM87.2122 28.7759C87.8144 28.1089 88.1201 27.2148 88.1201 26.1216C88.1201 25.0284 87.8144 24.1343 87.2122 23.4534C86.61 22.7863 85.8179 22.4436 84.859 22.4436C83.9001 22.4436 83.1219 22.7863 82.5243 23.4534C81.9221 24.139 81.6164 25.033 81.6164 26.1216C81.6164 27.2102 81.9268 28.1089 82.5243 28.7759C83.1219 29.443 83.9047 29.7858 84.859 29.7858C85.8133 29.7858 86.61 29.443 87.2122 28.7759Z" fill="white"/>
<path d="M92.7617 31.0225C91.9001 30.3878 91.4785 29.5401 91.4785 28.5164C91.4785 28.0763 91.5619 27.6038 91.7055 27.1313L94.0263 27.6687C93.9429 27.8818 93.8966 28.1412 93.8966 28.4191C93.8966 29.3965 94.8694 30.0126 96.361 30.0126C97.709 30.0126 98.5335 29.4753 98.5335 28.5812C98.5335 27.8957 98.0286 27.4602 97.0095 27.261L95.5179 27.0016C92.9053 26.5477 91.7565 25.4544 91.7565 23.6339C91.7565 22.6565 92.1456 21.8412 92.9423 21.1927C93.7206 20.5581 94.7582 20.2338 96.0552 20.2338C99.0246 20.2338 100.562 21.5865 100.743 24.0601L98.3575 24.3519C98.1768 22.9345 97.3847 22.2211 95.9719 22.2211C94.9157 22.2211 94.1699 22.726 94.1699 23.5089C94.1699 24.2083 94.7536 24.6669 95.9394 24.8754L97.431 25.1348C99.8954 25.5749 100.933 26.6171 100.933 28.3589C100.933 29.4475 100.512 30.3276 99.6684 30.9947C98.8068 31.6617 97.6904 32.0045 96.31 32.0045C94.7999 32.0045 93.6186 31.6803 92.757 31.0271L92.7617 31.0225Z" fill="white"/>
</g>
<defs>
<clipPath id="clip0_1152_78208">
<rect width="100.438" height="32" fill="white" transform="translate(0.5)"/>
</clipPath>
</defs>
</svg>
