<svg width="55" height="45" viewBox="0 0 55 45" fill="none" xmlns="http://www.w3.org/2000/svg">
<path d="M45.5704 40.704L47.0824 34.32L43.5264 40.746L45.5704 40.704Z" fill="#E6E6E6"/>
<path d="M21.4912 11.094V21.328C21.4912 25.444 28.9672 28.79 28.9672 28.79C28.9672 28.79 36.4432 25.458 36.4432 21.328V11.094L28.9672 8.70004L21.4912 11.094Z" fill="#E6E6E6"/>
<path d="M28.9669 28.846H28.9389C28.9249 28.846 27.0489 27.992 25.1869 26.648C23.4649 25.402 21.4209 23.47 21.4209 21.314V11.08C21.4209 11.08 21.4489 11.024 21.4769 11.01L28.9529 8.61602C28.9529 8.61602 28.9809 8.61602 28.9949 8.61602L36.4709 11.01C36.4709 11.01 36.5269 11.052 36.5269 11.08V21.314C36.5269 23.47 34.4829 25.402 32.7609 26.648C30.9129 27.992 29.0369 28.832 29.0089 28.846C29.0089 28.846 28.9949 28.846 28.9809 28.846H28.9669ZM21.5609 11.15V21.328C21.5609 25.22 28.4349 28.454 28.9529 28.706C29.4709 28.468 36.3449 25.22 36.3449 21.328V11.15L28.9529 8.77002L21.5609 11.15Z" fill="#E6E6E6"/>
<path d="M22.7512 20.236L22.9472 20.936L23.0312 21.272L23.1152 21.636L22.5412 21.496L21.8972 20.936L21.7012 20.166L21.7432 18.094C21.7432 18.094 22.2192 16.19 24.4172 15.728C25.8732 15.588 27.4132 16.484 27.7212 18.178C27.7912 18.64 27.7212 19.186 27.7212 19.13C27.7212 19.074 27.6512 18.864 27.2732 18.724C26.8952 18.584 25.4532 17.954 25.5512 18.374C25.5652 18.682 25.3552 18.71 24.8372 18.668C24.3192 18.626 23.7312 18.136 23.7312 18.136C23.7312 18.136 23.6332 19.172 22.8772 19.2C22.5272 19.116 22.2192 19.438 22.2332 19.718C22.2472 19.998 22.5972 20.264 22.7652 20.236H22.7512Z" fill="white"/>
<path d="M28.9668 37.204L28.7848 37.12C28.2248 36.868 15.1348 30.932 15.1348 23.358V4.724L28.9668 0.285999L29.1068 0.328L42.7988 4.724V23.372C42.7988 30.946 29.7088 36.882 29.1488 37.134L28.9668 37.218V37.204ZM16.0308 5.368V23.358C16.0308 29.91 27.3848 35.482 28.9668 36.224C30.5488 35.482 41.9028 29.91 41.9028 23.358V5.368L28.9668 1.21L16.0308 5.368Z" fill="#E10098"/>
<path d="M35.2236 15.882L35.6016 17.016C35.6016 17.016 35.5316 18.01 34.7476 18.094C33.9636 18.178 33.0536 18.654 33.2076 16.848C34.4116 16.666 35.2236 15.882 35.2236 15.882Z" fill="white"/>
<path d="M18.6077 26.074L16.9137 27.908L15.7517 27.852L15.3877 25.878L16.2697 24.716L17.1517 24.702L17.9357 24.884L18.6077 26.074Z" fill="white"/>
<path d="M30.6326 24.94L30.5766 24.436L29.4846 23.918L28.8826 23.834L28.3506 25.248L28.8266 25.304L30.6326 24.94Z" fill="white"/>
<path d="M24.934 33.816L24.584 33.928L25.312 36.406L27.202 36.504L26.628 33.466L24.934 33.816Z" fill="white"/>
<path d="M23.605 21.678L23.017 23.05L22.583 23.652L24.403 24.828L25.369 24.478L25.467 22.294L23.661 21.692L23.605 21.678Z" fill="white"/>
<path d="M41.7618 12.256L42.0978 12.942L42.3358 13.852L42.8538 14.188H43.1198L43.0498 17.422H41.2158L41.7618 12.256Z" fill="white"/>
<path d="M41.707 21.888L43.121 22.714L41.665 23.316L41.707 21.888Z" fill="white"/>
<path d="M36.7656 30.862L37.8716 31.968L38.6976 29.546L38.3896 29.322L36.7656 30.862Z" fill="white"/>
<path d="M23.8301 33.074L24.0121 34.04L24.7541 33.942L24.6841 32.64L23.8301 33.074Z" fill="white"/>
<path d="M16.9544 12.102L14.8544 11.542L13.7764 12.592L14.0424 25.066L15.1204 27.026L15.4144 27.25L16.1984 26.354L16.3664 24.926L16.3104 24.058V22.448L16.9544 12.102Z" fill="white"/>
<path d="M48.5801 32.514C48.5801 32.514 52.2201 34.81 52.5981 35.818C52.9761 36.826 52.7241 38.282 52.1781 38.618C51.6321 38.954 51.9681 39.794 49.7701 39.696C49.2941 39.682 51.1841 37.106 51.1841 36.532C51.1841 35.958 48.5941 32.514 48.5941 32.514H48.5801Z" fill="#E6E6E6"/>
<path d="M18.5928 16.5681L18.2428 18.1921C17.9208 19.6341 16.5068 20.6141 15.0648 20.2781C13.4968 19.9141 12.5028 18.3461 12.8528 16.7641H12.7688C12.4468 16.6801 12.2508 16.3581 12.3208 16.0501C12.3908 15.7281 12.6988 15.5321 13.0208 15.6021L13.1608 15.6301C13.1608 15.6301 13.5668 15.4481 13.7488 15.0281C14.1968 15.3221 16.3668 16.1481 18.0328 16.0361" fill="white"/>
<path d="M15.6381 20.46C15.4421 20.46 15.2461 20.432 15.0361 20.39C13.4541 20.012 12.4321 18.444 12.7261 16.848C12.3621 16.764 12.1381 16.4 12.2081 16.022C12.2501 15.84 12.3481 15.686 12.5161 15.588C12.6841 15.49 12.8521 15.462 13.0341 15.49L13.1321 15.518C13.2161 15.476 13.5101 15.294 13.6501 14.986C13.6501 14.958 13.6921 14.944 13.7201 14.93C13.7481 14.916 13.7761 14.93 13.8041 14.93C14.2241 15.196 16.3661 16.036 18.0181 15.924C18.0741 15.924 18.1161 15.966 18.1301 16.022C18.1301 16.078 18.0881 16.12 18.0321 16.134C16.4081 16.232 14.3921 15.49 13.7901 15.168C13.5801 15.546 13.2161 15.714 13.1881 15.714C13.1741 15.714 13.1461 15.714 13.1181 15.714L12.9781 15.686C12.8521 15.658 12.7261 15.686 12.6141 15.756C12.5021 15.826 12.4321 15.938 12.4041 16.064C12.3761 16.19 12.4041 16.316 12.4741 16.428C12.5441 16.54 12.6561 16.61 12.7821 16.638H12.8661C12.8661 16.638 12.9501 16.722 12.9501 16.778C12.6141 18.29 13.5801 19.816 15.0921 20.18C15.7361 20.334 16.3941 20.208 16.9681 19.858C17.5701 19.48 18.0041 18.864 18.1441 18.178L18.4941 16.554C18.4941 16.554 18.5641 16.47 18.6201 16.484C18.6761 16.484 18.7041 16.554 18.7041 16.61L18.3541 18.234C18.1861 18.976 17.7241 19.648 17.0801 20.054C16.6461 20.334 16.1421 20.474 15.6521 20.474L15.6381 20.46Z" fill="#081017"/>
<path d="M35.9521 30.302C35.9521 30.302 38.7382 27.068 39.0742 26.186C39.4102 25.304 39.0742 24.534 39.0742 24.534L38.7382 24.73C38.7382 24.73 36.1621 29.728 35.9521 30.288V30.302Z" fill="#E6E6E6"/>
<path d="M2.11448 38.94C2.11448 38.94 2.05848 38.534 2.46448 38.03C2.87048 37.526 3.82248 36.714 3.82248 36.714C3.82248 36.714 5.04048 35.776 4.97048 35.776C4.90048 35.776 4.66248 35.622 4.66248 35.622C4.66248 35.622 3.10848 36.882 2.87048 37.064C2.63248 37.246 2.08648 37.75 1.91848 38.058C1.75048 38.366 1.83448 39.01 1.83448 39.01L2.12848 38.954L2.11448 38.94Z" fill="#E10098"/>
<path d="M27.3571 18.752C26.2651 18.276 25.3971 18.052 25.5371 18.444C25.6771 18.836 24.6411 18.892 23.7311 18.122C23.6191 19.158 22.8491 19.186 22.8491 19.186H22.7231C22.4431 19.186 22.2051 19.424 22.2051 19.704C22.2051 19.984 22.4431 20.222 22.7231 20.222H22.7931C22.7931 21.65 23.9411 22.812 25.3551 22.826C26.6571 22.84 27.6931 21.734 27.6931 20.432V18.962" fill="white"/>
<path d="M25.3688 22.91C23.9408 22.882 22.7648 21.734 22.7228 20.306C22.4008 20.306 22.1348 20.026 22.1348 19.704C22.1348 19.382 22.4008 19.102 22.7368 19.102H22.8628C22.8628 19.102 23.5488 19.06 23.6468 18.122C23.6468 18.094 23.6748 18.066 23.7028 18.052C23.7308 18.052 23.7728 18.052 23.7868 18.066C24.5008 18.654 25.2288 18.724 25.4248 18.584C25.4668 18.556 25.4668 18.528 25.4528 18.472C25.4108 18.346 25.4528 18.262 25.4948 18.22C25.5648 18.164 25.7608 17.968 27.3988 18.668C27.4408 18.682 27.4688 18.738 27.4408 18.78C27.4268 18.822 27.3708 18.85 27.3288 18.822C26.1248 18.304 25.6908 18.276 25.6208 18.346C25.6208 18.346 25.6208 18.374 25.6208 18.402C25.6628 18.528 25.6208 18.64 25.5228 18.71C25.2288 18.92 24.4728 18.78 23.7868 18.276C23.6048 19.214 22.8488 19.256 22.8488 19.256H22.7228C22.4848 19.256 22.2888 19.452 22.2888 19.69C22.2888 19.928 22.4848 20.124 22.7228 20.124H22.7928C22.7928 20.124 22.8768 20.166 22.8768 20.208C22.8768 21.58 23.9828 22.7 25.3548 22.728C25.9288 22.728 26.4748 22.518 26.8948 22.098C27.3428 21.664 27.5948 21.048 27.5948 20.432V18.962C27.5948 18.962 27.6368 18.878 27.6788 18.878C27.7208 18.878 27.7628 18.92 27.7628 18.962V20.432C27.7628 21.104 27.4828 21.762 27.0068 22.224C26.5588 22.658 25.9848 22.91 25.3688 22.91Z" fill="#081017"/>
<path d="M47.7422 38.688C47.7422 38.688 48.8762 39.332 50.1082 40.648C50.4722 41.04 51.3682 42.594 51.3682 42.594L51.4102 42.762C51.4102 42.762 51.7322 42.496 51.4802 42.048C51.2282 41.6 49.9822 40.116 49.9822 40.116C49.9822 40.116 49.1702 38.856 48.8902 38.758C48.6102 38.66 48.0502 38.548 47.9522 38.576C47.8542 38.604 47.7422 38.674 47.7422 38.674V38.688Z" fill="#E10098"/>
<path d="M38.9486 43.504C38.9486 43.504 39.3826 43.952 40.0406 43.938C41.0486 43.924 43.7226 43.35 44.1146 43.182C44.7586 42.916 45.1786 42.594 45.1786 42.594L45.1086 42.104C45.1086 42.104 42.7006 43.546 38.9346 43.49L38.9486 43.504Z" fill="#E10098"/>
<path d="M45.2764 21.342L45.3604 21.118L47.3064 19.858C47.3064 19.858 47.2224 20.558 47.2784 20.894C47.3344 21.23 47.7264 21.958 47.7264 21.958C47.7264 21.958 47.5864 22.434 47.1664 22.882C46.7464 23.33 45.3044 21.622 45.2764 21.342Z" fill="white"/>
<path d="M40.3778 19.844L42.8558 21.804L42.9398 25.248L40.3498 29.854L39.0898 28.734L40.3778 19.844Z" fill="white"/>
<path d="M40.2374 44.036C39.0474 44.036 38.8654 43.644 38.7954 43.266V43.21C38.7254 42.958 39.2434 42.65 40.0834 42.146C40.3214 42.006 40.5454 41.866 40.7414 41.74C41.4134 41.306 41.8334 40.536 41.8334 40.522C41.8614 40.48 41.9034 40.466 41.9454 40.48C42.9394 40.914 45.1234 40.634 45.1514 40.62C45.1794 40.62 45.2074 40.62 45.2214 40.634C45.2354 40.648 45.2494 40.676 45.2494 40.704L45.2774 42.594C45.2774 42.594 45.2774 42.608 45.2774 42.622C45.2774 42.664 45.1654 42.93 44.3394 43.224C43.6394 43.49 41.9034 43.98 40.3634 44.022C40.3214 44.022 40.2794 44.022 40.2374 44.022V44.036ZM41.9454 40.69C41.8194 40.9 41.4274 41.516 40.8254 41.894C40.6294 42.02 40.4054 42.16 40.1674 42.3C39.7334 42.552 38.9354 43.028 38.9494 43.168V43.224C39.0194 43.49 39.0894 43.882 40.3494 43.854C41.8614 43.826 43.5694 43.322 44.2694 43.07C44.9274 42.832 45.0674 42.636 45.0954 42.594L45.0674 40.83C44.6334 40.886 42.8974 41.054 41.9454 40.69Z" fill="#081017"/>
<path d="M44.3394 40.858C43.4294 40.858 42.1974 40.788 41.4974 40.438C41.4554 40.424 41.4414 40.382 41.4554 40.34C41.7214 38.954 42.9114 32.206 42.9254 32.15C42.9254 32.108 42.9814 32.066 43.0234 32.08C43.0654 32.08 43.1074 32.136 43.0934 32.178C43.0934 32.248 41.9314 38.786 41.6374 40.312C42.7154 40.788 45.0254 40.676 45.4454 40.648L47.0134 34.334C47.0134 34.334 47.0694 34.264 47.1254 34.264C47.1674 34.264 47.1954 34.32 47.1954 34.376L45.6134 40.76C45.6134 40.76 45.5714 40.83 45.5294 40.83C45.4874 40.83 44.9834 40.872 44.3394 40.872V40.858Z" fill="#081017"/>
<path d="M50.3456 39.836C49.9956 39.836 49.7576 39.78 49.7436 39.78C49.7296 39.78 49.7156 39.78 49.7016 39.766L48.8616 38.996C48.6096 38.758 48.2876 38.66 47.9376 38.688L47.4196 38.87C47.4196 38.87 47.3496 38.87 47.3216 38.856L46.2296 37.792C46.2296 37.792 46.1876 37.708 46.2296 37.666C46.2576 37.624 46.3136 37.624 46.3556 37.666L47.4056 38.688L47.8956 38.52C48.3016 38.478 48.6936 38.604 48.9736 38.87L49.7996 39.626C49.9816 39.668 51.1996 39.892 51.8436 38.982C52.5856 37.932 53.2156 36.714 52.3336 35.594C51.4096 34.432 48.6096 32.5 48.5816 32.486L47.9236 32.192C47.9236 32.192 47.8536 32.122 47.8816 32.08C47.8956 32.038 47.9516 32.01 47.9936 32.038L48.6656 32.346C48.7916 32.43 51.5216 34.32 52.4596 35.496C53.4256 36.7 52.7536 37.988 51.9696 39.094C51.5216 39.724 50.8216 39.864 50.3176 39.864L50.3456 39.836Z" fill="#081017"/>
<path d="M42.9675 30.666C42.9675 30.666 42.8835 30.638 42.8835 30.596L42.5895 29.154L42.0715 29.784C42.0715 29.784 42.0015 29.826 41.9595 29.812L38.9495 28.23C38.9495 28.23 38.8935 28.16 38.9075 28.104C38.9775 27.964 40.7415 24.562 41.3995 23.596C42.0995 22.588 43.7515 22.574 44.1855 22.742C44.2135 22.756 44.2415 22.798 44.2415 22.826C44.2135 23.414 44.3395 23.834 44.6195 24.1C44.9695 24.422 45.5015 24.422 45.7815 24.38C46.8735 24.268 47.5735 22.686 47.6855 22.056C47.6855 22.014 47.7275 21.986 47.7695 21.986C50.8215 21.762 52.8655 24.338 52.8935 24.352L54.5455 27.894C54.5455 27.894 54.5455 27.936 54.5455 27.964C54.5455 27.992 54.5175 28.006 54.4895 28.02L50.6955 29.476C50.6955 29.476 50.5975 29.476 50.5835 29.434L49.0995 26.214C49.0995 26.214 49.0995 26.116 49.1415 26.102C49.1835 26.088 49.2395 26.102 49.2535 26.144L50.7095 29.294L54.3355 27.894L52.7395 24.45C52.7395 24.45 50.7655 21.986 47.8535 22.154C47.6855 22.952 46.9295 24.436 45.8095 24.562C45.5015 24.604 44.9135 24.618 44.5075 24.24C44.1995 23.96 44.0455 23.498 44.0735 22.896C43.6395 22.784 42.1695 22.826 41.5675 23.708C40.9655 24.59 39.3975 27.586 39.1175 28.118L41.9875 29.63L42.5475 28.944L41.9175 25.934C41.9175 25.934 41.9315 25.836 41.9875 25.822C42.0295 25.822 42.0855 25.836 42.0995 25.892L42.7435 28.944C42.7435 28.944 42.7435 28.958 42.7435 28.972L43.0795 30.568C43.0795 30.568 43.0655 30.666 43.0095 30.68C43.0095 30.68 43.0095 30.68 42.9955 30.68L42.9675 30.666Z" fill="#081017"/>
<path d="M47.7683 22.154C47.7683 22.154 47.7123 22.154 47.6983 22.112C47.6843 22.084 47.2503 21.51 47.2503 20.936C47.2503 20.404 47.1943 20.11 47.1943 20.096C47.1943 20.054 47.2223 19.998 47.2643 19.998C47.3203 19.998 47.3623 20.026 47.3623 20.068C47.3623 20.068 47.4183 20.39 47.4183 20.936C47.4183 21.44 47.8243 22 47.8243 22.014C47.8523 22.056 47.8383 22.112 47.8103 22.14C47.7963 22.14 47.7823 22.154 47.7543 22.154H47.7683Z" fill="#081017"/>
<path d="M52.8506 36.462C52.8506 36.462 52.7666 36.42 52.7666 36.378L52.8226 33.858C52.8226 33.858 52.8646 33.774 52.9066 33.774C52.9066 33.774 52.9906 33.816 52.9906 33.858L52.9346 36.378C52.9346 36.378 52.8926 36.462 52.8506 36.462Z" fill="#081017"/>
<path d="M38.584 35.944C38.584 35.944 38.5 35.916 38.5 35.874C38.5 35.832 38.528 35.776 38.57 35.776L42.476 35.006C42.476 35.006 42.574 35.034 42.574 35.076C42.574 35.118 42.546 35.174 42.504 35.174L38.598 35.944C38.598 35.944 38.598 35.944 38.584 35.944Z" fill="#081017"/>
<path d="M35.7158 36.378C35.7158 36.378 33.5318 37.162 33.5738 38.59C33.6018 39.724 33.8958 40.284 34.5258 40.62" fill="white"/>
<path d="M34.5259 40.718C34.5259 40.718 34.4979 40.718 34.4839 40.718C33.7979 40.368 33.5179 39.752 33.4899 38.604C33.4479 37.12 35.6039 36.336 35.6879 36.308C35.7299 36.294 35.7859 36.308 35.7999 36.364C35.8139 36.406 35.7999 36.462 35.7439 36.476C35.7159 36.476 33.6159 37.246 33.6579 38.604C33.6859 39.682 33.9379 40.242 34.5679 40.564C34.6099 40.592 34.6239 40.634 34.6099 40.69C34.5959 40.718 34.5679 40.732 34.5259 40.732V40.718Z" fill="#081017"/>
<path d="M41.2171 41.516L36.2891 41.278C36.2891 41.278 36.2051 41.236 36.2051 41.18C36.2051 41.124 36.2471 41.096 36.3031 41.096L41.2311 41.334C41.2311 41.334 41.3151 41.376 41.3151 41.432C41.3151 41.474 41.2731 41.516 41.2311 41.516H41.2171Z" fill="#081017"/>
<path d="M42.029 37.652L38.249 37.33C38.249 37.33 38.165 37.288 38.165 37.232C38.165 37.19 38.221 37.148 38.263 37.148L42.043 37.47C42.043 37.47 42.127 37.512 42.127 37.568C42.127 37.61 42.085 37.652 42.043 37.652H42.029Z" fill="#081017"/>
<path d="M51.0317 43.154C51.0317 43.154 51.0037 43.154 50.9757 43.154C50.6817 43.126 48.2177 41.614 47.4897 41.166L47.3637 41.712C47.3637 41.712 47.3217 41.782 47.2797 41.782H45.3057C45.3057 41.782 45.2217 41.74 45.2217 41.698C45.2217 41.656 45.2637 41.614 45.3057 41.614H47.2097L47.3497 41.012C47.3497 41.012 47.3777 40.956 47.4057 40.956C47.4337 40.956 47.4617 40.956 47.4897 40.956C48.7357 41.726 50.7937 42.958 51.0037 42.972C51.1297 42.972 51.2697 42.93 51.3817 42.818C51.4797 42.72 51.5357 42.594 51.5217 42.496C51.5217 42.44 51.4937 42.314 51.3957 42.104C51.2697 41.796 51.0877 41.516 50.8777 41.264C50.4577 40.774 49.4357 39.584 49.1137 39.178C48.6937 38.674 48.3437 38.534 47.9097 38.688C47.3637 38.954 46.1177 39.136 46.0617 39.15C46.0057 39.15 45.9637 39.122 45.9637 39.08C45.9637 39.038 45.9917 38.982 46.0337 38.982C46.0337 38.982 47.3077 38.8 47.8257 38.534C48.3437 38.338 48.7777 38.506 49.2397 39.08C49.5617 39.472 50.5837 40.662 51.0037 41.166C51.2417 41.432 51.4237 41.74 51.5497 42.062C51.6337 42.258 51.6757 42.398 51.6897 42.51C51.7037 42.678 51.6337 42.846 51.5077 42.986C51.3817 43.126 51.1997 43.196 51.0457 43.196L51.0317 43.154Z" fill="#081017"/>
<path d="M46.8164 38.954C46.8164 38.954 47.3064 38.94 47.4324 41.026L46.8164 38.954Z" fill="white"/>
<path d="M47.4324 41.11C47.4324 41.11 47.3484 41.068 47.3484 41.026C47.2364 39.108 46.8164 39.038 46.8164 39.038C46.7604 39.038 46.7324 38.996 46.7324 38.954C46.7324 38.912 46.7744 38.87 46.8164 38.856C46.9144 38.856 47.4044 38.94 47.5304 41.012C47.5304 41.068 47.5024 41.11 47.4464 41.11H47.4324Z" fill="#081017"/>
<path d="M32.4801 36.77L34.2161 32.066L35.2801 29.966L33.3621 28.776C33.3621 28.776 32.3261 30.848 32.1441 31.604C31.9621 32.36 31.4721 34.404 31.4721 34.404C31.4721 34.404 29.2881 34.124 29.1341 34.222C28.9801 34.32 28.5881 34.684 28.8961 35.006C29.2041 35.328 31.9061 36.798 32.4801 36.77Z" fill="white"/>
<path d="M32.4668 36.868C31.7948 36.868 29.1208 35.384 28.8268 35.076C28.7148 34.964 28.6728 34.824 28.7008 34.684C28.7428 34.418 28.9948 34.208 29.0928 34.152C29.2468 34.068 30.5768 34.208 31.4168 34.306C31.5008 33.928 31.9068 32.262 32.0608 31.59C32.2428 30.834 33.2368 28.832 33.2788 28.748C33.2788 28.72 33.3068 28.706 33.3348 28.706C33.3628 28.706 33.3908 28.706 33.4048 28.706L35.3228 29.896C35.3228 29.896 35.3788 29.966 35.3508 30.008L34.2868 32.108L32.5648 36.812C32.5648 36.812 32.5228 36.868 32.4808 36.868C32.4808 36.868 32.4808 36.868 32.4528 36.868H32.4668ZM29.3168 34.292C29.3168 34.292 29.2048 34.292 29.1908 34.292C29.1068 34.348 28.9108 34.516 28.8828 34.698C28.8828 34.782 28.8968 34.866 28.9668 34.95C29.2608 35.272 31.7948 36.616 32.4248 36.686L34.1328 32.038L35.1688 30.008L33.4048 28.916C33.2088 29.322 32.3968 30.988 32.2428 31.632C32.0608 32.388 31.5708 34.432 31.5708 34.432C31.5708 34.474 31.5148 34.502 31.4728 34.502C30.6048 34.39 29.6668 34.306 29.3168 34.306V34.292Z" fill="#081017"/>
<path d="M32.5528 36.392C32.5528 36.392 29.5147 34.5299 29.2487 34.4599L28.9688 34.4039" fill="white"/>
<path d="M32.5514 36.476C32.5514 36.476 32.5234 36.476 32.5094 36.476C31.3474 35.762 29.4154 34.6 29.2334 34.558L28.9534 34.502C28.9534 34.502 28.8694 34.446 28.8834 34.39C28.8834 34.348 28.9394 34.306 28.9954 34.32L29.2754 34.376C29.5554 34.432 32.2994 36.126 32.6074 36.322C32.6494 36.35 32.6634 36.406 32.6354 36.448C32.6214 36.476 32.5934 36.49 32.5654 36.49L32.5514 36.476Z" fill="#081017"/>
<path d="M32.97 35.412C32.97 35.412 32.634 34.488 31.542 34.404L32.97 35.412Z" fill="white"/>
<path d="M32.9703 35.496C32.9703 35.496 32.9003 35.468 32.8863 35.44C32.8863 35.398 32.5503 34.572 31.5283 34.488C31.4863 34.488 31.4443 34.446 31.4443 34.39C31.4443 34.348 31.4863 34.306 31.5423 34.306C32.6763 34.404 33.0403 35.328 33.0543 35.37C33.0683 35.412 33.0543 35.468 32.9983 35.482C32.9983 35.482 32.9843 35.482 32.9703 35.482V35.496Z" fill="#081017"/>
<path d="M36.0087 30.456C36.0087 30.456 35.9807 30.456 35.9667 30.456L33.0547 28.636C33.0547 28.636 33.0127 28.594 33.0127 28.58C33.0127 28.552 33.0127 28.524 33.0407 28.51L34.0207 27.404C34.0207 27.404 33.9787 27.376 33.9647 27.348L33.3907 25.5C33.3907 25.5 33.3907 25.444 33.4047 25.416C33.4187 25.388 33.4467 25.374 33.4747 25.388C33.5167 25.388 37.4927 25.71 39.0327 24.408C39.0607 24.394 39.0887 24.38 39.1167 24.394C39.1447 24.394 39.1727 24.436 39.1727 24.464V24.52C39.3267 25.22 39.4947 26.018 38.7667 26.97C38.1507 27.768 36.6247 29.77 36.3307 30.162L36.0927 30.47C36.0927 30.47 36.0507 30.512 36.0227 30.512L36.0087 30.456ZM33.2367 28.524L35.9947 30.246L36.1767 30.008C36.4707 29.616 37.9967 27.628 38.6127 26.816C39.2707 25.962 39.1587 25.276 39.0187 24.604C37.5207 25.724 34.2867 25.584 33.5727 25.542L34.1047 27.25L35.0987 26.13C35.0987 26.13 35.1827 26.088 35.2247 26.13C35.2667 26.158 35.2667 26.214 35.2247 26.256L33.2087 28.524H33.2367Z" fill="#081017"/>
<path d="M28.8118 23.596L31.5138 21.062L30.1558 20.012H29.8338L27.5938 22.98L28.8118 23.596Z" fill="white"/>
<path d="M36.415 30.414L38.571 28.902L38.235 27.628" fill="white"/>
<path d="M36.4146 30.498C36.4146 30.498 36.3586 30.498 36.3446 30.456C36.3166 30.414 36.3306 30.358 36.3726 30.33L38.4726 28.86L38.1506 27.642C38.1506 27.642 38.1646 27.544 38.2206 27.53C38.2626 27.53 38.3186 27.544 38.3326 27.6L38.6686 28.874C38.6686 28.874 38.6686 28.944 38.6266 28.972L36.4706 30.484C36.4706 30.484 36.4426 30.498 36.4146 30.498Z" fill="#081017"/>
<path d="M37.199 19.942L38.445 20.768L40.027 18.822C40.027 18.822 37.717 16.54 35.617 16.428C35.715 16.848 35.687 17.786 34.959 18.066C34.231 18.346 33.587 18.248 33.377 18.01C33.167 17.772 33.181 17.198 33.181 17.198C33.181 17.198 32.131 17.296 31.571 17.618C31.053 17.926 30.003 19.284 29.877 19.802C30.269 20.222 31.515 21.076 31.515 21.076L32.187 20.46" fill="white"/>
<path d="M31.5153 21.16C31.5153 21.16 31.4873 21.16 31.4593 21.146C31.4033 21.104 30.1993 20.278 29.8073 19.858C29.7933 19.83 29.7793 19.802 29.7793 19.774C29.9053 19.228 30.9833 17.842 31.5153 17.534C32.0753 17.198 33.1113 17.114 33.1533 17.1C33.1813 17.1 33.2093 17.1 33.2233 17.128C33.2373 17.142 33.2513 17.17 33.2513 17.198C33.2513 17.352 33.2793 17.772 33.4333 17.94C33.6293 18.164 34.2313 18.234 34.9173 17.968C35.6313 17.702 35.5893 16.75 35.5193 16.428C35.5193 16.4 35.5193 16.372 35.5333 16.358C35.5473 16.344 35.5753 16.33 35.6033 16.33C37.7033 16.456 39.9713 18.668 40.0693 18.752C40.0973 18.78 40.1113 18.836 40.0693 18.878L38.4873 20.824C38.4873 20.824 38.4033 20.866 38.3753 20.838L37.1293 20.012C37.1293 20.012 37.0733 19.928 37.1013 19.886C37.1293 19.844 37.1853 19.83 37.2273 19.858L38.4033 20.628L39.8873 18.808C39.5233 18.472 37.5353 16.666 35.7153 16.498C35.7713 16.946 35.7293 17.842 34.9733 18.122C34.1893 18.416 33.5173 18.304 33.2933 18.038C33.1113 17.842 33.0833 17.45 33.0693 17.268C32.8033 17.296 32.0333 17.408 31.5993 17.66C31.1233 17.94 30.1293 19.214 29.9613 19.746C30.3253 20.11 31.2493 20.768 31.5013 20.936L32.1313 20.362C32.1313 20.362 32.2293 20.334 32.2573 20.362C32.2853 20.404 32.2853 20.46 32.2573 20.488L31.5853 21.104C31.5853 21.104 31.5433 21.132 31.5293 21.132L31.5153 21.16Z" fill="#081017"/>
<path d="M28.8127 23.694C28.8127 23.694 28.7707 23.694 28.7427 23.666C28.7147 23.624 28.7147 23.568 28.7427 23.54L31.4447 21.006C31.4447 21.006 31.5427 20.978 31.5707 21.006C31.5987 21.048 31.5987 21.104 31.5707 21.132L28.8687 23.666C28.8687 23.666 28.8267 23.694 28.8127 23.694Z" fill="#081017"/>
<path d="M27.6217 22.98C27.6217 22.98 27.5797 22.98 27.5657 22.966C27.5237 22.938 27.5237 22.882 27.5517 22.84L29.8617 19.872C29.8617 19.872 29.9457 19.83 29.9877 19.858C30.0297 19.886 30.0297 19.942 30.0017 19.984L27.6917 22.952C27.6917 22.952 27.6497 22.98 27.6217 22.98Z" fill="#081017"/>
<path d="M41.0359 20.334L39.7759 19.172L38.6279 20.656L41.8199 23.246" fill="white"/>
<path d="M41.8195 23.33C41.8195 23.33 41.7775 23.33 41.7635 23.316L38.5715 20.726C38.5715 20.726 38.5295 20.642 38.5575 20.6L39.7055 19.116C39.7055 19.116 39.7475 19.088 39.7615 19.088C39.7895 19.088 39.8175 19.088 39.8315 19.116L41.0915 20.278C41.0915 20.278 41.1335 20.362 41.0915 20.404C41.0635 20.446 41.0075 20.446 40.9655 20.404L39.7755 19.298L38.7395 20.628L41.8615 23.162C41.8615 23.162 41.9035 23.246 41.8615 23.288C41.8475 23.316 41.8195 23.316 41.7915 23.316L41.8195 23.33Z" fill="#081017"/>
<path d="M27.048 25.528H28.238L28.91 23.764C28.91 23.764 28.854 23.61 28.364 23.302C27.874 22.994 26.544 22.658 26.544 22.658L25.606 22.924C25.396 23.526 25.144 23.694 24.598 23.75C23.352 23.848 23.156 22.574 23.156 22.574C23.156 22.574 22.134 21.958 20.076 24.03L19.502 24.604C19.502 24.604 20.594 25.794 20.874 26.368C21.574 26.004 22.092 25.486 22.092 25.486" fill="white"/>
<path d="M20.8468 26.466C20.8468 26.466 20.8328 26.466 20.8188 26.466C20.7908 26.466 20.7768 26.438 20.7628 26.424C20.4968 25.864 19.4188 24.702 19.4048 24.688C19.3768 24.646 19.3768 24.604 19.4048 24.562L19.9788 23.988C22.0648 21.902 23.1288 22.49 23.1708 22.518C23.1988 22.518 23.2128 22.56 23.2128 22.574C23.2128 22.616 23.4088 23.764 24.5568 23.68C25.0888 23.624 25.2848 23.47 25.4808 22.91C25.4808 22.882 25.5088 22.868 25.5368 22.854L26.4748 22.588C26.4748 22.588 26.5028 22.588 26.5168 22.588C26.5728 22.588 27.8748 22.924 28.3648 23.232C28.8548 23.54 28.9388 23.694 28.9528 23.736C28.9528 23.75 28.9528 23.778 28.9528 23.806L28.2808 25.57C28.2808 25.57 28.2388 25.626 28.1968 25.626H27.0068C27.0068 25.626 26.9228 25.584 26.9228 25.542C26.9228 25.5 26.9648 25.458 27.0068 25.458H28.1268L28.7568 23.792C28.7568 23.792 28.5888 23.61 28.2668 23.4C27.8328 23.134 26.6708 22.826 26.4888 22.784L25.6208 23.036C25.4108 23.61 25.1448 23.82 24.5568 23.876C23.3808 23.96 23.0868 22.91 23.0308 22.672C22.8488 22.602 21.8688 22.35 20.0908 24.128L19.5728 24.646C19.7968 24.884 20.5668 25.752 20.8608 26.284C21.5048 25.934 21.9668 25.472 21.9808 25.458C22.0088 25.43 22.0648 25.43 22.1068 25.458C22.1348 25.486 22.1348 25.542 22.1068 25.584C22.0788 25.612 21.5748 26.116 20.8748 26.48C20.8748 26.48 20.8468 26.48 20.8328 26.48L20.8468 26.466Z" fill="#081017"/>
<path d="M37.6186 31.758C37.6186 31.758 37.5766 31.758 37.5626 31.73L36.0646 30.344C36.0646 30.344 36.0226 30.26 36.0646 30.218C36.1066 30.176 36.1486 30.176 36.1906 30.218L37.6886 31.604C37.6886 31.604 37.7306 31.688 37.6886 31.73C37.6746 31.744 37.6466 31.758 37.6186 31.758Z" fill="#081017"/>
<path d="M38.5983 29.602C38.5983 29.602 38.5563 29.602 38.5423 29.588L38.1223 29.252C38.1223 29.252 38.0803 29.168 38.1083 29.126C38.1363 29.084 38.1923 29.084 38.2343 29.112L38.6543 29.448C38.6543 29.448 38.6963 29.532 38.6683 29.574C38.6543 29.602 38.6263 29.602 38.5983 29.602Z" fill="#081017"/>
<path d="M26.9647 24.926L26.4467 29.994C26.4467 29.994 25.9567 30.358 24.1367 30.204C22.3167 30.05 20.8327 29.812 20.6787 29.714" fill="white"/>
<path d="M24.9623 30.344C24.7243 30.344 24.4443 30.344 24.1363 30.302C22.4003 30.162 20.8323 29.91 20.6363 29.798C20.5943 29.77 20.5803 29.714 20.6083 29.672C20.6363 29.63 20.6923 29.616 20.7343 29.644C20.8603 29.714 22.3023 29.966 24.1503 30.12C25.6623 30.246 26.2363 30.008 26.3623 29.938L26.8803 24.912C26.8803 24.912 26.9223 24.828 26.9783 24.828C27.0203 24.828 27.0623 24.87 27.0623 24.926L26.5443 29.994C26.5443 29.994 26.5303 30.036 26.5023 30.05C26.4883 30.05 26.1243 30.316 24.9623 30.316V30.344Z" fill="#081017"/>
<path d="M20.9864 27.068C20.9864 27.068 20.9164 27.04 20.9024 27.012L20.6504 26.382C20.6504 26.382 20.6504 26.284 20.7064 26.27C20.7484 26.256 20.8044 26.27 20.8184 26.326L21.0704 26.956C21.0704 26.956 21.0704 27.054 21.0144 27.068H20.9864Z" fill="#081017"/>
<path d="M16.9966 27.432C16.9966 27.432 16.3386 27.838 16.1986 27.908C16.0166 27.992 15.9186 28.3 16.1706 28.328C16.4226 28.356 16.9546 28.09 16.9546 28.09C16.9546 28.09 16.2266 28.398 16.2966 28.636C16.3386 28.79 16.5766 28.902 17.0246 28.636C17.1926 28.524 17.4866 28.272 17.4866 28.272C17.4866 28.272 17.3046 28.678 17.4586 28.706C17.6126 28.734 17.7946 28.804 17.9346 28.51C18.0886 28.174 18.2426 27.838 18.4246 27.684C18.6066 27.53 20.6086 26.046 20.6086 26.046" fill="white"/>
<path d="M16.5625 28.888C16.5625 28.888 16.4365 28.888 16.3945 28.86C16.2965 28.818 16.2265 28.748 16.2125 28.664C16.1845 28.58 16.2125 28.496 16.2825 28.412C16.2405 28.412 16.1985 28.412 16.1565 28.412C16.0305 28.398 15.9605 28.328 15.9325 28.216C15.9045 28.076 16.0025 27.894 16.1565 27.824C16.2965 27.754 16.9405 27.362 16.9405 27.362C16.9825 27.334 17.0385 27.362 17.0665 27.39C17.0945 27.418 17.0665 27.488 17.0385 27.516C17.0105 27.53 16.3805 27.922 16.2405 27.992C16.1565 28.034 16.1005 28.146 16.1145 28.202C16.1145 28.202 16.1145 28.244 16.1845 28.244C16.3105 28.258 16.5905 28.16 16.7725 28.076C16.8285 28.048 16.8845 28.02 16.9265 28.006C16.9685 27.992 17.0245 28.006 17.0385 28.048C17.0525 28.09 17.0385 28.146 16.9965 28.16C16.9825 28.16 16.9265 28.202 16.8425 28.23C16.5625 28.37 16.3525 28.538 16.3805 28.608C16.3805 28.636 16.4225 28.664 16.4645 28.692C16.5205 28.72 16.6745 28.748 16.9685 28.566C17.1365 28.468 17.4025 28.216 17.4165 28.216C17.4445 28.188 17.5005 28.188 17.5285 28.216C17.5565 28.244 17.5705 28.286 17.5565 28.328C17.5005 28.454 17.4585 28.608 17.4865 28.65C17.4865 28.65 17.5145 28.65 17.5425 28.65C17.6825 28.678 17.7665 28.692 17.8645 28.496L17.9065 28.412C18.0605 28.09 18.2005 27.796 18.3825 27.642C18.5645 27.488 20.4825 26.06 20.5665 26.004C20.6085 25.976 20.6645 25.99 20.6925 26.018C20.7205 26.046 20.7205 26.116 20.6785 26.144C20.6645 26.158 18.6765 27.628 18.5085 27.768C18.3545 27.894 18.2285 28.174 18.0885 28.468L18.0465 28.552C17.8925 28.874 17.6825 28.832 17.5285 28.804C17.5145 28.804 17.4865 28.804 17.4725 28.804C17.4165 28.804 17.3885 28.776 17.3605 28.72C17.3325 28.678 17.3325 28.608 17.3325 28.538C17.2485 28.608 17.1645 28.664 17.0945 28.72C16.8705 28.86 16.7165 28.902 16.5905 28.902L16.5625 28.888Z" fill="#081017"/>
<path d="M26.2244 30.246C26.3504 30.274 27.0084 33.41 27.0084 33.41L23.9984 34.138L23.6064 32.192" fill="white"/>
<path d="M24.0121 34.222C24.0121 34.222 23.9841 34.222 23.9701 34.222C23.9561 34.222 23.9421 34.194 23.9281 34.166L23.5361 32.22C23.5361 32.22 23.5641 32.122 23.6061 32.122C23.6481 32.122 23.7041 32.15 23.7041 32.192L24.0821 34.04L26.9101 33.354C26.6721 32.234 26.2801 30.512 26.1681 30.33C26.1401 30.302 26.1261 30.274 26.1401 30.232C26.1401 30.19 26.1961 30.162 26.2521 30.162C26.3221 30.176 26.4341 30.204 27.1061 33.396C27.1061 33.438 27.0921 33.494 27.0361 33.508L24.0261 34.236H24.0121V34.222Z" fill="#081017"/>
<path d="M19.9773 29.952L19.5713 33.522C19.5713 33.522 21.5453 34.194 22.6093 34.096C22.9453 32.976 23.0293 32.178 23.0293 32.178L24.4013 31.898" fill="white"/>
<path d="M22.4 34.194C21.308 34.194 19.628 33.634 19.544 33.606C19.502 33.606 19.474 33.55 19.488 33.508L19.894 29.938C19.894 29.938 19.936 29.854 19.992 29.854C20.034 29.854 20.076 29.91 20.076 29.952L19.684 33.452C20.034 33.564 21.63 34.054 22.554 34.012C22.862 32.934 22.96 32.178 22.96 32.178C22.96 32.136 22.988 32.108 23.03 32.108L24.402 31.828C24.402 31.828 24.5 31.856 24.5 31.898C24.5 31.94 24.472 31.996 24.43 31.996L23.128 32.262C23.1 32.472 22.988 33.186 22.708 34.124C22.708 34.166 22.666 34.18 22.624 34.194C22.554 34.194 22.484 34.194 22.4 34.194Z" fill="#081017"/>
<path d="M27.3292 37.442C27.3292 37.442 27.2452 37.414 27.2452 37.372L26.5732 33.634C26.5732 33.634 26.6012 33.536 26.6432 33.536C26.6852 33.536 26.7412 33.564 26.7412 33.606L27.4132 37.344C27.4132 37.344 27.3852 37.442 27.3432 37.442C27.3432 37.442 27.3432 37.442 27.3292 37.442Z" fill="#081017"/>
<path d="M21.0281 37.988C21.0281 37.988 21.0141 37.988 21.0001 37.988C20.9581 37.988 20.9301 37.932 20.9441 37.876L21.9801 34.194C21.9801 34.194 22.0361 34.124 22.0921 34.138C22.1341 34.138 22.1621 34.194 22.1481 34.25L21.1121 37.932C21.1121 37.932 21.0701 38.002 21.0281 38.002V37.988Z" fill="#081017"/>
<path d="M19.461 37.596C19.419 37.596 19.377 37.54 19.377 37.498L19.797 33.788C19.797 33.788 19.853 33.704 19.895 33.704C19.937 33.704 19.979 33.76 19.979 33.802L19.559 37.512C19.559 37.512 19.517 37.596 19.475 37.596H19.461Z" fill="#081017"/>
<path d="M20.3005 39.808C20.3005 39.808 21.1265 39.78 21.2665 39.528C21.4065 39.276 21.2105 39.01 21.1125 38.618C21.0145 38.226 21.0565 37.82 21.0565 37.82C21.0565 37.82 19.8105 37.708 19.7125 37.638C19.6145 37.568 19.1665 37.4 19.1665 37.876C19.1665 38.352 18.5225 39.486 20.2865 39.794L20.3005 39.808Z" fill="#E10098"/>
<path d="M20.3015 39.906C20.3015 39.906 20.3015 39.906 20.2875 39.906C19.7135 39.808 19.3495 39.626 19.1395 39.332C18.8875 38.968 18.9715 38.534 19.0415 38.212C19.0695 38.086 19.0835 37.988 19.0835 37.904C19.0835 37.666 19.1815 37.568 19.2655 37.526C19.4615 37.428 19.7135 37.54 19.7695 37.582C19.8395 37.61 20.4835 37.694 21.0715 37.75C21.1135 37.75 21.1555 37.792 21.1555 37.848C21.1555 37.848 21.1275 38.24 21.2115 38.618C21.2395 38.744 21.2815 38.842 21.3095 38.954C21.3935 39.178 21.4635 39.402 21.3375 39.598C21.1695 39.864 20.4415 39.906 20.2875 39.92L20.3015 39.906ZM19.4475 37.666C19.4475 37.666 19.3775 37.666 19.3635 37.68C19.3075 37.708 19.2795 37.778 19.2795 37.904C19.2795 38.002 19.2515 38.114 19.2375 38.254C19.1815 38.562 19.0975 38.94 19.3075 39.234C19.4755 39.472 19.8115 39.64 20.3295 39.738C20.6515 39.738 21.1275 39.64 21.2255 39.5C21.3095 39.374 21.2535 39.234 21.1695 39.01C21.1275 38.912 21.0855 38.786 21.0575 38.66C20.9875 38.366 20.9875 38.072 20.9875 37.932C20.5115 37.89 19.7835 37.806 19.6855 37.75C19.6435 37.722 19.5455 37.68 19.4475 37.68V37.666Z" fill="#081017"/>
<path d="M25.7046 37.666C25.7046 37.666 25.5926 39.024 25.8306 39.08C26.0686 39.136 26.7966 39.29 27.4966 39.178C28.1966 39.066 28.7986 38.898 29.0506 38.716C29.3026 38.534 29.5966 38.324 29.1486 38.072C28.7006 37.82 27.5386 37.372 27.5386 37.372C27.5386 37.372 26.4746 37.708 25.9846 37.68C25.7046 37.652 25.6486 37.624 25.6486 37.624L24.6406 34.04" fill="#E10098"/>
<path d="M26.9366 39.304C26.4186 39.304 25.9706 39.206 25.8026 39.164C25.5366 39.094 25.5646 38.24 25.6066 37.694C25.6066 37.694 25.5646 37.666 25.5646 37.638L24.5566 34.054C24.5566 34.054 24.5706 33.956 24.6126 33.942C24.6546 33.942 24.7106 33.956 24.7246 33.998L25.7186 37.54C25.7186 37.54 25.8446 37.568 25.9846 37.582C26.4466 37.61 27.4826 37.288 27.4966 37.288C27.5106 37.288 27.5386 37.288 27.5526 37.288C27.5946 37.302 28.7146 37.75 29.1766 37.988C29.3586 38.086 29.4426 38.184 29.4566 38.31C29.4706 38.492 29.2746 38.632 29.1066 38.758H29.0926C28.8686 38.94 28.3506 39.094 27.5106 39.248C27.3146 39.276 27.1186 39.29 26.9366 39.29V39.304ZM25.7886 37.75C25.7466 38.366 25.7746 38.94 25.8586 38.996C26.0686 39.052 26.7966 39.206 27.4826 39.08C28.4766 38.912 28.8546 38.744 28.9946 38.646H29.0086C29.1206 38.548 29.2886 38.422 29.2746 38.338C29.2746 38.282 29.2046 38.226 29.0926 38.156C28.6866 37.946 27.7066 37.54 27.5246 37.47C27.3426 37.526 26.4326 37.792 25.9706 37.764C25.8866 37.764 25.8306 37.75 25.7746 37.736L25.7886 37.75Z" fill="#081017"/>
<path d="M28.3936 25.318L30.6056 25.5L31.5436 26.018C31.5436 26.018 31.8796 26.046 31.9076 25.864C31.9356 25.682 31.4876 25.374 31.4876 25.374C31.4876 25.374 32.2156 25.584 32.2436 25.43C32.2716 25.276 32.0336 25.01 31.8796 24.968C31.7256 24.926 32.4256 25.094 32.5236 24.94C32.6216 24.786 32.6776 24.548 32.3696 24.478C32.0616 24.408 31.7256 24.45 31.7256 24.45C31.7256 24.45 32.4536 24.17 32.4256 23.932C32.3976 23.694 31.9356 23.722 31.8516 23.806C31.7676 23.89 31.3896 24.086 31.3896 24.086" fill="white"/>
<path d="M31.5999 26.116C31.5999 26.116 31.5579 26.116 31.5299 26.116H31.5019L30.5779 25.612L28.3799 25.43C28.3799 25.43 28.2959 25.388 28.2959 25.332C28.2959 25.276 28.3379 25.248 28.3939 25.248L30.6059 25.43C30.6059 25.43 30.6339 25.43 30.6479 25.43L31.5719 25.934C31.6699 25.934 31.8099 25.934 31.8239 25.85C31.8239 25.78 31.6559 25.598 31.4319 25.458C31.3899 25.43 31.3759 25.388 31.4039 25.346C31.4179 25.304 31.4739 25.29 31.5159 25.304C31.7959 25.388 32.0759 25.43 32.1599 25.416C32.1599 25.318 31.9779 25.108 31.8659 25.08H31.8239C31.7819 25.066 31.7679 25.01 31.7819 24.968C31.7819 24.926 31.8379 24.912 31.8799 24.912C31.8799 24.912 31.8799 24.912 31.8939 24.912C32.0899 24.954 32.3839 24.968 32.4399 24.912C32.4819 24.842 32.5239 24.744 32.4959 24.674C32.4819 24.632 32.4259 24.604 32.3559 24.59C32.0759 24.534 31.7399 24.562 31.7399 24.562C31.6979 24.562 31.6559 24.534 31.6419 24.492C31.6419 24.45 31.6419 24.408 31.6979 24.394C32.0059 24.282 32.3559 24.072 32.3419 23.974C32.3419 23.96 32.3419 23.918 32.2579 23.89C32.1319 23.848 31.9499 23.89 31.9219 23.904C31.8239 24.002 31.4879 24.17 31.4459 24.198C31.4039 24.226 31.3479 24.198 31.3199 24.156C31.2919 24.114 31.3199 24.058 31.3619 24.03C31.5019 23.96 31.7399 23.834 31.7959 23.778C31.8799 23.694 32.1459 23.652 32.3139 23.722C32.4399 23.764 32.5099 23.848 32.5239 23.96C32.5379 24.128 32.3559 24.282 32.1459 24.394C32.2299 24.394 32.3139 24.408 32.3979 24.422C32.5379 24.45 32.6219 24.506 32.6639 24.604C32.7339 24.758 32.6499 24.94 32.6079 25.01C32.5519 25.108 32.3839 25.122 32.2159 25.122C32.3139 25.234 32.3699 25.36 32.3419 25.472C32.3419 25.514 32.3139 25.542 32.2719 25.57C32.1879 25.626 32.0199 25.612 31.8519 25.57C31.9499 25.668 32.0199 25.794 32.0059 25.892C31.9779 26.074 31.7679 26.116 31.6139 26.116H31.5999Z" fill="#081017"/>
<path d="M28.8975 23.764L30.5355 24.1C30.5355 24.1 30.8155 24.044 30.9555 23.61C31.1655 23.4 31.3755 23.428 31.3475 23.638C31.3195 23.848 31.0675 24.856 31.0675 24.856" fill="white"/>
<path d="M31.0941 24.954C31.0941 24.954 31.0801 24.954 31.0661 24.954C31.0241 24.954 30.9961 24.898 30.9961 24.842C30.9961 24.842 31.2341 23.848 31.2621 23.638C31.2621 23.61 31.2621 23.582 31.2621 23.568C31.2341 23.568 31.1501 23.568 31.0381 23.666C30.8701 24.114 30.5621 24.184 30.5621 24.184C30.5621 24.184 30.5341 24.184 30.5201 24.184L28.8821 23.848C28.8821 23.848 28.7981 23.792 28.8121 23.75C28.8121 23.708 28.8681 23.666 28.9101 23.68L30.5341 24.016C30.5341 24.016 30.7721 23.904 30.8841 23.596C30.8841 23.596 30.8841 23.568 30.8981 23.568C31.0521 23.414 31.2201 23.358 31.3321 23.414C31.4161 23.456 31.4581 23.554 31.4441 23.666C31.4161 23.876 31.1781 24.842 31.1641 24.884C31.1641 24.926 31.1221 24.954 31.0801 24.954H31.0941Z" fill="#081017"/>
<path d="M18.3274 25.738L17.9774 24.982C17.9774 24.982 17.5854 23.036 17.2494 22.518C16.9134 22 15.8634 20.992 15.1074 20.754" fill="white"/>
<path d="M18.3265 25.822C18.3265 25.822 18.2565 25.808 18.2425 25.766L17.8925 25.01C17.8925 25.01 17.4865 23.05 17.1645 22.56C16.8145 22.028 15.7785 21.062 15.0645 20.824C15.0225 20.81 14.9945 20.754 15.0085 20.712C15.0225 20.67 15.0785 20.642 15.1205 20.656C15.8765 20.894 16.9545 21.902 17.3185 22.462C17.6545 22.98 18.0465 24.87 18.0605 24.954L18.4105 25.682C18.4105 25.682 18.4105 25.78 18.3685 25.794C18.3685 25.794 18.3405 25.794 18.3265 25.794V25.822Z" fill="#081017"/>
<path d="M14.8402 21.762C14.8402 21.762 14.8122 20.614 15.2602 20.278L14.8402 21.762Z" fill="white"/>
<path d="M14.8402 21.86C14.8402 21.86 14.7562 21.818 14.7562 21.776C14.7562 21.734 14.7282 20.572 15.2182 20.208C15.2602 20.18 15.3162 20.194 15.3442 20.222C15.3722 20.25 15.3582 20.32 15.3302 20.348C14.9942 20.6 14.9382 21.454 14.9382 21.762C14.9382 21.818 14.8962 21.846 14.8542 21.86H14.8402Z" fill="#081017"/>
<path d="M15.3572 20.992C15.3572 20.992 15.7492 22.756 14.2372 22.798C13.6352 22.77 11.7032 22.462 12.0252 20.544" fill="white"/>
<path d="M14.2239 22.882C13.9999 22.882 12.8379 22.784 12.2499 22.042C11.9279 21.65 11.8299 21.146 11.9279 20.53C11.9279 20.488 11.9839 20.446 12.0259 20.46C12.0679 20.46 12.1099 20.516 12.0959 20.558C11.9979 21.118 12.0959 21.566 12.3759 21.93C12.9219 22.616 13.9999 22.7 14.2099 22.714C14.5739 22.714 14.8539 22.588 15.0359 22.35C15.4279 21.86 15.2459 21.02 15.2459 21.006C15.2459 20.964 15.2599 20.908 15.3159 20.894C15.3579 20.894 15.4139 20.908 15.4279 20.964C15.4279 21.006 15.6239 21.888 15.1899 22.448C14.9799 22.728 14.6439 22.868 14.2239 22.868V22.882Z" fill="#081017"/>
<path d="M16.3522 23.862C16.3522 23.862 16.6322 25.934 15.7782 26.9C14.9242 27.866 14.5882 28.23 14.5882 28.23L14.4902 28.79" fill="white"/>
<path d="M14.4901 28.888C14.4901 28.888 14.4901 28.888 14.4761 28.888C14.4341 28.888 14.3921 28.832 14.4061 28.79L14.5181 28.23C14.5181 28.23 14.5181 28.202 14.5461 28.188C14.5461 28.188 14.8961 27.81 15.7361 26.858C16.5481 25.934 16.2961 23.904 16.2961 23.89C16.2961 23.848 16.3241 23.792 16.3661 23.792C16.4221 23.792 16.4641 23.82 16.4641 23.862C16.4641 23.946 16.7301 25.976 15.8621 26.97C15.1201 27.81 14.7701 28.202 14.7001 28.286L14.6021 28.832C14.6021 28.832 14.5601 28.902 14.5181 28.902L14.4901 28.888Z" fill="#081017"/>
<path d="M13.1182 32.248L16.3382 34.838C16.8282 35.23 17.2482 35.692 17.5702 36.224C17.7662 36.546 17.9342 36.896 17.9342 37.176C17.9342 37.876 18.1442 39.696 15.0782 39.696" fill="white"/>
<path d="M15.078 39.78C15.078 39.78 14.994 39.738 14.994 39.696C14.994 39.654 15.036 39.612 15.078 39.612C16.156 39.612 16.926 39.388 17.36 38.94C17.864 38.436 17.85 37.764 17.836 37.316V37.19C17.836 36.966 17.724 36.672 17.486 36.294C17.178 35.79 16.772 35.328 16.268 34.922L13.048 32.332C13.048 32.332 13.006 32.248 13.048 32.206C13.076 32.164 13.132 32.164 13.174 32.206L16.394 34.796C16.912 35.216 17.332 35.692 17.654 36.21C17.906 36.616 18.018 36.952 18.018 37.204V37.33C18.018 37.778 18.032 38.52 17.486 39.08C17.01 39.57 16.198 39.808 15.078 39.808V39.78Z" fill="#081017"/>
<path d="M10.6418 33.704L13.9738 36.784C14.2118 37.008 14.4218 37.26 14.5898 37.54C15.0658 38.38 15.7238 40.018 13.8338 40.634C13.3718 40.788 12.8818 40.802 12.4058 40.704C10.4038 40.326 5.75584 39.332 5.75584 39.332C5.75584 39.332 5.26584 38.408 5.65784 37.554C6.04984 36.7 6.48384 36.406 6.66584 36.406C6.84784 36.406 11.0058 38.464 11.0058 38.464L6.48384 36.098C6.48384 36.098 3.90784 34.124 5.47584 30.988" fill="white"/>
<path d="M12.9934 40.858C12.7974 40.858 12.5874 40.844 12.3914 40.802C10.4174 40.424 5.79738 39.444 5.74138 39.43C5.71338 39.43 5.69938 39.402 5.68538 39.388C5.65738 39.346 5.16738 38.408 5.58738 37.526C5.96538 36.7 6.41338 36.322 6.67938 36.322C6.69338 36.322 6.72138 36.322 6.76338 36.35L6.44138 36.182C6.44138 36.182 3.80938 34.124 5.40538 30.96C5.43338 30.918 5.47538 30.904 5.53138 30.918C5.57338 30.946 5.58738 30.988 5.57338 31.044C4.04738 34.068 6.44138 35.958 6.55338 36.042L11.0614 38.408C11.0614 38.408 11.1174 38.478 11.1034 38.52C11.0754 38.562 11.0334 38.576 10.9914 38.562C9.36738 37.75 6.87538 36.546 6.67938 36.504C6.55338 36.504 6.14738 36.77 5.75538 37.596C5.43338 38.31 5.75538 39.08 5.83938 39.262C6.31538 39.36 10.5714 40.27 12.4474 40.62C12.9234 40.718 13.3994 40.69 13.8334 40.55C14.4074 40.368 14.7854 40.06 14.9534 39.64C15.2194 38.94 14.8134 38.044 14.5474 37.582C14.3934 37.316 14.1974 37.064 13.9454 36.84L10.6134 33.76C10.6134 33.76 10.5714 33.676 10.6134 33.634C10.6414 33.592 10.6974 33.592 10.7394 33.634L14.0714 36.714C14.3234 36.952 14.5334 37.204 14.7014 37.498C15.0514 38.1 15.4014 38.982 15.1214 39.71C14.9394 40.172 14.5334 40.508 13.8894 40.718C13.6094 40.802 13.3154 40.858 13.0214 40.858H12.9934Z" fill="#081017"/>
<path d="M4.74662 39.206C3.40262 39.206 1.83462 39.08 1.82062 39.08C1.79262 39.08 1.76462 39.052 1.75062 39.038C1.73662 39.01 1.34462 38.17 2.80062 36.98C4.21462 35.832 4.59262 35.538 4.59262 35.538C4.62062 35.524 4.64862 35.51 4.67662 35.524C4.70462 35.524 5.47462 35.762 5.75462 36.182C6.04862 36.602 5.95062 36.938 5.95062 36.952C5.95062 36.952 5.95062 36.98 5.93662 36.98C5.90862 37.008 5.88062 37.022 5.81062 37.022C5.60062 37.036 4.98462 37.092 4.69062 37.722C4.64862 37.806 4.35462 38.52 5.16662 39.038C5.19462 39.066 5.20862 39.094 5.20862 39.136C5.20862 39.178 5.16662 39.206 5.12462 39.206C4.99862 39.206 4.87262 39.206 4.74662 39.206ZM1.89062 38.912C2.19862 38.94 3.65462 39.052 4.85862 39.038C4.32662 38.562 4.39662 37.96 4.53662 37.652C4.76062 37.176 5.18062 36.91 5.78262 36.854C5.78262 36.756 5.78262 36.546 5.60062 36.28C5.39062 35.972 4.81662 35.762 4.66262 35.706C4.53662 35.804 4.07462 36.168 2.91262 37.12C1.75062 38.058 1.83462 38.73 1.89062 38.912Z" fill="#081017"/>
<path d="M0.336914 39.444C0.336914 39.444 2.31091 38.702 5.62891 39.22L0.336914 39.444Z" fill="white"/>
<path d="M0.350768 39.5C0.350768 39.5 0.280768 39.472 0.266768 39.444C0.252768 39.402 0.266768 39.346 0.322768 39.332C0.350768 39.332 2.33877 38.646 5.64277 39.15C5.68477 39.15 5.72677 39.206 5.71277 39.248C5.71277 39.29 5.65677 39.332 5.61477 39.318C2.36677 38.814 0.406768 39.486 0.378768 39.486C0.378768 39.486 0.364768 39.486 0.350768 39.486V39.5Z" fill="#081017"/>
<path d="M40.7256 32.08C40.7256 32.08 41.9156 32.906 42.2236 33.018C42.5316 33.13 42.5456 33.172 42.5456 33.13C42.5456 33.088 41.7336 35.16 41.7336 35.16" fill="white"/>
<path d="M41.7345 35.244H41.7065C41.6645 35.23 41.6365 35.174 41.6505 35.132C42.1125 33.928 42.3225 33.41 42.4205 33.2C42.3785 33.186 42.3085 33.144 42.1965 33.116C41.8745 33.004 40.7125 32.206 40.6705 32.164C40.6285 32.136 40.6145 32.08 40.6425 32.038C40.6705 31.996 40.7265 31.982 40.7685 32.01C41.0905 32.234 42.0005 32.85 42.2525 32.934C42.3925 32.976 42.4765 33.018 42.5185 33.032C42.5185 33.032 42.5465 33.032 42.5605 33.032C42.6025 33.032 42.6305 33.074 42.6305 33.116C42.6305 33.144 42.6305 33.172 42.6025 33.2C42.5185 33.41 42.0985 34.474 41.8185 35.188C41.8185 35.23 41.7765 35.244 41.7345 35.244Z" fill="#081017"/>
<path d="M39.6914 35.5939C39.6914 35.5939 40.3774 34.7539 40.4334 34.5019C40.4894 34.2499 40.5034 33.8299 40.5034 33.8299L39.9434 33.3959" fill="white"/>
<path d="M39.6914 35.692C39.6914 35.692 39.6214 35.664 39.6074 35.636C39.6074 35.594 39.6074 35.552 39.6494 35.538C39.7334 35.454 40.3074 34.712 40.3494 34.502C40.3914 34.32 40.4054 34.012 40.4194 33.886L39.9014 33.48C39.9014 33.48 39.8594 33.396 39.8874 33.354C39.9154 33.312 39.9714 33.312 40.0134 33.34L40.5734 33.774C40.5734 33.774 40.6154 33.816 40.6014 33.844C40.6014 33.858 40.5734 34.278 40.5174 34.516C40.4754 34.768 39.8174 35.636 39.7194 35.678C39.7194 35.678 39.7054 35.678 39.6914 35.678V35.692Z" fill="#081017"/>
<path d="M41.5806 32.682C41.5806 32.682 41.1606 33.718 40.6006 33.816L41.5806 32.682Z" fill="white"/>
<path d="M40.6006 33.9C40.6006 33.9 40.5166 33.872 40.5166 33.83C40.5166 33.788 40.5446 33.732 40.5866 33.732C41.0906 33.648 41.4966 32.668 41.4966 32.654C41.5106 32.612 41.5666 32.584 41.6086 32.598C41.6506 32.612 41.6786 32.668 41.6506 32.71C41.6366 32.752 41.2026 33.802 40.6006 33.9C40.6006 33.9 40.6006 33.9 40.5866 33.9H40.6006Z" fill="#081017"/>
<path d="M5.61404 39.08C5.61404 39.08 5.08204 39.01 5.04004 39.024L5.61404 39.08Z" fill="white"/>
<path d="M5.61336 39.164C5.37536 39.136 5.10936 39.108 5.06736 39.108C5.02536 39.122 4.98336 39.108 4.95536 39.052C4.92736 38.996 4.96936 38.954 5.01136 38.94C5.02536 38.94 5.06736 38.926 5.62736 38.996C5.66936 38.996 5.71136 39.052 5.69736 39.094C5.69736 39.136 5.65536 39.178 5.61336 39.178V39.164Z" fill="#081017"/>
<path d="M16.5755 18.864L14.8535 18.584C14.8535 18.584 14.8535 19.326 15.7215 19.536" fill="white"/>
<path d="M15.7079 19.62C15.7079 19.62 15.7079 19.62 15.6939 19.62C14.7559 19.41 14.7559 18.584 14.7559 18.584C14.7559 18.556 14.7559 18.528 14.7839 18.514C14.7979 18.5 14.8259 18.486 14.8539 18.5L16.5759 18.78C16.5759 18.78 16.6599 18.836 16.6459 18.892C16.6459 18.948 16.5899 18.976 16.5339 18.962L14.9239 18.696C14.9659 18.892 15.1059 19.312 15.7079 19.452C15.7639 19.452 15.7919 19.508 15.7779 19.564C15.7779 19.606 15.7359 19.634 15.6939 19.634L15.7079 19.62Z" fill="#081017"/>
<path d="M15.6953 17.898C15.6953 17.898 16.1293 17.702 16.3673 17.996L15.6953 17.898Z" fill="white"/>
<path d="M16.3677 18.08C16.3677 18.08 16.3117 18.08 16.2977 18.052C16.1017 17.814 15.7377 17.982 15.7237 17.982C15.6817 17.996 15.6257 17.982 15.6117 17.94C15.5977 17.898 15.6117 17.842 15.6537 17.828C15.6677 17.828 16.1577 17.618 16.4377 17.954C16.4657 17.996 16.4657 18.052 16.4377 18.08C16.4237 18.08 16.3957 18.094 16.3817 18.094L16.3677 18.08Z" fill="#081017"/>
<path d="M15.3594 17.17C15.4986 17.17 15.6114 17.0571 15.6114 16.918C15.6114 16.7788 15.4986 16.666 15.3594 16.666C15.2202 16.666 15.1074 16.7788 15.1074 16.918C15.1074 17.0571 15.2202 17.17 15.3594 17.17Z" fill="black"/>
<path d="M17.0381 17.422C17.1773 17.422 17.2901 17.3092 17.2901 17.17C17.2901 17.0308 17.1773 16.918 17.0381 16.918C16.899 16.918 16.7861 17.0308 16.7861 17.17C16.7861 17.3092 16.899 17.422 17.0381 17.422Z" fill="black"/>
<path d="M26.264 21.328H24.668C24.668 21.328 24.934 21.972 25.648 22.098" fill="white"/>
<path d="M25.648 22.196C25.648 22.196 25.648 22.196 25.634 22.196C24.878 22.056 24.598 21.398 24.584 21.37C24.584 21.342 24.584 21.314 24.584 21.286C24.584 21.258 24.626 21.244 24.654 21.244H26.25C26.25 21.244 26.334 21.286 26.334 21.342C26.334 21.384 26.292 21.426 26.25 21.426H24.808C24.92 21.608 25.186 21.944 25.662 22.028C25.704 22.028 25.746 22.084 25.732 22.126C25.732 22.168 25.69 22.196 25.648 22.196Z" fill="#081017"/>
<path d="M24.5713 20.124C24.7105 20.124 24.8233 20.0112 24.8233 19.872C24.8233 19.7328 24.7105 19.62 24.5713 19.62C24.4322 19.62 24.3193 19.7328 24.3193 19.872C24.3193 20.0112 24.4322 20.124 24.5713 20.124Z" fill="black"/>
<path d="M26.7549 20.166C26.8941 20.166 27.0069 20.0532 27.0069 19.914C27.0069 19.7748 26.8941 19.662 26.7549 19.662C26.6158 19.662 26.5029 19.7748 26.5029 19.914C26.5029 20.0532 26.6158 20.166 26.7549 20.166Z" fill="black"/>
<path d="M25.8874 20.376C25.8874 20.376 26.2514 20.656 26.0554 20.712L25.8594 20.768" fill="white"/>
<path d="M25.8594 20.866C25.8594 20.866 25.7894 20.838 25.7754 20.796C25.7754 20.754 25.7754 20.698 25.8314 20.684L26.0134 20.628C26.0134 20.628 25.9154 20.502 25.8314 20.446C25.7894 20.418 25.7894 20.362 25.8174 20.32C25.8454 20.278 25.9014 20.278 25.9434 20.306C26.0554 20.39 26.2234 20.544 26.1954 20.684C26.1954 20.712 26.1674 20.782 26.0694 20.796L25.8734 20.852C25.8734 20.852 25.8594 20.852 25.8454 20.852L25.8594 20.866Z" fill="#081017"/>
<path d="M53.5111 30.666L45.6711 29.518C45.6711 29.518 44.2571 29.35 43.6971 29.826C43.2211 30.232 42.5351 30.932 42.5911 31.45C42.6331 31.702 42.7451 31.702 42.8851 31.702C42.9411 31.702 42.9691 31.604 43.0531 31.506C43.3191 31.156 43.9771 30.484 44.6211 30.148C44.0051 30.498 43.2771 31.268 42.9271 31.856C42.8151 32.052 43.1231 32.304 43.3051 32.164C43.5991 31.926 44.0751 31.422 44.3551 31.254C44.8171 30.974 44.8311 30.918 45.1671 30.764C43.9491 31.548 43.3051 32.234 43.2911 32.346C43.2911 32.472 43.4031 32.738 43.7391 32.556C43.8511 32.5 44.0751 32.374 44.1591 32.276C44.3411 32.08 44.6211 31.828 44.9291 31.632C45.3351 31.366 45.5031 31.268 45.5031 31.268C45.5031 31.268 44.4951 31.744 44.2991 32.304C44.2571 32.416 44.3551 32.514 44.4671 32.514C44.7051 32.514 44.9571 32.346 45.1531 32.234C45.3911 32.08 45.7971 31.842 45.7971 31.842C45.7971 31.842 46.5251 32.304 47.5891 31.94C48.2611 32.276 52.9371 33.858 52.9371 33.858C52.9371 33.858 54.9391 34.068 54.8831 32.332C54.8271 30.596 54.1271 28.146 54.1271 28.146L51.0891 29.182L51.3691 30.148" fill="white"/>
<path d="M53.1178 33.956C52.9918 33.956 52.9078 33.956 52.8938 33.956C52.6838 33.886 48.3158 32.416 47.5458 32.052C46.6218 32.36 45.9498 32.052 45.7678 31.968C45.6558 32.038 45.3618 32.22 45.1798 32.332C44.9418 32.472 44.6898 32.612 44.4518 32.626C44.3678 32.626 44.2838 32.584 44.2418 32.514C44.2138 32.472 44.1998 32.43 44.1998 32.374C44.0878 32.472 43.9058 32.57 43.7938 32.626C43.5698 32.752 43.4298 32.71 43.3458 32.654C43.2338 32.584 43.1918 32.444 43.1918 32.332C43.1918 32.318 43.1918 32.304 43.2198 32.276C43.1218 32.276 43.0238 32.248 42.9398 32.178C42.8138 32.066 42.7718 31.912 42.8418 31.786C42.7018 31.786 42.5478 31.758 42.4918 31.464C42.4218 30.876 43.1778 30.148 43.6258 29.756C44.1998 29.266 45.6138 29.42 45.6698 29.434L53.5098 30.582C53.5098 30.582 53.5938 30.638 53.5798 30.68C53.5798 30.722 53.5238 30.764 53.4818 30.75L45.6418 29.602C45.6418 29.602 44.2558 29.448 43.7378 29.882C43.0238 30.498 42.6178 31.072 42.6598 31.422C42.6878 31.59 42.7298 31.59 42.8558 31.59C42.8558 31.59 42.8698 31.562 42.8838 31.548C42.8978 31.52 42.9258 31.478 42.9678 31.422C43.2618 31.044 43.9198 30.372 44.5638 30.036C44.6058 30.008 44.6618 30.036 44.6898 30.078C44.7178 30.12 44.6898 30.176 44.6618 30.204C44.1018 30.526 43.3598 31.268 42.9958 31.884C42.9538 31.94 43.0098 32.01 43.0518 32.052C43.1078 32.094 43.1918 32.122 43.2338 32.08C43.3458 31.996 43.4858 31.87 43.6258 31.73C43.8638 31.506 44.1158 31.282 44.2978 31.17C44.4798 31.058 44.5918 30.988 44.6758 30.932C44.8158 30.834 44.8998 30.778 45.1098 30.68C45.1518 30.666 45.2078 30.68 45.2218 30.722C45.2498 30.764 45.2218 30.82 45.1938 30.834C43.9478 31.646 43.3878 32.276 43.3458 32.36C43.3458 32.388 43.3598 32.458 43.4158 32.5C43.4858 32.542 43.5978 32.5 43.6678 32.472C43.7798 32.416 43.9898 32.304 44.0738 32.22C44.2138 32.066 44.3958 31.898 44.5918 31.758C44.9558 31.436 45.4038 31.226 45.4318 31.212C45.4738 31.184 45.5298 31.212 45.5438 31.254C45.5718 31.296 45.5438 31.352 45.5018 31.366C45.5018 31.366 45.3338 31.464 44.9418 31.716C44.8578 31.772 44.7738 31.828 44.6898 31.898C44.5358 32.038 44.3958 32.192 44.3398 32.36C44.3398 32.388 44.3398 32.402 44.3398 32.416C44.3538 32.444 44.3818 32.444 44.4098 32.444C44.6338 32.444 44.8998 32.262 45.0538 32.178C45.2918 32.024 45.6978 31.786 45.6978 31.786C45.7258 31.772 45.7678 31.772 45.7958 31.786C45.7958 31.786 46.5098 32.22 47.5178 31.87C47.5458 31.87 47.5598 31.87 47.5878 31.87C48.2458 32.192 52.8798 33.76 52.9218 33.774C52.9218 33.774 52.9778 33.774 53.0898 33.774C53.3838 33.774 53.9998 33.732 54.3918 33.368C54.6438 33.13 54.7698 32.78 54.7558 32.346C54.6998 30.834 54.1538 28.72 54.0278 28.258L51.1578 29.238L51.4098 30.134C51.4098 30.134 51.3958 30.232 51.3538 30.246C51.3118 30.246 51.2558 30.232 51.2418 30.19L50.9618 29.224C50.9618 29.224 50.9618 29.126 51.0178 29.112L54.0558 28.076C54.0558 28.076 54.0978 28.076 54.1258 28.076C54.1538 28.076 54.1678 28.104 54.1678 28.132C54.1678 28.16 54.8678 30.624 54.9238 32.346C54.9378 32.836 54.7978 33.228 54.5038 33.508C54.0698 33.914 53.4398 33.97 53.1038 33.97L53.1178 33.956Z" fill="#081017"/>
<path d="M39.158 28.426L35.5181 36.882C35.5181 36.882 34.636 37.638 34.51 38.59C34.384 39.542 34.356 39.99 34.482 40.074C34.608 40.158 34.79 39.29 34.79 39.29L35 38.534C35 38.534 34.454 40.606 34.58 40.9C34.608 41.376 34.944 41.208 34.944 41.208C34.944 41.208 35.182 39.878 35.336 39.36C35.49 38.842 35.546 38.688 35.546 38.688C35.546 38.688 34.762 41.138 35.126 41.488C35.322 41.544 35.364 41.67 35.77 40.732C36.176 39.794 36.372 38.94 36.372 38.94C36.372 38.94 35.532 41.474 35.616 41.614C35.784 41.922 36.134 41.614 36.26 41.278C36.386 40.942 37.226 38.94 37.226 38.94L37.688 40.312C37.688 40.312 38.0941 40.774 38.1781 40.074C38.2201 39.696 38.1781 37.554 38.1781 37.554C38.1781 37.554 38.08 37.064 37.94 36.98C38.1221 36.7 41.986 29.84 41.986 29.84" fill="white"/>
<path d="M35.7987 41.81C35.7287 41.81 35.6167 41.782 35.5327 41.642C35.5187 41.614 35.5327 41.53 35.5467 41.376C35.4067 41.614 35.3087 41.628 35.1547 41.572C35.1407 41.572 35.1267 41.572 35.1127 41.558C35.0987 41.558 35.0847 41.558 35.0707 41.53C35.0147 41.474 34.9867 41.39 34.9727 41.278C34.9167 41.292 34.8047 41.334 34.6787 41.278C34.5807 41.222 34.5107 41.096 34.4967 40.914C34.4547 40.788 34.4967 40.508 34.5527 40.172C34.5107 40.172 34.4827 40.172 34.4407 40.158C34.2867 40.046 34.2867 39.724 34.4407 38.59C34.5527 37.68 35.3367 36.952 35.4627 36.84L39.0887 28.398C39.0887 28.398 39.1587 28.328 39.2007 28.356C39.2427 28.37 39.2707 28.426 39.2427 28.468L35.6027 36.924C35.6027 36.924 35.6027 36.952 35.5747 36.952C35.5747 36.952 34.7207 37.708 34.6087 38.604C34.5667 38.954 34.4687 39.71 34.5107 39.948C34.5667 39.822 34.6507 39.528 34.7067 39.276L34.9167 38.506C34.9167 38.506 34.9727 38.436 35.0287 38.45C35.0707 38.45 35.0987 38.506 35.0847 38.562C34.8747 39.346 34.5807 40.676 34.6507 40.872C34.6507 40.872 34.6507 40.886 34.6507 40.9C34.6507 41.026 34.6927 41.11 34.7487 41.138C34.7767 41.152 34.8187 41.152 34.8607 41.138C34.9027 40.886 35.1127 39.794 35.2527 39.332C35.4067 38.814 35.4627 38.66 35.4627 38.66C35.4767 38.618 35.5327 38.59 35.5747 38.604C35.6167 38.618 35.6447 38.674 35.6307 38.716C35.3227 39.696 34.9727 41.152 35.1687 41.404H35.1967C35.2947 41.432 35.3507 41.46 35.6727 40.676C35.7287 40.536 35.7847 40.396 35.8407 40.256C35.9527 39.878 36.1067 39.43 36.2747 38.898C36.2887 38.856 36.3447 38.828 36.3867 38.842C36.4287 38.842 36.4567 38.898 36.4427 38.954C36.4427 38.954 36.2887 39.556 36.0087 40.298C35.8127 40.956 35.6587 41.488 35.6727 41.586C35.7147 41.656 35.7567 41.656 35.7847 41.656C35.9107 41.656 36.0647 41.46 36.1487 41.25C36.2747 40.914 37.0867 38.982 37.1287 38.912C37.1427 38.884 37.1707 38.856 37.2127 38.856C37.2547 38.856 37.2827 38.884 37.2967 38.912L37.7447 40.256C37.7447 40.256 37.8847 40.368 37.9407 40.354C37.9547 40.354 38.0387 40.312 38.0667 40.046C38.1087 39.682 38.0667 37.554 38.0667 37.54C38.0247 37.344 37.9407 37.078 37.8707 37.036C37.8567 37.036 37.8287 37.008 37.8287 36.98C37.8287 36.952 37.8287 36.938 37.8287 36.91C38.0107 36.644 41.8327 29.84 41.8607 29.77C41.8887 29.728 41.9447 29.714 41.9867 29.742C42.0287 29.77 42.0427 29.826 42.0147 29.868C41.8607 30.134 38.4447 36.21 38.0107 36.952C38.1367 37.106 38.2067 37.456 38.2207 37.526C38.2207 37.624 38.2627 39.696 38.2207 40.074C38.1927 40.34 38.1087 40.494 37.9827 40.536C37.8007 40.592 37.6047 40.396 37.5907 40.368C37.5907 40.368 37.5767 40.354 37.5767 40.34L37.1987 39.192C36.9747 39.724 36.4147 41.054 36.3167 41.306C36.2327 41.544 36.0227 41.81 35.7987 41.824C35.7987 41.824 35.7847 41.824 35.7707 41.824L35.7987 41.81Z" fill="#081017"/>
<path d="M20.231 38.898C19.965 38.898 19.811 38.716 19.811 38.716C19.783 38.674 19.783 38.618 19.811 38.59C19.853 38.562 19.909 38.562 19.937 38.59C19.965 38.618 20.203 38.87 20.595 38.562C20.637 38.534 20.693 38.534 20.721 38.576C20.749 38.618 20.749 38.674 20.707 38.702C20.525 38.842 20.371 38.884 20.231 38.884V38.898Z" fill="#081017"/>
<path d="M26.9655 38.478C26.7135 38.478 26.5595 38.38 26.5455 38.38C26.5035 38.352 26.4895 38.296 26.5175 38.254C26.5455 38.212 26.6015 38.198 26.6435 38.226C26.6575 38.226 27.0775 38.478 27.6095 38.044C27.6515 38.016 27.7075 38.016 27.7355 38.058C27.7635 38.1 27.7635 38.156 27.7215 38.184C27.4275 38.408 27.1755 38.478 26.9655 38.478Z" fill="#081017"/>
<path d="M19.5864 24.786C19.5864 24.786 17.9064 26.228 17.6264 26.718C17.0524 26.9 16.5344 26.9 16.5344 26.9C16.5344 26.9 15.8904 27.054 16.2964 27.32C16.5764 27.502 16.9684 27.264 17.1784 27.376C17.3884 27.488 17.4584 27.684 17.4584 27.684" fill="white"/>
<path d="M17.4454 27.782C17.4454 27.782 17.3754 27.754 17.3614 27.726C17.3614 27.726 17.3054 27.572 17.1234 27.474C17.0534 27.432 16.9414 27.46 16.8154 27.474C16.6334 27.502 16.4234 27.53 16.2414 27.418C16.1154 27.334 16.0594 27.236 16.0734 27.138C16.1014 26.942 16.4374 26.844 16.5074 26.83C16.5354 26.83 17.0254 26.83 17.5574 26.662C17.8794 26.144 19.4474 24.8 19.5174 24.744C19.5594 24.716 19.6154 24.716 19.6434 24.744C19.6714 24.786 19.6714 24.842 19.6434 24.87C19.6294 24.884 17.9634 26.312 17.6974 26.774C17.6974 26.788 17.6694 26.802 17.6414 26.816C17.0534 26.998 16.5494 26.998 16.5214 26.998C16.4094 27.026 16.2414 27.11 16.2414 27.166C16.2414 27.166 16.2554 27.208 16.3254 27.264C16.4514 27.348 16.6194 27.32 16.7734 27.292C16.9274 27.264 17.0814 27.25 17.1934 27.32C17.4314 27.46 17.5014 27.67 17.5014 27.67C17.5154 27.712 17.5014 27.768 17.4454 27.782C17.4454 27.782 17.4314 27.782 17.4174 27.782H17.4454Z" fill="#081017"/>
<path d="M38.1932 20.698C38.1932 20.698 39.0472 23.456 39.0752 24.436C37.3672 25.836 33.4612 25.444 33.4612 25.444L31.9072 19.158" fill="white"/>
<path d="M34.7216 25.584C34.0076 25.584 33.5036 25.528 33.4476 25.528C33.4056 25.528 33.3776 25.5 33.3636 25.458L31.8096 19.172C31.8096 19.172 31.8236 19.074 31.8796 19.06C31.9216 19.06 31.9776 19.074 31.9916 19.13L33.5316 25.36C34.0356 25.402 37.4376 25.626 38.9916 24.394C38.9356 23.414 38.1236 20.754 38.1096 20.726C38.0956 20.684 38.1096 20.628 38.1656 20.614C38.2076 20.6 38.2636 20.614 38.2776 20.67C38.3056 20.782 39.1316 23.456 39.1596 24.436C39.1596 24.464 39.1596 24.492 39.1316 24.506C38.0256 25.416 36.0236 25.584 34.7216 25.584Z" fill="#081017"/>
<path d="M13.0496 31.492L13.1056 32.164C13.1056 32.164 12.0136 33.018 10.0396 32.584C8.0656 32.15 6.9036 31.856 6.3296 31.436C5.7556 31.016 5.3916 30.708 5.3916 30.708C5.3916 30.708 7.0996 28.034 7.5196 26.27C7.9396 24.506 8.3456 22.714 8.7936 22.112C9.9976 20.46 11.1036 20.432 11.5236 20.306L11.9856 20.614C11.9856 20.614 11.7616 21.846 12.9796 22.49" fill="white"/>
<path d="M11.1163 32.794C10.7803 32.794 10.4163 32.752 10.0103 32.668C7.99428 32.234 6.86028 31.94 6.27228 31.492C5.69828 31.072 5.33428 30.764 5.32028 30.764C5.29228 30.736 5.27828 30.68 5.30628 30.652C5.32028 30.624 7.00028 27.964 7.42028 26.242L7.51828 25.822C7.91028 24.17 8.28828 22.616 8.70828 22.042C9.78628 20.572 10.7663 20.362 11.2983 20.25C11.3683 20.236 11.4383 20.222 11.4943 20.208C11.5223 20.208 11.5503 20.208 11.5643 20.208L12.0263 20.516C12.0263 20.516 12.0683 20.572 12.0683 20.6C12.0683 20.642 11.8723 21.776 13.0063 22.392C13.0483 22.42 13.0623 22.476 13.0483 22.518C13.0203 22.56 12.9643 22.574 12.9223 22.56C11.8163 21.972 11.8583 20.908 11.8863 20.642L11.5083 20.39C11.5083 20.39 11.4103 20.418 11.3543 20.432C10.8503 20.544 9.91228 20.74 8.87628 22.154C8.47028 22.7 8.10628 24.24 7.71428 25.864L7.61628 26.284C7.22428 27.88 5.78228 30.26 5.51628 30.68C5.64228 30.778 5.96428 31.03 6.39828 31.352C6.95828 31.772 8.12028 32.066 10.0663 32.486C11.7743 32.85 12.8103 32.248 13.0203 32.108L12.9643 31.492C12.9643 31.492 12.9923 31.394 13.0483 31.394C13.0903 31.394 13.1463 31.422 13.1463 31.478L13.2023 32.15C13.2023 32.15 13.2023 32.206 13.1743 32.234C13.1323 32.262 12.4323 32.794 11.1303 32.794H11.1163Z" fill="#081017"/>
<path d="M9.6748 27.32C9.6748 27.32 10.6548 29.448 11.0608 30.176C11.3688 30.722 11.9988 31.408 13.0768 31.38C14.6588 31.338 17.0808 30.638 17.0808 30.638L18.4528 30.246C18.4528 30.246 18.8728 30.148 19.3068 30.12C19.7408 30.092 21.2528 29.392 21.2528 29.392C21.2528 29.392 22.1068 29.21 22.4568 29.084C22.8068 28.958 23.0168 28.65 22.1628 28.72C21.5608 28.776 20.8608 28.846 20.8608 28.846C20.8608 28.846 22.4708 28.622 22.6808 28.566C22.9328 28.51 23.0028 28.202 22.9048 28.104C22.7648 27.964 22.7508 28.034 22.0648 28.104C21.3788 28.174 20.8608 28.3 20.8608 28.3C20.8608 28.3 22.7088 27.95 22.8628 27.838C23.1848 27.6 22.8068 27.32 22.2888 27.418C21.7708 27.516 20.6508 27.81 20.6508 27.81C20.6508 27.81 22.5688 27.418 22.5968 27.264C22.6248 27.11 22.3588 26.97 21.7428 26.956C20.3848 26.928 18.7328 28.384 18.5228 28.51C18.3128 28.636 17.5568 28.818 15.9748 28.874C14.3928 28.93 13.1468 28.636 13.1468 28.636L11.6208 23.568" fill="white"/>
<path d="M13.0212 31.478C11.8732 31.478 11.2572 30.694 10.9912 30.232C10.5852 29.504 9.60519 27.39 9.59119 27.362C9.57719 27.32 9.59119 27.264 9.63319 27.25C9.67519 27.236 9.73119 27.25 9.74519 27.292C9.74519 27.32 10.7252 29.42 11.1312 30.148C11.3832 30.582 11.9432 31.31 13.0072 31.31C13.0212 31.31 13.0492 31.31 13.0632 31.31C14.6172 31.268 17.0252 30.582 17.0392 30.568L18.4112 30.176C18.4112 30.176 18.8592 30.078 19.2792 30.05C19.6012 30.022 20.6792 29.574 21.1972 29.322C21.2252 29.322 22.0652 29.14 22.4152 29.014C22.5832 28.958 22.6532 28.874 22.6672 28.846C22.6672 28.846 22.6252 28.804 22.4012 28.804C22.3312 28.804 22.2612 28.804 22.1632 28.804C21.5612 28.86 20.8612 28.93 20.8612 28.93C20.8192 28.93 20.7632 28.902 20.7632 28.846C20.7632 28.804 20.7912 28.748 20.8332 28.748C20.8472 28.748 22.4432 28.524 22.6532 28.482C22.7932 28.454 22.8352 28.328 22.8492 28.286C22.8632 28.23 22.8492 28.174 22.8492 28.174C22.7792 28.104 22.7792 28.104 22.5412 28.132C22.4292 28.146 22.2752 28.16 22.0652 28.188C21.8832 28.202 21.7292 28.23 21.5752 28.244C21.2812 28.3 21.0152 28.356 20.8612 28.384C20.8192 28.384 20.7632 28.356 20.7632 28.314C20.7632 28.272 20.7772 28.216 20.8332 28.202C20.8472 28.202 21.1272 28.132 21.5472 28.062C22.1492 27.936 22.7372 27.81 22.8212 27.754C22.8632 27.726 22.9192 27.67 22.8912 27.628C22.8492 27.544 22.6252 27.432 22.3032 27.488C22.2892 27.488 22.2752 27.488 22.2612 27.488C21.9812 27.586 21.4912 27.698 20.6652 27.88C20.6232 27.88 20.5672 27.866 20.5672 27.81C20.5672 27.768 20.5812 27.712 20.6372 27.698C20.6792 27.698 21.7012 27.404 22.2332 27.306C22.3732 27.264 22.4712 27.222 22.5132 27.194C22.4572 27.124 22.2192 27.04 21.7572 27.026C20.6512 26.998 19.3072 28.02 18.8032 28.398C18.6912 28.482 18.6212 28.538 18.5792 28.552C18.3272 28.692 17.5152 28.874 15.9892 28.93C14.4072 28.986 13.1472 28.692 13.1332 28.678C13.1052 28.678 13.0772 28.65 13.0632 28.622L11.5372 23.554C11.5372 23.554 11.5372 23.456 11.5932 23.442C11.6352 23.428 11.6912 23.442 11.7052 23.498L13.2032 28.524C13.4552 28.58 14.5752 28.804 15.9612 28.748C17.4592 28.692 18.2572 28.524 18.4672 28.398C18.4952 28.384 18.5792 28.328 18.6632 28.258C19.1812 27.866 20.5672 26.816 21.7292 26.844C22.0512 26.844 22.4712 26.9 22.6252 27.082C22.6672 27.138 22.6812 27.194 22.6672 27.264C22.6672 27.264 22.6672 27.292 22.6532 27.306C22.8492 27.334 22.9892 27.432 23.0452 27.544C23.0732 27.6 23.1012 27.754 22.9052 27.894C22.8912 27.894 22.8632 27.922 22.8212 27.936C22.8632 27.95 22.9052 27.978 22.9612 28.034C23.0312 28.104 23.0452 28.202 23.0172 28.328C22.9892 28.454 22.8772 28.594 22.6952 28.65C22.7792 28.678 22.8352 28.734 22.8492 28.79C22.8772 28.944 22.6952 29.084 22.4852 29.154C22.1352 29.28 21.2952 29.462 21.2672 29.462C21.2252 29.49 19.7412 30.162 19.3072 30.19C18.8872 30.218 18.4672 30.302 18.4672 30.316L17.1092 30.708C17.1092 30.708 14.6592 31.422 13.0772 31.45C13.0632 31.45 13.0352 31.45 13.0212 31.45V31.478Z" fill="#081017"/>
<path d="M38.1506 27.698L38.4586 28.86L37.0166 29.882L38.1506 27.698Z" fill="#E6E6E6"/>
<path d="M23.9688 19.326C23.9688 19.326 24.2767 19.032 24.5147 19.186L23.9688 19.326Z" fill="white"/>
<path d="M23.9689 19.41C23.9689 19.41 23.9269 19.41 23.8989 19.382C23.8709 19.34 23.8709 19.284 23.8989 19.256C23.9129 19.256 24.2489 18.92 24.5569 19.116C24.5989 19.144 24.6129 19.2 24.5849 19.242C24.5569 19.284 24.5009 19.298 24.4589 19.27C24.2769 19.158 24.0109 19.396 24.0109 19.396C23.9969 19.41 23.9689 19.424 23.9549 19.424L23.9689 19.41Z" fill="#081017"/>
<path d="M26.4746 19.13C26.4746 19.13 26.8946 19.074 26.9926 19.354L26.4746 19.13Z" fill="white"/>
<path d="M26.993 19.438C26.993 19.438 26.923 19.41 26.909 19.382C26.825 19.172 26.489 19.214 26.475 19.214C26.419 19.214 26.377 19.186 26.377 19.144C26.377 19.102 26.405 19.046 26.447 19.046C26.461 19.046 26.937 18.99 27.063 19.326C27.077 19.368 27.063 19.424 27.007 19.438H26.979H26.993Z" fill="#081017"/>
<path d="M14.8545 16.694C14.8545 16.694 14.9665 16.344 15.2045 16.302L14.8545 16.694Z" fill="white"/>
<path d="M14.8552 16.778C14.8552 16.778 14.8412 16.778 14.8272 16.778C14.7852 16.764 14.7572 16.708 14.7712 16.666C14.7712 16.652 14.9112 16.26 15.1912 16.218C15.2332 16.218 15.2892 16.246 15.2892 16.288C15.2892 16.33 15.2612 16.386 15.2192 16.386C15.0792 16.414 14.9672 16.624 14.9392 16.708C14.9392 16.75 14.8972 16.764 14.8552 16.764V16.778Z" fill="#081017"/>
<path d="M17.2334 16.596C17.2334 16.596 17.4714 16.806 17.4574 16.988L17.2334 16.596Z" fill="white"/>
<path d="M17.458 17.086C17.416 17.086 17.374 17.044 17.374 16.988C17.374 16.89 17.262 16.736 17.178 16.666C17.136 16.638 17.136 16.582 17.178 16.54C17.206 16.498 17.262 16.498 17.304 16.54C17.332 16.568 17.584 16.792 17.556 17.016C17.556 17.058 17.514 17.1 17.472 17.1L17.458 17.086Z" fill="#081017"/>
<path d="M32.5792 36.308L32.6912 35.986L29.9052 34.292C29.9052 34.292 29.3872 34.222 29.1212 34.292C29.0372 34.32 29.4992 34.474 30.0872 34.81C31.1092 35.398 32.5792 36.294 32.5792 36.294V36.308Z" fill="#E10098"/>
<path d="M8.66797 24.926C8.66797 24.926 9.39597 27.362 9.49397 27.362C9.59197 27.362 12.406 26.256 12.406 26.256" fill="white"/>
<path d="M9.49415 27.446C9.41015 27.446 9.34015 27.446 8.58415 24.954C8.57015 24.912 8.58415 24.856 8.64015 24.842C8.68215 24.828 8.73815 24.842 8.75215 24.898C8.99015 25.71 9.39615 26.998 9.52215 27.25C9.80215 27.166 11.3282 26.564 12.3642 26.158C12.4062 26.144 12.4622 26.158 12.4762 26.214C12.4902 26.27 12.4762 26.312 12.4202 26.326C11.1322 26.83 9.56415 27.432 9.48015 27.432L9.49415 27.446Z" fill="#081017"/>
<path d="M11.3393 20.838H11.3113C10.5413 20.53 9.95333 19.942 9.65933 19.186C9.36533 18.43 9.39333 17.59 9.74333 16.848L11.4093 13.726C12.2353 12.004 14.2373 11.136 16.0573 11.724L16.2813 11.794C18.0173 12.354 19.1093 14.006 18.9413 15.826C18.9413 15.882 18.8993 15.91 18.8433 15.91C18.8013 15.91 18.7593 15.868 18.7593 15.812C18.9133 14.09 17.8773 12.508 16.2253 11.976L16.0013 11.906C14.2653 11.346 12.3473 12.172 11.5633 13.81L9.89733 16.932C9.56133 17.632 9.53333 18.402 9.81333 19.13C10.0933 19.844 10.6533 20.404 11.3673 20.684C11.4093 20.698 11.4373 20.754 11.4233 20.796C11.4233 20.838 11.3813 20.852 11.3393 20.852V20.838Z" fill="#E10098"/>
<path d="M23.1855 21.748C22.3175 21.748 21.6035 21.034 21.6035 20.166V18.878C21.6035 17.114 22.9895 15.672 24.6835 15.644C25.5375 15.644 26.3215 15.952 26.9235 16.54C27.5255 17.128 27.8615 17.926 27.8615 18.766C27.8615 18.822 27.8195 18.864 27.7635 18.864C27.7075 18.864 27.6655 18.822 27.6655 18.766C27.6655 17.968 27.3575 17.226 26.7835 16.666C26.2235 16.12 25.4955 15.826 24.7115 15.826C24.6975 15.826 24.6835 15.826 24.6695 15.826C23.0735 15.854 21.7715 17.226 21.7715 18.878V20.166C21.7715 20.936 22.4015 21.566 23.1715 21.566C23.2275 21.566 23.2695 21.608 23.2695 21.664C23.2695 21.72 23.2275 21.762 23.1715 21.762L23.1855 21.748Z" fill="#E10098"/>
<path d="M33.0964 8.896L31.6964 9.246L30.6464 9.96L29.6804 11.36L29.4424 13.376L29.6384 14.566L30.4084 15.574H30.6744L30.4364 14.986L30.3104 13.642L30.3944 12.83C30.3944 12.83 30.1284 12.438 31.1364 12.06C32.1444 11.682 32.7324 11.514 32.8444 11.598C32.9564 11.682 32.9984 12.256 33.2924 12.256C33.5864 12.256 34.8884 11.878 35.0004 11.682C35.1124 11.486 35.2244 11.668 35.2524 12.018C35.2804 12.368 35.8404 12.732 36.7924 12.802L36.8764 11.598L36.4844 10.744L33.1244 8.896H33.0964Z" fill="white"/>
<path d="M30.3398 12.522V14.286C30.3398 15.854 31.5858 17.198 33.1538 17.17C34.8618 17.142 36.2478 15.742 36.2478 14.02H36.3318C36.6818 14.02 36.9618 13.74 36.9618 13.39C36.9618 13.04 36.6818 12.76 36.3318 12.76H36.1778C36.1778 12.76 35.2538 12.732 35.1138 11.486C34.0078 12.41 32.7618 12.354 32.9298 11.878C33.0978 11.402 32.0478 11.682 30.7318 12.242" fill="white"/>
<path d="M33.1255 17.254C32.3975 17.254 31.6975 16.96 31.1655 16.442C30.5915 15.882 30.2695 15.098 30.2695 14.286V12.522C30.2695 12.522 30.3115 12.438 30.3535 12.438C30.3955 12.438 30.4375 12.48 30.4375 12.522V14.286C30.4375 15.042 30.7455 15.784 31.2915 16.316C31.7955 16.806 32.4535 17.086 33.1255 17.086C33.1255 17.086 33.1535 17.086 33.1675 17.086C34.8335 17.058 36.1775 15.686 36.1775 14.034C36.1775 13.978 36.2195 13.95 36.2615 13.95H36.3455C36.6395 13.95 36.8775 13.712 36.8775 13.418C36.8775 13.124 36.6395 12.886 36.3455 12.886H36.1915C36.1915 12.886 35.2675 12.844 35.0715 11.682C34.1895 12.354 33.2935 12.438 32.9855 12.228C32.8595 12.144 32.8175 12.018 32.8735 11.878C32.8735 11.85 32.9015 11.808 32.8735 11.78C32.7895 11.696 32.2435 11.724 30.8015 12.354C30.7595 12.368 30.7035 12.354 30.6895 12.312C30.6755 12.27 30.6895 12.214 30.7315 12.2C32.0195 11.64 32.7895 11.458 32.9995 11.654C33.0555 11.696 33.0975 11.78 33.0415 11.934C33.0135 12.004 33.0415 12.046 33.0835 12.088C33.3215 12.256 34.2175 12.186 35.0855 11.458C35.1135 11.43 35.1415 11.43 35.1695 11.444C35.1975 11.444 35.2255 11.486 35.2255 11.514C35.3515 12.662 36.1635 12.718 36.2055 12.718H36.3455C36.7375 12.718 37.0595 13.04 37.0595 13.432C37.0595 13.824 36.7375 14.146 36.3455 14.146C36.3035 15.868 34.8895 17.268 33.1675 17.296C33.1675 17.296 33.1395 17.296 33.1255 17.296V17.254Z" fill="#081017"/>
<path d="M45.1914 17.52H40.5854C39.9834 17.52 39.4934 17.03 39.4934 16.428C39.4934 15.868 39.0314 15.406 38.4714 15.406H36.1334C36.1334 15.406 36.0494 15.364 36.0494 15.322C36.0494 15.28 36.0914 15.238 36.1334 15.238H38.4714C39.1294 15.238 39.6754 15.77 39.6754 16.428C39.6754 16.932 40.0814 17.338 40.5854 17.338H45.1914C46.0314 17.338 46.7174 16.652 46.7174 15.812C46.7174 14.972 46.0314 14.286 45.1914 14.286H43.1614C42.5314 14.286 42.0274 13.782 42.0274 13.152C42.0274 12.382 41.3974 11.752 40.6274 11.752H38.2894C37.2394 11.752 36.9034 11.248 36.6094 10.8C36.5114 10.646 36.4134 10.506 36.3014 10.38C35.6574 9.46997 34.6214 8.93797 33.5294 8.93797H33.3614C31.2474 8.93797 29.5394 10.646 29.5394 12.76V13.642C29.5394 14.426 29.9314 15.14 30.5754 15.588C30.6174 15.616 30.6314 15.672 30.6034 15.714C30.5754 15.756 30.5194 15.77 30.4774 15.742C29.7774 15.28 29.3574 14.496 29.3574 13.656V12.774C29.3574 10.562 31.1494 8.76997 33.3614 8.76997H33.5294C34.6774 8.76997 35.7694 9.32997 36.4274 10.268C36.5534 10.394 36.6514 10.548 36.7494 10.702C37.0294 11.122 37.3234 11.57 38.2754 11.57H40.6134C41.4814 11.57 42.1814 12.27 42.1814 13.138C42.1814 13.67 42.6154 14.104 43.1474 14.104H45.1774C46.1154 14.104 46.8854 14.874 46.8854 15.812C46.8854 16.75 46.1154 17.52 45.1774 17.52H45.1914Z" fill="#F61BA3"/>
<path d="M31.4014 15.336L33.1094 15.266C33.1094 15.266 33.0814 16.176 32.0594 16.4" fill="white"/>
<path d="M32.0597 16.498C32.0597 16.498 31.9757 16.47 31.9757 16.428C31.9757 16.386 31.9897 16.33 32.0457 16.316C32.8017 16.148 32.9697 15.588 33.0117 15.364L31.4017 15.42C31.4017 15.42 31.3177 15.378 31.3037 15.336C31.3037 15.28 31.3457 15.252 31.3877 15.238L33.0957 15.168C33.0957 15.168 33.1377 15.168 33.1657 15.196C33.1937 15.224 33.1937 15.238 33.1937 15.266C33.1937 15.266 33.1517 16.246 32.0737 16.484C32.0737 16.484 32.0737 16.484 32.0597 16.484V16.498Z" fill="#081017"/>
<path d="M30.9131 13.838C31.0523 13.838 31.1651 13.7252 31.1651 13.586C31.1651 13.4468 31.0523 13.334 30.9131 13.334C30.774 13.334 30.6611 13.4468 30.6611 13.586C30.6611 13.7252 30.774 13.838 30.9131 13.838Z" fill="black"/>
<path d="M32.9707 13.95C33.1099 13.95 33.2227 13.8372 33.2227 13.698C33.2227 13.5588 33.1099 13.446 32.9707 13.446C32.8316 13.446 32.7188 13.5588 32.7188 13.698C32.7188 13.8372 32.8316 13.95 32.9707 13.95Z" fill="black"/>
<path d="M31.6389 14.2579C31.6389 14.2579 31.3589 14.8739 32.0309 14.7059L31.6389 14.2579Z" fill="white"/>
<path d="M31.8217 14.832C31.6957 14.832 31.6117 14.79 31.5557 14.72C31.4157 14.552 31.5417 14.258 31.5557 14.23C31.5697 14.188 31.6257 14.16 31.6677 14.188C31.7097 14.202 31.7377 14.258 31.7097 14.3C31.6817 14.37 31.6257 14.538 31.6817 14.608C31.7237 14.664 31.8357 14.664 31.9897 14.622C32.0317 14.622 32.0877 14.636 32.1017 14.692C32.1017 14.734 32.0877 14.79 32.0317 14.804C31.9477 14.818 31.8777 14.832 31.8077 14.832H31.8217Z" fill="#081017"/>
<path d="M35.8418 13.2219C35.8418 13.2219 36.4158 13.7539 35.6738 14.1319L35.8418 13.2219Z" fill="white"/>
<path d="M35.6734 14.216C35.6734 14.216 35.6034 14.202 35.5894 14.16C35.5614 14.118 35.5894 14.062 35.6314 14.034C35.8274 13.936 35.9394 13.824 35.9534 13.698C35.9814 13.488 35.7714 13.278 35.7714 13.278C35.7294 13.25 35.7294 13.194 35.7714 13.152C35.7994 13.11 35.8554 13.11 35.8974 13.152C35.8974 13.152 36.1774 13.418 36.1354 13.726C36.1074 13.922 35.9674 14.076 35.7154 14.202C35.7154 14.202 35.6874 14.202 35.6734 14.202V14.216Z" fill="#081017"/>
<path d="M32.9551 12.858C32.9551 12.858 33.3751 12.83 33.4591 13.11L32.9551 12.858Z" fill="white"/>
<path d="M33.4594 13.208C33.4594 13.208 33.3894 13.18 33.3754 13.152C33.3054 12.942 32.9554 12.956 32.9554 12.956C32.8994 12.956 32.8714 12.914 32.8574 12.872C32.8574 12.83 32.8854 12.774 32.9414 12.774C32.9554 12.774 33.4314 12.746 33.5434 13.096C33.5574 13.138 33.5434 13.194 33.4874 13.208C33.4874 13.208 33.4734 13.208 33.4594 13.208Z" fill="#081017"/>
<path d="M30.3809 13.096C30.3809 13.096 30.6889 12.802 30.9269 12.956L30.3809 13.096Z" fill="white"/>
<path d="M30.381 13.194C30.381 13.194 30.339 13.194 30.311 13.166C30.283 13.124 30.283 13.068 30.311 13.04C30.325 13.04 30.661 12.704 30.969 12.9C31.011 12.928 31.025 12.984 30.997 13.026C30.969 13.068 30.913 13.082 30.871 13.054C30.689 12.942 30.423 13.18 30.423 13.18C30.409 13.194 30.381 13.208 30.367 13.208L30.381 13.194Z" fill="#081017"/>
<path d="M42.7563 17.548C44.0723 16.974 45.1223 16.694 44.9543 17.184C44.7863 17.674 46.0323 17.716 47.1383 16.792C47.2783 18.038 48.2023 18.066 48.2023 18.066H48.3563C48.7063 18.066 48.9863 18.346 48.9863 18.696C48.9863 19.046 48.7063 19.326 48.3563 19.326H48.2723C48.2723 21.048 46.8863 22.448 45.1783 22.476C43.6103 22.504 42.3643 21.16 42.3643 19.592V17.828" fill="white"/>
<path d="M45.1226 22.56C44.3946 22.56 43.6946 22.266 43.1626 21.748C42.5886 21.188 42.2666 20.404 42.2666 19.592V17.828C42.2666 17.828 42.3086 17.744 42.3506 17.744C42.3926 17.744 42.4346 17.786 42.4346 17.828V19.592C42.4346 20.348 42.7426 21.09 43.2886 21.622C43.7926 22.112 44.4506 22.392 45.1226 22.392C45.1226 22.392 45.1506 22.392 45.1646 22.392C46.8306 22.364 48.1746 20.992 48.1746 19.34C48.1746 19.284 48.2166 19.256 48.2586 19.256H48.3426C48.6366 19.256 48.8746 19.018 48.8746 18.724C48.8746 18.43 48.6366 18.192 48.3426 18.192H48.1886C48.1886 18.192 47.2646 18.15 47.0686 16.988C46.1866 17.66 45.2906 17.744 44.9826 17.534C44.8566 17.45 44.8146 17.324 44.8706 17.184C44.8706 17.156 44.8986 17.114 44.8706 17.086C44.7866 17.002 44.2406 17.03 42.7986 17.66C42.7566 17.674 42.7006 17.66 42.6866 17.618C42.6726 17.576 42.6866 17.52 42.7286 17.506C44.0166 16.946 44.7866 16.764 44.9966 16.96C45.0526 17.002 45.0946 17.086 45.0386 17.24C45.0106 17.31 45.0386 17.352 45.0806 17.394C45.3186 17.562 46.2146 17.492 47.0826 16.764C47.1106 16.736 47.1386 16.736 47.1666 16.75C47.1946 16.75 47.2226 16.792 47.2226 16.82C47.3486 17.968 48.1606 18.024 48.2026 18.024H48.3426C48.7346 18.024 49.0566 18.346 49.0566 18.738C49.0566 19.13 48.7346 19.452 48.3426 19.452C48.3006 21.174 46.8866 22.574 45.1646 22.602C45.1646 22.602 45.1366 22.602 45.1226 22.602V22.56Z" fill="#081017"/>
<path d="M44.856 18.724L44.982 18.584C45.108 18.444 45.29 18.374 45.486 18.374L46.354 18.402C46.606 18.402 46.844 18.57 46.942 18.808V18.85C47.026 19.004 47.026 19.186 46.97 19.34L46.928 19.466C46.83 19.718 46.592 19.9 46.326 19.9L45.444 19.928C45.262 19.928 45.094 19.858 44.954 19.732L44.87 19.648C44.716 19.508 44.646 19.298 44.674 19.088C44.688 18.948 44.758 18.808 44.856 18.71V18.724Z" fill="#F41BA2"/>
<path d="M46.9557 18.906C46.9557 18.906 46.8997 18.892 46.8857 18.864C46.8577 18.822 46.8717 18.766 46.9137 18.738L48.2017 17.912C48.2017 17.912 48.2997 17.898 48.3277 17.94C48.3557 17.982 48.3417 18.038 48.2997 18.066L47.0117 18.892C47.0117 18.892 46.9837 18.892 46.9697 18.892L46.9557 18.906Z" fill="#081017"/>
<path d="M44.7312 19.284C44.7312 19.284 44.7032 19.284 44.6892 19.284C44.3392 19.116 44.1712 19.228 44.1572 19.228C44.1152 19.256 44.0592 19.242 44.0312 19.214C44.0032 19.172 44.0032 19.116 44.0452 19.088C44.0452 19.088 44.2972 18.892 44.7592 19.116C44.8012 19.144 44.8152 19.186 44.8012 19.228C44.7872 19.256 44.7592 19.284 44.7172 19.284H44.7312Z" fill="#081017"/>
<path d="M43.5549 18.486C43.7509 18.542 43.9049 18.682 43.9889 18.864V18.906C44.0729 19.06 44.0729 19.242 44.0169 19.396L43.9749 19.522C43.8769 19.774 43.6389 19.956 43.3729 19.956L42.4909 19.984C42.3089 19.984 42.1409 19.914 42.0009 19.788L41.9169 19.704C41.7629 19.564 41.6929 19.354 41.7209 19.144C41.7349 19.004 41.8049 18.864 41.9029 18.766L42.0289 18.626C42.1549 18.486 42.3369 18.416 42.5329 18.416L43.4009 18.444C43.4009 18.444 43.5129 18.444 43.5689 18.472" fill="#F41BA2"/>
<path d="M44.6467 21.79C44.6467 21.79 44.5627 21.762 44.5627 21.72C44.5627 21.678 44.5907 21.622 44.6327 21.622C45.4727 21.496 45.6827 20.908 45.7247 20.684L43.6807 20.656C43.6807 20.656 43.5967 20.614 43.5967 20.572C43.5967 20.516 43.6247 20.488 43.6807 20.488L45.8227 20.53C45.8227 20.53 45.8647 20.53 45.8927 20.558C45.9067 20.572 45.9207 20.6 45.9207 20.628C45.9207 20.628 45.8367 21.65 44.6607 21.832L44.6467 21.79Z" fill="#081017"/>
<path d="M26.6155 25.15H23.2695V26.956H26.6155V25.15Z" fill="white"/>
<path d="M36.807 19.326H35.127V21.132H36.807V19.326Z" fill="white"/>
<path d="M47.0986 14.748L46.3566 14.16L44.6626 14.216L42.9546 14.622L42.4086 15.518L42.2686 16.89L42.3106 17.856L43.3746 17.254L44.6766 16.918L44.8866 16.974L44.9846 17.338L45.3206 17.562L46.7206 17.142L46.9586 16.946L47.0986 14.748Z" fill="white"/>
<path d="M47.9939 20.194C47.9939 20.194 47.9099 20.152 47.9099 20.11C47.9099 20.068 47.9519 20.026 47.9939 20.026C48.7639 20.026 49.3939 19.396 49.3939 18.626V17.52C49.3939 15.728 47.9379 14.272 46.1459 14.272H45.1939C43.6539 14.272 42.3939 15.532 42.3939 17.072V18.024C42.3939 18.024 42.3519 18.108 42.2959 18.108C42.2959 18.108 42.2119 18.066 42.2119 18.024V17.072C42.2119 15.434 43.5559 14.09 45.1939 14.09H46.1459C48.0359 14.09 49.5759 15.63 49.5759 17.52V18.626C49.5759 19.494 48.8759 20.194 48.0079 20.194H47.9939Z" fill="#F61BA3"/>
<path d="M42.7559 17.548C44.0719 16.974 45.1219 16.694 44.9539 17.184C44.7859 17.674 46.0319 17.716 47.1379 16.792C47.2779 18.038 48.2019 18.066 48.2019 18.066" fill="white"/>
<path d="M48.2016 18.164C48.2016 18.164 47.2776 18.122 47.0816 16.96C46.1996 17.632 45.3036 17.716 44.9956 17.506C44.8696 17.422 44.8276 17.296 44.8836 17.156C44.8836 17.128 44.9116 17.086 44.8836 17.058C44.7996 16.974 44.2536 17.002 42.8116 17.632C42.7696 17.646 42.7136 17.632 42.6996 17.59C42.6856 17.548 42.6996 17.492 42.7416 17.478C44.0296 16.918 44.7996 16.736 45.0096 16.932C45.0656 16.974 45.1076 17.058 45.0516 17.212C45.0236 17.282 45.0516 17.324 45.0936 17.366C45.3316 17.534 46.2276 17.464 47.0956 16.736C47.1236 16.708 47.1516 16.708 47.1796 16.722C47.2076 16.722 47.2356 16.764 47.2356 16.792C47.3616 17.94 48.1736 17.996 48.2156 17.996C48.2576 17.996 48.2996 18.038 48.2996 18.094C48.2996 18.136 48.2576 18.178 48.2156 18.178L48.2016 18.164Z" fill="#081017"/>
<g style="mix-blend-mode:multiply">
<path d="M36.3594 16.61L39.1454 19.088V19.886L39.8594 19.004C39.8594 19.004 39.9574 18.794 39.8594 18.64C39.7614 18.486 37.3814 16.708 36.3594 16.61Z" fill="#E6E6E6"/>
<path d="M39.1598 19.97C39.1598 19.97 39.1458 19.97 39.1318 19.97C39.1038 19.97 39.0758 19.928 39.0758 19.9V19.13L36.2898 16.666C36.2618 16.638 36.2618 16.61 36.2758 16.582C36.2758 16.554 36.3178 16.526 36.3598 16.54C37.3818 16.638 39.7898 18.388 39.9298 18.612C40.0558 18.808 39.9298 19.046 39.9298 19.06L39.2298 19.956C39.2298 19.956 39.1878 19.984 39.1738 19.984L39.1598 19.97ZM36.6118 16.736L39.1878 19.032C39.1878 19.032 39.2158 19.06 39.2158 19.088V19.676L39.8038 18.962C39.8038 18.962 39.8738 18.794 39.8038 18.682C39.7058 18.542 37.7318 17.058 36.6258 16.736H36.6118Z" fill="#E6E6E6"/>
</g>
<g style="mix-blend-mode:multiply">
<path d="M48.0641 22.112H47.9101C47.9101 22.112 47.7841 22.112 47.7561 22.266C47.7281 22.42 49.7581 22.56 50.5561 23.162C51.3541 23.764 51.6901 24.352 51.6901 24.352L52.7261 28.594L54.2661 27.992C54.2661 27.992 54.4201 28.076 54.2941 27.684C54.1681 27.292 52.8241 24.366 52.7401 24.282C52.6561 24.198 50.6401 21.93 48.0641 22.112Z" fill="#E6E6E6"/>
<path d="M52.7257 28.692C52.7257 28.692 52.6977 28.692 52.6837 28.692C52.6697 28.692 52.6557 28.664 52.6417 28.636L51.6057 24.408C51.5637 24.338 51.2137 23.792 50.4997 23.246C50.0237 22.882 49.0437 22.686 48.3997 22.56C47.8257 22.448 47.6437 22.406 47.6717 22.28C47.6997 22.112 47.8257 22.056 47.8957 22.042H48.0637C50.3877 21.902 52.2637 23.68 52.7677 24.24H52.7817C52.8797 24.352 54.2377 27.306 54.3497 27.684C54.4197 27.894 54.4197 28.02 54.3497 28.076C54.3217 28.104 54.2797 28.104 54.2517 28.104L52.7397 28.706C52.7397 28.706 52.7257 28.706 52.7117 28.706L52.7257 28.692ZM47.8397 22.252C47.9237 22.294 48.1897 22.35 48.4277 22.392C49.0857 22.518 50.0797 22.728 50.5837 23.106C51.3817 23.708 51.7177 24.296 51.7317 24.324C51.7317 24.324 51.7317 24.324 51.7317 24.338L52.7537 28.496L54.2097 27.922C54.2097 27.922 54.2237 27.922 54.2377 27.922C54.2377 27.894 54.2377 27.838 54.1957 27.712C54.0697 27.306 52.7537 24.464 52.6557 24.338H52.6417C52.1377 23.778 50.3037 22.042 48.0497 22.196H47.8957C47.8957 22.196 47.8537 22.196 47.8257 22.252H47.8397Z" fill="#E6E6E6"/>
</g>
<g style="mix-blend-mode:multiply">
<path d="M49.0566 26.298L49.2946 30.05L51.3946 30.372L51.1006 29.266L50.6526 29.392L49.2386 26.312L49.0566 26.298Z" fill="#E6E6E6"/>
<path d="M51.3943 30.456L49.2943 30.134C49.2943 30.134 49.2383 30.106 49.2243 30.064L48.9863 26.312C48.9863 26.312 48.9863 26.27 49.0143 26.256C49.0283 26.242 49.0563 26.228 49.0703 26.228H49.2523C49.2523 26.228 49.3083 26.256 49.3223 26.284L50.7223 29.308L51.1003 29.196C51.1003 29.196 51.1423 29.196 51.1563 29.196C51.1703 29.196 51.1843 29.224 51.1983 29.238L51.4923 30.358C51.4923 30.358 51.4923 30.414 51.4783 30.428C51.4643 30.442 51.4363 30.456 51.4223 30.456H51.3943ZM49.3643 29.994L51.2963 30.288L51.0443 29.35L50.6803 29.462C50.6803 29.462 50.6103 29.462 50.5823 29.42L49.1823 26.382H49.1263L49.3503 29.994H49.3643Z" fill="#E6E6E6"/>
</g>
<path d="M38.4584 36.07L37.9824 36.91L38.0944 37.246L42.0844 37.582L42.5324 35.034L38.5844 35.79L38.4584 36.07Z" fill="#E6E6E6"/>
<path d="M42.0841 37.666L38.0941 37.33C38.0941 37.33 38.0241 37.302 38.0241 37.274L37.9121 36.938C37.9121 36.938 37.9121 36.882 37.9121 36.868L38.3881 36.028L38.5281 35.762C38.5281 35.762 38.5701 35.72 38.5841 35.72L42.5321 34.964C42.5321 34.964 42.5881 34.964 42.6161 34.992C42.6301 35.006 42.6441 35.048 42.6441 35.076L42.1961 37.624C42.1961 37.624 42.1541 37.694 42.1121 37.694L42.0841 37.666ZM38.1641 37.162L42.0141 37.484L42.4341 35.146L38.6541 35.874L38.5421 36.112L38.0801 36.924L38.1641 37.176V37.162Z" fill="#081017"/>
<g style="mix-blend-mode:multiply">
<path d="M40.6006 28.972L41.9446 29.658L42.6446 29.056L42.0006 25.892L40.6006 28.972Z" fill="#E6E6E6"/>
<path d="M41.945 29.742H41.917L40.5729 29.056C40.5729 29.056 40.5169 29 40.5449 28.958L41.945 25.892C41.945 25.892 41.987 25.85 42.029 25.85C42.057 25.85 42.085 25.878 42.099 25.906L42.757 29.056C42.757 29.056 42.757 29.112 42.729 29.126L42.015 29.728C42.015 29.728 41.987 29.742 41.959 29.742H41.945ZM40.699 28.93L41.931 29.56L42.561 29.014L41.973 26.13L40.699 28.93Z" fill="#E6E6E6"/>
</g>
<g style="mix-blend-mode:multiply">
<path d="M25.6193 26.326L24.6953 30.274L26.1233 30.12C26.1233 30.12 26.4453 30.05 26.5153 29.756C26.5853 29.462 26.9073 25.444 26.9073 25.444L28.2373 25.542L28.9513 23.82C28.9513 23.82 28.4193 23.26 28.2093 23.232C27.8033 24.324 27.3693 25.22 27.3693 25.22C26.5853 25.052 25.8153 25.542 25.6333 26.326H25.6193Z" fill="#E6E6E6"/>
<path d="M24.6959 30.358C24.6959 30.358 24.6539 30.358 24.6399 30.33C24.6259 30.316 24.6119 30.288 24.6259 30.26L25.5499 26.312C25.7319 25.514 26.5159 24.996 27.3279 25.136C27.4259 24.926 27.8039 24.128 28.1399 23.204C28.1399 23.176 28.1819 23.148 28.2239 23.148C28.4479 23.176 28.9239 23.652 29.0219 23.75C29.0359 23.778 29.0499 23.806 29.0359 23.834L28.3219 25.556C28.3219 25.556 28.2799 25.612 28.2519 25.598L27.0059 25.514C26.9639 26.088 26.6839 29.476 26.6279 29.77C26.5439 30.12 26.1939 30.19 26.1799 30.204L24.7379 30.358H24.6959ZM25.6899 26.34L24.7939 30.19L26.1239 30.05C26.1239 30.05 26.3899 29.994 26.4459 29.742C26.5019 29.504 26.7259 26.816 26.8379 25.43C26.8379 25.388 26.8799 25.36 26.9219 25.36L28.1959 25.458L28.8679 23.834C28.6859 23.638 28.4059 23.4 28.2659 23.33C27.8739 24.38 27.4539 25.262 27.4539 25.262C27.4399 25.29 27.3979 25.304 27.3699 25.304C26.6279 25.15 25.8859 25.612 25.7179 26.354L25.6899 26.34Z" fill="#E6E6E6"/>
</g>
<path d="M49.141 32.57L49.043 32.584L51.941 34.978L52.809 36.084L52.907 33.858L49.141 32.57Z" fill="#E6E6E6"/>
<path d="M52.8092 36.168C52.8092 36.168 52.7532 36.168 52.7392 36.14L51.8712 35.034L48.9732 32.668C48.9732 32.668 48.9312 32.612 48.9452 32.57C48.9452 32.542 48.9872 32.514 49.0152 32.5H49.1272C49.1272 32.5 49.1552 32.5 49.1692 32.5L52.9352 33.788C52.9352 33.788 52.9912 33.83 52.9912 33.872L52.8932 36.098C52.8932 36.098 52.8652 36.168 52.8372 36.182C52.8372 36.182 52.8232 36.182 52.8092 36.182V36.168ZM49.3652 32.752L51.9972 34.908L52.7252 35.846L52.8092 33.928L49.3652 32.752Z" fill="#081017"/>
<g style="mix-blend-mode:multiply">
<path d="M37.5078 20.166L38.6558 24.688L39.0758 24.436L38.2358 20.586L37.5078 20.166Z" fill="#E6E6E6"/>
<path d="M38.6555 24.758C38.6555 24.758 38.6415 24.758 38.6275 24.758C38.5995 24.758 38.5855 24.73 38.5855 24.702L37.4375 20.18C37.4375 20.18 37.4375 20.124 37.4655 20.096C37.4935 20.082 37.5215 20.082 37.5495 20.096L38.2775 20.516C38.2775 20.516 38.3055 20.544 38.3195 20.572L39.1595 24.422C39.1595 24.422 39.1595 24.492 39.1175 24.506L38.6975 24.758C38.6975 24.758 38.6695 24.758 38.6555 24.758ZM37.6195 20.32L38.6975 24.576L38.9915 24.408L38.1655 20.642L37.6195 20.334V20.32Z" fill="#E6E6E6"/>
</g>
<g style="mix-blend-mode:multiply">
<path d="M26.3077 30.568L26.9377 32.962L26.9797 33.27L26.6437 33.452L26.1957 33.536L25.8457 30.204L26.1397 30.106C26.1397 30.106 26.2797 30.204 26.3077 30.554V30.568Z" fill="#E6E6E6"/>
<path d="M26.1954 33.634C26.1954 33.634 26.1674 33.634 26.1534 33.62C26.1394 33.62 26.1254 33.592 26.1254 33.564L25.7754 30.232C25.7754 30.232 25.7894 30.162 25.8314 30.148L26.1254 30.05C26.1254 30.05 26.1674 30.05 26.1954 30.05C26.2094 30.05 26.3634 30.176 26.3914 30.554L27.0214 32.948L27.0634 33.27C27.0634 33.27 27.0634 33.326 27.0214 33.34L26.6854 33.522C26.6854 33.522 26.6854 33.522 26.6574 33.522L26.2094 33.606C26.2094 33.606 26.2094 33.606 26.1954 33.606V33.634ZM25.9154 30.274L26.2514 33.466L26.6014 33.396L26.8814 33.242L26.8534 32.976L26.2234 30.596C26.2234 30.596 26.2234 30.596 26.2234 30.582C26.2094 30.372 26.1394 30.26 26.1114 30.218L25.9154 30.288V30.274Z" fill="#E6E6E6"/>
</g>
<g style="mix-blend-mode:multiply">
<path d="M16.0997 23.848C16.0997 23.848 15.6237 25.416 15.1197 25.836C14.6157 26.256 13.6777 28.706 13.6777 28.706L14.3357 28.86C14.3357 28.86 14.5457 28.748 14.5457 28.608C14.5457 28.468 14.6997 28.09 14.8257 27.978C14.9517 27.866 16.2257 26.914 16.3797 25.626C16.5337 24.338 16.3517 23.638 16.3517 23.638L16.1137 23.848H16.0997Z" fill="#E6E6E6"/>
<path d="M14.3217 28.944C14.3217 28.944 14.3217 28.944 14.3077 28.944L13.6497 28.79C13.6497 28.79 13.6077 28.776 13.5938 28.748C13.5938 28.734 13.5938 28.706 13.5938 28.692C13.6357 28.594 14.5597 26.228 15.0637 25.794C15.5397 25.388 16.0157 23.862 16.0157 23.834C16.0157 23.834 16.0157 23.806 16.0437 23.806L16.2817 23.596C16.2817 23.596 16.3237 23.568 16.3517 23.582C16.3797 23.582 16.3937 23.61 16.4077 23.638C16.4077 23.666 16.5897 24.366 16.4357 25.654C16.3517 26.438 15.8477 27.222 14.9377 27.992C14.8957 28.02 14.8817 28.048 14.8677 28.062C14.7697 28.16 14.6157 28.524 14.6157 28.636C14.6157 28.804 14.3918 28.93 14.3778 28.944C14.3778 28.944 14.3497 28.944 14.3357 28.944H14.3217ZM13.7617 28.65L14.3077 28.776C14.3077 28.776 14.4477 28.664 14.4477 28.608C14.4477 28.454 14.6157 28.048 14.7417 27.922C14.7417 27.922 14.7837 27.88 14.8257 27.852C15.7077 27.11 16.1837 26.354 16.2677 25.612C16.3797 24.66 16.3097 24.03 16.2677 23.778L16.1557 23.876C16.0997 24.072 15.6377 25.472 15.1617 25.878C14.7277 26.242 13.9297 28.216 13.7617 28.636V28.65Z" fill="#E6E6E6"/>
</g>
<g style="mix-blend-mode:multiply">
<path d="M12.2089 31.212C12.2089 31.212 10.5569 32.444 9.1709 32.374C10.8789 32.808 12.1669 32.864 13.1049 32.15C13.1049 31.562 13.0769 31.338 13.0769 31.338C13.0769 31.338 12.3489 31.366 12.2089 31.198V31.212Z" fill="#E6E6E6"/>
<path d="M11.2846 32.78C10.6966 32.78 9.99659 32.668 9.15659 32.458C9.11459 32.458 9.10059 32.416 9.10059 32.374C9.10059 32.332 9.14259 32.318 9.18459 32.304C9.22659 32.304 9.25459 32.304 9.29659 32.304C10.6126 32.304 12.1526 31.156 12.1666 31.142C12.1946 31.114 12.2366 31.128 12.2646 31.142C12.3486 31.24 12.7966 31.268 13.0766 31.254C13.1186 31.254 13.1466 31.282 13.1606 31.324C13.1606 31.324 13.1886 31.548 13.1886 32.15C13.1886 32.178 13.1886 32.192 13.1606 32.206C12.6706 32.584 12.0686 32.766 11.2986 32.766L11.2846 32.78ZM9.70259 32.43C11.2706 32.766 12.2786 32.668 13.0206 32.122C13.0206 31.744 13.0206 31.534 13.0066 31.436C12.8246 31.436 12.3906 31.436 12.1946 31.324C11.9566 31.506 10.8226 32.276 9.68859 32.444L9.70259 32.43Z" fill="#E6E6E6"/>
</g>
<g style="mix-blend-mode:multiply">
<path d="M23.0452 32.192L22.4852 32.206L21.6172 33.97L22.6112 34.096L23.0452 32.192Z" fill="#E6E6E6"/>
<path d="M22.6105 34.18L21.6165 34.054C21.6165 34.054 21.5745 34.04 21.5605 34.012C21.5605 33.984 21.5605 33.97 21.5605 33.942L22.4285 32.178C22.4285 32.178 22.4705 32.136 22.4985 32.136L23.0585 32.108C23.0585 32.108 23.1005 32.108 23.1145 32.136C23.1285 32.164 23.1425 32.178 23.1285 32.206L22.7085 34.124C22.7085 34.124 22.6665 34.18 22.6385 34.18H22.6105ZM21.7285 33.914L22.5545 34.012L22.9465 32.262H22.5265L21.7285 33.914Z" fill="#E6E6E6"/>
</g>
<g style="mix-blend-mode:multiply">
<path d="M11.6348 23.722L11.4248 26.592L12.4188 26.172L11.6348 23.722Z" fill="#E6E6E6"/>
<path d="M11.4245 26.662C11.4245 26.662 11.3965 26.662 11.3825 26.648C11.3545 26.634 11.3545 26.606 11.3545 26.578L11.5505 23.708C11.5505 23.708 11.5785 23.638 11.6205 23.638C11.6625 23.638 11.6905 23.652 11.7045 23.694L12.4885 26.144C12.4885 26.144 12.4885 26.228 12.4465 26.242L11.4665 26.662C11.4665 26.662 11.4525 26.662 11.4385 26.662H11.4245ZM11.6765 24.114L11.5085 26.466L12.3205 26.13L11.6765 24.128V24.114Z" fill="#E6E6E6"/>
</g>
<g style="mix-blend-mode:multiply">
<path d="M14.7707 33.606C14.7707 33.606 16.9547 36.196 16.9687 37.106C16.9827 38.016 16.7447 38.674 15.1487 39.066C14.7567 37.708 14.2807 37.078 13.2167 36.084C12.1527 35.09 11.4387 34.502 11.4387 34.502C11.4387 34.502 14.0987 37.498 13.9307 38.828C13.7627 40.158 10.8647 40.312 10.3887 40.312C12.8387 40.802 13.9307 41.278 14.9387 39.752C15.1347 39.654 15.9187 39.64 15.9187 39.64C15.9187 39.64 18.0887 39.934 17.8927 37.05C17.7107 35.832 14.7567 33.62 14.7567 33.62L14.7707 33.606Z" fill="#E6E6E6"/>
<path d="M13.1607 40.844C12.6287 40.844 11.9987 40.718 11.2427 40.55C10.9767 40.494 10.6827 40.438 10.3887 40.368C10.3467 40.368 10.3187 40.326 10.3327 40.284C10.3327 40.242 10.3747 40.214 10.4027 40.214C11.2567 40.214 13.7207 39.948 13.8747 38.8C14.0427 37.526 11.4247 34.572 11.4107 34.544C11.3827 34.516 11.3827 34.474 11.4107 34.446C11.4387 34.418 11.4807 34.418 11.5087 34.446C11.5087 34.446 12.2227 35.048 13.2867 36.028C14.3087 36.98 14.8127 37.61 15.2187 38.982C16.6607 38.604 16.9267 38.03 16.8987 37.106C16.8847 36.238 14.7427 33.676 14.7147 33.648C14.6867 33.62 14.6867 33.578 14.7147 33.55C14.7427 33.522 14.7847 33.522 14.8127 33.55C14.9387 33.648 17.7947 35.79 17.9767 37.022C18.0467 38.044 17.8367 38.786 17.3467 39.248C16.7447 39.808 15.9467 39.71 15.9187 39.71C15.6387 39.71 15.1487 39.752 14.9947 39.808C14.4627 40.592 13.9027 40.858 13.1607 40.858V40.844ZM10.9767 40.34C11.0747 40.354 11.1727 40.382 11.2707 40.396C13.1047 40.788 14.0287 40.984 14.8827 39.696C14.8827 39.696 14.8967 39.682 14.9107 39.668C15.1067 39.556 15.8487 39.542 15.9327 39.542C15.9467 39.542 16.7027 39.64 17.2487 39.122C17.6967 38.702 17.8927 38.002 17.8367 37.036C17.7107 36.182 16.1287 34.782 15.2747 34.082C15.9187 34.894 17.0527 36.42 17.0527 37.092C17.0667 38.086 16.7727 38.73 15.1767 39.136C15.1347 39.136 15.0927 39.136 15.0787 39.08C14.6727 37.694 14.1827 37.078 13.1607 36.126C12.7547 35.748 12.3907 35.412 12.1107 35.16C12.8947 36.14 14.1407 37.876 14.0147 38.814C13.8607 39.92 11.9707 40.242 10.9907 40.326L10.9767 40.34Z" fill="#E6E6E6"/>
</g>
<g style="mix-blend-mode:multiply">
<path d="M21.9944 25.64L20.8464 26.326L20.5664 25.948L21.9944 25.64Z" fill="#E6E6E6"/>
<path d="M20.8471 26.41C20.8471 26.41 20.8051 26.41 20.7911 26.382L20.5111 26.004C20.5111 26.004 20.4971 25.962 20.5111 25.934C20.5111 25.906 20.5391 25.892 20.5671 25.892L21.9811 25.584C21.9811 25.584 22.0511 25.584 22.0651 25.626C22.0651 25.654 22.0651 25.696 22.0371 25.724L20.9031 26.41C20.9031 26.41 20.8751 26.41 20.8611 26.41H20.8471ZM20.7071 26.004L20.8751 26.228L21.5611 25.808L20.7071 26.004Z" fill="#E6E6E6"/>
</g>
<g style="mix-blend-mode:multiply">
<path d="M31.6713 19.214L31.4893 20.502L31.2793 20.81C31.2793 20.81 31.5593 21.034 31.6153 21.02C31.6713 21.006 32.2593 20.502 32.2593 20.502L31.8953 19.144L31.6853 19.214H31.6713Z" fill="#E6E6E6"/>
<path d="M31.586 21.104C31.586 21.104 31.46 21.076 31.208 20.88C31.18 20.852 31.166 20.81 31.194 20.782L31.404 20.488L31.586 19.214C31.586 19.214 31.614 19.158 31.642 19.158L31.852 19.088C31.852 19.088 31.894 19.088 31.908 19.088C31.922 19.088 31.936 19.116 31.95 19.13L32.314 20.488C32.314 20.488 32.314 20.544 32.286 20.572C31.684 21.09 31.642 21.104 31.628 21.104C31.628 21.104 31.614 21.104 31.6 21.104H31.586ZM31.362 20.796C31.446 20.852 31.53 20.922 31.572 20.936C31.642 20.88 31.922 20.642 32.146 20.46L31.81 19.228L31.726 19.256L31.544 20.502V20.53L31.376 20.782L31.362 20.796Z" fill="#E6E6E6"/>
</g>
</svg>
