<svg width="82" height="64" viewBox="0 0 82 64" fill="none" xmlns="http://www.w3.org/2000/svg">
<path d="M18.4551 30.1111V41.0184" stroke="#E6E6E6" stroke-width="1.03127" stroke-miterlimit="10"/>
<path d="M26.5469 28.8897V41.0184" stroke="#E6E6E6" stroke-width="1.03127" stroke-miterlimit="10"/>
<mask id="mask0_2941_4825" style="mask-type:luminance" maskUnits="userSpaceOnUse" x="10" y="11" width="17" height="19">
<path d="M18.3956 29.3915C22.9223 29.3915 26.592 25.3036 26.592 20.261C26.592 15.2184 22.9223 11.1306 18.3956 11.1306C13.8689 11.1306 10.1992 15.2184 10.1992 20.261C10.1992 25.3036 13.8689 29.3915 18.3956 29.3915Z" fill="white"/>
</mask>
<g mask="url(#mask0_2941_4825)">
<path d="M18.397 6.72192L-1.95508 29.3933L18.397 52.0648L38.7491 29.3933L18.397 6.72192Z" stroke="#F6B4DD" stroke-width="0.237985" stroke-miterlimit="10"/>
<path d="M18.3971 8.53849L-0.324219 29.3933L18.3971 50.2482L37.1185 29.3933L18.3971 8.53849Z" stroke="#F6B4DD" stroke-width="0.237985" stroke-miterlimit="10"/>
<path d="M18.3973 10.3551L1.30664 29.3933L18.3973 48.4316L35.4879 29.3933L18.3973 10.3551Z" stroke="#F6B4DD" stroke-width="0.237985" stroke-miterlimit="10"/>
<path d="M18.3974 12.1716L2.9375 29.3933L18.3974 46.6151L33.8573 29.3933L18.3974 12.1716Z" stroke="#F6B4DD" stroke-width="0.237985" stroke-miterlimit="10"/>
<path d="M18.3975 13.9882L4.56836 29.3933L18.3975 44.7985L32.2267 29.3933L18.3975 13.9882Z" stroke="#F6B4DD" stroke-width="0.237985" stroke-miterlimit="10"/>
<path d="M18.3958 15.8025L6.19531 29.3933L18.3958 42.9841L30.5962 29.3933L18.3958 15.8025Z" stroke="#F6B4DD" stroke-width="0.237985" stroke-miterlimit="10"/>
<path d="M18.3959 17.6191L7.82617 29.3933L18.3959 41.1676L28.9656 29.3933L18.3959 17.6191Z" stroke="#F6B4DD" stroke-width="0.237985" stroke-miterlimit="10"/>
<path d="M18.3941 19.4357L9.45508 29.3933L18.3941 39.351L27.333 29.3933L18.3941 19.4357Z" stroke="#F6B4DD" stroke-width="0.237985" stroke-miterlimit="10"/>
<path d="M18.3942 21.2523L11.0859 29.3933L18.3942 37.5344L25.7024 29.3933L18.3942 21.2523Z" stroke="#F6B4DD" stroke-width="0.237985" stroke-miterlimit="10"/>
<path d="M18.3963 23.0666L12.7168 29.3933L18.3963 35.7201L24.0758 29.3933L18.3963 23.0666Z" stroke="#F6B4DD" stroke-width="0.237985" stroke-miterlimit="10"/>
<path d="M18.3964 24.8832L14.3477 29.3933L18.3964 33.9035L22.4452 29.3933L18.3964 24.8832Z" stroke="#F6B4DD" stroke-width="0.237985" stroke-miterlimit="10"/>
<path d="M18.3966 26.6997L15.9785 29.3933L18.3966 32.087L20.8146 29.3933L18.3966 26.6997Z" stroke="#F6B4DD" stroke-width="0.237985" stroke-miterlimit="10"/>
<path d="M18.3967 28.5163L17.6094 29.3933L18.3967 30.2704L19.184 29.3933L18.3967 28.5163Z" stroke="#F6B4DD" stroke-width="0.237985" stroke-miterlimit="10"/>
</g>
<path d="M26.8657 29.3883C29.676 29.3883 31.9541 26.8506 31.9541 23.7201C31.9541 20.5896 29.676 18.0518 26.8657 18.0518C24.0555 18.0518 21.7773 20.5896 21.7773 23.7201C21.7773 26.8506 24.0555 29.3883 26.8657 29.3883Z" fill="white" stroke="white" stroke-width="1.70556" stroke-miterlimit="10"/>
<mask id="mask1_2941_4825" style="mask-type:luminance" maskUnits="userSpaceOnUse" x="21" y="18" width="11" height="12">
<path d="M26.8627 29.3915C29.6745 29.3915 31.9539 26.8523 31.9539 23.72C31.9539 20.5878 29.6745 18.0486 26.8627 18.0486C24.0509 18.0486 21.7715 20.5878 21.7715 23.72C21.7715 26.8523 24.0509 29.3915 26.8627 29.3915Z" fill="white"/>
</mask>
<g mask="url(#mask1_2941_4825)">
<path d="M26.8635 16.2807L15.0938 29.3917L26.8635 42.5027L38.6332 29.3917L26.8635 16.2807Z" stroke="#E6E6E6" stroke-width="0.237985" stroke-miterlimit="10"/>
<path d="M26.8612 17.6844L16.3496 29.3939L26.8612 41.1034L37.3728 29.3939L26.8612 17.6844Z" stroke="#E6E6E6" stroke-width="0.237985" stroke-miterlimit="10"/>
<path d="M26.861 19.0814L17.6055 29.3917L26.861 39.7019L36.1165 29.3917L26.861 19.0814Z" stroke="#E6E6E6" stroke-width="0.237985" stroke-miterlimit="10"/>
<path d="M26.8607 20.4829L18.8633 29.3917L26.8607 38.3004L34.8581 29.3917L26.8607 20.4829Z" stroke="#E6E6E6" stroke-width="0.237985" stroke-miterlimit="10"/>
<path d="M26.8643 21.8821L20.123 29.3917L26.8643 36.9012L33.6056 29.3917L26.8643 21.8821Z" stroke="#E6E6E6" stroke-width="0.237985" stroke-miterlimit="10"/>
<path d="M26.8621 23.2859L21.3789 29.3939L26.8621 35.502L32.3453 29.3939L26.8621 23.2859Z" stroke="#E6E6E6" stroke-width="0.237985" stroke-miterlimit="10"/>
<path d="M26.8618 24.6829L22.6348 29.3917L26.8618 34.1005L31.0889 29.3917L26.8618 24.6829Z" stroke="#E6E6E6" stroke-width="0.237985" stroke-miterlimit="10"/>
<path d="M26.8616 26.0843L23.8926 29.3917L26.8616 32.699L29.8305 29.3917L26.8616 26.0843Z" stroke="#E6E6E6" stroke-width="0.237985" stroke-miterlimit="10"/>
<path d="M26.8633 27.4836L25.1504 29.3917L26.8633 31.2997L28.5761 29.3917L26.8633 27.4836Z" stroke="#E6E6E6" stroke-width="0.237985" stroke-miterlimit="10"/>
<path d="M26.861 28.8873L26.4062 29.3939L26.861 29.9005L27.3158 29.3939L26.861 28.8873Z" stroke="#E6E6E6" stroke-width="0.237985" stroke-miterlimit="10"/>
</g>
<path d="M10.8698 17.3197C12.2045 17.3197 13.2865 16.1144 13.2865 14.6276C13.2865 13.1408 12.2045 11.9355 10.8698 11.9355C9.53512 11.9355 8.45312 13.1408 8.45312 14.6276C8.45312 16.1144 9.53512 17.3197 10.8698 17.3197Z" fill="white" stroke="white" stroke-width="1.70556" stroke-miterlimit="10"/>
<mask id="mask2_2941_4825" style="mask-type:luminance" maskUnits="userSpaceOnUse" x="8" y="11" width="6" height="7">
<path d="M10.8698 17.3197C12.2045 17.3197 13.2865 16.1144 13.2865 14.6276C13.2865 13.1408 12.2045 11.9355 10.8698 11.9355C9.53512 11.9355 8.45312 13.1408 8.45312 14.6276C8.45312 16.1144 9.53512 17.3197 10.8698 17.3197Z" fill="white"/>
</mask>
<g mask="url(#mask2_2941_4825)">
<path d="M10.8686 11.0977L5.28125 17.3218L10.8686 23.5459L16.456 17.3218L10.8686 11.0977Z" stroke="#F6B4DD" stroke-width="0.237985" stroke-miterlimit="10"/>
<path d="M10.8689 11.9502L6.04883 17.3196L10.8689 22.689L15.689 17.3196L10.8689 11.9502Z" stroke="#F6B4DD" stroke-width="0.237985" stroke-miterlimit="10"/>
<path d="M10.8692 12.8071L6.81641 17.3218L10.8692 21.8364L14.922 17.3218L10.8692 12.8071Z" stroke="#F6B4DD" stroke-width="0.237985" stroke-miterlimit="10"/>
<path d="M10.8695 13.6597L7.58398 17.3196L10.8695 20.9795L14.155 17.3196L10.8695 13.6597Z" stroke="#F6B4DD" stroke-width="0.237985" stroke-miterlimit="10"/>
<path d="M10.8698 14.5166L8.35156 17.3218L10.8698 20.127L13.388 17.3218L10.8698 14.5166Z" stroke="#F6B4DD" stroke-width="0.237985" stroke-miterlimit="10"/>
<path d="M10.8681 15.3691L9.11719 17.3196L10.8681 19.2701L12.6191 17.3196L10.8681 15.3691Z" stroke="#F6B4DD" stroke-width="0.237985" stroke-miterlimit="10"/>
<path d="M10.8665 16.2239L9.88281 17.3196L10.8665 18.4154L11.8501 17.3196L10.8665 16.2239Z" stroke="#F6B4DD" stroke-width="0.237985" stroke-miterlimit="10"/>
<path d="M10.8687 17.0786L10.6523 17.3196L10.8687 17.5606L11.0851 17.3196L10.8687 17.0786Z" stroke="#F6B4DD" stroke-width="0.237985" stroke-miterlimit="10"/>
</g>
<path d="M64.1445 26.1377V37.6951" stroke="#E6E6E6" stroke-width="1.03127" stroke-miterlimit="10"/>
<path d="M64.2701 28.7636C68.0286 28.7636 71.0754 25.3695 71.0754 21.1827C71.0754 16.996 68.0286 13.6019 64.2701 13.6019C60.5117 13.6019 57.4648 16.996 57.4648 21.1827C57.4648 25.3695 60.5117 28.7636 64.2701 28.7636Z" fill="white" stroke="white" stroke-width="1.70556" stroke-miterlimit="10"/>
<mask id="mask3_2941_4825" style="mask-type:luminance" maskUnits="userSpaceOnUse" x="57" y="13" width="15" height="16">
<path d="M64.273 28.7666C68.033 28.7666 71.0811 25.3712 71.0811 21.1827C71.0811 16.9942 68.033 13.5987 64.273 13.5987C60.5129 13.5987 57.4648 16.9942 57.4648 21.1827C57.4648 25.3712 60.5129 28.7666 64.273 28.7666Z" fill="white"/>
</mask>
<g mask="url(#mask3_2941_4825)">
<path d="M64.2755 11.2316L48.5352 28.7657L64.2755 46.2999L80.0159 28.7657L64.2755 11.2316Z" stroke="#E6E6E6" stroke-width="0.237985" stroke-miterlimit="10"/>
<path d="M64.2776 12.5282L49.7012 28.7657L64.2776 45.0033L78.854 28.7657L64.2776 12.5282Z" stroke="#E6E6E6" stroke-width="0.237985" stroke-miterlimit="10"/>
<path d="M64.2758 13.8248L50.8633 28.7657L64.2758 43.7067L77.6882 28.7657L64.2758 13.8248Z" stroke="#E6E6E6" stroke-width="0.237985" stroke-miterlimit="10"/>
<path d="M64.2759 15.1236L52.0273 28.768L64.2759 42.4124L76.5244 28.768L64.2759 15.1236Z" stroke="#E6E6E6" stroke-width="0.237985" stroke-miterlimit="10"/>
<path d="M64.276 16.4179L53.1914 28.7657L64.276 41.1135L75.3605 28.7657L64.276 16.4179Z" stroke="#E6E6E6" stroke-width="0.237985" stroke-miterlimit="10"/>
<path d="M64.2761 17.7168L54.3555 28.768L64.2761 39.8192L74.1967 28.768L64.2761 17.7168Z" stroke="#E6E6E6" stroke-width="0.237985" stroke-miterlimit="10"/>
<path d="M64.2762 19.0111L55.5195 28.7657L64.2762 38.5203L73.0329 28.7657L64.2762 19.0111Z" stroke="#E6E6E6" stroke-width="0.237985" stroke-miterlimit="10"/>
<path d="M64.2763 20.31L56.6836 28.768L64.2763 37.226L71.869 28.768L64.2763 20.31Z" stroke="#E6E6E6" stroke-width="0.237985" stroke-miterlimit="10"/>
<path d="M64.2764 21.6043L57.8477 28.7657L64.2764 35.9271L70.7052 28.7657L64.2764 21.6043Z" stroke="#E6E6E6" stroke-width="0.237985" stroke-miterlimit="10"/>
<path d="M64.2765 22.9032L59.0117 28.768L64.2765 34.6328L69.5414 28.768L64.2765 22.9032Z" stroke="#E6E6E6" stroke-width="0.237985" stroke-miterlimit="10"/>
<path d="M64.2767 24.1975L60.1758 28.7657L64.2767 33.3339L68.3775 28.7657L64.2767 24.1975Z" stroke="#E6E6E6" stroke-width="0.237985" stroke-miterlimit="10"/>
<path d="M64.2748 25.4964L61.3379 28.768L64.2748 32.0396L67.2117 28.768L64.2748 25.4964Z" stroke="#E6E6E6" stroke-width="0.237985" stroke-miterlimit="10"/>
<path d="M64.2749 26.7907L62.502 28.7657L64.2749 30.7407L66.0479 28.7657L64.2749 26.7907Z" stroke="#E6E6E6" stroke-width="0.237985" stroke-miterlimit="10"/>
<path d="M64.275 28.0896L63.666 28.768L64.275 29.4464L64.8841 28.768L64.275 28.0896Z" stroke="#E6E6E6" stroke-width="0.237985" stroke-miterlimit="10"/>
</g>
<path d="M52.7051 53.7435H65.3127" stroke="#081017" stroke-width="0.237985" stroke-linecap="round" stroke-linejoin="round"/>
<path d="M57.0391 55.2206H69.6467" stroke="#081017" stroke-width="0.237985" stroke-linecap="round" stroke-linejoin="round"/>
<path d="M10.7871 54.725H23.3947" stroke="#F6B4DD" stroke-width="0.237985" stroke-linecap="round" stroke-linejoin="round"/>
<path d="M10.7871 54.725H23.3947" stroke="#E10098" stroke-width="0.237985" stroke-linecap="round" stroke-linejoin="round"/>
<path d="M23.7101 2.98176C23.9113 1.74144 24.8859 0.800934 26.056 0.800934C26.9513 0.800934 27.7332 1.35009 28.1412 2.16435C28.297 2.13279 28.4557 2.117 28.6172 2.117C30.0791 2.117 31.269 3.40151 31.3314 5.01425C31.626 4.70496 32.0227 4.51244 32.459 4.51244C33.3656 4.51244 34.0994 5.32985 34.0994 6.33979C34.0994 7.34972 33.3656 8.16713 32.459 8.16713H24.4383C23.1208 8.16713 22.0527 6.97731 22.0527 5.50975C22.0527 4.32308 22.7497 3.31946 23.713 2.97861L23.7101 2.98176Z" fill="#E6E6E6" stroke="#E6E6E6" stroke-width="0.269716" stroke-linecap="round" stroke-linejoin="round"/>
<path d="M68.2578 37.7046C68.2379 37.7046 68.2209 37.7046 68.2011 37.7046V37.6983C68.2011 35.3218 66.4729 33.3966 64.3395 33.3966C63.345 33.3966 62.4384 33.8163 61.7528 34.5043C60.9907 33.4376 59.8177 32.7559 58.5003 32.7559C56.5398 32.7559 54.8937 34.2708 54.4574 36.3065C54.0437 36.0319 53.5621 35.8678 53.0436 35.8678C52.7801 35.8678 52.5252 35.9119 52.2843 35.9877C51.6922 34.4633 50.3294 33.3934 48.7429 33.3934C47.7484 33.3934 46.8418 33.8132 46.1562 34.5012C45.3941 33.4345 44.2211 32.7527 42.9037 32.7527C40.9431 32.7527 39.2971 34.2676 38.8608 36.3033C38.4471 36.0287 37.9655 35.8646 37.447 35.8646C35.9228 35.8646 34.6875 37.2406 34.6875 38.9386C34.6875 40.6365 35.6904 42.2682 37.2119 42.1767C38.1525 42.123 52.6583 42.6722 52.6583 42.6722C53.1541 42.6722 53.6103 42.4891 53.9814 42.1862C57.6362 42.2682 68.2578 42.6722 68.2578 42.6722C69.4902 42.6722 70.4903 41.5581 70.4903 40.1852C70.4903 38.8123 69.4902 37.6983 68.2578 37.6983V37.7046Z" fill="white" stroke="#E6E6E6" stroke-width="0.269716" stroke-linecap="round" stroke-linejoin="round"/>
<path d="M39.1136 39.7433C39.1136 39.7433 39.0881 39.7433 39.0739 39.7433C39.0739 39.7433 39.0739 39.7401 39.0739 39.737C39.0739 38.0106 37.816 36.6093 36.2662 36.6093C35.5438 36.6093 34.8836 36.9155 34.385 37.4141C33.8297 36.6377 32.9769 36.1422 32.0193 36.1422C30.5914 36.1422 29.3958 37.2437 29.0785 38.7239C28.7781 38.5219 28.4268 38.4051 28.05 38.4051C27.8574 38.4051 27.6732 38.4367 27.4975 38.4935C27.0669 37.3826 26.0753 36.6062 24.9194 36.6062C24.1969 36.6062 23.5368 36.9123 23.0381 37.411C22.4828 36.6346 21.63 36.1391 20.6724 36.1391C19.2445 36.1391 18.0489 37.2406 17.7316 38.7207C17.4313 38.5188 17.08 38.402 16.7032 38.402C15.5954 38.402 14.6973 39.4024 14.6973 40.6365C14.6973 41.8705 15.4254 43.0571 16.5332 42.994C17.216 42.953 27.7695 43.3538 27.7695 43.3538C28.1293 43.3538 28.4608 43.2213 28.73 43.0003C31.3875 43.0603 39.1136 43.3538 39.1136 43.3538C40.0117 43.3538 40.7398 42.5427 40.7398 41.5422C40.7398 40.5418 40.0117 39.7307 39.1136 39.7307V39.7433Z" fill="white" stroke="#E6E6E6" stroke-width="0.269716" stroke-linecap="round" stroke-linejoin="round"/>
<path d="M41.1077 40.5008C41.1077 40.5008 41.1275 40.5008 41.136 40.5008C41.136 40.5008 41.136 40.5008 41.136 40.4976C41.136 39.2889 42.0171 38.3073 43.1022 38.3073C43.6094 38.3073 44.0712 38.5219 44.4197 38.8723C44.8078 38.3294 45.4056 37.9823 46.0771 37.9823C47.0772 37.9823 47.913 38.7523 48.1368 39.7907C48.3464 39.6487 48.5929 39.5666 48.8564 39.5666C48.9896 39.5666 49.1199 39.5887 49.2446 39.6297C49.5477 38.8533 50.2418 38.3073 51.0493 38.3073C51.5564 38.3073 52.0182 38.5219 52.3667 38.8723C52.7549 38.3294 53.3527 37.9823 54.0241 37.9823C55.0242 37.9823 55.86 38.7523 56.0838 39.7907C56.2935 39.6487 56.54 39.5666 56.8035 39.5666C57.5798 39.5666 58.2087 40.2672 58.2087 41.132C58.2087 41.9967 57.6987 42.8268 56.9225 42.7826C56.4437 42.7542 49.0547 43.0351 49.0547 43.0351C48.8026 43.0351 48.5703 42.9436 48.3804 42.7889C46.519 42.8299 41.1077 43.0351 41.1077 43.0351C40.4787 43.0351 39.9688 42.467 39.9688 41.7664C39.9688 41.0657 40.4787 40.4976 41.1077 40.4976V40.5008Z" fill="white" stroke="#E6E6E6" stroke-width="0.269716" stroke-linecap="round" stroke-linejoin="round"/>
<path d="M47.4097 18.5852C47.4958 18.5852 47.5656 18.5075 47.5656 18.4116C47.5656 18.3157 47.4958 18.238 47.4097 18.238C47.3237 18.238 47.2539 18.3157 47.2539 18.4116C47.2539 18.5075 47.3237 18.5852 47.4097 18.5852Z" fill="black"/>
<path d="M48.3397 50.8242L48.2802 58.4586L31.2387 61.1855L29.5019 61.0529C27.7312 60.772 27.8615 57.8969 27.8615 57.8969V11.0928C27.8615 8.17975 29.9694 7.89886 29.9694 7.89886L33.1369 8.19869L47.0988 9.40429" fill="white"/>
<path d="M48.3397 50.8242L48.2802 58.4586L31.2387 61.1855L29.5019 61.0529C27.7312 60.772 27.8615 57.8969 27.8615 57.8969V11.0928C27.8615 8.17975 29.9694 7.89886 29.9694 7.89886L33.1369 8.19869L47.0988 9.40429" stroke="#081017" stroke-width="0.237985" stroke-linecap="round" stroke-linejoin="round"/>
<path d="M29.2999 59.497C29.1186 59.0394 29.0449 58.5375 29.0449 58.0357V10.6194C29.0449 10.6194 29.0449 7.98722 30.9006 8.0819C32.7564 8.17658 47.1007 9.39797 47.1007 9.39797C47.1007 9.39797 48.2822 9.30329 48.3672 10.3385C48.4522 11.3737 48.4522 15.0378 48.4522 15.0378L48.2822 58.4586L31.2406 61.1855C31.2406 61.1855 29.9402 61.116 29.3027 59.5001L29.2999 59.497Z" fill="#E10098" stroke="#081017" stroke-width="0.237985" stroke-linecap="round" stroke-linejoin="round"/>
<path d="M28.4741 19.267H28.4373C28.3543 19.267 28.2871 19.3419 28.2871 19.4343V24.8343C28.2871 24.9266 28.3543 25.0015 28.4373 25.0015H28.4741C28.557 25.0015 28.6243 24.9266 28.6243 24.8343V19.4343C28.6243 19.3419 28.557 19.267 28.4741 19.267Z" fill="#E6E6E6"/>
<path d="M41.7633 9.52259L37.4056 9.22568C37.2603 9.21579 37.1354 9.33893 37.1265 9.50073L37.1227 9.57003C37.1138 9.73183 37.2243 9.87102 37.3696 9.88091L41.7274 10.1778C41.8726 10.1877 41.9976 10.0646 42.0065 9.90278L42.0103 9.83347C42.0191 9.67167 41.9086 9.53249 41.7633 9.52259Z" fill="#E6E6E6"/>
<path d="M42.7785 56.9703L38.4562 57.6556C38.3121 57.6784 38.2119 57.827 38.2324 57.9875L38.2412 58.0563C38.2617 58.2167 38.3951 58.3283 38.5392 58.3055L42.8616 57.6202C43.0056 57.5974 43.1058 57.4488 43.0853 57.2883L43.0765 57.2195C43.056 57.059 42.9226 56.9475 42.7785 56.9703Z" fill="#E6E6E6"/>
<path d="M31.4519 57.332L47.567 54.9839L47.9891 13.2547C47.9891 13.2547 48.3263 11.0928 46.4706 11.0928C44.6148 11.0928 31.6219 10.1523 31.6219 10.1523C31.6219 10.1523 30.3555 9.96293 30.3555 12.3142V56.1106C30.3555 56.1106 30.3555 57.332 31.4519 57.332Z" fill="#F2F2F2" stroke="#081017" stroke-width="0.237985" stroke-linecap="round" stroke-linejoin="round"/>
<path d="M44.9431 16.2339L43.9629 17.266L43.8184 22.5271L44.725 22.0095C44.725 22.0095 45.4163 24.326 46.762 25.2981C46.9802 25.6011 46.8527 25.822 47.1077 25.5316C47.3627 25.2413 47.1247 22.1831 47.1247 22.1831C47.1247 22.1831 45.6344 21.6971 45.6344 19.876C45.3086 21.3341 45.0706 21.069 45.0706 21.069L45.3879 19.794C45.3879 19.794 44.1442 19.5509 44.6513 18.459C44.9601 18.1149 45.4219 18.2317 45.4219 18.2317L46.0481 16.518L44.9403 16.2339H44.9431Z" fill="white"/>
<path d="M33.5078 20.1696H38.9107" stroke="#081017" stroke-width="0.237985" stroke-linecap="round" stroke-linejoin="round"/>
<path d="M35.3672 21.3563H40.77" stroke="#081017" stroke-width="0.237985" stroke-linecap="round" stroke-linejoin="round"/>
<path d="M49.7934 17.7836C49.7934 17.7836 50.1334 17.9572 49.935 18.9955C49.7367 20.0338 49.1021 22.4419 47.5892 21.7476C46.0762 21.0532 45.5833 17.9067 46.8412 17.3102C48.0991 16.7137 49.7934 17.7836 49.7934 17.7836Z" fill="white"/>
<path d="M43.9375 17.5186C43.9375 15.5681 45.3569 13.987 47.1078 13.987C48.8587 13.987 50.2781 15.5681 50.2781 17.5186" fill="white"/>
<path d="M43.9375 17.5186C43.9375 15.5681 45.3569 13.987 47.1078 13.987C48.8587 13.987 50.2781 15.5681 50.2781 17.5186" stroke="#E10098" stroke-width="0.237985" stroke-linecap="round" stroke-linejoin="round"/>
<path d="M41.7291 32.7906C41.7291 32.7906 42.2022 33.7563 43.1258 33.971C44.0494 34.1856 44.2648 34.4475 44.2648 34.4475C44.2648 34.4475 44.3469 35.4196 44.8909 35.5679L45.2677 35.4006L44.6699 37.5973L42.3354 34.7979C42.3354 34.7979 41.5449 33.1662 41.7262 32.7874L41.7291 32.7906Z" fill="white"/>
<path d="M39.3867 26.2072V24.3609C39.3867 23.5624 39.9675 22.9154 40.6843 22.9154C41.9337 22.9154 42.948 21.7856 42.948 20.3937V17.487C42.948 16.7201 43.5062 16.0952 44.1974 16.0952" stroke="#E10098" stroke-width="0.237985" stroke-linecap="round" stroke-linejoin="round"/>
<path d="M46.9414 42.0947C48.3637 38.7366 48.1937 34.8074 48.1937 34.8074C48.1937 34.8074 47.6639 34.375 47.5165 34.1067" fill="white"/>
<path d="M46.9414 42.0947C48.3637 38.7366 48.1937 34.8074 48.1937 34.8074C48.1937 34.8074 47.6639 34.375 47.5165 34.1067" stroke="#081017" stroke-width="0.237985" stroke-linecap="round" stroke-linejoin="round"/>
<path d="M50.1272 29.2338L51.9461 30.8181C51.9461 30.8181 52.5042 31.8659 53.187 31.8659C53.8698 31.8659 55.0173 31.6418 56.1534 30.9443C57.2923 30.2469 59.0545 28.6625 59.0545 28.6625C59.0545 28.6625 59.454 28.41 60.134 28.3469C60.8139 28.2838 62.5223 27.6494 62.5223 27.6494C62.5223 27.6494 63.2901 27.2392 63.395 27.1887C63.9644 26.9046 63.6216 26.6427 63.4941 26.6427C63.3666 26.6427 62.0322 27.1034 62.0322 27.1034C62.0322 27.1034 63.7491 26.387 63.8738 26.3081C64.3866 25.983 63.9928 25.8284 63.7803 25.8663C63.6329 25.8915 62.0095 26.5543 62.0095 26.5543C62.0095 26.5543 63.8086 25.6548 63.9729 25.5317C64.4942 25.1467 64.0097 25.0299 63.7746 25.1025C63.5394 25.1751 62.5252 25.5475 62.5252 25.5475L61.8395 25.9357C61.8395 25.9357 63.3864 25.1183 63.5451 24.8595C63.9219 24.2472 62.7093 24.7806 62.7093 24.7806L61.5421 25.3613C61.4061 25.4402 61.2616 25.4939 61.1114 25.5254L60.304 25.6864C60.304 25.6864 60.7006 25.052 60.8734 24.7364C61.3551 23.8496 60.7034 24.1494 60.7034 24.1494C60.7034 24.1494 60.2473 24.4839 59.9611 25.052C58.9384 25.6233 58.7655 26.8888 58.7655 26.8888C58.7655 26.8888 55.9777 28.2838 54.7283 28.7888C54.0455 27.965 53.4193 27.9019 53.4193 27.9019L52.8499 27.2044C52.8499 27.2044 51.0876 24.6701 50.3482 23.8464C49.6087 23.0227 48.9826 23.0227 48.4698 22.644C47.957 22.2652 47.7303 22.5808 47.7303 22.5808C47.7303 22.5808 48.0137 23.0258 48.0703 23.7833C48.127 24.5407 47.3309 25.3676 47.3309 25.3676L47.0957 25.5286C47.0957 25.5286 47.6907 26.7437 47.6907 27.842" fill="white"/>
<path d="M50.1272 29.2338L51.9461 30.8181C51.9461 30.8181 52.5042 31.8659 53.187 31.8659C53.8698 31.8659 55.0173 31.6418 56.1534 30.9443C57.2923 30.2469 59.0545 28.6625 59.0545 28.6625C59.0545 28.6625 59.454 28.41 60.134 28.3469C60.8139 28.2838 62.5223 27.6494 62.5223 27.6494C62.5223 27.6494 63.2901 27.2392 63.395 27.1887C63.9644 26.9046 63.6216 26.6427 63.4941 26.6427C63.3666 26.6427 62.0322 27.1034 62.0322 27.1034C62.0322 27.1034 63.7491 26.387 63.8738 26.3081C64.3866 25.983 63.9928 25.8284 63.7803 25.8663C63.6329 25.8915 62.0095 26.5543 62.0095 26.5543C62.0095 26.5543 63.8086 25.6548 63.9729 25.5317C64.4942 25.1467 64.0097 25.0299 63.7746 25.1025C63.5394 25.1751 62.5252 25.5475 62.5252 25.5475L61.8395 25.9357C61.8395 25.9357 63.3865 25.1183 63.5451 24.8595C63.9219 24.2472 62.7093 24.7806 62.7093 24.7806L61.5421 25.3613C61.4061 25.4402 61.2616 25.4939 61.1114 25.5254L60.304 25.6864C60.304 25.6864 60.7006 25.052 60.8734 24.7364C61.3551 23.8496 60.7034 24.1494 60.7034 24.1494C60.7034 24.1494 60.2473 24.4839 59.9611 25.052C58.9384 25.6233 58.7655 26.8888 58.7655 26.8888C58.7655 26.8888 55.9777 28.2838 54.7283 28.7888C54.0455 27.965 53.4193 27.9019 53.4193 27.9019L52.8499 27.2044C52.8499 27.2044 51.0876 24.6701 50.3482 23.8464C49.6087 23.0227 48.9826 23.0227 48.4698 22.644C47.957 22.2652 47.7303 22.5808 47.7303 22.5808C47.7303 22.5808 48.0137 23.0258 48.0703 23.7833C48.127 24.5407 47.3309 25.3676 47.3309 25.3676L47.0957 25.5286C47.0957 25.5286 47.6907 26.7437 47.6907 27.842" stroke="#081017" stroke-width="0.237985" stroke-linecap="round" stroke-linejoin="round"/>
<path d="M35.4009 51.5943C35.4009 51.5943 34.2733 52.0487 33.9305 52.3328C33.8455 52.4022 33.6472 52.4527 33.5622 52.5253C33.3072 52.7462 33.0806 52.9892 33.0494 53.3112C33.0069 53.7404 32.8709 54.0213 33.4715 55.1795C33.8087 55.8297 34.0325 57.4866 34.1827 57.818C34.3923 58.2851 34.7153 59.0583 35.7806 59.1057C36.8458 59.153 37.234 58.6891 37.2737 58.345C37.3615 57.5844 36.7609 56.7292 36.5484 56.4925C36.5484 56.0632 36.5059 54.8292 36.5059 54.8292C36.5059 54.8292 36.6759 54.4316 36.6334 54.0528C36.5909 53.6741 36.6334 53.3553 36.6334 53.3553" fill="white"/>
<path d="M35.4009 51.5943C35.4009 51.5943 34.2733 52.0487 33.9305 52.3328C33.8455 52.4022 33.6472 52.4527 33.5622 52.5253C33.3072 52.7462 33.0806 52.9892 33.0494 53.3112C33.0069 53.7404 32.8709 54.0213 33.4715 55.1795C33.8087 55.8297 34.0325 57.4866 34.1827 57.818C34.3923 58.2851 34.7153 59.0583 35.7806 59.1057C36.8458 59.153 37.234 58.6891 37.2737 58.345C37.3615 57.5844 36.7609 56.7292 36.5484 56.4925C36.5484 56.0632 36.5059 54.8292 36.5059 54.8292C36.5059 54.8292 36.6759 54.4316 36.6334 54.0528C36.5909 53.6741 36.6334 53.3553 36.6334 53.3553" stroke="#081017" stroke-width="0.237985" stroke-linecap="round" stroke-linejoin="round"/>
<path d="M36.0488 29.6757C36.0488 29.6757 34.5699 31.6072 33.8588 32.7181C33.1476 33.8259 32.5498 34.8421 32.1815 35.0315C31.8132 35.2208 30.4476 35.4417 30.1615 35.6027C29.8753 35.7637 28.9744 36.2434 28.9234 36.5905C28.8695 36.9756 29.422 36.6568 29.422 36.6568C29.422 36.6568 30.5694 36.013 30.7961 35.9814C29.4107 36.963 29.0537 37.3101 28.8809 37.5247C28.6457 37.8151 28.929 38.2159 29.184 37.995C29.439 37.7741 30.1473 37.2344 30.9859 36.7452C29.9348 37.4427 29.0339 38.2064 29.1302 38.3705C29.4107 38.8408 29.8385 38.4242 30.0821 38.2127C30.3739 37.9603 31.952 37.1239 32.1248 37.2218C32.1532 37.348 31.7254 38.077 31.697 38.2664C31.6687 38.4558 31.5101 39.0081 31.782 38.9954C31.9889 38.986 32.6632 38.0455 33.0343 37.1586C33.4054 36.2718 33.5471 35.7637 33.5471 35.7637L37.5277 31.2347" fill="white"/>
<path d="M36.0488 29.6757C36.0488 29.6757 34.5699 31.6072 33.8588 32.7181C33.1476 33.8259 32.5498 34.8421 32.1815 35.0315C31.8132 35.2208 30.4476 35.4417 30.1615 35.6027C29.8753 35.7637 28.9744 36.2434 28.9234 36.5905C28.8695 36.9756 29.422 36.6568 29.422 36.6568C29.422 36.6568 30.5694 36.013 30.7961 35.9814C29.4107 36.963 29.0537 37.3101 28.8809 37.5247C28.6457 37.8151 28.929 38.2159 29.184 37.995C29.439 37.7741 30.1473 37.2344 30.9859 36.7452C29.9348 37.4427 29.0339 38.2064 29.1302 38.3705C29.4107 38.8408 29.8385 38.4242 30.0821 38.2127C30.3739 37.9603 31.952 37.1239 32.1248 37.2218C32.1532 37.348 31.7254 38.077 31.697 38.2664C31.6687 38.4558 31.5101 39.0081 31.782 38.9954C31.9889 38.986 32.6632 38.0455 33.0343 37.1586C33.4054 36.2718 33.5471 35.7637 33.5471 35.7637L37.5277 31.2347" stroke="#081017" stroke-width="0.237985" stroke-linecap="round" stroke-linejoin="round"/>
<path d="M41.658 32.6802C41.658 32.6802 38.635 36.5842 39.8306 39.371C41.0262 42.1578 44.7235 48.1164 44.7235 48.1164C44.7235 48.1164 44.8935 48.9401 44.9501 49.6376C45.0068 50.3351 46.1457 55.025 46.5424 56.3537C46.9418 57.6855 47.2082 58.2978 47.2082 58.2978C47.2082 58.2978 46.9957 58.6986 47.3385 59.1405C47.6813 59.5823 47.7833 59.3109 47.7833 59.3109C47.7833 59.3109 48.4151 58.443 49.0299 58.2536C49.8147 58.0106 50.353 58.0642 50.353 58.0642C50.353 58.0642 50.693 57.6855 50.4663 57.3036C50.2397 56.9218 48.5879 46.9108 48.5879 46.9108C48.5879 46.9108 46.8257 41.716 46.4829 40.9553C46.1401 40.1947 45.5734 38.3579 44.834 37.7867" fill="white"/>
<path d="M41.658 32.6802C41.658 32.6802 38.635 36.5842 39.8306 39.371C41.0262 42.1578 44.7235 48.1164 44.7235 48.1164C44.7235 48.1164 44.8935 48.9401 44.9501 49.6376C45.0068 50.3351 46.1457 55.025 46.5424 56.3537C46.9418 57.6855 47.2082 58.2978 47.2082 58.2978C47.2082 58.2978 46.9957 58.6986 47.3385 59.1405C47.6813 59.5823 47.7833 59.3109 47.7833 59.3109C47.7833 59.3109 48.4151 58.443 49.0299 58.2536C49.8147 58.0106 50.353 58.0642 50.353 58.0642C50.353 58.0642 50.693 57.6855 50.4663 57.3036C50.2397 56.9218 48.5879 46.9108 48.5879 46.9108C48.5879 46.9108 46.8257 41.716 46.4829 40.9553C46.1401 40.1947 45.5734 38.3579 44.834 37.7867" stroke="#081017" stroke-width="0.237985" stroke-linecap="round" stroke-linejoin="round"/>
<path d="M45.9109 34.6969C44.7181 34.2551 44.6671 33.9237 43.6982 33.6049C42.7292 33.2862 41.1965 32.7812 41.4231 31.8313C41.7631 31.1338 41.9359 30.5625 41.7064 29.3601L41.4798 28.1576L39.4314 30.1207C39.4314 30.1207 38.6353 31.3894 38.352 31.3894C38.0686 31.3894 37.2952 31.5188 36.5614 30.5657C35.9806 29.8145 35.8503 29.0445 36.0203 28.6657C36.1902 28.287 37.0997 27.7158 37.0997 27.7158C37.0997 27.7158 37.1564 27.6905 37.2385 27.6527C37.3405 27.6053 37.485 27.5327 37.6125 27.4633C37.8391 27.337 40.9103 23.8528 40.9103 23.8528C40.9103 23.8528 41.3665 23.3447 42.2759 23.0922C43.1854 22.8397 44.3809 22.2684 44.5509 22.1422L44.7209 22.016C44.7209 22.016 45.2337 23.5372 45.8004 24.2347C46.367 24.9321 47.2878 25.8316 47.3926 26.1977C48.5854 30.3321 47.2226 32.09 47.2226 32.09C47.2226 32.09 47.2736 34.3214 45.908 34.7032L45.9109 34.6969Z" fill="white" stroke="#081017" stroke-width="0.237985" stroke-linecap="round" stroke-linejoin="round"/>
<path d="M39.029 30.1207C39.029 30.1207 37.1223 29.9628 37.4651 27.8704L39.029 30.1207Z" fill="white"/>
<path d="M39.029 30.1207C39.029 30.1207 37.1223 29.9628 37.4651 27.8704" stroke="#081017" stroke-width="0.237985" stroke-linecap="round" stroke-linejoin="round"/>
<path d="M50.4194 57.1048C50.4194 57.1048 48.0622 56.3979 47.252 58.2284L50.4194 57.1048Z" fill="white"/>
<path d="M50.4194 57.1048C50.4194 57.1048 48.0622 56.3979 47.252 58.2284" stroke="#081017" stroke-width="0.237985" stroke-linecap="round" stroke-linejoin="round"/>
<path d="M41.4887 42.6721L40.5991 46.0397C40.5991 46.0397 39.4035 46.8003 37.7404 48.7002C36.0773 50.6001 35.3945 50.8873 35.3945 51.2187C35.3945 51.5501 35.5645 53.4532 37.3579 53.3585C37.6979 53.0271 38.0832 52.4559 39.191 51.6479C40.2988 50.84 42.0922 49.3661 42.0922 49.3661C42.0922 49.3661 43.7467 48.2299 44.1292 47.3273" stroke="#081017" stroke-width="0.237985" stroke-linecap="round" stroke-linejoin="round"/>
<path d="M33.5616 52.5254C33.2641 52.882 33.6013 53.7846 33.8591 54.4979C34.1169 55.2112 34.1141 56.1895 34.7119 57.3478C35.7998 59.456 37.2107 58.1084 37.2107 58.1084" fill="white"/>
<path d="M33.5616 52.5254C33.2641 52.882 33.6013 53.7846 33.8591 54.4979C34.1169 55.2112 34.1141 56.1895 34.7119 57.3478C35.7998 59.456 37.2107 58.1084 37.2107 58.1084" stroke="#081017" stroke-width="0.237985" stroke-linecap="round" stroke-linejoin="round"/>
<path d="M35.0788 51.7269C35.0788 51.7269 34.6482 52.4559 34.8097 53.1092C34.9797 53.8004 35.4216 53.8414 35.671 53.8951C36.2376 54.0118 36.5492 53.6331 36.5492 53.6331" stroke="#081017" stroke-width="0.237985" stroke-linecap="round" stroke-linejoin="round"/>
<path d="M35.3711 54.5011C35.3711 54.5011 35.9264 54.9776 36.5242 54.6431L35.3711 54.5011Z" fill="white"/>
<path d="M35.3711 54.5011C35.3711 54.5011 35.9264 54.9776 36.5242 54.6431" stroke="#081017" stroke-width="0.237985" stroke-linecap="round" stroke-linejoin="round"/>
<path d="M35.3633 55.3374C35.3633 55.3374 35.9186 55.814 36.5164 55.4794L35.3633 55.3374Z" fill="white"/>
<path d="M35.3633 55.3374C35.3633 55.3374 35.9186 55.814 36.5164 55.4794" stroke="#081017" stroke-width="0.237985" stroke-linecap="round" stroke-linejoin="round"/>
<path d="M35.3906 56.199C35.3906 56.199 35.9459 56.6756 36.5437 56.3411L35.3906 56.199Z" fill="white"/>
<path d="M35.3906 56.199C35.3906 56.199 35.9459 56.6756 36.5437 56.3411" stroke="#081017" stroke-width="0.237985" stroke-linecap="round" stroke-linejoin="round"/>
<path d="M48.1016 58.9353L48.4925 60.485C48.4925 60.485 48.4557 60.5386 48.4075 60.627C48.2999 60.8227 48.2206 61.6842 48.28 61.9809C48.365 62.4101 48.365 63.1487 48.45 63.338C48.535 63.5274 48.7164 63.7451 49.113 63.6568C49.2915 63.6157 53.2069 61.5233 53.5299 61.3844C54.2439 61.0751 54.683 60.8763 54.9352 60.7658C55.2922 60.6112 55.5103 60.5449 55.0627 60.0589C54.615 59.5729 53.7396 59.5823 53.2296 59.6297C52.7196 59.677 52.6318 59.819 51.9915 59.535C51.3512 59.2509 51.0792 59.0868 50.7364 59.1342C50.3936 59.1815 49.8638 59.2004 49.7306 59.8695C49.6825 60.1062 49.7306 60.6301 49.4332 60.7248C49.4332 60.7248 48.858 61.1856 48.4614 60.7027" stroke="#081017" stroke-width="0.237985" stroke-linecap="round" stroke-linejoin="round"/>
<path d="M55.2499 60.3051C54.162 60.3051 48.5977 63.48 48.5977 63.48L55.2499 60.3051Z" fill="white"/>
<path d="M55.2499 60.3051C54.162 60.3051 48.5977 63.48 48.5977 63.48" stroke="#081017" stroke-width="0.237985" stroke-linecap="round" stroke-linejoin="round"/>
<path d="M55.3179 60.3902C55.3179 60.3902 55.7457 61.3497 53.9948 62.1008C52.1221 62.9056 51.2891 63.6125 48.9121 63.6536" stroke="#081017" stroke-width="0.237985" stroke-linecap="round" stroke-linejoin="round"/>
<path d="M52.3788 59.7306C52.3788 59.7306 51.9567 60.1062 51.8887 60.5038L52.3788 59.7306Z" fill="white"/>
<path d="M52.3788 59.7306C52.3788 59.7306 51.9567 60.1062 51.8887 60.5038" stroke="#081017" stroke-width="0.237985" stroke-linecap="round" stroke-linejoin="round"/>
<path d="M51.9184 59.5539C51.9184 59.5539 51.3858 60.0305 51.3008 60.5291L51.9184 59.5539Z" fill="white"/>
<path d="M51.9184 59.5539C51.9184 59.5539 51.3858 60.0305 51.3008 60.5291" stroke="#081017" stroke-width="0.237985" stroke-linecap="round" stroke-linejoin="round"/>
<path d="M51.4047 59.3488C51.4047 59.3488 50.8721 59.8253 50.7871 60.324L51.4047 59.3488Z" fill="white"/>
<path d="M51.4047 59.3488C51.4047 59.3488 50.8721 59.8253 50.7871 60.324" stroke="#081017" stroke-width="0.237985" stroke-linecap="round" stroke-linejoin="round"/>
<path d="M49.9824 58.0768L50.2402 59.2036" stroke="#081017" stroke-width="0.237985" stroke-linecap="round" stroke-linejoin="round"/>
<path d="M50.071 25.6518C50.071 25.6518 50.5838 27.6464 50.071 28.9309C49.5582 30.2154 48.8697 33.6081 47.8441 34.5139C47.8441 34.5139 46.2122 34.7917 45.9572 34.7096C45.8836 34.6843 47.7166 27.7568 47.7166 27.7568" fill="white"/>
<path d="M50.071 25.6518C50.071 25.6518 50.5838 27.6464 50.071 28.9309C49.5582 30.2154 48.8697 33.6081 47.8441 34.5139C47.8441 34.5139 46.2122 34.7917 45.9572 34.7096C45.8836 34.6843 47.7166 27.7568 47.7166 27.7568" stroke="#081017" stroke-width="0.237985" stroke-linecap="round" stroke-linejoin="round"/>
<path d="M47.541 25.8442C47.541 25.8442 48.1955 25.5286 48.3371 24.8311L48.9633 25.0521C48.9633 25.0521 49.0483 23.594 48.4788 22.644" stroke="#081017" stroke-width="0.237985" stroke-linecap="round" stroke-linejoin="round"/>
<path d="M59.7109 27.0309C59.7109 27.0309 60.2662 26.6522 60.9915 26.9362L59.7109 27.0309Z" fill="white"/>
<path d="M59.7109 27.0309C59.7109 27.0309 60.2662 26.6522 60.9915 26.9362" stroke="#081017" stroke-width="0.237985" stroke-linecap="round" stroke-linejoin="round"/>
<path d="M54.7336 28.7888C53.2547 29.3916 53.0564 30.8465 53.6542 31.8627C52.6597 31.9574 52.3452 31.7365 52.1469 30.8181C51.8069 28.7604 53.4898 27.9461 53.4898 27.9461C53.0904 27.9145 54.337 27.681 54.7336 28.7888Z" fill="white" stroke="#081017" stroke-width="0.237985" stroke-linecap="round" stroke-linejoin="round"/>
<path d="M45.6562 19.5701C45.6562 20.8767 46.6082 21.9371 47.7811 21.9371C48.9541 21.9371 49.906 20.8767 49.906 19.5701C49.906 19.3649 49.8833 19.1661 49.838 18.9736" stroke="#081017" stroke-width="0.237985" stroke-linecap="round" stroke-linejoin="round"/>
<path d="M47.7246 22.0191V23.4677" stroke="#081017" stroke-width="0.237985" stroke-linecap="round" stroke-linejoin="round"/>
<path d="M45.3301 38.178C45.4151 37.8624 45.9449 34.7126 45.9449 34.7126L45.3301 38.178Z" fill="white"/>
<path d="M45.3301 38.178C45.4151 37.8624 45.9449 34.7126 45.9449 34.7126" stroke="#081017" stroke-width="0.237985" stroke-linecap="round" stroke-linejoin="round"/>
<path d="M42.0074 27.4602L41.4805 28.1545" stroke="#081017" stroke-width="0.237985" stroke-linecap="round" stroke-linejoin="round"/>
<path d="M37.748 52.8631C35.9999 52.7684 35.9688 50.5781 35.9688 50.5781L37.748 52.8631Z" fill="white"/>
<path d="M37.748 52.8631C35.9999 52.7684 35.9688 50.5781 35.9688 50.5781" stroke="#081017" stroke-width="0.237985" stroke-linecap="round" stroke-linejoin="round"/>
<path d="M48.5802 20.0244L47.2543 19.8571C47.2543 19.8571 47.2146 20.5893 47.9314 20.845" stroke="#081017" stroke-width="0.237985" stroke-linecap="round" stroke-linejoin="round"/>
<path d="M47.2967 18.5348C47.4109 18.5348 47.5035 18.4317 47.5035 18.3044C47.5035 18.1772 47.4109 18.074 47.2967 18.074C47.1824 18.074 47.0898 18.1772 47.0898 18.3044C47.0898 18.4317 47.1824 18.5348 47.2967 18.5348Z" fill="black"/>
<path d="M49.1814 18.4432C49.2957 18.4432 49.3883 18.3401 49.3883 18.2128C49.3883 18.0856 49.2957 17.9825 49.1814 17.9825C49.0672 17.9825 48.9746 18.0856 48.9746 18.2128C48.9746 18.3401 49.0672 18.4432 49.1814 18.4432Z" fill="black"/>
<path d="M48.0605 19.2576C48.0605 19.2576 48.4204 19.0808 48.6215 19.3459" stroke="#081017" stroke-width="0.237985" stroke-linecap="round" stroke-linejoin="round"/>
<path d="M47.2261 17.6164C47.2261 17.6164 46.8323 17.6258 46.7246 17.9162" stroke="#081017" stroke-width="0.237985" stroke-linecap="round" stroke-linejoin="round"/>
<path d="M37.1824 57.9601V58.0485C37.1824 58.0485 36.5959 58.4777 36.1426 58.4493C35.6893 58.4209 35.3833 58.1684 35.1963 57.9601C35.0093 57.7518 34.4908 56.8176 34.437 56.5493C34.3832 56.2811 33.9837 54.7662 33.9837 54.7662L33.5162 53.2229L33.4766 52.7337C33.4766 52.7337 33.9072 52.3045 33.8392 52.5633C33.74 52.9483 34.233 55.1323 34.42 55.6373C34.607 56.1422 34.6778 57.1742 35.5703 58.0358C36.0972 58.544 37.1824 57.9601 37.1824 57.9601Z" fill="#E10098"/>
<path d="M45.058 21.2901L45.3866 19.7941L44.9192 19.6047C44.6132 19.4816 44.4347 19.125 44.5027 18.7684C44.5763 18.3865 44.905 18.1372 45.2478 18.2003L45.4206 18.2319C45.4206 18.2319 45.7493 16.7233 47.0582 16.7485C48.3671 16.7738 49.8517 17.7206 49.5457 16.84" stroke="#081017" stroke-width="0.237985" stroke-linecap="round" stroke-linejoin="round"/>
<path d="M48.5285 63.4105C48.5285 63.4105 49.9678 62.6088 52.1692 61.4506C54.3706 60.2923 55.2743 60.2166 55.2743 60.2166C55.2743 60.2166 55.2148 59.7873 54.6879 59.8157C54.1609 59.8441 48.4492 62.9655 48.4492 62.9655L48.5285 63.4105Z" fill="#E10098"/>
<g style="mix-blend-mode:multiply">
<path d="M49.645 56.8933C49.9652 56.8996 50.2088 56.5745 50.1465 56.2242L48.6903 48.1731L48.4806 46.7434C48.4749 46.7024 48.4636 46.6614 48.4494 46.6235C48.4494 46.6235 47.5938 44.1997 46.8402 42.1483C46.2849 40.6302 45.7721 39.3204 45.7664 39.3078L45.2423 38.361C44.772 37.7582 44.6105 37.7487 44.5312 37.7046C44.1713 37.4963 43.4206 37.0797 42.8908 37.0797C42.5423 37.0797 46.5172 44.4522 46.9677 45.2885C46.996 45.3422 47.0158 45.3958 47.0272 45.4558L49.1662 56.4514C49.2144 56.7039 49.4127 56.887 49.645 56.8901V56.8933Z" fill="#E6E6E6"/>
</g>
<path d="M44.8357 37.7865C44.0962 37.2152 42.334 36.8365 42.334 36.8365L44.8357 37.7865Z" fill="white"/>
<path d="M44.8357 37.7865C44.0962 37.2152 42.334 36.8365 42.334 36.8365" stroke="#081017" stroke-width="0.237985" stroke-linecap="round" stroke-linejoin="round"/>
<path d="M37.7815 52.7619C37.7815 52.7619 40.0622 50.8746 40.728 50.3412C41.3938 49.8079 42.969 48.5896 42.969 48.5896C42.969 48.5896 43.717 47.8764 43.9011 47.5513L44.0881 47.2231L43.2892 45.9607C43.2892 45.9607 42.5554 47.4598 41.8102 48.173C41.0651 48.8863 36.7559 52.3453 36.7559 52.3453C36.7559 52.3453 37.2347 52.9103 37.7815 52.7619Z" fill="#E6E6E6"/>
<path d="M46.9279 41.8452C46.9279 41.8452 47.3954 40.8195 47.622 39.7653C47.8487 38.7112 47.9819 37.8496 47.9677 37.6855C47.9535 37.5214 48.2198 35.3974 48.1009 34.8198C47.8005 34.6589 47.2792 34.9208 47.2112 34.8198C47.1432 34.7188 47.1404 39.7969 46.4746 40.6585L46.9279 41.8452Z" fill="#E6E6E6"/>
<path d="M44.2611 22.3567C44.2611 22.3567 44.1251 22.6123 44.2385 23.4992C44.3518 24.386 44.6946 25.1782 44.6946 25.1782C44.6946 25.1782 45.1224 24.831 45.519 24.6069C45.7174 25.2098 46.5418 25.9388 46.5418 25.9388" fill="white"/>
<path d="M44.2611 22.3567C44.2611 22.3567 44.1251 22.6123 44.2385 23.4992C44.3518 24.386 44.6946 25.1782 44.6946 25.1782C44.6946 25.1782 45.1224 24.831 45.519 24.6069C45.7174 25.2098 46.5418 25.9388 46.5418 25.9388" stroke="#081017" stroke-width="0.237985" stroke-linecap="round" stroke-linejoin="round"/>
<path d="M37.493 45.5094H14.8645C14.4565 45.5094 14.125 45.1401 14.125 44.6857C14.125 44.2312 14.4565 43.8619 14.8645 43.8619H30.1693" stroke="#E10098" stroke-width="0.237985" stroke-linecap="round" stroke-linejoin="round"/>
</svg>
