<svg width="114" height="80" viewBox="0 0 114 80" fill="none" xmlns="http://www.w3.org/2000/svg">
<path d="M25.4375 37.2285V50.9365" stroke="#E6E6E6" stroke-width="1.03127" stroke-miterlimit="10"/>
<path d="M36.7656 35.6938V50.9368" stroke="#E6E6E6" stroke-width="1.03127" stroke-miterlimit="10"/>
<mask id="mask0_2827_15665" style="mask-type:luminance" maskUnits="userSpaceOnUse" x="13" y="13" width="24" height="24">
<path d="M25.3542 36.3242C31.6916 36.3242 36.8291 31.1867 36.8291 24.8494C36.8291 18.512 31.6916 13.3745 25.3542 13.3745C19.0169 13.3745 13.8794 18.512 13.8794 24.8494C13.8794 31.1867 19.0169 36.3242 25.3542 36.3242Z" fill="white"/>
</mask>
<g mask="url(#mask0_2827_15665)">
<path d="M25.355 7.83392L-3.1377 36.3267L25.355 64.8194L53.8478 36.3267L25.355 7.83392Z" stroke="#F6B4DD" stroke-width="0.237985" stroke-miterlimit="10"/>
<path d="M25.3548 10.1169L-0.85498 36.3267L25.3548 62.5364L51.5645 36.3267L25.3548 10.1169Z" stroke="#F6B4DD" stroke-width="0.237985" stroke-miterlimit="10"/>
<path d="M25.3549 12.3999L1.42822 36.3267L25.3549 60.2534L49.2817 36.3267L25.3549 12.3999Z" stroke="#F6B4DD" stroke-width="0.237985" stroke-miterlimit="10"/>
<path d="M25.3551 14.6829L3.71143 36.3267L25.3551 57.9704L46.9989 36.3267L25.3551 14.6829Z" stroke="#F6B4DD" stroke-width="0.237985" stroke-miterlimit="10"/>
<path d="M25.3548 16.966L5.99414 36.3267L25.3548 55.6874L44.7155 36.3267L25.3548 16.966Z" stroke="#F6B4DD" stroke-width="0.237985" stroke-miterlimit="10"/>
<path d="M25.3525 19.2462L8.27197 36.3267L25.3525 53.4072L42.433 36.3267L25.3525 19.2462Z" stroke="#F6B4DD" stroke-width="0.237985" stroke-miterlimit="10"/>
<path d="M25.3522 21.5292L10.5547 36.3267L25.3522 51.1242L40.1497 36.3267L25.3522 21.5292Z" stroke="#F6B4DD" stroke-width="0.237985" stroke-miterlimit="10"/>
<path d="M25.3524 23.8122L12.8379 36.3267L25.3524 48.8411L37.8669 36.3267L25.3524 23.8122Z" stroke="#F6B4DD" stroke-width="0.237985" stroke-miterlimit="10"/>
<path d="M25.3521 26.0952L15.1206 36.3267L25.3521 46.5581L35.5835 36.3267L25.3521 26.0952Z" stroke="#F6B4DD" stroke-width="0.237985" stroke-miterlimit="10"/>
<path d="M25.3551 28.3754L17.4038 36.3267L25.3551 44.2779L33.3063 36.3267L25.3551 28.3754Z" stroke="#F6B4DD" stroke-width="0.237985" stroke-miterlimit="10"/>
<path d="M25.3553 30.6584L19.687 36.3267L25.3553 41.9949L31.0235 36.3267L25.3553 30.6584Z" stroke="#F6B4DD" stroke-width="0.237985" stroke-miterlimit="10"/>
<path d="M25.355 32.9414L21.9697 36.3267L25.355 39.7119L28.7402 36.3267L25.355 32.9414Z" stroke="#F6B4DD" stroke-width="0.237985" stroke-miterlimit="10"/>
<path d="M25.3552 35.2244L24.2529 36.3267L25.3552 37.4289L26.4574 36.3267L25.3552 35.2244Z" stroke="#F6B4DD" stroke-width="0.237985" stroke-miterlimit="10"/>
</g>
<path d="M37.2135 36.3201C41.1478 36.3201 44.3372 33.1307 44.3372 29.1964C44.3372 25.2621 41.1478 22.0728 37.2135 22.0728C33.2792 22.0728 30.0898 25.2621 30.0898 29.1964C30.0898 33.1307 33.2792 36.3201 37.2135 36.3201Z" fill="white" stroke="white" stroke-width="1.70556" stroke-miterlimit="10"/>
<mask id="mask1_2827_15665" style="mask-type:luminance" maskUnits="userSpaceOnUse" x="30" y="22" width="15" height="15">
<path d="M37.2097 36.3241C41.1462 36.3241 44.3373 33.133 44.3373 29.1965C44.3373 25.26 41.1462 22.0688 37.2097 22.0688C33.2732 22.0688 30.082 25.26 30.082 29.1965C30.082 33.133 33.2732 36.3241 37.2097 36.3241Z" fill="white"/>
</mask>
<g mask="url(#mask1_2827_15665)">
<path d="M37.2124 19.8472L20.7349 36.3247L37.2124 52.8022L53.6899 36.3247L37.2124 19.8472Z" stroke="#E6E6E6" stroke-width="0.237985" stroke-miterlimit="10"/>
<path d="M37.2098 21.6115L22.4937 36.3276L37.2098 51.0438L51.926 36.3276L37.2098 21.6115Z" stroke="#E6E6E6" stroke-width="0.237985" stroke-miterlimit="10"/>
<path d="M37.2096 23.3671L24.252 36.3247L37.2096 49.2823L50.1672 36.3247L37.2096 23.3671Z" stroke="#E6E6E6" stroke-width="0.237985" stroke-miterlimit="10"/>
<path d="M37.2095 25.1284L26.0132 36.3247L37.2095 47.521L48.4057 36.3247L37.2095 25.1284Z" stroke="#E6E6E6" stroke-width="0.237985" stroke-miterlimit="10"/>
<path d="M37.2127 26.887L27.7749 36.3247L37.2126 45.7625L46.6504 36.3247L37.2127 26.887Z" stroke="#E6E6E6" stroke-width="0.237985" stroke-miterlimit="10"/>
<path d="M37.2096 28.6512L29.5332 36.3276L37.2096 44.004L44.886 36.3276L37.2096 28.6512Z" stroke="#E6E6E6" stroke-width="0.237985" stroke-miterlimit="10"/>
<path d="M37.2094 30.4068L31.2915 36.3247L37.2094 42.2426L43.1272 36.3247L37.2094 30.4068Z" stroke="#E6E6E6" stroke-width="0.237985" stroke-miterlimit="10"/>
<path d="M37.2098 32.1682L33.0532 36.3247L37.2098 40.4812L41.3663 36.3247L37.2098 32.1682Z" stroke="#E6E6E6" stroke-width="0.237985" stroke-miterlimit="10"/>
<path d="M37.2125 33.9267L34.8145 36.3247L37.2125 38.7227L39.6105 36.3247L37.2125 33.9267Z" stroke="#E6E6E6" stroke-width="0.237985" stroke-miterlimit="10"/>
<path d="M37.2094 35.691L36.5728 36.3276L37.2094 36.9643L37.8461 36.3276L37.2094 35.691Z" stroke="#E6E6E6" stroke-width="0.237985" stroke-miterlimit="10"/>
</g>
<path d="M14.8194 21.1529C16.688 21.1529 18.2027 19.6382 18.2027 17.7696C18.2027 15.901 16.688 14.3862 14.8194 14.3862C12.9508 14.3862 11.436 15.901 11.436 17.7696C11.436 19.6382 12.9508 21.1529 14.8194 21.1529Z" fill="white" stroke="white" stroke-width="1.70556" stroke-miterlimit="10"/>
<mask id="mask2_2827_15665" style="mask-type:luminance" maskUnits="userSpaceOnUse" x="11" y="14" width="8" height="8">
<path d="M14.8194 21.1529C16.688 21.1529 18.2027 19.6382 18.2027 17.7696C18.2027 15.901 16.688 14.3862 14.8194 14.3862C12.9508 14.3862 11.436 15.901 11.436 17.7696C11.436 19.6382 12.9508 21.1529 14.8194 21.1529Z" fill="white"/>
</mask>
<g mask="url(#mask2_2827_15665)">
<path d="M14.8179 13.3335L6.99561 21.1558L14.8179 28.978L22.6401 21.1558L14.8179 13.3335Z" stroke="#F6B4DD" stroke-width="0.237985" stroke-miterlimit="10"/>
<path d="M14.8179 14.4048L8.06982 21.1528L14.8179 27.9009L21.5659 21.1528L14.8179 14.4048Z" stroke="#F6B4DD" stroke-width="0.237985" stroke-miterlimit="10"/>
<path d="M14.8179 15.4819L9.14404 21.1558L14.8179 26.8296L20.4918 21.1558L14.8179 15.4819Z" stroke="#F6B4DD" stroke-width="0.237985" stroke-miterlimit="10"/>
<path d="M14.8179 16.5532L10.2183 21.1528L14.8179 25.7525L19.4176 21.1528L14.8179 16.5532Z" stroke="#F6B4DD" stroke-width="0.237985" stroke-miterlimit="10"/>
<path d="M14.818 17.6303L11.2925 21.1558L14.818 24.6812L18.3434 21.1558L14.818 17.6303Z" stroke="#F6B4DD" stroke-width="0.237985" stroke-miterlimit="10"/>
<path d="M14.818 18.7015L12.3667 21.1528L14.818 23.6041L17.2693 21.1528L14.818 18.7015Z" stroke="#F6B4DD" stroke-width="0.237985" stroke-miterlimit="10"/>
<path d="M14.8151 19.7757L13.438 21.1528L14.8151 22.5299L16.1922 21.1528L14.8151 19.7757Z" stroke="#F6B4DD" stroke-width="0.237985" stroke-miterlimit="10"/>
<path d="M14.818 20.8499L14.5151 21.1528L14.818 21.4557L15.1209 21.1528L14.818 20.8499Z" stroke="#F6B4DD" stroke-width="0.237985" stroke-miterlimit="10"/>
</g>
<path d="M89.4038 32.2349V46.7599" stroke="#E6E6E6" stroke-width="1.03127" stroke-miterlimit="10"/>
<path d="M89.5781 35.5351C94.8399 35.5351 99.1054 31.2696 99.1054 26.0078C99.1054 20.746 94.8399 16.4805 89.5781 16.4805C84.3163 16.4805 80.0508 20.746 80.0508 26.0078C80.0508 31.2696 84.3163 35.5351 89.5781 35.5351Z" fill="white" stroke="white" stroke-width="1.70556" stroke-miterlimit="10"/>
<mask id="mask3_2827_15665" style="mask-type:luminance" maskUnits="userSpaceOnUse" x="80" y="16" width="20" height="20">
<path d="M89.5821 35.5392C94.8461 35.5392 99.1134 31.2719 99.1134 26.0079C99.1134 20.7439 94.8461 16.4766 89.5821 16.4766C84.3181 16.4766 80.0508 20.7439 80.0508 26.0079C80.0508 31.2719 84.3181 35.5392 89.5821 35.5392Z" fill="white"/>
</mask>
<g mask="url(#mask3_2827_15665)">
<path d="M89.5847 13.5017L67.5483 35.5381L89.5847 57.5745L111.621 35.5381L89.5847 13.5017Z" stroke="#E6E6E6" stroke-width="0.237985" stroke-miterlimit="10"/>
<path d="M89.5875 15.1312L69.1807 35.5381L89.5875 55.9449L109.994 35.5381L89.5875 15.1312Z" stroke="#E6E6E6" stroke-width="0.237985" stroke-miterlimit="10"/>
<path d="M89.5845 16.7608L70.8071 35.5381L89.5845 54.3154L108.362 35.5381L89.5845 16.7608Z" stroke="#E6E6E6" stroke-width="0.237985" stroke-miterlimit="10"/>
<path d="M89.5848 18.3932L72.437 35.541L89.5848 52.6888L106.733 35.541L89.5848 18.3932Z" stroke="#E6E6E6" stroke-width="0.237985" stroke-miterlimit="10"/>
<path d="M89.5847 20.0198L74.0664 35.5381L89.5847 51.0564L105.103 35.5381L89.5847 20.0198Z" stroke="#E6E6E6" stroke-width="0.237985" stroke-miterlimit="10"/>
<path d="M89.5846 21.6522L75.6958 35.541L89.5846 49.4298L103.473 35.541L89.5846 21.6522Z" stroke="#E6E6E6" stroke-width="0.237985" stroke-miterlimit="10"/>
<path d="M89.5845 23.2788L77.3252 35.5381L89.5845 47.7973L101.844 35.5381L89.5845 23.2788Z" stroke="#E6E6E6" stroke-width="0.237985" stroke-miterlimit="10"/>
<path d="M89.5848 24.9113L78.9551 35.541L89.5848 46.1708L100.215 35.541L89.5848 24.9113Z" stroke="#E6E6E6" stroke-width="0.237985" stroke-miterlimit="10"/>
<path d="M89.5847 26.5379L80.5845 35.5381L89.5847 44.5383L98.5849 35.5381L89.5847 26.5379Z" stroke="#E6E6E6" stroke-width="0.237985" stroke-miterlimit="10"/>
<path d="M89.5846 28.1703L82.2139 35.541L89.5846 42.9117L96.9553 35.541L89.5846 28.1703Z" stroke="#E6E6E6" stroke-width="0.237985" stroke-miterlimit="10"/>
<path d="M89.5849 29.7969L83.8438 35.5381L89.5849 41.2793L95.3261 35.5381L89.5849 29.7969Z" stroke="#E6E6E6" stroke-width="0.237985" stroke-miterlimit="10"/>
<path d="M89.5848 31.4294L85.4731 35.541L89.5848 39.6527L93.6965 35.541L89.5848 31.4294Z" stroke="#E6E6E6" stroke-width="0.237985" stroke-miterlimit="10"/>
<path d="M89.5842 33.0559L87.1021 35.5381L89.5842 38.0202L92.0663 35.5381L89.5842 33.0559Z" stroke="#E6E6E6" stroke-width="0.237985" stroke-miterlimit="10"/>
<path d="M89.5846 34.6884L88.7319 35.541L89.5846 36.3936L90.4372 35.541L89.5846 34.6884Z" stroke="#E6E6E6" stroke-width="0.237985" stroke-miterlimit="10"/>
</g>
<path d="M73.3877 66.9292H91.0382" stroke="#081017" stroke-width="0.237985" stroke-linecap="round" stroke-linejoin="round"/>
<path d="M79.4561 68.7856H97.1066" stroke="#081017" stroke-width="0.237985" stroke-linecap="round" stroke-linejoin="round"/>
<path d="M14.7041 68.1626H32.3547" stroke="#F6B4DD" stroke-width="0.237985" stroke-linecap="round" stroke-linejoin="round"/>
<path d="M14.7041 68.1626H32.3547" stroke="#E10098" stroke-width="0.237985" stroke-linecap="round" stroke-linejoin="round"/>
<path d="M32.795 3.13337C33.0766 1.57457 34.441 0.392578 36.0792 0.392578C37.3325 0.392578 38.4273 1.08274 38.9984 2.10607C39.2166 2.06641 39.4387 2.04657 39.6648 2.04657C41.7115 2.04657 43.3774 3.66091 43.4646 5.68775C43.8771 5.29904 44.4324 5.05708 45.0433 5.05708C46.3125 5.05708 47.3398 6.08439 47.3398 7.35364C47.3398 8.62289 46.3125 9.65019 45.0433 9.65019H33.8143C31.9699 9.65019 30.4746 8.15485 30.4746 6.31047C30.4746 4.8191 31.4503 3.55778 32.7989 3.12941L32.795 3.13337Z" fill="#E6E6E6" stroke="#E6E6E6" stroke-width="0.269716" stroke-linecap="round" stroke-linejoin="round"/>
<path d="M95.1631 46.7721C95.1353 46.7721 95.1115 46.7721 95.0838 46.7721V46.7642C95.0838 43.7775 92.6643 41.358 89.6775 41.358C88.2853 41.358 87.0161 41.8855 86.0562 42.7502C84.9893 41.4095 83.3471 40.5528 81.5028 40.5528C78.758 40.5528 76.4535 42.4567 75.8427 45.015C75.2636 44.6699 74.5893 44.4637 73.8634 44.4637C73.4946 44.4637 73.1376 44.5192 72.8004 44.6144C71.9715 42.6986 70.0636 41.354 67.8424 41.354C66.4502 41.354 65.181 41.8815 64.2211 42.7462C63.1541 41.4056 61.512 40.5488 59.6676 40.5488C56.9229 40.5488 54.6184 42.4527 54.0076 45.011C53.4285 44.666 52.7542 44.4597 52.0283 44.4597C49.8944 44.4597 48.165 46.1891 48.165 48.323C48.165 50.4569 49.5692 52.5076 51.6991 52.3925C53.016 52.3251 73.324 53.0153 73.324 53.0153C74.0181 53.0153 74.6567 52.7852 75.1763 52.4044C80.293 52.5076 95.1631 53.0153 95.1631 53.0153C96.8885 53.0153 98.2886 51.6151 98.2886 49.8897C98.2886 48.1643 96.8885 46.7642 95.1631 46.7642V46.7721Z" fill="white" stroke="#E6E6E6" stroke-width="0.269716" stroke-linecap="round" stroke-linejoin="round"/>
<path d="M54.3608 49.3343C54.3608 49.3343 54.3251 49.3343 54.3053 49.3343C54.3053 49.3343 54.3053 49.3304 54.3053 49.3264C54.3053 47.1568 52.5442 45.3957 50.3745 45.3957C49.3631 45.3957 48.4389 45.7804 47.7409 46.4071C46.9634 45.4314 45.7695 44.8086 44.4289 44.8086C42.4298 44.8086 40.756 46.1929 40.3118 48.0532C39.8913 47.7993 39.3995 47.6526 38.8719 47.6526C38.6022 47.6526 38.3444 47.6922 38.0985 47.7636C37.4956 46.3675 36.1073 45.3917 34.4891 45.3917C33.4776 45.3917 32.5534 45.7765 31.8554 46.4032C31.0779 45.4274 29.884 44.8047 28.5434 44.8047C26.5443 44.8047 24.8705 46.189 24.4263 48.0492C24.0058 47.7954 23.514 47.6486 22.9864 47.6486C21.4356 47.6486 20.1782 48.906 20.1782 50.4568C20.1782 52.0077 21.1976 53.4991 22.7485 53.4197C23.7044 53.3682 38.4793 53.8719 38.4793 53.8719C38.983 53.8719 39.4471 53.7053 39.8239 53.4277C43.5444 53.503 54.3608 53.8719 54.3608 53.8719C55.6182 53.8719 56.6375 52.8525 56.6375 51.5952C56.6375 50.3378 55.6182 49.3185 54.3608 49.3185V49.3343Z" fill="white" stroke="#E6E6E6" stroke-width="0.269716" stroke-linecap="round" stroke-linejoin="round"/>
<path d="M57.1531 50.2863C57.1531 50.2863 57.1809 50.2863 57.1928 50.2863C57.1928 50.2863 57.1928 50.2863 57.1928 50.2823C57.1928 48.7632 58.4263 47.5296 59.9454 47.5296C60.6554 47.5296 61.302 47.7993 61.7898 48.2396C62.3332 47.5574 63.1701 47.1211 64.1102 47.1211C65.5103 47.1211 66.6804 48.0889 66.9938 49.3938C67.2873 49.2154 67.6324 49.1122 68.0012 49.1122C68.1877 49.1122 68.3701 49.14 68.5446 49.1916C68.969 48.2158 69.9408 47.5296 71.0712 47.5296C71.7812 47.5296 72.4278 47.7993 72.9156 48.2396C73.459 47.5574 74.2959 47.1211 75.236 47.1211C76.6361 47.1211 77.8062 48.0889 78.1196 49.3938C78.4131 49.2154 78.7582 49.1122 79.127 49.1122C80.2138 49.1122 81.0944 49.9928 81.0944 51.0796C81.0944 52.1664 80.3804 53.2095 79.2936 53.154C78.6233 53.1183 68.2789 53.4713 68.2789 53.4713C67.9259 53.4713 67.6006 53.3563 67.3349 53.1619C64.7289 53.2135 57.1531 53.4713 57.1531 53.4713C56.2725 53.4713 55.5586 52.7574 55.5586 51.8768C55.5586 50.9963 56.2725 50.2823 57.1531 50.2823V50.2863Z" fill="white" stroke="#E6E6E6" stroke-width="0.269716" stroke-linecap="round" stroke-linejoin="round"/>
<path d="M65.974 22.7434C66.0945 22.7434 66.1922 22.6458 66.1922 22.5253C66.1922 22.4048 66.0945 22.3071 65.974 22.3071C65.8535 22.3071 65.7559 22.4048 65.7559 22.5253C65.7559 22.6458 65.8535 22.7434 65.974 22.7434Z" fill="black"/>
<path d="M67.2753 63.2602L67.192 72.855L43.334 76.282L40.9026 76.1154C38.4236 75.7623 38.606 72.1489 38.606 72.1489V13.327C38.606 9.666 41.557 9.31299 41.557 9.31299L45.9915 9.6898L65.538 11.205" fill="white"/>
<path d="M67.2753 63.2602L67.192 72.855L43.334 76.282L40.9026 76.1154C38.4236 75.7623 38.606 72.1489 38.606 72.1489V13.327C38.606 9.666 41.557 9.31299 41.557 9.31299L45.9915 9.6898L65.538 11.205" stroke="#081017" stroke-width="0.237985" stroke-linecap="round" stroke-linejoin="round"/>
<path d="M40.6206 74.1601C40.3668 73.5849 40.2637 72.9543 40.2637 72.3236V12.7322C40.2637 12.7322 40.2637 9.42418 42.8617 9.54317C45.4597 9.66217 65.5416 11.1972 65.5416 11.1972C65.5416 11.1972 67.1956 11.0782 67.3146 12.3792C67.4336 13.6801 67.4336 18.2852 67.4336 18.2852L67.1956 72.8551L43.3376 76.2821C43.3376 76.2821 41.5171 76.1948 40.6246 74.164L40.6206 74.1601Z" fill="#E10098" stroke="#081017" stroke-width="0.237985" stroke-linecap="round" stroke-linejoin="round"/>
<path d="M39.4625 23.6001H39.4109C39.2948 23.6001 39.2007 23.6942 39.2007 23.8103V30.5969C39.2007 30.713 39.2948 30.8071 39.4109 30.8071H39.4625C39.5786 30.8071 39.6727 30.713 39.6727 30.5969V23.8103C39.6727 23.6942 39.5786 23.6001 39.4625 23.6001Z" fill="#E6E6E6"/>
<path d="M58.0696 11.3537L51.9688 10.9805C51.7654 10.9681 51.5905 11.1229 51.5781 11.3262L51.5727 11.4133C51.5603 11.6166 51.7151 11.7916 51.9184 11.804L58.0193 12.1771C58.2226 12.1896 58.3975 12.0348 58.41 11.8315L58.4153 11.7444C58.4277 11.541 58.273 11.3661 58.0696 11.3537Z" fill="#E6E6E6"/>
<path d="M59.4907 70.9843L53.4394 71.8455C53.2377 71.8742 53.0975 72.061 53.1262 72.2627L53.1385 72.349C53.1672 72.5507 53.354 72.691 53.5557 72.6623L59.6069 71.801C59.8086 71.7723 59.9489 71.5856 59.9202 71.3839L59.9079 71.2975C59.8792 71.0958 59.6924 70.9556 59.4907 70.9843Z" fill="#E6E6E6"/>
<path d="M43.6312 71.4392L66.1922 68.4881L66.7832 16.0442C66.7832 16.0442 67.2552 13.3272 64.6572 13.3272C62.0592 13.3272 43.8692 12.1452 43.8692 12.1452C43.8692 12.1452 42.0962 11.9072 42.0962 14.8622V69.9042C42.0962 69.9042 42.0962 71.4392 43.6312 71.4392Z" fill="#F2F2F2" stroke="#081017" stroke-width="0.237985" stroke-linecap="round" stroke-linejoin="round"/>
<path d="M62.5195 19.7881L61.1471 21.0851L60.9448 27.6971L62.2141 27.0466C62.2141 27.0466 63.1819 29.958 65.0659 31.1796C65.3713 31.5604 65.1929 31.8381 65.5498 31.4731C65.9068 31.1082 65.5736 27.2648 65.5736 27.2648C65.5736 27.2648 63.4873 26.6539 63.4873 24.3653C63.0312 26.1978 62.698 25.8646 62.698 25.8646L63.1422 24.2622C63.1422 24.2622 61.401 23.9568 62.111 22.5844C62.5433 22.1521 63.1898 22.2988 63.1898 22.2988L64.0664 20.1451L62.5155 19.7881H62.5195Z" fill="white"/>
<path d="M46.5107 24.7344H54.0747" stroke="#081017" stroke-width="0.237985" stroke-linecap="round" stroke-linejoin="round"/>
<path d="M49.1128 26.2256H56.6767" stroke="#081017" stroke-width="0.237985" stroke-linecap="round" stroke-linejoin="round"/>
<path d="M69.31 21.7359C69.31 21.7359 69.786 21.954 69.5083 23.259C69.2307 24.5639 68.3422 27.5903 66.2241 26.7177C64.1061 25.8451 63.4159 21.8905 65.177 21.1409C66.9381 20.3912 69.31 21.7359 69.31 21.7359Z" fill="white"/>
<path d="M61.1108 21.4028C61.1108 18.9515 63.098 16.9644 65.5493 16.9644C68.0005 16.9644 69.9877 18.9515 69.9877 21.4028" fill="white"/>
<path d="M61.1108 21.4028C61.1108 18.9515 63.098 16.9644 65.5493 16.9644C68.0005 16.9644 69.9877 18.9515 69.9877 21.4028" stroke="#E10098" stroke-width="0.237985" stroke-linecap="round" stroke-linejoin="round"/>
<path d="M58.0213 40.5963C58.0213 40.5963 58.6837 41.81 59.9767 42.0797C61.2698 42.3494 61.5712 42.6786 61.5712 42.6786C61.5712 42.6786 61.6863 43.9003 62.4478 44.0867L62.9753 43.8765L62.1384 46.6371L58.8701 43.1189C58.8701 43.1189 57.7635 41.0683 58.0173 40.5923L58.0213 40.5963Z" fill="white"/>
<path d="M54.7412 32.3222V30.0018C54.7412 28.9983 55.5543 28.1852 56.5578 28.1852C58.307 28.1852 59.727 26.7652 59.727 25.016V21.363C59.727 20.3991 60.5084 19.6138 61.4762 19.6138" stroke="#E10098" stroke-width="0.237985" stroke-linecap="round" stroke-linejoin="round"/>
<path d="M65.3193 52.289C67.3105 48.0687 67.0725 43.1305 67.0725 43.1305C67.0725 43.1305 66.3308 42.5871 66.1245 42.25" fill="white"/>
<path d="M65.3193 52.289C67.3105 48.0687 67.0725 43.1305 67.0725 43.1305C67.0725 43.1305 66.3308 42.5871 66.1245 42.25" stroke="#081017" stroke-width="0.237985" stroke-linecap="round" stroke-linejoin="round"/>
<path d="M69.7778 36.126L72.3242 38.1171C72.3242 38.1171 73.1056 39.434 74.0615 39.434C75.0174 39.434 76.6238 39.1524 78.2143 38.2758C79.8088 37.3992 82.2759 35.4081 82.2759 35.4081C82.2759 35.4081 82.8352 35.0908 83.7871 35.0114C84.7391 34.9321 87.1308 34.1349 87.1308 34.1349C87.1308 34.1349 88.2057 33.6192 88.3525 33.5558C89.1497 33.1988 88.6698 32.8696 88.4913 32.8696C88.3128 32.8696 86.4446 33.4487 86.4446 33.4487C86.4446 33.4487 88.8483 32.5483 89.0228 32.4491C89.7407 32.0406 89.1894 31.8462 88.8919 31.8938C88.6857 31.9256 86.4129 32.7585 86.4129 32.7585C86.4129 32.7585 88.9316 31.6281 89.1616 31.4734C89.8914 30.9895 89.2132 30.8427 88.884 30.934C88.5548 31.0252 87.1348 31.4932 87.1348 31.4932L86.1749 31.9811C86.1749 31.9811 88.3406 30.9538 88.5627 30.6286C89.0902 29.8591 87.3926 30.5294 87.3926 30.5294L85.7584 31.2592C85.5681 31.3584 85.3658 31.4258 85.1556 31.4655L84.0251 31.6678C84.0251 31.6678 84.5804 30.8705 84.8224 30.4739C85.4967 29.3593 84.5844 29.7361 84.5844 29.7361C84.5844 29.7361 83.9458 30.1565 83.5452 30.8705C82.1133 31.5884 81.8714 33.179 81.8714 33.179C81.8714 33.179 77.9684 34.9321 76.2192 35.5667C75.2633 34.5315 74.3867 34.4522 74.3867 34.4522L73.5895 33.5756C73.5895 33.5756 71.1224 30.3906 70.0871 29.3553C69.0519 28.3201 68.1753 28.3201 67.4574 27.8441C66.7395 27.3682 66.4222 27.7648 66.4222 27.7648C66.4222 27.7648 66.8188 28.3241 66.8981 29.276C66.9775 30.2279 65.8629 31.2671 65.8629 31.2671L65.5337 31.4694C65.5337 31.4694 66.3666 32.9965 66.3666 34.3768" fill="white"/>
<path d="M69.7778 36.126L72.3242 38.1171C72.3242 38.1171 73.1056 39.434 74.0615 39.434C75.0174 39.434 76.6238 39.1524 78.2143 38.2758C79.8088 37.3992 82.2759 35.4081 82.2759 35.4081C82.2759 35.4081 82.8352 35.0908 83.7871 35.0114C84.7391 34.9321 87.1308 34.1349 87.1308 34.1349C87.1308 34.1349 88.2057 33.6192 88.3525 33.5558C89.1497 33.1988 88.6698 32.8696 88.4913 32.8696C88.3128 32.8696 86.4446 33.4487 86.4446 33.4487C86.4446 33.4487 88.8483 32.5483 89.0228 32.4491C89.7407 32.0406 89.1894 31.8462 88.8919 31.8938C88.6857 31.9256 86.4129 32.7585 86.4129 32.7585C86.4129 32.7585 88.9316 31.6281 89.1616 31.4734C89.8914 30.9895 89.2132 30.8427 88.884 30.934C88.5548 31.0252 87.1348 31.4932 87.1348 31.4932L86.1749 31.9811C86.1749 31.9811 88.3406 30.9538 88.5627 30.6286C89.0902 29.8591 87.3926 30.5294 87.3926 30.5294L85.7584 31.2592C85.5681 31.3584 85.3658 31.4258 85.1556 31.4655L84.0251 31.6678C84.0251 31.6678 84.5804 30.8705 84.8224 30.4739C85.4967 29.3593 84.5844 29.7361 84.5844 29.7361C84.5844 29.7361 83.9458 30.1565 83.5452 30.8705C82.1133 31.5884 81.8714 33.179 81.8714 33.179C81.8714 33.179 77.9684 34.9321 76.2192 35.5667C75.2633 34.5315 74.3867 34.4522 74.3867 34.4522L73.5895 33.5756C73.5895 33.5756 71.1224 30.3906 70.0871 29.3553C69.0519 28.3201 68.1753 28.3201 67.4574 27.8441C66.7395 27.3682 66.4222 27.7648 66.4222 27.7648C66.4222 27.7648 66.8188 28.3241 66.8981 29.276C66.9775 30.2279 65.8629 31.2671 65.8629 31.2671L65.5337 31.4694C65.5337 31.4694 66.3666 32.9965 66.3666 34.3768" stroke="#081017" stroke-width="0.237985" stroke-linecap="round" stroke-linejoin="round"/>
<path d="M49.1607 64.228C49.1607 64.228 47.5821 64.7992 47.1021 65.1562C46.9831 65.2434 46.7055 65.3069 46.5865 65.3981C46.2295 65.6758 45.9122 65.9812 45.8686 66.3858C45.8091 66.9252 45.6187 67.2782 46.4596 68.7339C46.9316 69.551 47.2449 71.6333 47.4551 72.0498C47.7486 72.6368 48.2008 73.6086 49.6922 73.6681C51.1836 73.7276 51.727 73.1445 51.7825 72.7122C51.9055 71.7563 51.0646 70.6814 50.7671 70.3839C50.7671 69.8445 50.7076 68.2936 50.7076 68.2936C50.7076 68.2936 50.9456 67.7938 50.8861 67.3179C50.8266 66.8419 50.8861 66.4413 50.8861 66.4413" fill="white"/>
<path d="M49.1607 64.228C49.1607 64.228 47.5821 64.7992 47.1021 65.1562C46.9831 65.2434 46.7055 65.3069 46.5865 65.3981C46.2295 65.6758 45.9122 65.9812 45.8686 66.3858C45.8091 66.9252 45.6187 67.2782 46.4596 68.7339C46.9316 69.551 47.2449 71.6333 47.4551 72.0498C47.7486 72.6368 48.2008 73.6086 49.6922 73.6681C51.1836 73.7276 51.727 73.1445 51.7825 72.7122C51.9055 71.7563 51.0646 70.6814 50.7671 70.3839C50.7671 69.8445 50.7076 68.2936 50.7076 68.2936C50.7076 68.2936 50.9456 67.7938 50.8861 67.3179C50.8266 66.8419 50.8861 66.4413 50.8861 66.4413" stroke="#081017" stroke-width="0.237985" stroke-linecap="round" stroke-linejoin="round"/>
<path d="M50.0687 36.6812C50.0687 36.6812 47.9983 39.1086 47.0027 40.5048C46.0071 41.897 45.1702 43.1742 44.6546 43.4122C44.1389 43.6501 42.2271 43.9278 41.8265 44.1301C41.4259 44.3324 40.1646 44.9353 40.0932 45.3716C40.0178 45.8555 40.7913 45.4549 40.7913 45.4549C40.7913 45.4549 42.3977 44.6457 42.715 44.6061C40.7754 45.8396 40.2757 46.2759 40.0337 46.5456C39.7045 46.9105 40.1011 47.4143 40.4581 47.1366C40.8151 46.859 41.8067 46.1807 42.9807 45.5659C41.5092 46.4425 40.2479 47.4024 40.3827 47.6086C40.7754 48.1996 41.3743 47.6761 41.7155 47.4103C42.124 47.093 44.3333 46.0419 44.5752 46.1649C44.6149 46.3235 44.016 47.2398 43.9763 47.4777C43.9367 47.7157 43.7145 48.4098 44.0953 48.394C44.3849 48.3821 45.3289 47.2001 45.8485 46.0855C46.3681 44.971 46.5664 44.3324 46.5664 44.3324L52.1392 38.6406" fill="white"/>
<path d="M50.0687 36.6812C50.0687 36.6812 47.9983 39.1086 47.0027 40.5048C46.0071 41.897 45.1702 43.1742 44.6546 43.4122C44.1389 43.6501 42.2271 43.9278 41.8265 44.1301C41.4259 44.3324 40.1646 44.9353 40.0932 45.3716C40.0178 45.8555 40.7913 45.4549 40.7913 45.4549C40.7913 45.4549 42.3977 44.6457 42.715 44.6061C40.7754 45.8396 40.2757 46.2759 40.0337 46.5456C39.7045 46.9105 40.1011 47.4143 40.4581 47.1366C40.8151 46.859 41.8067 46.1807 42.9807 45.5659C41.5092 46.4425 40.2479 47.4024 40.3827 47.6086C40.7754 48.1996 41.3743 47.6761 41.7155 47.4103C42.124 47.093 44.3333 46.0419 44.5752 46.1649C44.6149 46.3235 44.016 47.2398 43.9763 47.4777C43.9367 47.7157 43.7145 48.4098 44.0953 48.394C44.3849 48.3821 45.3289 47.2001 45.8485 46.0855C46.3681 44.971 46.5664 44.3324 46.5664 44.3324L52.1392 38.6406" stroke="#081017" stroke-width="0.237985" stroke-linecap="round" stroke-linejoin="round"/>
<path d="M57.9222 40.4575C57.9222 40.4575 53.6901 45.364 55.3639 48.8663C57.0377 52.3687 62.2139 59.8573 62.2139 59.8573C62.2139 59.8573 62.4519 60.8925 62.5312 61.7691C62.6105 62.6457 64.205 68.5397 64.7603 70.2096C65.3196 71.8834 65.6924 72.6529 65.6924 72.6529C65.6924 72.6529 65.3949 73.1567 65.8749 73.7119C66.3548 74.2672 66.4976 73.9261 66.4976 73.9261C66.4976 73.9261 67.3821 72.8354 68.2428 72.5974C69.3415 72.292 70.0952 72.3594 70.0952 72.3594C70.0952 72.3594 70.5711 71.8834 70.2538 71.4035C69.9365 70.9236 67.6241 58.3421 67.6241 58.3421C67.6241 58.3421 65.157 51.8134 64.677 50.8575C64.1971 49.9016 63.4038 47.5931 62.3686 46.8752" fill="white"/>
<path d="M57.9222 40.4575C57.9222 40.4575 53.6901 45.364 55.3639 48.8663C57.0377 52.3687 62.2139 59.8573 62.2139 59.8573C62.2139 59.8573 62.4519 60.8925 62.5312 61.7691C62.6105 62.6457 64.205 68.5397 64.7603 70.2096C65.3196 71.8834 65.6924 72.6529 65.6924 72.6529C65.6924 72.6529 65.3949 73.1567 65.8749 73.7119C66.3548 74.2672 66.4976 73.9261 66.4976 73.9261C66.4976 73.9261 67.3821 72.8354 68.2428 72.5974C69.3415 72.292 70.0952 72.3594 70.0952 72.3594C70.0952 72.3594 70.5711 71.8834 70.2538 71.4035C69.9365 70.9236 67.6241 58.3421 67.6241 58.3421C67.6241 58.3421 65.157 51.8134 64.677 50.8575C64.1971 49.9016 63.4038 47.5931 62.3686 46.8752" stroke="#081017" stroke-width="0.237985" stroke-linecap="round" stroke-linejoin="round"/>
<path d="M63.8756 42.9918C62.2057 42.4365 62.1343 42.02 60.7778 41.6194C59.4213 41.2188 57.2755 40.5841 57.5928 39.3902C58.0688 38.5137 58.3107 37.7957 57.9894 36.2845L57.6721 34.7733L54.8044 37.2404C54.8044 37.2404 53.6898 38.8349 53.2932 38.8349C52.8966 38.8349 51.8137 38.9976 50.7864 37.7997C49.9733 36.8557 49.7909 35.8879 50.0288 35.4119C50.2668 34.936 51.54 34.218 51.54 34.218C51.54 34.218 51.6194 34.1863 51.7344 34.1387C51.8772 34.0792 52.0795 33.988 52.258 33.9007C52.5753 33.7421 56.8749 29.3631 56.8749 29.3631C56.8749 29.3631 57.5135 28.7246 58.7867 28.4072C60.0599 28.0899 61.7337 27.372 61.9717 27.2133L62.2097 27.0547C62.2097 27.0547 62.9276 28.9665 63.7209 29.8431C64.5142 30.7197 65.8033 31.8501 65.95 32.3102C67.6199 37.5062 65.712 39.7155 65.712 39.7155C65.712 39.7155 65.7834 42.5197 63.8716 42.9997L63.8756 42.9918Z" fill="white" stroke="#081017" stroke-width="0.237985" stroke-linecap="round" stroke-linejoin="round"/>
<path d="M54.2413 37.2407C54.2413 37.2407 51.572 37.0423 52.0519 34.4126L54.2413 37.2407Z" fill="white"/>
<path d="M54.2413 37.2407C54.2413 37.2407 51.572 37.0423 52.0519 34.4126" stroke="#081017" stroke-width="0.237985" stroke-linecap="round" stroke-linejoin="round"/>
<path d="M70.1864 71.1536C70.1864 71.1536 66.8863 70.2651 65.752 72.5656L70.1864 71.1536Z" fill="white"/>
<path d="M70.1864 71.1536C70.1864 71.1536 66.8863 70.2651 65.752 72.5656" stroke="#081017" stroke-width="0.237985" stroke-linecap="round" stroke-linejoin="round"/>
<path d="M57.6841 53.0151L56.4386 57.2473C56.4386 57.2473 54.7648 58.2032 52.4365 60.591C50.1082 62.9788 49.1523 63.3397 49.1523 63.7562C49.1523 64.1727 49.3903 66.5644 51.9011 66.4454C52.377 66.029 52.9165 65.311 54.4673 64.2956C56.0182 63.2802 58.529 61.4279 58.529 61.4279C58.529 61.4279 60.8453 60 61.3808 58.8656" stroke="#081017" stroke-width="0.237985" stroke-linecap="round" stroke-linejoin="round"/>
<path d="M46.5862 65.3979C46.1697 65.8462 46.6417 66.9805 47.0026 67.877C47.3636 68.7734 47.3596 70.003 48.1965 71.4586C49.7196 74.1082 51.6949 72.4145 51.6949 72.4145" fill="white"/>
<path d="M46.5862 65.3979C46.1697 65.8462 46.6417 66.9805 47.0026 67.877C47.3636 68.7734 47.3596 70.003 48.1965 71.4586C49.7196 74.1082 51.6949 72.4145 51.6949 72.4145" stroke="#081017" stroke-width="0.237985" stroke-linecap="round" stroke-linejoin="round"/>
<path d="M48.7122 64.3945C48.7122 64.3945 48.1093 65.3108 48.3354 66.1318C48.5734 67.0005 49.1921 67.052 49.5412 67.1195C50.3345 67.2662 50.7708 66.7902 50.7708 66.7902" stroke="#081017" stroke-width="0.237985" stroke-linecap="round" stroke-linejoin="round"/>
<path d="M49.1206 67.8813C49.1206 67.8813 49.898 68.4803 50.7349 68.0598L49.1206 67.8813Z" fill="white"/>
<path d="M49.1206 67.8813C49.1206 67.8813 49.898 68.4803 50.7349 68.0598" stroke="#081017" stroke-width="0.237985" stroke-linecap="round" stroke-linejoin="round"/>
<path d="M49.1089 68.9321C49.1089 68.9321 49.8863 69.5311 50.7232 69.1106L49.1089 68.9321Z" fill="white"/>
<path d="M49.1089 68.9321C49.1089 68.9321 49.8863 69.5311 50.7232 69.1106" stroke="#081017" stroke-width="0.237985" stroke-linecap="round" stroke-linejoin="round"/>
<path d="M49.1484 70.0151C49.1484 70.0151 49.9259 70.6141 50.7628 70.1936L49.1484 70.0151Z" fill="white"/>
<path d="M49.1484 70.0151C49.1484 70.0151 49.9259 70.6141 50.7628 70.1936" stroke="#081017" stroke-width="0.237985" stroke-linecap="round" stroke-linejoin="round"/>
<path d="M66.9419 73.4541L67.4893 75.4016C67.4893 75.4016 67.4377 75.469 67.3703 75.5801C67.2195 75.826 67.1085 76.9088 67.1918 77.2817C67.3108 77.8211 67.3108 78.7493 67.4298 78.9873C67.5488 79.2252 67.8026 79.4989 68.3579 79.3879C68.6078 79.3363 74.0894 76.7066 74.5415 76.532C75.5411 76.1433 76.1559 75.8935 76.5089 75.7546C77.0087 75.5603 77.3141 75.477 76.6874 74.8661C76.0607 74.2553 74.8351 74.2672 74.1211 74.3267C73.4071 74.3862 73.2842 74.5647 72.3878 74.2077C71.4914 73.8507 71.1106 73.6445 70.6307 73.704C70.1507 73.7635 69.409 73.7873 69.2226 74.6282C69.1552 74.9256 69.2226 75.5841 68.8061 75.7031C68.8061 75.7031 68.0009 76.2822 67.4456 75.6753" stroke="#081017" stroke-width="0.237985" stroke-linecap="round" stroke-linejoin="round"/>
<path d="M76.9494 75.1753C75.4263 75.1753 67.6362 79.1655 67.6362 79.1655L76.9494 75.1753Z" fill="white"/>
<path d="M76.9494 75.1753C75.4263 75.1753 67.6362 79.1655 67.6362 79.1655" stroke="#081017" stroke-width="0.237985" stroke-linecap="round" stroke-linejoin="round"/>
<path d="M77.0442 75.2822C77.0442 75.2822 77.6432 76.488 75.1919 77.432C72.5701 78.4435 71.404 79.3319 68.0762 79.3835" stroke="#081017" stroke-width="0.237985" stroke-linecap="round" stroke-linejoin="round"/>
<path d="M72.9308 74.4536C72.9308 74.4536 72.3398 74.9256 72.2446 75.4254L72.9308 74.4536Z" fill="white"/>
<path d="M72.9308 74.4536C72.9308 74.4536 72.3398 74.9256 72.2446 75.4254" stroke="#081017" stroke-width="0.237985" stroke-linecap="round" stroke-linejoin="round"/>
<path d="M72.2846 74.2314C72.2846 74.2314 71.5389 74.8304 71.4199 75.4571L72.2846 74.2314Z" fill="white"/>
<path d="M72.2846 74.2314C72.2846 74.2314 71.5389 74.8304 71.4199 75.4571" stroke="#081017" stroke-width="0.237985" stroke-linecap="round" stroke-linejoin="round"/>
<path d="M71.5668 73.9736C71.5668 73.9736 70.8211 74.5726 70.7021 75.1993L71.5668 73.9736Z" fill="white"/>
<path d="M71.5668 73.9736C71.5668 73.9736 70.8211 74.5726 70.7021 75.1993" stroke="#081017" stroke-width="0.237985" stroke-linecap="round" stroke-linejoin="round"/>
<path d="M69.5752 72.375L69.9361 73.791" stroke="#081017" stroke-width="0.237985" stroke-linecap="round" stroke-linejoin="round"/>
<path d="M69.6988 31.624C69.6988 31.624 70.4167 34.1308 69.6988 35.7451C68.9809 37.3595 68.017 41.6234 66.5812 42.7617C66.5812 42.7617 64.2965 43.1108 63.9396 43.0076C63.8364 42.9759 66.4027 34.2696 66.4027 34.2696" fill="white"/>
<path d="M69.6988 31.624C69.6988 31.624 70.4167 34.1308 69.6988 35.7451C68.9809 37.3595 68.017 41.6234 66.5812 42.7617C66.5812 42.7617 64.2965 43.1108 63.9396 43.0076C63.8364 42.9759 66.4027 34.2696 66.4027 34.2696" stroke="#081017" stroke-width="0.237985" stroke-linecap="round" stroke-linejoin="round"/>
<path d="M66.1567 31.8662C66.1567 31.8662 67.073 31.4695 67.2713 30.593L68.1479 30.8706C68.1479 30.8706 68.2669 29.0381 67.4696 27.8442" stroke="#081017" stroke-width="0.237985" stroke-linecap="round" stroke-linejoin="round"/>
<path d="M83.1963 33.3577C83.1963 33.3577 83.9737 32.8817 84.9891 33.2387L83.1963 33.3577Z" fill="white"/>
<path d="M83.1963 33.3577C83.1963 33.3577 83.9737 32.8817 84.9891 33.2387" stroke="#081017" stroke-width="0.237985" stroke-linecap="round" stroke-linejoin="round"/>
<path d="M76.2268 35.5666C74.1564 36.3242 73.8787 38.1527 74.7156 39.4299C73.3234 39.5489 72.8831 39.2713 72.6055 38.117C72.1295 35.5309 74.4856 34.5076 74.4856 34.5076C73.9263 34.4679 75.6715 34.1744 76.2268 35.5666Z" fill="white" stroke="#081017" stroke-width="0.237985" stroke-linecap="round" stroke-linejoin="round"/>
<path d="M63.5186 23.9811C63.5186 25.6232 64.8513 26.9559 66.4934 26.9559C68.1355 26.9559 69.4682 25.6232 69.4682 23.9811C69.4682 23.7233 69.4364 23.4734 69.373 23.2314" stroke="#081017" stroke-width="0.237985" stroke-linecap="round" stroke-linejoin="round"/>
<path d="M66.4141 27.0586V28.8792" stroke="#081017" stroke-width="0.237985" stroke-linecap="round" stroke-linejoin="round"/>
<path d="M63.0625 47.3668C63.1815 46.9702 63.9232 43.0117 63.9232 43.0117L63.0625 47.3668Z" fill="white"/>
<path d="M63.0625 47.3668C63.1815 46.9702 63.9232 43.0117 63.9232 43.0117" stroke="#081017" stroke-width="0.237985" stroke-linecap="round" stroke-linejoin="round"/>
<path d="M58.4101 33.897L57.6724 34.7696" stroke="#081017" stroke-width="0.237985" stroke-linecap="round" stroke-linejoin="round"/>
<path d="M52.4484 65.8224C50.0011 65.7034 49.9575 62.9507 49.9575 62.9507L52.4484 65.8224Z" fill="white"/>
<path d="M52.4484 65.8224C50.0011 65.7034 49.9575 62.9507 49.9575 62.9507" stroke="#081017" stroke-width="0.237985" stroke-linecap="round" stroke-linejoin="round"/>
<path d="M67.6117 24.552L65.7554 24.3418C65.7554 24.3418 65.6999 25.262 66.7034 25.5833" stroke="#081017" stroke-width="0.237985" stroke-linecap="round" stroke-linejoin="round"/>
<path d="M65.8154 22.6797C65.9753 22.6797 66.105 22.5501 66.105 22.3901C66.105 22.2302 65.9753 22.1006 65.8154 22.1006C65.6555 22.1006 65.5259 22.2302 65.5259 22.3901C65.5259 22.5501 65.6555 22.6797 65.8154 22.6797Z" fill="black"/>
<path d="M68.4531 22.5649C68.613 22.5649 68.7427 22.4353 68.7427 22.2754C68.7427 22.1155 68.613 21.9858 68.4531 21.9858C68.2932 21.9858 68.1636 22.1155 68.1636 22.2754C68.1636 22.4353 68.2932 22.5649 68.4531 22.5649Z" fill="black"/>
<path d="M66.8862 23.5882C66.8862 23.5882 67.39 23.366 67.6716 23.6992" stroke="#081017" stroke-width="0.237985" stroke-linecap="round" stroke-linejoin="round"/>
<path d="M65.7157 21.5254C65.7157 21.5254 65.1644 21.5373 65.0137 21.9022" stroke="#081017" stroke-width="0.237985" stroke-linecap="round" stroke-linejoin="round"/>
<path d="M51.6554 72.2282V72.3392C51.6554 72.3392 50.8343 72.8787 50.1997 72.843C49.5651 72.8073 49.1367 72.4899 48.8749 72.2282C48.6131 71.9664 47.8873 70.7923 47.8119 70.4552C47.7365 70.118 47.1773 68.2142 47.1773 68.2142L46.5228 66.2746L46.4673 65.6598C46.4673 65.6598 47.0702 65.1203 46.975 65.4456C46.8362 65.9295 47.5263 68.6743 47.7881 69.3089C48.0499 69.9435 48.149 71.2405 49.3985 72.3234C50.1362 72.9619 51.6554 72.2282 51.6554 72.2282Z" fill="#E10098"/>
<path d="M62.6818 26.1426L63.142 24.2626L62.4875 24.0246C62.0591 23.8699 61.8092 23.4217 61.9044 22.9735C62.0076 22.4935 62.4677 22.1802 62.9476 22.2595L63.1895 22.2992C63.1895 22.2992 63.6497 20.4032 65.4821 20.435C67.3146 20.4667 69.393 21.6566 68.9646 20.55" stroke="#081017" stroke-width="0.237985" stroke-linecap="round" stroke-linejoin="round"/>
<path d="M67.5412 79.0785C67.5412 79.0785 69.5562 78.0711 72.6381 76.6154C75.72 75.1597 76.9853 75.0645 76.9853 75.0645C76.9853 75.0645 76.902 74.5251 76.1642 74.5608C75.4265 74.5965 67.4302 78.5193 67.4302 78.5193L67.5412 79.0785Z" fill="#E10098"/>
<g style="mix-blend-mode:multiply">
<path d="M69.1039 70.888C69.5521 70.8959 69.8932 70.4874 69.8059 70.0471L67.7672 59.9288L67.4737 58.132C67.4657 58.0804 67.4499 58.0289 67.43 57.9813C67.43 57.9813 66.2322 54.935 65.1771 52.3569C64.3997 50.449 63.6818 48.803 63.6738 48.7871L62.9401 47.5972C62.2816 46.8396 62.0555 46.8277 61.9445 46.7722C61.4407 46.5104 60.3897 45.9868 59.6479 45.9868C59.1601 45.9868 64.7249 55.2524 65.3556 56.3035C65.3953 56.3709 65.423 56.4383 65.4389 56.5137L68.4335 70.3327C68.501 70.65 68.7786 70.8801 69.1039 70.884V70.888Z" fill="#E6E6E6"/>
</g>
<path d="M62.3725 46.875C61.3372 46.1571 58.8701 45.6812 58.8701 45.6812L62.3725 46.875Z" fill="white"/>
<path d="M62.3725 46.875C61.3372 46.1571 58.8701 45.6812 58.8701 45.6812" stroke="#081017" stroke-width="0.237985" stroke-linecap="round" stroke-linejoin="round"/>
<path d="M52.4964 65.6956C52.4964 65.6956 55.6894 63.3237 56.6215 62.6533C57.5536 61.983 59.7589 60.452 59.7589 60.452C59.7589 60.452 60.806 59.5556 61.0638 59.147L61.3256 58.7345L60.2071 57.1479C60.2071 57.1479 59.1798 59.032 58.1366 59.9284C57.0935 60.8248 51.0605 65.172 51.0605 65.172C51.0605 65.172 51.7309 65.882 52.4964 65.6956Z" fill="#E6E6E6"/>
<path d="M65.3002 51.9758C65.3002 51.9758 65.9546 50.6868 66.2719 49.362C66.5892 48.0372 66.7757 46.9544 66.7558 46.7481C66.736 46.5419 67.1088 43.8725 66.9423 43.1466C66.5218 42.9443 65.792 43.2735 65.6968 43.1466C65.6016 43.0197 65.5976 49.4016 64.6655 50.4845L65.3002 51.9758Z" fill="#E6E6E6"/>
<path d="M61.5675 27.4834C61.5675 27.4834 61.3771 27.8047 61.5358 28.9192C61.6944 30.0338 62.1744 31.0294 62.1744 31.0294C62.1744 31.0294 62.7733 30.5931 63.3286 30.3115C63.6063 31.069 64.7605 31.9853 64.7605 31.9853" fill="white"/>
<path d="M61.5675 27.4834C61.5675 27.4834 61.3771 27.8047 61.5358 28.9192C61.6944 30.0338 62.1744 31.0294 62.1744 31.0294C62.1744 31.0294 62.7733 30.5931 63.3286 30.3115C63.6063 31.069 64.7605 31.9853 64.7605 31.9853" stroke="#081017" stroke-width="0.237985" stroke-linecap="round" stroke-linejoin="round"/>
<path d="M52.0919 56.5807H20.4122C19.841 56.5807 19.377 56.1167 19.377 55.5455C19.377 54.9743 19.841 54.5103 20.4122 54.5103H41.8388" stroke="#E10098" stroke-width="0.237985" stroke-linecap="round" stroke-linejoin="round"/>
</svg>
