<svg width="98" height="63" viewBox="0 0 98 63" fill="none" xmlns="http://www.w3.org/2000/svg">
<path d="M48.325 35.6069L47.0898 40.5475L54.2691 40.1615C54.2691 40.1615 56.5078 39.1194 54.9253 36.6105H51.2584L48.2864 35.6069H48.325Z" fill="#E6E6E6"/>
<mask id="mask0_2827_41310" style="mask-type:luminance" maskUnits="userSpaceOnUse" x="0" y="3" width="44" height="56">
<path d="M2.50888 54.7901V47.5336L2.93346 47.1476C4.01421 46.1827 5.28794 45.4107 6.63888 44.8703L11.9654 42.786L23.9694 41.5509L35.4717 35.4524C36.7068 34.7962 37.9806 34.2559 39.2929 33.8313C40.0649 33.5997 40.8368 33.4067 41.6088 33.2909L43.1913 33.0593V3.53174H0V58.6885L2.47028 54.7901H2.50888Z" fill="white"/>
</mask>
<g mask="url(#mask0_2827_41310)">
<path d="M25.2438 33.0977H24.2402V46.4526H25.2438V33.0977Z" fill="#E6E6E6"/>
<path d="M14.3585 31.5923H13.355V46.414H14.3585V31.5923Z" fill="#E6E6E6"/>
<mask id="mask1_2827_41310" style="mask-type:luminance" maskUnits="userSpaceOnUse" x="13" y="9" width="23" height="24">
<path d="M24.6646 32.2101C30.8253 32.2101 35.8195 27.2159 35.8195 21.0552C35.8195 14.8946 30.8253 9.90039 24.6646 9.90039C18.504 9.90039 13.5098 14.8946 13.5098 21.0552C13.5098 27.2159 18.504 32.2101 24.6646 32.2101Z" fill="white"/>
</mask>
<g mask="url(#mask1_2827_41310)">
<path d="M24.6535 4.47295L-3.07617 32.2026L24.6535 59.9323L52.3832 32.2026L24.6535 4.47295Z" stroke="#F6B4DD" stroke-width="0.6" stroke-miterlimit="10"/>
<path d="M24.6538 6.71097L-0.837891 32.2026L24.6811 57.7216L50.1727 32.2299L24.6538 6.71097Z" stroke="#F6B4DD" stroke-width="0.6" stroke-miterlimit="10"/>
<path d="M24.6535 8.89436L1.37256 32.1753L24.6535 55.4562L47.9344 32.1753L24.6535 8.89436Z" stroke="#F6B4DD" stroke-width="0.6" stroke-miterlimit="10"/>
<path d="M24.6532 11.1324L3.58301 32.2026L24.6532 53.2728L45.7234 32.2026L24.6532 11.1324Z" stroke="#F6B4DD" stroke-width="0.6" stroke-miterlimit="10"/>
<path d="M24.653 13.3705L5.8208 32.2026L24.653 51.0348L43.4851 32.2026L24.653 13.3705Z" stroke="#F6B4DD" stroke-width="0.6" stroke-miterlimit="10"/>
<path d="M24.6805 15.5812L8.05908 32.2026L24.6805 48.8241L41.302 32.2026L24.6805 15.5812Z" stroke="#F6B4DD" stroke-width="0.6" stroke-miterlimit="10"/>
<path d="M24.6812 17.7646L10.2705 32.1753L24.6812 46.586L39.0919 32.1753L24.6812 17.7646Z" stroke="#F6B4DD" stroke-width="0.6" stroke-miterlimit="10"/>
<path d="M24.6527 20.03L12.48 32.2026L24.6527 44.3753L36.8253 32.2026L24.6527 20.03Z" stroke="#F6B4DD" stroke-width="0.6" stroke-miterlimit="10"/>
<path d="M24.6807 22.2407L14.7188 32.2026L24.6807 42.1646L34.6426 32.2026L24.6807 22.2407Z" stroke="#F6B4DD" stroke-width="0.6" stroke-miterlimit="10"/>
<path d="M24.6531 24.4514L16.9292 32.1753L24.6804 39.9265L32.4043 32.2026L24.6531 24.4514Z" stroke="#F6B4DD" stroke-width="0.6" stroke-miterlimit="10"/>
<path d="M24.6538 26.6894L19.1406 32.2026L24.6538 37.7158L30.167 32.2026L24.6538 26.6894Z" stroke="#F6B4DD" stroke-width="0.6" stroke-miterlimit="10"/>
<path d="M24.6804 28.9002L21.3779 32.2026L24.6804 35.5051L27.9828 32.2026L24.6804 28.9002Z" stroke="#F6B4DD" stroke-width="0.6" stroke-miterlimit="10"/>
<path d="M24.6528 31.1109L23.5884 32.1753L24.6528 33.2397L25.7172 32.1753L24.6528 31.1109Z" stroke="#F6B4DD" stroke-width="0.6" stroke-miterlimit="10"/>
</g>
<path d="M13.8183 32.2098C17.6554 32.2098 20.7659 29.0992 20.7659 25.2621C20.7659 21.425 17.6554 18.3145 13.8183 18.3145C9.98118 18.3145 6.87061 21.425 6.87061 25.2621C6.87061 29.0992 9.98118 32.2098 13.8183 32.2098Z" fill="white"/>
<path d="M13.8188 33.0204C9.53438 33.0204 6.06055 29.5465 6.06055 25.2621C6.06055 20.9777 9.53438 17.5039 13.8188 17.5039C18.1032 17.5039 21.577 20.9777 21.577 25.2621C21.577 29.5465 18.1032 33.0204 13.8188 33.0204ZM13.8188 19.1636C10.4607 19.1636 7.72027 21.9041 7.72027 25.2621C7.72027 28.6202 10.4607 31.3606 13.8188 31.3606C17.1768 31.3606 19.9173 28.6202 19.9173 25.2621C19.9173 21.9041 17.1768 19.1636 13.8188 19.1636Z" fill="white"/>
<path d="M33.7345 22.2126C35.5464 22.2126 37.0153 20.7437 37.0153 18.9317C37.0153 17.1198 35.5464 15.6509 33.7345 15.6509C31.9225 15.6509 30.4536 17.1198 30.4536 18.9317C30.4536 20.7437 31.9225 22.2126 33.7345 22.2126Z" fill="white"/>
<path d="M33.7355 23.0618C31.4582 23.0618 29.6055 21.209 29.6055 18.9318C29.6055 16.6545 31.4582 14.8018 33.7355 14.8018C36.0128 14.8018 37.8655 16.6545 37.8655 18.9318C37.8655 21.209 36.0128 23.0618 33.7355 23.0618ZM33.7355 16.5001C32.3845 16.5001 31.2652 17.6194 31.2652 18.9704C31.2652 20.3213 32.3845 21.4406 33.7355 21.4406C35.0864 21.4406 36.2057 20.3213 36.2057 18.9704C36.2057 17.6194 35.0864 16.5001 33.7355 16.5001Z" fill="white"/>
<mask id="mask2_2827_41310" style="mask-type:luminance" maskUnits="userSpaceOnUse" x="6" y="18" width="15" height="15">
<path d="M13.8178 32.2103C17.6549 32.2103 20.7654 29.0997 20.7654 25.2626C20.7654 21.4255 17.6549 18.3149 13.8178 18.3149C9.98069 18.3149 6.87012 21.4255 6.87012 25.2626C6.87012 29.0997 9.98069 32.2103 13.8178 32.2103Z" fill="white"/>
</mask>
<g mask="url(#mask2_2827_41310)">
<path d="M13.8452 16.1539L-2.20312 32.2021L13.8179 48.2231L29.8661 32.1749L13.8452 16.1539Z" stroke="#E6E6E6" stroke-width="0.6" stroke-miterlimit="10"/>
<path d="M13.8454 17.9007L-0.483398 32.2295L13.8454 46.5583L28.1743 32.2295L13.8454 17.9007Z" stroke="#E6E6E6" stroke-width="0.6" stroke-miterlimit="10"/>
<path d="M13.8184 19.6201L1.20898 32.2295L13.8184 44.8389L26.4277 32.2295L13.8184 19.6201Z" stroke="#E6E6E6" stroke-width="0.6" stroke-miterlimit="10"/>
<path d="M13.8176 21.3122L2.92773 32.2021L13.8176 43.0921L24.7075 32.2021L13.8176 21.3122Z" stroke="#E6E6E6" stroke-width="0.6" stroke-miterlimit="10"/>
<path d="M13.8452 23.0318L4.64746 32.2295L13.8452 41.4272L23.0429 32.2295L13.8452 23.0318Z" stroke="#E6E6E6" stroke-width="0.6" stroke-miterlimit="10"/>
<path d="M13.8176 24.7512L6.33936 32.2295L13.8176 39.7078L21.2959 32.2295L13.8176 24.7512Z" stroke="#E6E6E6" stroke-width="0.6" stroke-miterlimit="10"/>
<path d="M13.8457 26.4707L8.08691 32.2295L13.8457 37.9883L19.6046 32.2295L13.8457 26.4707Z" stroke="#E6E6E6" stroke-width="0.6" stroke-miterlimit="10"/>
<path d="M13.8187 28.1901L9.7793 32.2295L13.8187 36.2689L17.858 32.2295L13.8187 28.1901Z" stroke="#E6E6E6" stroke-width="0.6" stroke-miterlimit="10"/>
<path d="M13.8462 29.855L11.499 32.2021L13.8462 34.5493L16.1934 32.2021L13.8462 29.855Z" stroke="#E6E6E6" stroke-width="0.6" stroke-miterlimit="10"/>
<path d="M13.8455 31.6018L13.2178 32.2295L13.8455 32.8572L14.4733 32.2295L13.8455 31.6018Z" stroke="#E6E6E6" stroke-width="0.6" stroke-miterlimit="10"/>
</g>
<mask id="mask3_2827_41310" style="mask-type:luminance" maskUnits="userSpaceOnUse" x="30" y="15" width="8" height="8">
<path d="M33.7349 22.213C35.5469 22.213 37.0158 20.7442 37.0158 18.9322C37.0158 17.1202 35.5469 15.6514 33.7349 15.6514C31.923 15.6514 30.4541 17.1202 30.4541 18.9322C30.4541 20.7442 31.923 22.213 33.7349 22.213Z" fill="white"/>
</mask>
<g mask="url(#mask3_2827_41310)">
<path d="M33.7524 14.6177L26.1377 22.2324L33.7524 29.8472L41.3672 22.2324L33.7524 14.6177Z" stroke="#F6B4DD" stroke-width="0.6" stroke-miterlimit="10"/>
<path d="M33.7529 15.6548L27.1753 22.2324L33.7529 28.81L40.3305 22.2324L33.7529 15.6548Z" stroke="#F6B4DD" stroke-width="0.6" stroke-miterlimit="10"/>
<path d="M33.752 16.7466L28.2388 22.2598L33.752 27.773L39.2651 22.2598L33.752 16.7466Z" stroke="#F6B4DD" stroke-width="0.6" stroke-miterlimit="10"/>
<path d="M33.7524 17.7837L29.2764 22.2598L33.7524 26.7358L38.2285 22.2598L33.7524 17.7837Z" stroke="#F6B4DD" stroke-width="0.6" stroke-miterlimit="10"/>
<path d="M33.7519 18.8208L30.313 22.2598L33.7519 25.6987L37.1908 22.2598L33.7519 18.8208Z" stroke="#F6B4DD" stroke-width="0.6" stroke-miterlimit="10"/>
<path d="M33.7524 19.8579L31.3779 22.2324L33.7524 24.6069L36.1269 22.2324L33.7524 19.8579Z" stroke="#F6B4DD" stroke-width="0.6" stroke-miterlimit="10"/>
<path d="M33.7529 20.8951L32.4155 22.2324L33.7529 23.5698L35.0902 22.2324L33.7529 20.8951Z" stroke="#F6B4DD" stroke-width="0.6" stroke-miterlimit="10"/>
<path d="M33.7524 21.9322L33.4521 22.2324L33.7524 22.5326L34.0526 22.2324L33.7524 21.9322Z" stroke="#F6B4DD" stroke-width="0.6" stroke-miterlimit="10"/>
</g>
</g>
<path d="M60.0587 27.8871C59.9815 27.8871 59.9429 27.8485 59.9429 27.7713V13.297C59.9429 13.2584 59.9043 13.2198 59.8657 13.2198H54.7707C54.7321 13.2198 54.6935 13.2584 54.6935 13.297V14.1076C54.6935 14.1848 54.6549 14.2234 54.5777 14.2234H52.4162C52.339 14.2234 52.3004 14.1848 52.3004 14.1076V5.80899C52.3004 5.80899 52.3004 5.80899 52.3004 5.77039L49.7144 0.752634C49.7144 0.752634 49.6758 0.714033 49.6372 0.714033C49.6372 0.714033 49.56 0.714036 49.56 0.752634L46.9739 5.92478C46.9739 5.92478 46.9739 5.92478 46.9739 5.96338V22.5606C46.9739 22.6378 46.9353 22.6764 46.8581 22.6764H44.5036C44.465 22.6764 44.4264 22.715 44.4264 22.7536V24.9537C44.4264 25.0309 44.3878 25.0695 44.3106 25.0695C44.2334 25.0695 44.1948 25.0309 44.1948 24.9537V22.7536C44.1948 22.5606 44.3492 22.4062 44.5422 22.4062H46.7809V5.96338C46.7809 5.92478 46.7809 5.84758 46.8195 5.80899L49.4056 0.636838C49.4828 0.521044 49.5986 0.443848 49.7144 0.443848C49.8302 0.443848 49.9845 0.521044 50.0231 0.636838L52.6092 5.6546C52.6092 5.69319 52.6478 5.77039 52.6478 5.80899V13.9532H54.5391V13.2584C54.5391 13.0654 54.6935 12.911 54.8865 12.911H59.9815C60.1745 12.911 60.3288 13.0654 60.3288 13.2584V27.7327C60.3288 27.8099 60.2902 27.8485 60.213 27.8485L60.0587 27.8871Z" fill="#E6E6E6"/>
<path d="M38.6749 34.0241C38.5977 34.0241 38.5591 33.9855 38.5591 33.9083V22.5605C38.5591 22.4833 38.6363 22.4447 38.6749 22.4447H38.7521V17.5427C38.7521 17.3497 38.9065 17.1953 39.0995 17.1953H41.8399C42.0329 17.1953 42.1873 17.3497 42.1873 17.5427V30.2029C42.1873 30.2801 42.1487 30.3187 42.0715 30.3187C41.9943 30.3187 41.9557 30.2801 41.9557 30.2029V17.5427C41.9557 17.5041 41.9171 17.4655 41.8785 17.4655H39.1381C39.0995 17.4655 39.0609 17.5041 39.0609 17.5427V22.5991C39.0609 22.6762 38.9837 22.7148 38.9451 22.7148H38.8679V33.9083C38.8679 33.9855 38.7907 34.0241 38.7521 34.0241H38.6749Z" fill="#E6E6E6"/>
<path d="M63.3782 29.9712H66.9678C67.7012 29.9712 68.2802 30.5502 68.2802 31.2835C68.2802 32.0169 68.7048 32.2099 69.2065 32.2099H72.5646C72.7962 32.2099 72.9891 32.2485 73.1435 32.3257V9.70718C73.1435 9.59138 73.0277 9.47559 72.912 9.47559H67.6626C67.5468 9.47559 67.431 9.59138 67.431 9.70718V17.2724H62.3747C62.2589 17.2724 62.1431 17.3882 62.1431 17.504V29.7782C62.529 29.8554 62.915 29.9326 63.301 29.9326L63.3782 29.9712Z" fill="#E6E6E6"/>
<path d="M73.1817 32.4801H73.1431C72.9887 32.4029 72.7957 32.3643 72.6027 32.3643H69.2447C68.6657 32.3643 68.2025 31.9011 68.2025 31.3222C68.2025 30.7432 67.6621 30.1256 67.006 30.1256H63.4163C63.0304 30.1256 62.6058 30.087 62.2198 29.9712C62.1812 29.9712 62.104 29.894 62.104 29.8554V17.5812C62.104 17.3882 62.2584 17.2338 62.4514 17.2338H67.3533V9.78439C67.3533 9.5914 67.5077 9.43701 67.7007 9.43701H72.9501C73.1431 9.43701 73.2975 9.5914 73.2975 9.78439V32.4029C73.2975 32.4415 73.2975 32.4801 73.2203 32.5187C73.2203 32.5187 73.1817 32.5187 73.1431 32.5187L73.1817 32.4801ZM62.3356 29.7396C62.683 29.8168 63.0304 29.8554 63.3777 29.8554H66.9674C67.7779 29.8554 68.3955 30.5116 68.3955 31.2836C68.3955 32.0555 68.7429 32.0941 69.2061 32.0941H72.5641C72.7185 32.0941 72.8729 32.0941 73.0273 32.1713V9.74579C73.0273 9.70719 72.9887 9.6686 72.9501 9.6686H67.7007C67.6621 9.6686 67.6235 9.70719 67.6235 9.74579V17.311C67.6235 17.3882 67.5849 17.4268 67.5077 17.4268H62.4514C62.4128 17.4268 62.3742 17.4654 62.3742 17.504V29.701L62.3356 29.7396Z" fill="#E6E6E6"/>
<path d="M85.9954 47.6495C85.9182 47.6495 85.8796 47.6109 85.8796 47.5337V13.4129C85.8796 13.3743 85.841 13.3358 85.8024 13.3358H80.8233C80.7847 13.3358 80.7461 13.3743 80.7461 13.4129C80.7461 13.4515 80.7075 13.5287 80.6303 13.5287C80.5531 13.5287 80.5145 13.4901 80.5145 13.4129V12.3322H75.5353C75.4968 12.3322 75.4581 12.3708 75.4581 12.4094V33.677C75.4581 33.7542 75.4196 33.7928 75.3424 33.7928C75.2652 33.7928 75.2266 33.7542 75.2266 33.677V12.4094C75.2266 12.2164 75.381 12.062 75.5739 12.062H80.6689C80.7461 12.062 80.7847 12.1006 80.7847 12.1778V13.027H80.8619H85.841C86.034 13.027 86.1884 13.1814 86.1884 13.3744V47.4951C86.1884 47.5723 86.1498 47.6109 86.0726 47.6109L85.9954 47.6495Z" fill="#E6E6E6"/>
<path d="M2.97121 48.6144L3.58879 49.3864L5.13271 49.3092C5.59589 49.3092 6.02047 49.5794 6.17486 50.0039L7.06262 52.8602C7.06262 52.976 7.06262 53.0918 7.06262 53.2462C6.98542 53.5164 6.71523 53.7094 6.44505 53.7094H4.05196C3.70458 53.7094 3.43439 53.9795 3.3958 54.3269L3.70458 54.2111L7.17841 54.2883L8.02757 53.362L6.32925 48.3828L2.93262 48.5758L2.97121 48.6144Z" fill="#E6E6E6"/>
<path d="M63.957 35.9928L65.9256 38.8876C66.0413 39.0806 66.2729 39.1578 66.5045 39.1192L70.9047 38.3087C71.4065 38.2315 71.5223 37.5753 71.1363 37.3051L69.1678 35.9156C69.0906 35.877 69.0134 35.8384 68.9362 35.8384L64.536 35.1822C64.0728 35.105 63.7255 35.6454 63.9956 36.07L63.957 35.9928Z" fill="#F41BA2"/>
<path d="M66.3893 39.235C66.1577 39.235 65.9647 39.1192 65.8489 38.9263L63.8804 36.0314C63.7261 35.7998 63.7261 35.5296 63.8804 35.298C64.0348 35.0664 64.305 34.9506 64.5366 34.9892L68.9368 35.6454C69.0526 35.6454 69.1298 35.684 69.2456 35.7612L71.2141 37.1507C71.4457 37.3051 71.5615 37.5753 71.4843 37.8455C71.4457 38.1157 71.2141 38.3087 70.9439 38.3859L66.5437 39.1964C66.5051 39.1964 66.4665 39.1964 66.4279 39.1964L66.3893 39.235ZM64.4208 35.2208C64.2278 35.2208 64.112 35.3366 64.0348 35.4138C63.9576 35.5296 63.919 35.7226 64.0348 35.9156L66.0033 38.8105C66.1191 38.9649 66.2735 39.0421 66.4665 39.0035L70.8667 38.1929C71.0983 38.1543 71.1755 37.9999 71.2141 37.8455C71.2141 37.6911 71.2141 37.4981 71.0211 37.3823L69.0526 35.9928C69.014 35.9542 68.9368 35.9156 68.8596 35.9156L64.4594 35.2594C64.4594 35.2594 64.4208 35.2594 64.3822 35.2594L64.4208 35.2208Z" fill="white"/>
<path d="M13.701 44.2141L12.3887 44.6387L26.9402 43.9053L46.8568 43.4807L61.6785 43.0562L67.8542 42.207L75.844 41.9368L68.356 41.4736L60.5591 42.5158L31.0316 43.0562L13.701 44.2141Z" fill="#E6E6E6"/>
<path d="M64.3812 44.137C65.575 44.137 66.5427 43.8605 66.5427 43.5194C66.5427 43.1784 65.575 42.9019 64.3812 42.9019C63.1875 42.9019 62.2197 43.1784 62.2197 43.5194C62.2197 43.8605 63.1875 44.137 64.3812 44.137Z" fill="#E6E6E6"/>
<path d="M43.6547 45.1018C44.8484 45.1018 45.8162 44.8253 45.8162 44.4843C45.8162 44.1432 44.8484 43.8667 43.6547 43.8667C42.4609 43.8667 41.4932 44.1432 41.4932 44.4843C41.4932 44.8253 42.4609 45.1018 43.6547 45.1018Z" fill="#E6E6E6"/>
<path d="M47.3214 36.9963V35.9927C47.3214 35.491 46.9355 35.105 46.4337 35.105C45.9319 35.105 45.5459 35.491 45.5459 35.9927V36.9963C45.5459 37.4209 45.8547 37.8069 46.2793 37.8455V38.1542H46.2021C45.8161 38.1542 45.5073 38.463 45.5073 38.849V40.9333H47.2828V38.849C47.2828 38.463 46.9741 38.1542 46.5881 38.1542H46.5495V37.8455C46.9741 37.7683 47.2828 37.4209 47.2828 36.9963H47.3214Z" fill="#E6E6E6"/>
<path d="M27.5596 56.6813L27.6754 54.0566C27.6754 54.0566 29.2579 51.1232 33.0405 50.7372C36.8231 50.3512 61.1785 50.5056 61.1785 50.5056C61.1785 50.5056 58.9784 53.9794 59.7504 56.6813C42.8444 56.8743 27.5596 56.6813 27.5596 56.6813Z" fill="#E6E6E6"/>
<path d="M8.37523 44.9088L5.63477 46.4141L10.3437 46.0281L12.0807 44.793L8.37523 44.9088Z" fill="#F41BA2"/>
<path d="M41.4547 37.4592C41.5613 37.4592 41.6477 37.3728 41.6477 37.2662C41.6477 37.1596 41.5613 37.0732 41.4547 37.0732C41.3481 37.0732 41.2617 37.1596 41.2617 37.2662C41.2617 37.3728 41.3481 37.4592 41.4547 37.4592Z" fill="black"/>
<path d="M35.3951 41.3965C35.3179 41.3965 35.2793 41.3579 35.2793 41.2807V39.4666C35.2793 39.3122 35.1635 39.1964 35.0091 39.1964C34.8547 39.1964 34.7389 39.3122 34.7389 39.4666V41.2807C34.7389 41.3579 34.7003 41.3965 34.6231 41.3965C34.5459 41.3965 34.5073 41.3579 34.5073 41.2807V39.4666C34.5073 39.1964 34.7389 38.9648 35.0091 38.9648C35.2793 38.9648 35.5109 39.1964 35.5109 39.4666V41.2807C35.5109 41.3579 35.4723 41.3965 35.3951 41.3965Z" fill="#F61BA3"/>
<path d="M43.9249 38.5398C43.8477 38.5398 43.8091 38.5012 43.8091 38.424C43.8091 38.3468 43.8477 38.3082 43.9249 38.3082C44.2337 38.3082 44.4653 38.0766 44.4653 37.7679C44.4653 37.4591 44.2337 37.2275 43.9249 37.2275H43.5004C43.4618 37.2275 43.4232 37.2275 43.3846 37.1503V37.0345H42.8442C41.995 37.0345 41.3389 36.3397 41.3389 35.5292C41.3389 34.7186 41.3775 35.4134 41.4547 35.4134C41.5319 35.4134 41.5705 35.452 41.5705 35.5292C41.5705 36.2239 42.1494 36.8029 42.8442 36.8029H43.4232C43.4618 36.8029 43.5004 36.8029 43.539 36.8801V36.9959H43.9635C44.3881 36.9959 44.7355 37.3433 44.7355 37.7679C44.7355 38.1924 44.3881 38.5398 43.9635 38.5398H43.9249Z" fill="#081017"/>
<path d="M42.2654 39.8138C41.1461 39.8138 40.2583 38.8875 40.2583 37.8067C40.2583 36.726 40.5285 36.6102 41.0303 36.2242C41.0689 36.1856 41.1461 36.2242 41.1847 36.2242C41.2233 36.2628 41.1847 36.34 41.1847 36.3786C40.7601 36.726 40.5285 37.2277 40.5285 37.7681C40.5285 38.8875 41.5706 39.7752 42.7286 39.505C42.8058 39.505 42.8444 39.505 42.883 39.5822C42.9216 39.6594 42.883 39.698 42.8058 39.7366C42.6514 39.7752 42.497 39.8138 42.3426 39.8138H42.2654Z" fill="#081017"/>
<path d="M41.4169 39.1188C41.3783 39.1188 41.3397 39.1188 41.3011 39.0416C41.3011 38.9644 41.3011 38.9258 41.3783 38.8872C41.6871 38.81 41.7643 38.5013 41.7643 38.3083L40.9537 38.5399C40.8765 38.5399 40.8379 38.5399 40.7993 38.4627C40.7993 38.3855 40.7993 38.3469 40.8765 38.3083L41.8029 38.0381H41.8801C41.8801 38.0381 41.9187 38.0767 41.9187 38.1153C41.9187 38.3855 41.8415 38.9258 41.3783 39.0802L41.4169 39.1188Z" fill="#081017"/>
<path d="M43.9253 39.7751C43.8867 39.7751 43.8481 39.7751 43.8095 39.7365C43.8095 39.6979 43.8095 39.6207 43.8481 39.5821C44.6586 39.1189 45.4692 38.5013 45.4692 36.6486C45.4692 34.7959 45.3148 35.7995 45.0832 35.5679C44.5042 34.9889 43.3463 34.9889 42.6901 34.9889H42.4585C41.6094 34.9889 41.1076 35.2977 41.1076 35.8767C41.1076 36.4556 41.262 36.4942 41.262 36.5328C41.3006 36.5328 41.3392 36.61 41.3006 36.6872C41.3006 36.7258 41.1848 36.7644 41.1462 36.7258C41.1076 36.7258 40.8374 36.5328 40.8374 35.8767C40.8374 35.2205 41.4164 34.7573 42.4199 34.7573H42.6515C43.3849 34.7573 44.5814 34.7573 45.2376 35.3749C45.5464 35.6837 45.7008 36.1083 45.7008 36.6486C45.7008 38.6171 44.8516 39.2733 43.9639 39.7751H43.9253Z" fill="#F61BA3"/>
<path d="M35.3956 41.3964C35.3184 41.3964 35.2798 41.3578 35.2798 41.2806C35.2798 41.2034 35.3184 41.1648 35.3956 41.1648L40.7607 40.663L41.9187 40.47L42.652 40.1226C42.845 40.084 44.3117 39.7367 44.8135 40.0068C45.3153 40.2384 45.6241 40.4314 45.6241 40.47C45.6627 40.47 45.7013 40.5858 45.6241 40.6244C45.5469 40.663 45.5083 40.7016 45.4697 40.6244C45.4697 40.6244 45.1609 40.4314 44.6591 40.1998C44.2732 40.0068 43.1152 40.1998 42.6906 40.3156L41.9573 40.663L40.7993 40.856L35.4342 41.3578L35.3956 41.3964Z" fill="#081017"/>
<path d="M83.1786 42.8634L81.9434 41.9756H76.0765C75.7291 41.9756 75.5747 42.4388 75.8835 42.6318L78.0836 44.0599C78.7012 44.4459 79.3959 44.6389 80.0907 44.6389H84.8383" fill="#F41BA2"/>
<path d="M84.7995 44.7547H80.0519C79.3185 44.7547 78.5852 44.5618 77.9676 44.1372L75.7675 42.709C75.5745 42.5932 75.4973 42.3617 75.5745 42.1687C75.6517 41.9757 75.8061 41.8213 76.0377 41.8213H81.9046C81.9046 41.8213 81.9432 41.8213 81.9818 41.8213L83.2169 42.709C83.2555 42.7476 83.2941 42.8248 83.2169 42.8634C83.1783 42.902 83.1011 42.9406 83.0625 42.8634L81.866 41.9757H76.0377C75.8833 41.9757 75.8061 42.0529 75.8061 42.1687C75.8061 42.2459 75.8061 42.3617 75.9219 42.4389L78.122 43.867C78.701 44.253 79.3571 44.446 80.0519 44.446H84.7995C84.8767 44.446 84.9153 44.4846 84.9153 44.5618C84.9153 44.639 84.8767 44.6775 84.7995 44.6775V44.7547Z" fill="white"/>
<path d="M83.7962 54.4814H77.2346C76.6556 49.4637 73.9537 47.032 69.1676 47.032C59.8268 47.032 59.9812 55.6394 59.9812 55.6394H58.7847L55.1178 54.8674H30.7624L28.7553 55.5236H27.5588C27.5588 55.5236 27.5588 54.2112 26.7482 51.4708C25.9376 48.7303 22.7726 46.3372 16.6355 46.8776C10.4984 47.418 10.151 54.8288 10.151 54.8288H2.85596L5.51923 57.1061H7.83512L11.5019 58.6886V54.3656C11.5019 50.8146 14.3582 47.9583 17.9092 47.9583H19.2216C23.0814 47.9583 26.2078 51.0848 26.2078 54.9446V57.4149H61.1391V54.9446C61.1391 51.0848 64.2656 47.9583 68.1254 47.9583H69.4377C72.9888 47.9583 75.845 50.8146 75.845 54.3656V56.8359L82.5611 55.8324C83.2945 55.7166 83.9892 55.292 84.3752 54.6358L84.7226 54.0568C84.491 54.327 84.1436 54.52 83.7576 54.52L83.7962 54.4814Z" fill="#F41BA2"/>
<path d="M11.5015 58.804C11.5015 58.804 11.5015 58.804 11.4629 58.804L7.83472 57.2215H5.55743C5.55743 57.2215 5.51883 57.2215 5.48023 57.2215L2.81696 54.9442C2.81696 54.9442 2.77836 54.867 2.81696 54.8284C2.81696 54.7898 2.89416 54.7512 2.93275 54.7512H10.112C10.112 54.3267 10.305 52.7055 11.0384 51.0458C12.1577 48.4983 14.1262 47.0316 16.6737 46.8C24.6249 46.1053 26.5162 50.1967 26.9022 51.4704C27.597 53.7863 27.7128 55.06 27.7128 55.446H28.7935L30.8006 54.8284H55.156L58.8228 55.6004H59.865C59.865 54.9442 60.058 51.7406 62.3353 49.4633C63.9564 47.8036 66.2337 46.993 69.1671 46.993C73.9919 46.993 76.7324 49.5019 77.35 54.4425H83.8344C84.1818 54.4425 84.4906 54.2881 84.6836 54.0179C84.6836 54.0179 84.7608 53.9793 84.7994 53.9793C84.838 53.9793 84.8766 53.9793 84.8766 54.0565C84.8766 54.0565 84.8766 54.1337 84.8766 54.1723L84.5292 54.7512C84.1046 55.446 83.4099 55.9092 82.6379 56.025L75.9218 57.0285H75.8446C75.8446 57.0285 75.806 56.9899 75.806 56.9513V54.481C75.806 51.0072 72.9884 48.1896 69.5145 48.1896H68.2022C64.4196 48.1896 61.3317 51.2774 61.3317 55.06V57.5303C61.3317 57.6075 61.2931 57.6461 61.2159 57.6461H26.2846C26.2074 57.6461 26.1688 57.6075 26.1688 57.5303V55.06C26.1688 51.2774 23.081 48.1896 19.2984 48.1896H17.986C14.5122 48.1896 11.6945 51.0072 11.6945 54.481V58.804C11.6945 58.8426 11.6945 58.8812 11.6559 58.8812C11.6559 58.8812 11.6173 58.8812 11.5787 58.8812L11.5015 58.804ZM5.59603 56.9899H7.87331C7.87331 56.9899 7.87331 56.9899 7.91191 56.9899L11.4243 58.5339V54.3653C11.4243 50.7756 14.3578 47.8422 17.9474 47.8422H19.2598C23.1582 47.8422 26.3618 51.0072 26.3618 54.9442V57.2987H61.0615V54.9442C61.0615 51.0458 64.2266 47.8422 68.1636 47.8422H69.4759C73.0656 47.8422 75.999 50.7756 75.999 54.3653V56.6811L82.5993 55.6776C83.3327 55.5618 83.9502 55.1372 84.3362 54.5197V54.4425C84.2204 54.5197 84.0274 54.5583 83.8344 54.5583H77.2728C77.2342 54.5583 77.157 54.5197 77.157 54.4425C76.578 49.5019 73.9919 47.0702 69.2057 47.0702C64.4196 47.0702 64.1108 47.8808 62.5669 49.4633C60.1352 51.9336 60.1738 55.5232 60.1738 55.5618V55.639C60.1738 55.639 60.1352 55.639 60.0966 55.639H58.9L55.2332 54.867H30.955L28.9479 55.4846H27.7514H27.6742C27.6742 55.4846 27.6742 55.446 27.6742 55.4074C27.6742 55.4074 27.6742 54.0565 26.8636 51.3932C26.4776 50.1581 24.6249 46.2211 16.8667 46.8772C14.3578 47.1088 12.5437 48.4598 11.4243 50.9686C10.5752 52.8599 10.498 54.674 10.498 54.7126C10.498 54.7898 10.4594 54.8284 10.3822 54.8284H3.39593L5.78902 56.8741L5.59603 56.9899Z" fill="white"/>
<path d="M11.1148 58.804C11.1148 58.804 11.1148 58.804 11.0762 58.804L7.448 57.2215H5.17071C5.17071 57.2215 5.13211 57.2215 5.09351 57.2215L2.43024 54.9442C2.43024 54.9442 2.39164 54.867 2.43024 54.8284C2.43024 54.7898 2.50744 54.7512 2.54603 54.7512H9.72529C9.72529 54.3267 9.91828 52.7055 10.6516 51.0458C11.771 48.4983 13.7395 47.0316 16.287 46.8C24.2382 46.1053 26.1295 50.1967 26.5155 51.4704C27.2102 53.7863 27.326 55.06 27.326 55.446H28.4068L30.4139 54.8284H54.7693L58.4361 55.6004H59.4783C59.4783 54.9442 59.6713 51.7406 61.9486 49.4633C63.5697 47.8036 65.847 46.993 68.7804 46.993C73.6052 46.993 76.3457 49.5019 76.9632 54.4425H83.4477C83.7951 54.4425 84.1039 54.2881 84.2969 54.0179C84.2969 54.0179 84.3741 53.9793 84.4127 53.9793C84.4513 53.9793 84.4899 53.9793 84.4899 54.0565C84.4899 54.0565 84.4899 54.1337 84.4899 54.1723L84.1425 54.7512C83.7179 55.446 83.0231 55.9092 82.2512 56.025L75.5351 57.0285H75.4579C75.4579 57.0285 75.4193 56.9899 75.4193 56.9513V54.481C75.4193 51.0072 72.6016 48.1896 69.1278 48.1896H67.8155C64.0329 48.1896 60.945 51.2774 60.945 55.06V57.5303C60.945 57.6075 60.9064 57.6461 60.8292 57.6461H25.8979C25.8207 57.6461 25.7821 57.6075 25.7821 57.5303V55.06C25.7821 51.2774 22.6943 48.1896 18.9116 48.1896H17.5993C14.1255 48.1896 11.3078 51.0072 11.3078 54.481V58.804C11.3078 58.8426 11.3078 58.8812 11.2692 58.8812C11.2692 58.8812 11.2306 58.8812 11.192 58.8812L11.1148 58.804ZM5.17071 56.9899H7.448C7.448 56.9899 7.448 56.9899 7.4866 56.9899L10.999 58.5339V54.3653C10.999 50.7756 13.9325 47.8422 17.5221 47.8422H18.8344C22.7329 47.8422 25.9365 51.0072 25.9365 54.9442V57.2987H60.6362V54.9442C60.6362 51.0458 63.8013 47.8422 67.7383 47.8422H69.0506C72.6402 47.8422 75.5737 50.7756 75.5737 54.3653V56.6811L82.174 55.6776C82.9073 55.5618 83.5249 55.1372 83.9109 54.5197V54.4425C83.7951 54.5197 83.6021 54.5583 83.4091 54.5583H76.8474C76.8088 54.5583 76.7316 54.5197 76.7316 54.4425C76.1527 49.5019 73.5666 47.0702 68.7804 47.0702C63.9943 47.0702 63.6855 47.8808 62.1415 49.4633C59.7099 51.9336 59.7485 55.5232 59.7485 55.5618C59.7485 55.6004 59.7485 55.639 59.7485 55.639C59.7485 55.639 59.7099 55.639 59.6713 55.639H58.4747L54.8079 54.867H30.5297L28.5226 55.4846H27.326H27.2488C27.2488 55.4846 27.2488 55.446 27.2488 55.4074C27.2488 55.4074 27.2488 54.0565 26.4383 51.3932C26.0523 50.1581 24.1996 46.2211 16.4414 46.8772C13.9325 47.1088 12.1184 48.4598 10.999 50.9686C10.1499 52.8599 10.0727 54.674 10.0727 54.7126C10.0727 54.7898 10.0341 54.8284 9.95688 54.8284H2.97061L5.3637 56.8741L5.17071 56.9899Z" fill="#081017"/>
<path d="M60.753 48.9234C60.367 48.9234 59.6723 48.4602 59.0933 47.5724C58.5529 46.8005 57.2406 46.7233 57.2406 46.7233H48.1314C48.0542 46.7233 48.0156 46.6847 48.0156 46.6075C48.0156 46.5303 48.0542 46.4917 48.1314 46.4917H57.2406C57.3178 46.4917 58.7073 46.5689 59.2863 47.4567C59.8267 48.3058 60.4828 48.6918 60.753 48.6918C61.0232 48.6918 60.8688 48.7304 60.8688 48.8076C60.8688 48.8848 60.8302 48.9234 60.753 48.9234Z" fill="#081017"/>
<path d="M42.4192 45.0639L41.2999 44.7937C41.2999 44.7937 41.2227 44.7937 41.2227 44.7165C41.2227 44.7165 41.2227 44.6393 41.2227 44.6007L41.4542 44.1761C41.4542 44.1761 41.4542 44.1761 41.4928 44.1375C42.921 43.3655 44.9667 43.8287 45.0825 43.8287C45.1597 43.8287 45.1983 43.9059 45.1597 43.9831C45.1597 44.0603 45.0825 44.0989 45.0053 44.0603C45.0053 44.0603 42.9982 43.5971 41.6086 44.3305L41.4542 44.5621L42.4192 44.7937C42.4964 44.7937 42.535 44.8709 42.4964 44.9481C42.4964 44.9867 42.4192 45.0253 42.3806 45.0253L42.4192 45.0639Z" fill="#081017"/>
<path d="M44.4262 44.9865C44.3876 44.9865 44.349 44.9865 44.3104 44.9093C44.3104 44.9093 44.2332 44.7549 44.0016 44.7549C43.6542 44.7549 42.8436 44.7549 42.7278 44.7935C42.6892 44.7935 42.612 44.7935 42.5734 44.7163C42.5734 44.6777 42.5734 44.6005 42.6506 44.5619C42.805 44.4847 43.8086 44.4847 44.0016 44.5233C44.2718 44.5233 44.4262 44.6777 44.4648 44.7549C44.6191 44.7549 45.0437 44.7163 45.3139 44.6391C45.5069 44.6005 45.5841 44.4075 45.6227 44.2917C45.3911 44.2917 44.8121 44.2145 44.349 44.2145C43.6928 44.2145 41.6085 44.3689 41.5699 44.3689C41.4927 44.3689 41.4541 44.3303 41.4541 44.2531C41.4541 44.1759 41.4927 44.1373 41.5699 44.1373C41.6471 44.1373 43.7314 43.9829 44.349 43.9829C45.0051 43.9829 45.7771 44.0987 45.7771 44.0987C45.8543 44.0987 45.8929 44.1759 45.8929 44.2145C45.8929 44.2145 45.8543 44.7549 45.4297 44.8707C45.0437 44.9865 44.5034 44.9865 44.4648 44.9865H44.4262Z" fill="#081017"/>
<path d="M63.1077 44.1371L61.9883 43.8669C61.9883 43.8669 61.9111 43.8669 61.9111 43.7897C61.9111 43.7897 61.9111 43.7125 61.9111 43.6739L62.1427 43.2494C62.1427 43.2494 62.1427 43.2494 62.1813 43.2108C63.6094 42.4388 65.6552 42.902 65.7709 42.902C65.8481 42.902 65.8867 42.9792 65.8481 43.0564C65.8481 43.1336 65.7709 43.1722 65.6938 43.1336C65.6938 43.1336 63.6866 42.6704 62.2971 43.4037L62.1427 43.6353L63.1077 43.8669C63.1849 43.8669 63.2235 43.9441 63.1849 44.0213C63.1849 44.0599 63.1077 44.0985 63.0691 44.0985L63.1077 44.1371Z" fill="#081017"/>
<path d="M65.1146 44.0988C65.076 44.0988 65.0374 44.0988 64.9988 44.0216C64.9988 44.0216 64.9216 43.8672 64.6901 43.8672C64.3427 43.8672 63.5321 43.8672 63.4163 43.9058C63.3777 43.9058 63.3005 43.9058 63.2619 43.8286C63.2619 43.79 63.2619 43.7128 63.3391 43.6742C63.4935 43.597 64.4971 43.597 64.6901 43.6356C64.9602 43.6356 65.1146 43.79 65.1532 43.8672C65.3076 43.8672 65.7322 43.8286 66.0024 43.7514C66.1954 43.7128 66.2726 43.5198 66.3112 43.404C66.0796 43.404 65.5006 43.3268 65.0374 43.3268C64.4199 43.3268 62.297 43.4812 62.2584 43.4812C62.1812 43.4812 62.1426 43.4426 62.1426 43.3654C62.1426 43.2882 62.1812 43.2496 62.2584 43.2496C62.3356 43.2496 64.3427 43.0952 64.9988 43.0952H65.0374C65.6936 43.0952 66.4656 43.211 66.4656 43.211C66.5428 43.211 66.5814 43.2882 66.5814 43.3268C66.5814 43.3268 66.5428 43.8672 66.1182 43.983C65.7322 44.0988 65.1918 44.0988 65.1532 44.0988H65.1146Z" fill="#081017"/>
<path d="M46.4722 57.5305C46.395 57.5305 46.3564 57.4919 46.3564 57.4147V46.4142L47.1284 40.6245L47.7074 37.5753C47.7074 37.4981 47.7846 37.4595 47.8618 37.4981C47.939 37.4981 47.9776 37.5753 47.939 37.6525L47.36 40.6631L46.588 46.4528V57.4147C46.588 57.4919 46.5494 57.5305 46.4722 57.5305Z" fill="#081017"/>
<path d="M18.4501 56.682C18.8125 56.682 19.1063 56.3882 19.1063 56.0258C19.1063 55.6634 18.8125 55.3696 18.4501 55.3696C18.0877 55.3696 17.7939 55.6634 17.7939 56.0258C17.7939 56.3882 18.0877 56.682 18.4501 56.682Z" fill="black"/>
<path d="M18.4502 56.7978C18.0256 56.7978 17.6782 56.4504 17.6782 56.0259C17.6782 55.6013 18.0256 55.2539 18.4502 55.2539C18.8748 55.2539 19.2221 55.6013 19.2221 56.0259C19.2221 56.4504 18.8748 56.7978 18.4502 56.7978ZM18.4502 55.5241C18.1414 55.5241 17.9098 55.7557 17.9098 56.0645C17.9098 56.3733 18.1414 56.6048 18.4502 56.6048C18.759 56.6048 18.9906 56.3733 18.9906 56.0645C18.9906 55.7557 18.759 55.5241 18.4502 55.5241Z" fill="#081017"/>
<path d="M17.6779 51.4328C17.7936 51.2398 17.9866 51.124 18.2182 51.124C18.527 51.124 19.0288 51.124 19.3376 51.2012C19.492 51.2012 19.6078 51.3942 19.5692 51.5486C19.2218 52.7837 18.6814 54.5979 18.6814 54.5979L18.9902 54.4049C18.9902 54.4049 19.0288 54.3663 19.0674 54.3277L19.9937 52.3206C20.0709 52.1276 20.2253 52.0118 20.4183 51.9346C20.6885 51.8188 20.9973 51.8574 21.2289 52.0504L21.6921 52.4364C21.7693 52.5136 21.7693 52.6679 21.6921 52.7451L18.527 55.1768C18.2182 55.4084 17.7551 55.2154 17.7165 54.8294L17.4849 52.3206C17.4849 52.0118 17.4849 51.7416 17.6779 51.4714V51.4328Z" fill="#E6E6E6"/>
<path d="M22.6571 53.903C22.8887 53.9416 23.0431 54.096 23.1203 54.3276C23.1975 54.6364 23.3519 55.0995 23.3905 55.4469C23.3905 55.6013 23.2747 55.7557 23.1203 55.7557C21.808 55.7557 19.9553 55.7943 19.9553 55.7943L20.2255 56.0259C20.2255 56.0259 20.264 56.0259 20.3026 56.0645L22.5027 56.3733C22.6957 56.3733 22.8887 56.4891 23.0045 56.6435C23.1975 56.875 23.2361 57.1838 23.1203 57.454L22.8887 57.9944C22.8501 58.1102 22.6957 58.1488 22.5799 58.0716L19.3377 55.7557C19.0289 55.5241 19.0675 55.0609 19.4535 54.9065L21.808 53.9416C22.0782 53.8258 22.3869 53.8258 22.6571 53.8644V53.903Z" fill="#E6E6E6"/>
<path d="M21.7303 59.3451C21.7303 59.5767 21.6531 59.7697 21.4601 59.8855C21.1899 60.0785 20.7653 60.3101 20.4566 60.4645C20.3022 60.5416 20.1478 60.4645 20.0706 60.3101C19.6846 59.0749 19.1056 57.2994 19.1056 57.2994L18.9512 57.6082V57.6854L19.2986 59.8855C19.2986 60.0785 19.2986 60.2715 19.1828 60.4259C19.0284 60.6575 18.7582 60.8118 18.4495 60.7732H17.8705C17.7547 60.7346 17.6775 60.5802 17.7161 60.4645L18.9512 56.6818C19.067 56.2959 19.5688 56.2187 19.8004 56.5274L21.3829 58.496C21.5759 58.7275 21.6917 58.9977 21.6917 59.3065L21.7303 59.3451Z" fill="#E6E6E6"/>
<path d="M16.2496 60.0783C16.0566 60.1555 15.825 60.1169 15.6321 59.9625C15.3619 59.7695 15.0145 59.4222 14.7829 59.1906C14.6671 59.0748 14.7057 58.8818 14.8215 58.8046C15.9022 58.0712 17.4076 56.9905 17.4076 56.9905H17.0602C17.0602 56.9133 16.983 56.9519 16.983 56.9519L14.9759 57.9554C14.7829 58.0326 14.5899 58.0712 14.3969 57.994C14.1267 57.9168 13.8951 57.6852 13.8179 57.4151L13.7021 56.8361C13.7021 56.7203 13.7793 56.6045 13.8951 56.6045L17.8707 56.6817C18.2567 56.6817 18.4883 57.1063 18.2567 57.4537L16.8672 59.538C16.7128 59.7695 16.4812 59.9625 16.211 60.0783H16.2496Z" fill="#E6E6E6"/>
<path d="M13.9333 55.061C13.8175 54.868 13.7789 54.675 13.8561 54.4434C13.9719 54.1346 14.1649 53.7101 14.3579 53.4013C14.4351 53.2469 14.628 53.2083 14.7438 53.3241C15.7474 54.1346 17.2141 55.2926 17.2141 55.2926V54.9452C17.1755 54.9452 17.1369 54.868 17.1369 54.868L15.593 53.2469C15.4772 53.0925 15.4 52.8995 15.3614 52.7065C15.3614 52.3977 15.5158 52.1275 15.7474 52.0117L16.2492 51.7029C16.365 51.6258 16.4808 51.7029 16.5194 51.8187L17.6001 55.64C17.7159 56.0259 17.3685 56.3733 16.9825 56.2575L14.5894 55.5242C14.3193 55.447 14.0491 55.254 13.8947 55.0224L13.9333 55.061Z" fill="#E6E6E6"/>
<path d="M18.45 49.271C14.706 49.271 11.6953 52.2817 11.6953 56.0257C11.6953 59.7697 14.706 62.7803 18.45 62.7803C22.194 62.7803 25.2047 59.7697 25.2047 56.0257C25.2047 52.2817 22.194 49.271 18.45 49.271ZM18.45 61.1206C15.6323 61.1206 13.355 58.8433 13.355 56.0257C13.355 53.208 15.6323 50.9307 18.45 50.9307C21.2676 50.9307 23.5449 53.208 23.5449 56.0257C23.5449 58.8433 21.2676 61.1206 18.45 61.1206Z" fill="#F41BA2"/>
<path d="M18.4501 62.8962C14.6674 62.8962 11.5796 59.8084 11.5796 56.0257C11.5796 52.2431 14.6674 49.1553 18.4501 49.1553C22.2327 49.1553 25.3205 52.2431 25.3205 56.0257C25.3205 59.8084 22.2327 62.8962 18.4501 62.8962ZM18.4501 49.3869C14.7832 49.3869 11.8112 52.3589 11.8112 56.0257C11.8112 59.6926 14.7832 62.6646 18.4501 62.6646C22.1169 62.6646 25.0889 59.6926 25.0889 56.0257C25.0889 52.3589 22.1169 49.3869 18.4501 49.3869ZM18.4501 61.2365C15.5938 61.2365 13.2393 58.9206 13.2393 56.0257C13.2393 53.1309 15.5552 50.815 18.4501 50.815C21.3449 50.815 23.6608 53.1309 23.6608 56.0257C23.6608 58.9206 21.3449 61.2365 18.4501 61.2365ZM18.4501 51.0852C15.7096 51.0852 13.4709 53.3239 13.4709 56.0643C13.4709 58.8048 15.7096 61.0435 18.4501 61.0435C21.1905 61.0435 23.4292 58.8048 23.4292 56.0643C23.4292 53.3239 21.1905 51.0852 18.4501 51.0852Z" fill="#081017"/>
<path d="M25.8216 57.4147V54.9444C25.8216 52.8601 24.8953 50.9688 23.4671 49.6951C22.7338 49.4249 21.9232 49.2705 21.0741 49.2705C20.2249 49.2705 20.1863 49.3091 19.7617 49.3863C22.8882 50.0039 25.2041 52.7443 25.2041 56.0252C25.2041 59.306 22.8496 62.0465 19.7617 62.6641C20.1863 62.7413 20.6109 62.7799 21.0741 62.7799C24.3163 62.7799 27.0568 60.464 27.6743 57.4147H25.8216Z" fill="black"/>
<path d="M21.0746 62.8956C20.65 62.8956 20.1868 62.857 19.7623 62.7798C19.7237 62.7798 19.6851 62.7413 19.6851 62.6641C19.6851 62.5869 19.6851 62.5483 19.7623 62.5483C22.8887 61.9307 25.1274 59.1902 25.1274 56.0252C25.1274 52.8601 22.8887 50.1197 19.7623 49.5021C19.7237 49.5021 19.6851 49.4635 19.6851 49.3863C19.6851 49.3091 19.6851 49.2705 19.7623 49.2705C21.036 49.0389 22.3097 49.1161 23.5063 49.5793C25.0502 50.9302 25.8994 52.8601 25.8994 54.9058V57.2603H27.6363C27.6363 57.2603 27.7135 57.2603 27.7135 57.2989V57.3761C27.0573 60.5412 24.2396 62.8184 20.9974 62.8184L21.0746 62.8956ZM20.3798 62.6255C20.6114 62.6255 20.843 62.6255 21.0746 62.6255C24.1624 62.6255 26.8643 60.464 27.5591 57.4919H25.8608C25.7836 57.4919 25.745 57.4533 25.745 57.3761V54.9058C25.745 52.9373 24.8958 51.0846 23.4291 49.7723C22.4641 49.4249 21.422 49.2705 20.4184 49.3863C23.3133 50.2355 25.3976 52.8987 25.3976 55.9866C25.3976 59.0744 23.3519 61.7377 20.4184 62.5869L20.3798 62.6255Z" fill="#081017"/>
<path d="M61.2934 56.0252C61.2934 52.5899 63.8795 49.7337 67.199 49.3091C66.9288 49.3091 66.6586 49.2705 66.3498 49.2705C64.7673 49.2705 63.3391 49.8109 62.1812 50.6986C61.2934 51.8566 60.7531 53.3619 60.7531 54.9444V57.4147H59.7495C60.4057 60.464 63.1076 62.7799 66.3498 62.7799C69.592 62.7799 66.9288 62.7799 67.199 62.7413C63.8795 62.3167 61.2934 59.499 61.2934 56.0252Z" fill="black"/>
<path d="M66.3499 62.8957C63.1076 62.8957 60.29 60.5798 59.6338 57.4534V57.3762C59.6338 57.3762 59.6724 57.3376 59.711 57.3376H60.5987V54.9831C60.5987 53.4006 61.1005 51.8952 62.0655 50.6601C63.3006 49.6951 64.7287 49.1934 66.2727 49.1934C67.8166 49.1934 66.813 49.1934 67.1218 49.232C67.1604 49.232 67.2376 49.2706 67.2376 49.3477C67.2376 49.4249 67.199 49.4635 67.1218 49.4635C63.8024 49.8881 61.2935 52.7058 61.2935 56.0638C61.2935 59.4219 63.8024 62.2395 67.1218 62.6641C67.1604 62.6641 67.2376 62.7027 67.2376 62.7799C67.2376 62.8571 67.199 62.8957 67.1218 62.8957C66.813 62.8957 66.5429 62.9343 66.2727 62.9343L66.3499 62.8957ZM59.904 57.5306C60.5987 60.464 63.2234 62.6255 66.2727 62.6641C63.3006 61.8921 61.1777 59.1903 61.1777 56.0252C61.1777 52.8602 63.3006 50.1583 66.2727 49.3864C64.8059 49.3864 63.455 49.8881 62.2971 50.7759C61.3707 51.9724 60.9075 53.4392 60.9075 54.9445V57.4148C60.9075 57.492 60.8689 57.5306 60.7917 57.5306H59.904Z" fill="#081017"/>
<path d="M28.176 53.4394C28.176 53.4394 28.1374 53.4394 28.0988 53.4394C28.0602 53.4008 28.0216 53.3236 28.0988 53.285C28.176 53.1692 30.2989 50.6603 33.0393 50.6603C35.7798 50.6603 54.5385 50.4287 54.7315 50.4287C54.8087 50.4287 54.8473 50.4673 54.8473 50.5445C54.8473 50.6217 54.8087 50.6603 54.7315 50.6603C54.5385 50.6603 35.7412 50.8919 33.0393 50.8919C30.3375 50.8919 28.2918 53.4008 28.2532 53.4394L28.176 53.478V53.4394Z" fill="#081017"/>
<path d="M27.5586 54.9447C27.4814 54.9447 27.4428 54.9061 27.4428 54.8289L26.8252 43.867C26.8252 43.4811 26.8252 43.0951 26.941 42.7477L27.1726 41.8213C27.1726 41.7442 27.2498 41.7055 27.327 41.7441C27.4042 41.7441 27.4428 41.8214 27.4042 41.8985L27.1726 42.8249C27.0954 43.1723 27.0568 43.5197 27.0568 43.9056L27.6744 54.8675C27.6744 54.9447 27.6358 54.9833 27.5586 54.9833V54.9447Z" fill="#081017"/>
<path d="M32.7691 41.6671C32.6919 41.6671 32.6533 41.6285 32.6533 41.5513C32.6533 41.4741 32.6919 41.4355 32.7691 41.4355L46.9732 40.7407C47.0504 40.7407 47.089 40.7793 47.089 40.8565C47.089 40.9337 47.0504 40.9723 46.9732 40.9723L32.7691 41.6671Z" fill="#081017"/>
<path d="M48.4796 40.9723C48.4024 40.9723 48.3638 40.9337 48.3638 40.8565C48.3638 40.7793 48.4024 40.7407 48.4796 40.7407L62.4521 39.9302L71.6384 38.1547L68.5892 35.8774C68.4734 35.8774 67.933 35.6458 67.0453 35.4528C66.9681 35.4528 66.9295 35.3756 66.9681 35.2984C67.0067 35.2212 67.0453 35.1826 67.1225 35.2212C68.126 35.4528 68.705 35.6844 68.705 35.6844L71.9472 38.1547C71.9472 38.1547 71.9858 38.2318 71.9858 38.2704C71.9858 38.309 71.9472 38.3476 71.9086 38.3476L62.4521 40.2004L48.441 41.0109L48.4796 40.9723Z" fill="#081017"/>
<path d="M63.9568 34.8732C63.6094 34.8346 63.5322 34.8346 63.3392 34.796C63.262 34.796 63.1462 34.796 62.9532 34.796C62.876 34.796 62.8374 34.7574 62.8374 34.6802C62.8374 34.6031 62.876 34.5645 62.9532 34.5645C63.1076 34.5645 63.2234 34.5645 63.3392 34.5645C63.5322 34.5645 63.5708 34.5645 63.9568 34.6416C64.0339 34.6416 64.0725 34.7188 64.0725 34.7574C64.0725 34.796 64.0339 34.8732 63.9568 34.8732Z" fill="#081017"/>
<path d="M31.9967 38.6563C31.9967 38.6563 31.9195 38.6563 31.8809 38.6177C31.8809 38.5791 31.8809 38.5019 31.8809 38.4633C31.8809 38.4633 35.3161 36.379 38.8671 35.1053C40.1023 34.6421 41.4918 34.3333 42.8813 34.1403L46.2008 33.8315C46.278 33.8315 46.3166 33.8701 46.3166 33.9473C46.3166 34.0245 46.278 34.0631 46.2008 34.0631L42.8813 34.3719C41.4918 34.5649 40.1409 34.8737 38.9057 35.3369C35.3547 36.6106 31.9967 38.6563 31.9581 38.6949C31.9581 38.6949 31.9581 38.6949 31.8809 38.6949L31.9967 38.6563Z" fill="#081017"/>
<path d="M65.3077 39.0804C65.2691 39.0804 65.2305 39.0804 65.1919 39.0032L62.876 34.7188C62.876 34.6803 62.876 34.6031 62.9146 34.5645C62.9532 34.5645 63.0304 34.5645 63.069 34.6031L65.3849 38.8874C65.3849 38.926 65.3849 39.0032 65.3463 39.0418C65.3463 39.0418 65.3463 39.0418 65.3077 39.0418V39.0804Z" fill="#081017"/>
<path d="M66.581 45.8353C66.581 45.8353 66.581 45.8353 66.5424 45.8353C66.5038 45.8353 66.4652 45.7581 66.4652 45.6809C66.4652 45.6809 67.546 43.0176 67.739 42.207C67.8934 41.5895 66.581 40.5473 66.0407 40.1999C66.0021 40.1999 65.9635 40.0841 66.0407 40.0455C66.1179 40.0069 66.1565 39.9683 66.1951 40.0455C66.388 40.1999 68.2022 41.3965 67.9706 42.3228C67.739 43.172 66.7354 45.7195 66.6968 45.8353C66.6968 45.8739 66.6196 45.9125 66.581 45.9125V45.8353Z" fill="#081017"/>
<path d="M12.0035 44.6004C11.9263 44.6004 11.8877 44.5618 11.8877 44.4846C11.8877 44.4074 11.9263 44.3688 12.0035 44.3688C12.1193 44.3688 23.8145 43.5196 29.3341 43.1337C34.8536 42.7477 51.4894 42.5547 51.6438 42.5547C51.721 42.5547 51.7596 42.5933 51.7596 42.6705C51.7596 42.7477 51.721 42.7863 51.6438 42.7863C51.4894 42.7863 34.8536 43.0179 29.3341 43.3653C23.8145 43.7512 12.1193 44.6004 12.0035 44.6004Z" fill="#081017"/>
<path d="M55.1558 42.6319C55.0786 42.6319 55.04 42.5933 55.04 42.5161C55.04 42.4389 55.0786 42.4003 55.1558 42.4003H60.5982L66.8125 41.7441C66.8897 41.7441 66.9283 41.7827 66.9283 41.8599C66.9283 41.9371 66.8897 41.9757 66.8125 41.9757L60.5982 42.6319H55.1558Z" fill="#081017"/>
<path d="M7.37209 46.9161C7.33349 46.9161 7.2949 46.9161 7.2563 46.8389C7.2563 46.8003 7.2563 46.7231 7.2949 46.6845L7.48789 46.5687L3.93686 46.9161L3.47368 46.8389C3.43508 46.8389 3.39648 46.8003 3.39648 46.7617C3.39648 46.7231 3.39648 46.6845 3.43508 46.6459C4.40004 45.8739 5.44219 45.2949 6.60013 44.8318L6.79312 44.7546L11.5793 44.4844C11.6179 44.4844 11.6565 44.4844 11.6951 44.5616C11.6951 44.6002 11.6951 44.6774 11.6565 44.6774L8.80022 46.7231C8.80022 46.7231 8.80022 46.7231 8.76162 46.7231L7.41069 46.8775L7.37209 46.9161ZM3.78247 46.6459H3.97546L7.95106 46.2985C8.02826 46.2985 8.06686 46.2985 8.06686 46.3757C8.06686 46.4143 8.06686 46.4915 8.02826 46.5301L7.87387 46.6459L8.72303 46.5301L11.2319 44.716L6.87032 44.9476L6.67733 45.0247C5.63518 45.4107 4.67022 45.9897 3.78247 46.6459Z" fill="#081017"/>
<path d="M7.25605 54.4047H3.51203C3.43483 54.4047 3.39624 54.3661 3.39624 54.2889C3.39624 54.2117 3.43483 54.1731 3.51203 54.1731H7.21745L7.95081 53.3625L6.32969 48.5377L3.12605 48.7307C3.04885 48.7307 3.01025 48.6921 3.01025 48.6149C3.01025 48.5377 3.04885 48.4991 3.12605 48.4991L6.44549 48.3062C6.48408 48.3062 6.56128 48.3062 6.56128 48.3834L8.2596 53.3625C8.2596 53.4011 8.2596 53.4397 8.2596 53.4783L7.44904 54.4047C7.44904 54.4047 7.41044 54.4433 7.37184 54.4433L7.25605 54.4047Z" fill="#081017"/>
<path d="M6.90966 50.7373H4.67097C4.59377 50.7373 4.55518 50.6986 4.55518 50.6215V50.1583C4.55518 50.0811 4.59377 50.0425 4.67097 50.0425C4.74817 50.0425 4.78676 50.0811 4.78676 50.1583V50.5057H6.90966C6.98686 50.5057 7.02546 50.5443 7.02546 50.6215C7.02546 50.6986 6.98686 50.7373 6.90966 50.7373Z" fill="#081017"/>
<path d="M7.44875 51.7797H5.17146C5.09426 51.7797 5.05566 51.7411 5.05566 51.6639V51.2393C5.05566 51.1621 5.09426 51.1235 5.17146 51.1235C5.24865 51.1235 5.28725 51.1621 5.28725 51.2393V51.5481H7.44875C7.52594 51.5481 7.56454 51.5867 7.56454 51.6639C7.56454 51.7411 7.52594 51.7797 7.44875 51.7797Z" fill="#081017"/>
<path d="M31.6116 41.7439H26.5167C26.4395 41.7439 26.4009 41.7053 26.4009 41.6281C26.4009 41.5509 26.4395 41.5123 26.5167 41.5123H31.4958H30.2221C29.6817 41.5123 29.2185 41.0878 29.2185 40.5088C29.2185 39.9298 29.5659 39.428 30.0677 39.1965L30.6853 38.9263C31.3414 38.6561 32.0748 38.5789 32.7696 38.8105C33.2713 38.9649 33.6187 39.428 33.6187 39.9684V40.3544C33.6187 40.9334 33.1556 41.3579 32.5766 41.3579C31.9976 41.3579 32.4608 41.3193 32.4608 41.2421C32.4608 41.165 32.4994 41.1264 32.5766 41.1264C33.0012 41.1264 33.3871 40.779 33.3871 40.3544V39.9684C33.3871 39.5438 33.117 39.1578 32.6924 39.042C32.0748 38.8491 31.38 38.8877 30.8011 39.1579L30.1835 39.428C29.7589 39.621 29.4501 40.0456 29.4501 40.5474C29.4501 41.0492 29.7975 41.3193 30.2221 41.3193H31.6116C31.6888 41.3193 31.7274 41.3579 31.7274 41.4351V41.7053C31.7274 41.7825 31.6888 41.8211 31.6116 41.8211V41.7439Z" fill="#081017"/>
<path d="M84.1046 44.6775H79.8974C78.3921 44.6775 76.9639 44.06 75.9218 42.9792L75.5358 42.5547C75.42 42.4389 75.3814 42.2459 75.4586 42.0915C75.5358 41.9371 75.6902 41.8213 75.8446 41.8213H80.708C80.7466 41.8213 80.7852 41.8213 80.7852 41.8599L80.9396 42.0915H83.0239C83.101 42.0915 83.1396 42.1301 83.1396 42.2073C83.1396 42.2845 83.101 42.3231 83.0239 42.3231H80.901C80.8624 42.3231 80.8238 42.3231 80.8238 42.2845L80.6694 42.0529H75.8832C75.806 42.0529 75.7288 42.0915 75.6902 42.1687C75.6516 42.2459 75.6902 42.3231 75.7288 42.4003L76.1148 42.8248C77.1183 43.8284 78.5079 44.446 79.936 44.446H84.1432C84.2204 44.446 84.259 44.4846 84.259 44.5618C84.259 44.639 84.2204 44.6775 84.1432 44.6775H84.1046Z" fill="#081017"/>
<path d="M83.8734 44.1373H81.7119H81.6347L80.1679 42.5934H76.3853C76.3081 42.5934 76.2695 42.5548 76.2695 42.4776C76.2695 42.4004 76.3081 42.3618 76.3853 42.3618H80.2065H80.2837L81.7505 43.9057H83.8734C83.9506 43.9057 83.9892 43.9443 83.9892 44.0215C83.9892 44.0987 83.9506 44.1373 83.8734 44.1373Z" fill="#081017"/>
<path d="M59.5959 55.7553H58.3994L54.7326 54.9833H30.4544L28.4472 55.6009H27.2507H27.1735C27.1735 55.6009 27.1735 55.5623 27.1735 55.5237C27.1735 55.5237 27.1735 54.1728 26.3629 51.5095C25.977 50.2744 24.1243 46.3374 16.366 46.9935C10.3833 47.4953 9.99734 54.7518 9.99734 54.8289C9.99734 54.9061 9.95874 54.9447 9.88155 54.9447H2.5865C2.5093 54.9447 2.4707 54.9061 2.4707 54.8289V47.5725C2.4707 47.5725 2.4707 47.4953 2.5093 47.4953L2.93388 47.1093C4.05323 46.1058 5.28837 45.3338 6.6779 44.7934L12.0044 42.7091L23.9699 41.474L35.4335 35.4141C36.6686 34.7579 37.9424 34.2175 39.2547 33.793C39.9881 33.5614 40.7601 33.3684 41.6092 33.2526L43.1917 33.021C43.2689 33.021 43.3075 33.021 43.3075 33.0982C43.3075 33.1754 43.3075 33.214 43.2303 33.214L41.6478 33.4456C40.8372 33.5614 40.0653 33.7544 39.3319 33.9859C38.0196 34.4105 36.7458 34.9509 35.5493 35.6071L24.0471 41.7056C24.0471 41.7056 24.0471 41.7056 24.0085 41.7056L12.0044 42.9407L6.6779 45.025C5.32697 45.5654 4.09183 46.3374 3.01108 47.3023L2.6251 47.6497V54.7131H9.68855C9.68855 54.2886 9.88155 52.6674 10.6149 51.0077C11.7343 48.4602 13.7028 46.9935 16.2502 46.7619C24.2015 46.0672 26.0928 50.1586 26.4787 51.4323C27.1735 53.7482 27.2893 55.0219 27.2893 55.4079H28.3701L30.3772 54.7903H54.7326L58.3994 55.5623H59.4415C59.4415 54.9061 59.6345 51.7025 61.9118 49.4252C63.533 47.7655 65.8102 46.9549 68.7437 46.9549C73.5685 46.9549 76.3089 49.4638 76.9265 54.4044H83.411C84.0286 54.4044 84.5303 53.9026 84.5303 53.285V44.9864C84.5303 44.7162 84.4531 44.446 84.2601 44.2145L83.3338 43.0179C83.1794 42.8249 83.1408 42.6319 83.1794 42.4003L83.2566 41.7056C83.2952 41.2424 83.0636 40.7406 82.639 40.509L75.6528 36.3404C75.6142 36.3404 75.5756 36.2632 75.6142 36.2246C75.6528 36.186 75.6528 36.1474 75.6914 36.1474L76.8879 35.8387C77.0809 35.8001 77.1967 35.6457 77.2353 35.4527V35.2983L73.9158 34.8737C73.8387 34.8737 73.8001 34.7965 73.8001 34.7579C73.8001 34.7193 73.8773 34.6421 73.9158 34.6421L77.3511 35.0667C77.3511 35.0667 77.3897 35.0667 77.4283 35.1053C77.4283 35.1053 77.4283 35.1439 77.4283 35.1825V35.4527C77.3511 35.7229 77.1581 35.9545 76.8493 36.0317L75.923 36.2632L82.6776 40.2774C83.1794 40.5862 83.4496 41.1266 83.411 41.7056L83.3338 42.4003C83.3338 42.5547 83.3338 42.7091 83.4496 42.8249L84.3759 44.0215C84.5689 44.2917 84.6847 44.6004 84.6847 44.9092V53.2078C84.6847 53.9412 84.0672 54.5588 83.3338 54.5588H76.7721C76.7335 54.5588 76.6563 54.5202 76.6563 54.443C76.0773 49.5024 73.4913 47.0707 68.7051 47.0707C63.9189 47.0707 63.6101 47.8813 62.0662 49.4638C59.6345 51.9341 59.6731 55.5237 59.6731 55.5623C59.6731 55.6009 59.6731 55.6395 59.6731 55.6395C59.6731 55.6395 59.6345 55.6395 59.5959 55.6395V55.7553Z" fill="#081017"/>
<path d="M68.0483 56.6815C68.4106 56.6815 68.7044 56.3877 68.7044 56.0253C68.7044 55.6629 68.4106 55.3691 68.0483 55.3691C67.6859 55.3691 67.3921 55.6629 67.3921 56.0253C67.3921 56.3877 67.6859 56.6815 68.0483 56.6815Z" fill="black"/>
<path d="M68.0483 56.7973C67.6238 56.7973 67.2764 56.45 67.2764 56.0254C67.2764 55.6008 67.6238 55.2534 68.0483 55.2534C68.4729 55.2534 68.8203 55.6008 68.8203 56.0254C68.8203 56.45 68.4729 56.7973 68.0483 56.7973ZM68.0483 55.5236C67.7395 55.5236 67.508 55.7552 67.508 56.064C67.508 56.3728 67.7395 56.6044 68.0483 56.6044C68.3571 56.6044 68.5887 56.3728 68.5887 56.064C68.5887 55.7552 68.3571 55.5236 68.0483 55.5236Z" fill="#081017"/>
<path d="M67.2384 51.4323C67.3542 51.2393 67.5472 51.1235 67.7788 51.1235C68.0876 51.1235 68.5893 51.1235 68.8981 51.2007C69.0525 51.2007 69.1683 51.3937 69.1297 51.5481C68.7823 52.7833 68.2419 54.5974 68.2419 54.5974L68.5507 54.4044C68.5507 54.4044 68.5893 54.3658 68.6279 54.3272L69.5543 52.3201C69.6315 52.1271 69.7859 52.0113 69.9789 51.9341C70.2491 51.8183 70.5578 51.8569 70.7894 52.0499L71.2526 52.4359C71.3298 52.5131 71.3298 52.6675 71.2526 52.7446L68.0876 55.1763C67.7788 55.4079 67.3156 55.2149 67.277 54.829L67.0454 52.3201C67.0454 52.0113 67.084 51.7411 67.2384 51.4709V51.4323Z" fill="#E6E6E6"/>
<path d="M72.2177 53.9025C72.4493 53.9411 72.6037 54.0955 72.6423 54.3271C72.7195 54.6359 72.8739 55.099 72.9124 55.4464C72.9124 55.6008 72.7967 55.7552 72.6423 55.7552C71.3299 55.7552 69.4772 55.7938 69.4772 55.7938L69.7474 56.0254C69.7474 56.0254 69.786 56.0254 69.8246 56.064L72.0247 56.3728C72.2177 56.3728 72.4107 56.4886 72.5265 56.643C72.7195 56.8746 72.7581 57.1833 72.6809 57.4535L72.4493 57.9939C72.4107 58.1097 72.2563 58.1483 72.1405 58.0711L68.8982 55.7552C68.5895 55.5236 68.6281 55.0604 69.014 54.906L71.3685 53.9411C71.6387 53.8253 71.9475 53.8253 72.2177 53.8639V53.9025Z" fill="#E6E6E6"/>
<path d="M71.2909 59.3446C71.2909 59.5762 71.2137 59.7692 71.0207 59.885C70.7505 60.078 70.3259 60.3096 70.0171 60.464C69.8627 60.5412 69.7083 60.464 69.6311 60.3096C69.2451 59.0744 68.6662 57.2989 68.6662 57.2989L68.5118 57.6077V57.6849L68.8592 59.885C68.8592 60.078 68.8592 60.271 68.7434 60.4254C68.589 60.657 68.3188 60.8114 68.01 60.7728H67.431C67.3152 60.7342 67.238 60.5798 67.2766 60.464L68.5118 56.6814C68.6276 56.2954 69.1294 56.2182 69.3609 56.527L70.9435 58.4955C71.1365 58.7271 71.2523 58.9972 71.2523 59.306L71.2909 59.3446Z" fill="#E6E6E6"/>
<path d="M65.8092 60.0778C65.6162 60.155 65.3846 60.1164 65.1916 59.962C64.96 59.7691 64.574 59.4217 64.3424 59.1901C64.2267 59.0743 64.2652 58.8813 64.381 58.8041C65.4618 58.0707 66.9671 56.99 66.9671 56.99H66.6197C66.6197 56.9128 66.5425 56.9514 66.5425 56.9514L64.5354 57.9549C64.381 58.0321 64.1495 58.0707 63.9565 57.9935C63.6863 57.9163 63.4547 57.6848 63.4161 57.4146L63.3003 56.8356C63.3003 56.7198 63.3775 56.604 63.4933 56.604L67.4689 56.6812C67.8549 56.6812 68.0865 57.1058 67.8549 57.4532L66.4653 59.5375C66.311 59.7691 66.0794 59.962 65.8092 60.0778Z" fill="#E6E6E6"/>
<path d="M63.4936 55.0605C63.3392 54.8675 63.3392 54.6745 63.4164 54.4429C63.5322 54.1341 63.7252 53.7096 63.9182 53.4008C63.9954 53.2464 64.1884 53.2078 64.3042 53.3236C65.3077 54.1341 66.7745 55.2921 66.7745 55.2921V54.9447C66.7359 54.9447 66.6973 54.8675 66.6973 54.8675L65.1533 53.2464C64.999 53.092 64.9604 52.899 64.9218 52.706C64.9218 52.3972 65.0762 52.127 65.3077 52.0112L65.8481 51.7025C65.9639 51.6253 66.0797 51.7025 66.1183 51.8183L67.199 55.6395C67.3148 56.0254 66.9675 56.3728 66.5815 56.257L64.1884 55.5237C63.9182 55.4465 63.648 55.2535 63.4936 55.0219V55.0605Z" fill="#E6E6E6"/>
<path d="M68.0481 49.2705C64.3041 49.2705 61.2935 52.2812 61.2935 56.0252C61.2935 59.7692 64.3041 62.7799 68.0481 62.7799C71.7921 62.7799 74.8028 59.7692 74.8028 56.0252C74.8028 52.2812 71.7921 49.2705 68.0481 49.2705ZM68.0481 61.1201C65.2305 61.1201 62.9532 58.8428 62.9532 56.0252C62.9532 53.2075 65.2305 50.9302 68.0481 50.9302C70.8658 50.9302 73.1431 53.2075 73.1431 56.0252C73.1431 58.8428 70.8658 61.1201 68.0481 61.1201Z" fill="#F41BA2"/>
<path d="M68.0482 62.8957C64.2656 62.8957 61.1777 59.8079 61.1777 56.0252C61.1777 52.2426 64.2656 49.1548 68.0482 49.1548C71.8308 49.1548 74.9187 52.2426 74.9187 56.0252C74.9187 59.8079 71.8308 62.8957 68.0482 62.8957ZM68.0482 49.3864C64.3814 49.3864 61.4093 52.3584 61.4093 56.0252C61.4093 59.6921 64.3814 62.6641 68.0482 62.6641C71.715 62.6641 74.6871 59.6921 74.6871 56.0252C74.6871 52.3584 71.715 49.3864 68.0482 49.3864ZM68.0482 61.236C65.1919 61.236 62.8375 58.9201 62.8375 56.0252C62.8375 53.1304 65.1533 50.8145 68.0482 50.8145C70.9431 50.8145 73.259 53.1304 73.259 56.0252C73.259 58.9201 70.9431 61.236 68.0482 61.236ZM68.0482 51.0847C65.3077 51.0847 63.069 53.3234 63.069 56.0638C63.069 58.8043 65.3077 61.043 68.0482 61.043C70.7887 61.043 73.0274 58.8043 73.0274 56.0638C73.0274 53.3234 70.7887 51.0847 68.0482 51.0847Z" fill="#081017"/>
<path d="M71.7925 24.066L67.8555 23.3327C67.8555 23.3327 67.8555 24.9538 69.1678 24.645C68.2801 25.1082 67.7011 25.8029 68.1643 26.1889C69.1678 25.9573 72.2171 25.2626 72.2171 25.2626C72.2171 25.2626 72.8346 26.6521 74.8803 26.6521C76.3471 26.6521 77.4278 25.4556 77.4278 25.4556L73.8382 21.4027C73.8382 21.4027 72.7188 20.901 71.9469 20.8624C71.1749 20.8238 70.7117 20.8624 70.7117 20.8624C70.7117 20.8624 70.5187 21.2483 71.0591 21.5185C71.5995 21.7887 72.8346 21.8659 72.8732 22.4835H70.8661C70.8661 22.4835 70.8661 23.487 73.0276 23.487C73.568 23.487 74.1856 23.873 73.2206 23.873H72.0627C72.0627 23.873 72.3714 24.7222 73.9154 24.645" fill="white"/>
<path d="M76.1146 23.9115C76.1146 23.9115 75.0338 23.4869 74.4934 22.7922C73.9531 22.0974 73.6057 21.2869 72.7951 21.0553C71.9846 20.8237 70.9038 20.8623 70.9038 20.8623C70.9038 20.8623 71.4442 21.9044 72.3319 21.8658C72.3319 21.8658 72.9495 21.943 72.9881 22.522H70.981C70.981 22.522 70.9038 23.3326 72.3319 23.4483C73.7601 23.5641 73.7987 23.7957 73.7987 23.8343C73.7987 23.8729 72.3319 23.9115 72.3319 23.9115C72.3319 23.9115 72.5635 24.5677 73.3741 24.7221C74.1846 24.8765 76.8479 24.7221 76.8479 24.7221C76.8479 24.7221 76.0374 24.2975 76.1918 23.9501L76.1146 23.9115Z" fill="#F41BA2"/>
<path d="M78.6241 23.4869C78.6241 23.4869 78.1995 23.5641 78.0837 23.7957C77.968 24.0273 77.389 24.7993 78.1224 24.9923C78.8557 25.1853 79.3575 24.8379 79.3575 24.8379L79.6277 24.3361L80.1681 24.2589C80.1681 24.2589 80.361 23.7957 79.9751 23.5641C79.5891 23.3325 78.6627 23.4869 78.6627 23.4869H78.6241Z" fill="#F41BA2"/>
<path d="M76.5006 24.2975C76.5006 24.2975 76.4234 24.2975 76.4234 24.2589C76.3462 24.1817 75.9989 23.68 76.0761 23.3712C76.0761 23.294 76.1533 23.2168 76.2304 23.1782C76.3848 23.101 76.5006 23.101 76.6164 23.1782C76.5778 23.0238 76.5392 22.8694 76.6164 22.7536C76.6936 22.6378 76.848 22.6378 77.041 22.6764C77.7358 22.8694 78.1218 23.4098 78.1218 23.4098C78.1604 23.4484 78.1218 23.5256 78.1218 23.5642C78.0832 23.6028 78.006 23.5642 77.9674 23.5642C77.9674 23.5642 77.62 23.0624 77.0024 22.908C76.848 22.8694 76.848 22.908 76.848 22.908C76.848 22.9466 76.8866 23.2168 77.041 23.4484C77.041 23.487 77.041 23.5642 77.041 23.6028C77.0024 23.6028 76.9252 23.6028 76.8866 23.6028C76.8866 23.6028 76.655 23.3326 76.3848 23.4484C76.3848 23.4484 76.3848 23.4484 76.3848 23.487C76.3848 23.6414 76.5392 23.9887 76.6936 24.1817C76.7322 24.2203 76.6936 24.2975 76.6936 24.3361C76.6936 24.3361 76.655 24.3361 76.6164 24.3361L76.5006 24.2975Z" fill="#081017"/>
<path d="M75.5746 23.7958C75.536 23.7958 74.571 23.5642 73.6061 22.0203C72.8341 20.7851 71.2516 20.9009 70.827 20.9395C70.827 21.1325 71.02 21.5185 71.8305 21.6729C71.9077 21.6729 71.9463 21.7501 71.9077 21.8273C71.8691 21.9045 71.8305 21.9431 71.7533 21.9045C70.441 21.6343 70.5568 20.8623 70.5568 20.8237C70.5568 20.7851 70.5954 20.7465 70.634 20.7079C70.634 20.7079 72.7569 20.3219 73.7219 21.8659C74.6096 23.294 75.536 23.5256 75.5746 23.5256C75.6518 23.5256 75.6904 23.6028 75.6518 23.68C75.6518 23.7186 75.5746 23.7572 75.536 23.7572L75.5746 23.7958Z" fill="#081017"/>
<path d="M80.207 24.4131H78.5086C78.4314 24.4131 78.3928 24.3745 78.3928 24.2973C78.3928 24.2201 78.4314 24.1815 78.5086 24.1815H80.0912C80.0912 23.8727 79.9754 23.6797 79.7824 23.564C79.242 23.2166 78.1613 23.7569 78.1227 23.7569C78.0841 23.7569 78.0069 23.7569 77.9683 23.7183C77.9683 23.6798 77.9683 23.6026 78.0069 23.564C78.0455 23.564 79.2034 22.985 79.8596 23.371C80.1298 23.5254 80.2841 23.8341 80.2841 24.2973V24.3745C80.2841 24.3745 80.2456 24.3745 80.207 24.3745V24.4131Z" fill="#081017"/>
<path d="M78.5854 25.108C78.2766 25.108 78.0064 25.108 78.0064 25.0694C77.9292 25.0694 77.8906 24.9922 77.8906 24.9536C77.8906 24.915 77.9678 24.8378 78.0064 24.8378C78.0064 24.8378 78.8942 24.9536 79.2416 24.7606C79.5889 24.6062 79.5117 24.2975 79.5117 24.2975C79.5117 24.2203 79.5118 24.1817 79.5889 24.1431C79.6661 24.1431 79.7047 24.1431 79.7433 24.2203C79.7433 24.3747 79.7433 24.722 79.3188 24.915C79.1258 25.0308 78.7784 25.0308 78.5082 25.0308L78.5854 25.108Z" fill="#081017"/>
<path d="M75.0345 26.8449C74.8801 26.8449 74.7257 26.8449 74.5713 26.8449C72.873 26.6519 72.294 25.8027 72.1783 25.4939C71.6379 25.6097 68.936 26.1887 68.1254 26.4203C68.0869 26.4203 68.0483 26.4203 68.0097 26.4203C67.9711 26.4203 67.8167 26.1887 67.8553 25.8799C67.8939 25.5711 68.1255 25.3009 68.5886 25.0308C68.6272 25.0308 68.7044 25.0308 68.743 25.0694C68.743 25.108 68.743 25.1852 68.7044 25.2238C68.357 25.4553 68.1255 25.6869 68.0869 25.9185C68.0869 26.0343 68.0869 26.1501 68.1254 26.1887C69.0904 25.9185 72.0625 25.301 72.2169 25.2624C72.2555 25.2624 72.3326 25.2624 72.3712 25.3395C72.3712 25.3781 72.7572 26.4203 74.6099 26.6133C76.5012 26.8449 77.389 25.5325 77.4276 25.4939C77.4276 25.4553 77.5434 25.4167 77.582 25.4939C77.6206 25.5711 77.6592 25.6097 77.582 25.6483C77.582 25.6483 76.7328 26.9221 74.9959 26.9221L75.0345 26.8449Z" fill="#081017"/>
<path d="M68.7047 24.7996C68.5117 24.7996 68.3187 24.7224 68.1643 24.6066C67.7783 24.2978 67.7397 23.6802 67.7397 23.6416C67.7397 23.6031 67.7397 23.5645 67.7783 23.5645H67.8555L71.7926 24.2978C71.8697 24.2978 71.9083 24.375 71.8698 24.4522C71.8312 24.5294 71.7926 24.568 71.7154 24.5294L67.9327 23.8346C67.9327 24.0276 68.0485 24.2978 68.2415 24.4908C68.3959 24.6066 68.5503 24.6452 68.7819 24.6066C68.8591 24.6066 68.8977 24.6066 68.9363 24.6838C68.9363 24.761 68.9363 24.7996 68.8591 24.8382C68.7819 24.8382 68.7047 24.8382 68.6661 24.8382L68.7047 24.7996Z" fill="#081017"/>
<path d="M77.3888 24.4134C77.273 24.4134 77.1572 24.2976 77.1572 24.1818C77.1572 24.066 77.273 23.9502 77.3888 23.9502C77.5046 23.9502 77.6204 24.066 77.6204 24.1818C77.6204 24.2976 77.5046 24.4134 77.3888 24.4134Z" fill="#081017"/>
<path d="M54.3073 34.5259C53.3037 34.5259 51.7984 34.4487 50.4861 34.0628C49.4825 33.754 48.5562 33.1364 47.8228 32.2872C46.7807 31.0521 46.2017 30.2029 46.1631 29.817C46.1631 29.7398 46.1631 29.7012 46.2403 29.7012C46.3175 29.7012 46.3561 29.7012 46.3561 29.7784C46.3947 30.1258 46.9736 30.9363 47.9772 32.1328C48.672 32.982 49.5597 33.561 50.5633 33.8698C52.7634 34.5259 55.4266 34.2943 55.4266 34.2943C55.5038 34.2943 55.5424 34.3329 55.5424 34.4101C55.5424 34.4873 55.5038 34.5259 55.4266 34.5259C55.4266 34.5259 54.9635 34.5645 54.3073 34.5645V34.5259Z" fill="#081017"/>
<path d="M57.7808 35.9541C57.7036 35.9541 57.665 35.9156 57.665 35.8384C57.665 35.7612 57.7036 35.7226 57.7808 35.7226C58.3212 35.7226 58.7072 35.5296 58.9002 35.2594C59.1704 34.912 59.0546 34.4874 59.0546 34.4488C59.0546 34.3716 59.0546 34.333 59.1318 34.2944C59.209 34.2944 59.2476 34.2944 59.2862 34.3716C59.2862 34.3716 59.4406 34.912 59.0932 35.3752C58.8616 35.7226 58.3984 35.9156 57.7808 35.9156V35.9541Z" fill="#081017"/>
<path d="M55.3111 40.5863C55.2725 40.5863 55.2339 40.5863 55.1953 40.5477C55.1953 40.5091 55.1953 40.4319 55.2339 40.3933C55.2339 40.3933 56.5462 39.6599 56.3919 38.502C56.2761 37.344 55.5813 36.9194 55.5813 36.9194C55.5427 36.9194 55.5041 36.8036 55.5427 36.765C55.5427 36.7264 55.6585 36.6878 55.6971 36.7264C55.6971 36.7264 56.5077 37.2282 56.6234 38.502C56.7778 39.8143 55.3883 40.5863 55.3497 40.6249H55.3111V40.5863Z" fill="#081017"/>
<path d="M63.8416 39.7371C63.803 39.7371 63.7258 39.6985 63.7258 39.6599C63.0696 36.2632 60.0976 34.7193 60.059 34.7193C60.0204 34.7193 59.9818 34.6421 60.0204 34.5649C60.059 34.4877 60.1362 34.4877 60.1748 34.5263C60.1748 34.5263 63.3012 36.1474 63.9574 39.6213C63.9574 39.6985 63.9574 39.7371 63.8802 39.7757L63.8416 39.7371Z" fill="#081017"/>
<path d="M61.9494 36.1471C61.9494 36.1471 61.9108 36.1471 61.8722 36.1471C61.8336 36.1471 61.795 36.0313 61.8722 35.9927C61.8722 35.9927 62.2968 35.3752 63.2231 35.105C63.3003 35.105 63.3389 35.105 63.3775 35.1822C63.3775 35.2594 63.3775 35.298 63.3003 35.3366C62.4898 35.5682 62.0652 36.1085 62.0652 36.1085C62.0652 36.1085 62.0266 36.1471 61.988 36.1471H61.9494Z" fill="#081017"/>
<path d="M58.051 31.245L57.8966 31.1678C57.7422 31.0906 57.5492 31.0906 57.3562 31.1678L56.5842 31.5151C56.3526 31.6309 56.1982 31.8625 56.1982 32.0941C56.1982 32.2871 56.2754 32.4415 56.3526 32.5573L56.4298 32.6731C56.6228 32.8661 56.893 32.9433 57.1246 32.8275L57.8966 32.5187C58.051 32.4415 58.2053 32.3257 58.2439 32.1713V32.0555C58.3597 31.8625 58.3597 31.6695 58.2439 31.4765C58.1667 31.3608 58.051 31.245 57.9352 31.2064L58.051 31.245Z" fill="#F41BA2"/>
<path d="M56.2378 32.2101H55.5816C55.5044 32.2101 55.4658 32.1329 55.4658 32.0943C55.4658 32.0171 55.5044 31.9785 55.5816 31.9785H56.2378C56.315 31.9785 56.3536 32.0557 56.3536 32.0943C56.3536 32.1715 56.315 32.2101 56.2378 32.2101Z" fill="#081017"/>
<path d="M58.3601 31.7082C58.3601 31.7082 58.3215 31.7082 58.2829 31.7082C58.2443 31.6697 58.2443 31.5925 58.2829 31.5539C58.6302 31.1679 58.9004 31.2451 58.939 31.2451C59.0162 31.2451 59.0548 31.3223 59.0162 31.3995C59.0162 31.4767 58.939 31.5153 58.8618 31.4767C58.8618 31.4767 58.6688 31.4767 58.4373 31.7082C58.4373 31.7082 58.3987 31.7468 58.3601 31.7468V31.7082Z" fill="#081017"/>
<path d="M54.037 37.4209C53.4194 37.4209 53.0721 37.3437 53.0721 37.3437C53.0335 37.3437 52.9949 37.3437 52.9949 37.2665C52.9949 37.2665 52.9949 37.1893 52.9949 37.1507C53.5352 36.1858 52.6089 34.4103 52.6089 34.3717C52.6089 34.3331 52.6089 34.2559 52.6475 34.2173C52.6861 34.2173 52.7633 34.2173 52.8019 34.2559C52.8405 34.3331 53.7282 36.0314 53.2651 37.1121C53.6124 37.1507 54.5774 37.2279 56.0055 36.9577C56.0827 36.9577 56.1213 36.9578 56.1599 37.035C56.1985 37.1121 56.1599 37.1507 56.0827 37.1893C55.2336 37.3437 54.5774 37.3823 54.0756 37.3823L54.037 37.4209Z" fill="#081017"/>
<path d="M52.6858 36.8808C49.0576 36.4562 46.9733 34.2175 45.8926 32.442C45.8926 32.4034 45.8926 32.3262 45.9312 32.2876C45.9698 32.2876 46.047 32.2876 46.0856 32.3262C47.1663 34.0631 49.1734 36.2246 52.7244 36.6492C52.8016 36.6492 52.8402 36.7264 52.8402 36.765C52.8402 36.8036 52.8016 36.8808 52.7244 36.8808H52.6858Z" fill="#081017"/>
<path d="M59.132 30.5118C58.9776 30.6276 58.9004 30.8206 58.9004 31.0136C58.9004 31.2066 58.9776 31.361 59.0548 31.4767L59.132 31.5925C59.325 31.7855 59.5952 31.8627 59.8267 31.7469L60.5987 31.4382C60.7531 31.361 60.9075 31.2452 60.9461 31.0908V30.975C61.0619 30.782 61.0619 30.589 60.9461 30.396C60.8689 30.2802 60.7531 30.1644 60.6373 30.1258L60.4829 30.0486C60.3285 29.9714 60.1355 29.9714 59.9425 30.0486L59.1706 30.396C59.132 30.396 59.0934 30.4346 59.0162 30.4732" fill="#F41BA2"/>
<path d="M57.7813 34.9122C56.3918 34.9122 55.2725 33.7928 55.2725 32.4033C55.2725 31.0138 55.3111 32.2875 55.3883 32.2875C55.4654 32.2875 55.504 32.3261 55.504 32.4033C55.504 33.677 56.5462 34.6806 57.7813 34.6806C59.0165 34.6806 60.0586 33.677 60.0586 32.4033C60.0586 31.1296 60.0586 32.0173 59.9814 31.8243C59.9814 31.7471 59.9814 31.7085 60.0586 31.6699C60.1358 31.6699 60.1744 31.6699 60.213 31.7471C60.2516 31.9401 60.2902 32.1717 60.2902 32.3647C60.2902 33.7542 59.1709 34.8736 57.7813 34.8736V34.9122Z" fill="#081017"/>
<path d="M58.3222 34.2562C57.1642 34.2562 56.9326 33.2913 56.9326 33.2913V33.2141C56.9326 33.2141 56.9712 33.1755 57.0098 33.1755L58.5537 32.9053C58.6309 32.9053 58.6695 32.9053 58.7081 32.9825C58.7467 33.0597 58.7081 33.0983 58.6309 33.1369L57.2028 33.4071C57.28 33.6386 57.5888 34.0632 58.3222 34.0632C58.3993 34.0632 58.4379 34.1018 58.4379 34.179C58.4379 34.2562 58.3993 34.2948 58.3222 34.2948V34.2562Z" fill="#081017"/>
<path d="M55.4269 33.3295C54.848 33.3295 54.3462 32.8663 54.3462 32.2487C54.3462 31.6312 54.8094 31.168 55.4269 31.168H55.9673L56.0445 30.9364C56.0445 30.8978 56.1217 30.8592 56.1603 30.8592H56.9709C58.013 30.8592 58.8622 30.01 58.8622 28.9679C58.8622 27.9257 58.9008 28.8521 58.978 28.8521C59.0552 28.8521 59.0938 28.8907 59.0938 28.9679C59.0938 30.1258 58.1674 31.0908 56.9709 31.0908H56.2375L56.1603 31.3224C56.1603 31.361 56.0831 31.3996 56.0445 31.3996H55.4269C54.9638 31.3996 54.5778 31.7855 54.5778 32.2487C54.5778 32.7119 54.9638 33.0979 55.4269 33.0979C55.8901 33.0979 55.5427 33.1365 55.5427 33.2137C55.5427 33.2909 55.5041 33.3295 55.4269 33.3295Z" fill="#081017"/>
<path d="M72.6024 35.1821H65.4232C64.8828 35.1821 64.4196 34.7189 64.4196 34.1785C64.4196 33.6381 64.0336 33.3294 63.5705 33.3294H59.9422C59.865 33.3294 59.8264 33.2908 59.8264 33.2136C59.8264 33.1364 59.865 33.0978 59.9422 33.0978H63.5705C64.188 33.0978 64.6512 33.5995 64.6512 34.1785C64.6512 34.7575 64.9986 34.9505 65.4232 34.9505H72.6024C73.3358 34.9505 73.9148 34.3715 73.9148 33.6381C73.9148 32.9048 73.3358 32.3258 72.6024 32.3258H69.2444C68.6654 32.3258 68.2022 31.8626 68.2022 31.2837C68.2022 30.7047 67.6619 30.0871 67.0057 30.0871H63.4161C62.1809 30.0871 61.023 29.6625 60.058 28.8906C59.5177 28.1186 58.5913 27.6554 57.6649 27.6554H57.5105C55.6578 27.6554 54.1525 29.1608 54.1525 31.0135V31.7854C54.1525 32.9048 55.0789 33.7925 56.1596 33.7925C57.2404 33.7925 56.2754 33.8311 56.2754 33.9083C56.2754 33.9855 56.2368 34.0241 56.1596 34.0241C54.9245 34.0241 53.8823 33.0206 53.8823 31.7468V30.9749C53.8823 29.0064 55.4648 27.3853 57.472 27.3853H57.6263C58.6685 27.3853 59.6334 27.887 60.2124 28.6976C61.1002 29.431 62.2581 29.8555 63.4161 29.8555H67.0057C67.7777 29.8555 68.4338 30.5117 68.4338 31.2837C68.4338 32.0556 68.7812 32.0942 69.2444 32.0942H72.6024C73.4516 32.0942 74.1463 32.789 74.1463 33.6381C74.1463 34.4873 73.4516 35.1821 72.6024 35.1821Z" fill="#F61BA3"/>
<path d="M46.2414 29.8943C46.1642 29.8943 46.1256 29.8171 46.1256 29.7785L46.28 27.5784C46.28 27.5398 46.2414 27.4626 46.1642 27.4626H46.087C46.087 27.4626 46.0484 27.5012 46.0484 27.5398V27.9644C45.9712 28.1188 45.8554 28.2732 45.701 28.3118C45.6238 28.3118 45.5466 28.3889 45.5466 28.4661L45.4308 29.0065C45.4308 29.0837 45.3536 29.1223 45.2764 29.0837C45.1992 29.0837 45.1606 29.0065 45.1992 28.9293L45.315 28.3889C45.3536 28.2346 45.4694 28.0802 45.6624 28.0416C45.7396 28.0416 45.7782 27.9644 45.8168 27.8872V27.4626C45.894 27.3854 45.9326 27.2696 46.0098 27.231C46.087 27.1538 46.1642 27.1538 46.28 27.1538C46.473 27.1538 46.5888 27.3468 46.5888 27.5012L46.4344 29.7013C46.4344 29.7785 46.3958 29.8171 46.3186 29.8171L46.2414 29.8943Z" fill="#081017"/>
<path d="M45.5842 28.4277C45.5456 28.4277 45.507 28.4277 45.4684 28.3505L44.9281 26.4978C44.9281 26.4206 44.8123 26.382 44.7351 26.382C44.6579 26.382 44.5807 26.4978 44.6193 26.575L44.9667 28.1189C44.9667 28.1961 44.9667 28.2347 44.8895 28.2733C44.8123 28.3119 44.7737 28.2733 44.7351 28.1961L44.3877 26.6522C44.3491 26.4206 44.4649 26.2276 44.6965 26.189C44.8895 26.1504 45.1211 26.2662 45.1982 26.4592L45.7386 28.3119C45.7386 28.3891 45.7386 28.4277 45.6614 28.4663L45.5842 28.4277Z" fill="#081017"/>
<path d="M44.3116 28.5436C44.273 28.5436 44.2344 28.5436 44.1958 28.4664L43.5783 26.7681C43.5011 26.5751 43.5783 26.3435 43.8099 26.2277C43.9256 26.1891 44.0414 26.1891 44.1186 26.2277C44.1958 26.2663 44.3116 26.3435 44.3502 26.4593L44.852 27.8874C44.852 27.9646 44.852 28.0032 44.7748 28.0418C44.7362 28.0418 44.659 28.0418 44.6204 27.9646L44.1186 26.5751C44.1186 26.5365 44.08 26.4979 44.0414 26.4979C44.0028 26.4979 43.9642 26.4979 43.8871 26.4979C43.8099 26.5365 43.7713 26.6523 43.8099 26.7295L44.4274 28.4278C44.4274 28.505 44.4274 28.5436 44.3502 28.5822C44.3502 28.5822 44.3502 28.5822 44.3116 28.5822V28.5436Z" fill="#081017"/>
<path d="M44.0021 29.1229C43.9635 29.1229 43.9249 29.1229 43.8863 29.0457L43.2301 27.5789C43.1915 27.5017 43.1915 27.3859 43.2301 27.3087C43.2301 27.2315 43.3073 27.1544 43.4231 27.0772C43.5775 27 43.8091 27.0772 43.9249 27.2316L44.4653 28.3895C44.4653 28.4281 44.4653 28.5053 44.4267 28.5439C44.3881 28.5439 44.3109 28.5439 44.2723 28.5053L43.7319 27.3473C43.7319 27.3087 43.6161 27.2701 43.5775 27.3087C43.5775 27.3087 43.5389 27.3473 43.5003 27.3859C43.5003 27.3859 43.5003 27.4631 43.5003 27.5017L44.1565 28.9685C44.1565 29.0071 44.1565 29.0843 44.1179 29.1229C44.1179 29.1229 44.1179 29.1229 44.0793 29.1229H44.0021Z" fill="#081017"/>
<path d="M45.9695 32.5189C45.9309 32.5189 45.8923 32.5189 45.8923 32.4803L44.8116 30.782C44.773 30.782 44.6186 30.6276 44.4642 30.5118C44.1168 30.203 43.808 29.8556 43.615 29.4311L43.1904 28.4661C43.1132 28.3117 43.1904 28.1187 43.3448 28.0029C43.3834 28.0029 43.422 28.0029 43.4606 28.0029C43.5764 28.0029 43.6922 28.1959 43.9238 28.5819L44.0782 28.8521C44.0782 28.8907 44.0782 28.9679 44.0396 29.0065C44.001 29.0451 43.9238 29.0065 43.8852 28.9679L43.7694 28.7363C43.615 28.4275 43.4992 28.3117 43.4606 28.2731C43.4606 28.2731 43.4606 28.3503 43.4606 28.3889L43.8852 29.3925C44.0396 29.7784 44.3098 30.1258 44.6572 30.396C44.8502 30.5504 45.0046 30.6662 45.0046 30.6662L46.0853 32.4031C46.0853 32.4417 46.0853 32.5189 46.0853 32.5575C46.0853 32.5575 46.0467 32.5575 46.0081 32.5575L45.9695 32.5189Z" fill="#081017"/>
<path d="M91.978 48.4987H74.8018C74.7246 48.4987 74.686 48.4601 74.686 48.3829C74.686 48.3057 74.7246 48.2671 74.8018 48.2671H91.978C92.0552 48.2671 92.0938 48.3057 92.0938 48.3829C92.0938 48.4601 92.0552 48.4987 91.978 48.4987Z" fill="#081017"/>
<path d="M97.8838 50.2736H80.7076C80.6304 50.2736 80.5918 50.235 80.5918 50.1578C80.5918 50.0806 80.6304 50.042 80.7076 50.042H97.8838C97.961 50.042 97.9995 50.0806 97.9995 50.1578C97.9995 50.235 97.961 50.2736 97.8838 50.2736Z" fill="#081017"/>
<path d="M65.0752 23.2941H52.6466C52.5694 23.2941 52.5308 23.2555 52.5308 23.1783C52.5308 23.1011 52.5694 23.0625 52.6466 23.0625H65.0752C65.1524 23.0625 65.191 23.1011 65.191 23.1783C65.191 23.2555 65.1524 23.2941 65.0752 23.2941Z" fill="#081017"/>
<path d="M61.8338 25.1081H57.5108C57.4336 25.1081 57.395 25.0695 57.395 24.9923C57.395 24.9151 57.4336 24.8765 57.5108 24.8765H61.8338C61.911 24.8765 61.9496 24.9151 61.9496 24.9923C61.9496 25.0695 61.911 25.1081 61.8338 25.1081Z" fill="#081017"/>
</svg>
