<svg width="93" height="84" viewBox="0 0 93 84" fill="none" xmlns="http://www.w3.org/2000/svg">
<path d="M42.3032 19.1616V7.16831C42.3032 7.1273 42.3123 7.08629 42.3306 7.04528L45.4018 0.94383C45.4474 0.852695 45.5385 0.798014 45.6387 0.793457C45.739 0.793457 45.8347 0.848134 45.8802 0.939269L48.9515 6.86757C48.9697 6.90402 48.9834 6.94959 48.9834 6.9906V16.7784H51.5443V15.817C51.5443 15.6666 51.6627 15.5481 51.8131 15.5481H56.4199V17.1247" stroke="#E6E6E6" stroke-width="0.309857" stroke-linecap="round" stroke-linejoin="round"/>
<path d="M88.7456 61.4798V15.9582C88.7456 15.8078 88.6272 15.6893 88.4768 15.6893H82.5895C82.4391 15.6893 82.3207 15.8078 82.3207 15.9582V14.5273H76.283C76.1326 14.5273 76.0142 14.6458 76.0142 14.7962V29.1043" stroke="#E6E6E6" stroke-width="0.309857" stroke-linecap="round" stroke-linejoin="round"/>
<path d="M70.8637 2.70284C71.1006 1.39506 72.2444 0.40625 73.6205 0.40625C74.6731 0.40625 75.589 0.984955 76.0675 1.84618C76.2497 1.81428 76.4366 1.79605 76.6279 1.79605C78.3413 1.79605 79.7402 3.1494 79.8131 4.84905C80.1594 4.52097 80.6242 4.32048 81.1391 4.32048C82.2054 4.32048 83.0666 5.1817 83.0666 6.24797C83.0666 7.31424 82.2054 8.17546 81.1391 8.17546H71.7204C70.1756 8.17546 68.918 6.92237 68.918 5.37308C68.918 4.12454 69.7382 3.06738 70.8637 2.70284Z" fill="#E6E6E6" stroke="#E6E6E6" stroke-width="0.26429" stroke-linecap="round" stroke-linejoin="round"/>
<path d="M22.1168 30.403H2.19028C1.53411 30.403 1.00098 29.8699 1.00098 29.2137C1.00098 28.5576 1.53411 28.0244 2.19028 28.0244H12.4383" stroke="#F6B4DD" stroke-width="0.273403" stroke-linecap="round" stroke-linejoin="round"/>
<g style="mix-blend-mode:multiply">
<path d="M13.7777 47.924L10.2462 48.1199L9.95459 32.0347L13.5316 32.5724L13.7777 47.924Z" fill="#E6E6E6"/>
</g>
<path d="M39.3227 30.7997L34.9072 29.0181V47.6186L35.6773 47.6368L35.896 46.484L39.2953 46.1468V45.5772L37.017 45.7276L37.1036 40.5602L39.2452 40.3916" fill="#E6E6E6"/>
<path d="M10.5429 74.3577C10.5429 74.3577 10.6978 72.8768 11.0077 72.7994C11.3175 72.7219 10.3105 73.4236 10.0006 73.9704C9.69077 74.5172 8.52881 73.1912 8.52881 73.1912C8.52881 73.1912 9.14852 74.1254 9.30345 74.4398" stroke="#E6E6E6" stroke-width="0.309857" stroke-linecap="round" stroke-linejoin="round"/>
<path d="M90.5536 76.6087C90.5536 76.6087 90.7085 75.1278 91.023 75.0503C91.3374 74.9729 90.3212 75.6746 90.0068 76.2214C89.697 76.7682 88.5259 75.4422 88.5259 75.4422C88.5259 75.4422 89.1501 76.3763 89.3051 76.6908" stroke="#E6E6E6" stroke-width="0.309857" stroke-linecap="round" stroke-linejoin="round"/>
<path d="M81.323 77.4195C81.323 77.4195 81.4506 76.2211 81.7012 76.1573C81.9519 76.0935 81.1317 76.6631 80.881 77.1051C80.6304 77.5471 79.6826 76.4717 79.6826 76.4717C79.6826 76.4717 80.1884 77.2281 80.316 77.4833" stroke="#E6E6E6" stroke-width="0.309857" stroke-linecap="round" stroke-linejoin="round"/>
<path d="M40.4941 75.3553C40.4941 75.3553 40.649 73.8744 40.9634 73.7969C41.2778 73.7194 40.2617 74.4212 39.9472 74.968C39.6374 75.5148 38.4663 74.1888 38.4663 74.1888C38.4663 74.1888 39.0906 75.1229 39.2455 75.4373" stroke="#E6E6E6" stroke-width="0.309857" stroke-linecap="round" stroke-linejoin="round"/>
<path d="M25.0873 78.9461C25.0873 78.9461 25.2422 77.4652 25.5567 77.3877C25.8711 77.3103 24.8549 78.012 24.5405 78.5588C24.2306 79.1056 23.0596 77.7796 23.0596 77.7796C23.0596 77.7796 23.6838 78.7137 23.8388 79.0281" stroke="#F6B4DD" stroke-width="0.273403" stroke-linecap="round" stroke-linejoin="round"/>
<path d="M5.04727 78.8001C5.04727 78.8001 5.2022 77.3192 5.51206 77.2417C5.82192 77.1643 4.81488 77.866 4.50502 78.4128C4.19517 78.9596 3.0332 77.6336 3.0332 77.6336C3.0332 77.6336 3.65292 78.5677 3.80785 78.8822" stroke="#F6B4DD" stroke-width="0.273403" stroke-linecap="round" stroke-linejoin="round"/>
<path d="M35.5548 82.5139C35.5548 82.5139 35.6551 81.5388 35.8601 81.4886C36.0652 81.4385 35.4045 81.8987 35.1994 82.2587C34.9944 82.6187 34.2334 81.7484 34.2334 81.7484C34.2334 81.7484 34.6389 82.3635 34.7438 82.5686" stroke="#E6E6E6" stroke-width="0.309857" stroke-linecap="round" stroke-linejoin="round"/>
<path d="M92.1994 70.9446C92.1994 70.9446 92.2996 69.9694 92.5047 69.9193C92.7097 69.8692 92.0444 70.3294 91.8394 70.6894C91.6343 71.0494 90.8643 70.179 90.8643 70.179C90.8643 70.179 91.2744 70.7942 91.3746 70.9992" stroke="#E6E6E6" stroke-width="0.309857" stroke-linecap="round" stroke-linejoin="round"/>
<path d="M59.2272 83.0246C59.2272 83.0246 59.3275 82.0495 59.5325 81.9994C59.7376 81.9492 59.0723 82.4095 58.8672 82.7695C58.6622 83.1294 57.8921 82.2591 57.8921 82.2591C57.8921 82.2591 58.3022 82.8743 58.4024 83.0793" stroke="#E6E6E6" stroke-width="0.309857" stroke-linecap="round" stroke-linejoin="round"/>
<path d="M71.9259 73.9841C71.9259 73.9841 72.0262 73.009 72.2312 72.9588C72.4363 72.9087 71.771 73.369 71.566 73.7289C71.3609 74.0889 70.5908 73.2186 70.5908 73.2186C70.5908 73.2186 71.0009 73.8337 71.1012 74.0388" stroke="#F6B4DD" stroke-width="0.273403" stroke-linecap="round" stroke-linejoin="round"/>
<path d="M38.9573 52.4354L38.9071 68.2473L38.9482 69.2908L38.2373 69.8695L50.2169 70.3798L57.5305 70.5484L57.5533 51.6562L38.9573 52.4309V52.4354ZM44.1702 69.1905V55.4247L56.2546 55.1467L56.4961 69.391L44.1702 69.1905Z" fill="#F41BA2"/>
<path d="M10.4004 49.7417V71.4818H34.7925" stroke="#081017" stroke-width="0.273403" stroke-miterlimit="10"/>
<path d="M33.7085 49.0767V20.2873L58.2191 16.9746V48.0515L33.7085 49.0767Z" stroke="#081017" stroke-width="0.273403" stroke-miterlimit="10"/>
<path d="M33.0427 23.6592L11.9633 25.8282V30.0432L10.0996 31.9706V49.7419L33.708 48.7758" stroke="#081017" stroke-width="0.273403" stroke-miterlimit="10"/>
<path d="M34.9062 29.018V47.6185L56.6919 46.698V26.8125L34.9062 29.018Z" stroke="#081017" stroke-width="0.273403" stroke-miterlimit="10"/>
<path d="M56.8155 29.0181L39.3223 30.7997V40.4965" stroke="#081017" stroke-width="0.273403" stroke-miterlimit="10"/>
<path d="M42.2114 40.2501V31.966L56.6335 30.6172" stroke="#081017" stroke-width="0.273403" stroke-miterlimit="10"/>
<path d="M56.6422 32.0024L44.4165 33.2555V45.9004" stroke="#081017" stroke-width="0.273403" stroke-miterlimit="10"/>
<path d="M36.314 40.6193L56.5686 39.3936" stroke="#081017" stroke-width="0.273403" stroke-miterlimit="10"/>
<path d="M36.3828 45.6862L56.6329 44.7339" stroke="#081017" stroke-width="0.273403" stroke-miterlimit="10"/>
<path d="M58.2183 16.9746L62.2191 19.4444V49.0904L58.2183 48.0515" stroke="#081017" stroke-width="0.273403" stroke-miterlimit="10"/>
<path d="M34.9658 49.0312V69.8965" stroke="#081017" stroke-width="0.273403" stroke-miterlimit="10"/>
<path d="M57.4898 47.9238V50.9313L38.1602 51.6695V69.8417L38.8938 69.4088L38.9075 52.2892" stroke="#081017" stroke-width="0.273403" stroke-miterlimit="10"/>
<path d="M62.1738 20.0776L80.9384 32.1438V68.0645" stroke="#081017" stroke-width="0.273403" stroke-miterlimit="10"/>
<path d="M60.4058 48.5254V51.0726V70.5526" stroke="#081017" stroke-width="0.273403" stroke-miterlimit="10"/>
<path d="M62.0644 70.3887V51.5649L60.4058 51.0728" stroke="#081017" stroke-width="0.273403" stroke-miterlimit="10"/>
<path d="M62.1738 27.6055L81.1025 37.5665" stroke="#081017" stroke-width="0.273403" stroke-miterlimit="10"/>
<path d="M62.1095 47.5596L74.9732 50.3756V68.0785L75.3012 68.2881V71.4277L59.0018 73.7972L34.6826 72.9588V69.8192L59.0383 70.6622L62.6108 70.4434V69.4546L75.3741 68.3975" stroke="#081017" stroke-width="0.273403" stroke-miterlimit="10"/>
<path d="M62.1875 29.8975L74.9053 36.0764V48.9719L62.2786 45.9417" stroke="#081017" stroke-width="0.273403" stroke-miterlimit="10"/>
<path d="M80.9162 51.8106L75.6304 50.5347V68.233L81.0164 67.8639" stroke="#081017" stroke-width="0.273403" stroke-miterlimit="10"/>
<path d="M75.6797 69.3178V71.4094H82.2733L85.5495 70.7897V70.3066H80.528V68.9761L75.6797 69.3178Z" stroke="#081017" stroke-width="0.273403" stroke-miterlimit="10"/>
<path d="M33.7083 30.4487L13.6997 32.6633V48.1106" stroke="#081017" stroke-width="0.273403" stroke-miterlimit="10"/>
<path d="M10.1904 48.2429L33.6257 47.2769" stroke="#081017" stroke-width="0.273403" stroke-miterlimit="10"/>
<path d="M33.4934 45.2989L23.7056 45.9596L23.7921 35.0736L30.732 34.4904L33.6666 34.2397" stroke="#081017" stroke-width="0.273403" stroke-miterlimit="10"/>
<path d="M30.7461 45.3492V34.5361" stroke="#081017" stroke-width="0.273403" stroke-miterlimit="10"/>
<path d="M23.752 42.5147L33.7038 41.6899" stroke="#081017" stroke-width="0.273403" stroke-miterlimit="10"/>
<path d="M27.2471 34.855V42.1047" stroke="#081017" stroke-width="0.273403" stroke-miterlimit="10"/>
<path d="M13.6994 32.6633L10.0996 31.9707L33.6898 29.2686" stroke="#081017" stroke-width="0.273403" stroke-linejoin="round"/>
<path d="M57.4214 51.6968L38.8801 52.3438L38.1602 51.6694" stroke="#081017" stroke-width="0.273403" stroke-linejoin="round"/>
<path d="M57.4893 50.9312V70.6299" stroke="#081017" stroke-width="0.273403" stroke-miterlimit="10"/>
<path d="M44.1699 69.1898V55.4239L56.2544 55.146L56.4959 69.3903L44.1699 69.1898Z" stroke="#081017" stroke-width="0.273403" stroke-miterlimit="10"/>
<path d="M50.5133 55.4468L50.4131 69.1488" stroke="#081017" stroke-width="0.273403" stroke-miterlimit="10"/>
<path d="M34.5371 70.5523L25.6333 70.493V53.9293L34.888 53.6377" stroke="#081017" stroke-width="0.273403" stroke-miterlimit="10"/>
<path d="M34.9566 54.1162L26.6133 54.4215V70.4019" stroke="#081017" stroke-width="0.273403" stroke-miterlimit="10"/>
<path d="M25.6333 53.9297L26.613 54.4218" stroke="#081017" stroke-width="0.273403" stroke-miterlimit="10"/>
<path d="M68.0747 55.9254V63.0567L65.2358 63.0521V55.5381L68.0747 55.9254Z" stroke="#081017" stroke-width="0.273403" stroke-miterlimit="10"/>
<path d="M67.583 63.0065V56.1851" stroke="#081017" stroke-width="0.273403" stroke-miterlimit="10"/>
<path d="M65.2358 55.9617L67.5917 56.2716L68.0747 55.9253" stroke="#081017" stroke-width="0.273403" stroke-miterlimit="10"/>
<path d="M66.4351 56.0303V62.9884" stroke="#081017" stroke-width="0.273403" stroke-miterlimit="10"/>
<path d="M37.0161 40.624V45.6319" stroke="#081017" stroke-width="0.273403" stroke-miterlimit="10"/>
<path d="M42.8032 40.3188V45.3267" stroke="#081017" stroke-width="0.273403" stroke-miterlimit="10"/>
<path d="M50.2993 39.7812V45.0215" stroke="#081017" stroke-width="0.273403" stroke-miterlimit="10"/>
<path d="M50.6411 32.5947V39.6485" stroke="#081017" stroke-width="0.273403" stroke-miterlimit="10"/>
<path d="M50.9873 39.667V44.9027" stroke="#081017" stroke-width="0.273403" stroke-miterlimit="10"/>
<path d="M45.0818 45.9554V33.7617L44.4165 33.2559" stroke="#081017" stroke-width="0.273403" stroke-miterlimit="10"/>
<path d="M56.6415 32.6133L45.0811 33.7616" stroke="#081017" stroke-width="0.273403" stroke-miterlimit="10"/>
<path d="M35.772 47.5731V46.4112L56.6418 45.4771" stroke="#081017" stroke-width="0.273403" stroke-miterlimit="10"/>
<path d="M33.7085 20.2873V49.0767L58.2191 48.0515V16.9746L33.7085 20.2873ZM56.6926 46.6981L34.9024 47.6186V29.0226L56.6926 26.8126V46.6981Z" fill="#F41BA2" stroke="#081017" stroke-width="0.273403" stroke-miterlimit="10"/>
<mask id="mask0_2827_16412" style="mask-type:luminance" maskUnits="userSpaceOnUse" x="2" y="42" width="7" height="18">
<path d="M6.89674 42.6748H4.34498C3.3031 42.6748 2.4585 43.5194 2.4585 44.5613V57.3475C2.4585 58.3893 3.3031 59.2339 4.34498 59.2339H6.89674C7.93862 59.2339 8.78323 58.3893 8.78323 57.3475V44.5613C8.78323 43.5194 7.93862 42.6748 6.89674 42.6748Z" fill="white"/>
</mask>
<g mask="url(#mask0_2827_16412)">
<path d="M5.71349 39.0873L-15.3203 60.1211L5.71349 81.1549L26.7473 60.1211L5.71349 39.0873Z" fill="white" stroke="#F6B4DD" stroke-width="0.273403" stroke-miterlimit="10"/>
<path d="M5.71003 41.6166L-12.7944 60.1211L5.71002 78.6256L24.2145 60.1211L5.71003 41.6166Z" fill="white" stroke="#F6B4DD" stroke-width="0.273403" stroke-miterlimit="10"/>
<path d="M5.7132 44.1398L-10.2651 60.1182L5.7132 76.0965L21.6915 60.1182L5.7132 44.1398Z" fill="white" stroke="#F6B4DD" stroke-width="0.273403" stroke-miterlimit="10"/>
<path d="M5.71072 46.6692L-7.73828 60.1182L5.71073 73.5672L19.1597 60.1182L5.71072 46.6692Z" fill="white" stroke="#F6B4DD" stroke-width="0.273403" stroke-miterlimit="10"/>
<path d="M5.71048 49.1953L-5.2124 60.1182L5.71048 71.041L16.6334 60.1182L5.71048 49.1953Z" fill="white" stroke="#F6B4DD" stroke-width="0.273403" stroke-miterlimit="10"/>
<path d="M5.71073 51.7214L-2.68604 60.1182L5.71073 68.5149L14.1075 60.1182L5.71073 51.7214Z" fill="white" stroke="#F6B4DD" stroke-width="0.273403" stroke-miterlimit="10"/>
<path d="M5.71069 54.2537L-0.156738 60.1211L5.71068 65.9885L11.5781 60.1211L5.71069 54.2537Z" fill="white" stroke="#F6B4DD" stroke-width="0.273403" stroke-miterlimit="10"/>
<path d="M5.71045 56.7798L2.36914 60.1211L5.71045 63.4624L9.05175 60.1211L5.71045 56.7798Z" fill="white" stroke="#F6B4DD" stroke-width="0.273403" stroke-miterlimit="10"/>
<path d="M5.71363 59.303L4.89844 60.1182L5.71363 60.9334L6.52881 60.1182L5.71363 59.303Z" fill="white" stroke="#F6B4DD" stroke-width="0.273403" stroke-miterlimit="10"/>
</g>
<g style="mix-blend-mode:multiply">
<path d="M5.77979 42.5381V72.2388" stroke="#E6E6E6" stroke-width="1.18475" stroke-miterlimit="10"/>
</g>
<g style="mix-blend-mode:multiply">
<path d="M44.4123 40.0636L42.3253 40.1593L42.2798 31.9937L44.4351 33.2695L44.4123 40.0636Z" fill="#E6E6E6"/>
</g>
<g style="mix-blend-mode:multiply">
<path d="M45.0818 45.9465H44.4985V33.3062L45.0818 33.7436V45.9465Z" fill="#E6E6E6"/>
</g>
<g style="mix-blend-mode:multiply">
<path d="M38.8528 69.3725L38.2012 69.7644V51.8564L38.789 52.2939L38.8528 69.3725Z" fill="#E6E6E6"/>
</g>
<g style="mix-blend-mode:multiply">
<path d="M26.6734 70.4891L25.6755 70.4709L25.6436 53.9209L26.6825 54.4723L26.6734 70.4891Z" fill="#E6E6E6"/>
</g>
<g style="mix-blend-mode:multiply">
<path d="M24.4495 45.8416H23.8662V35.0649L24.4495 35.5024V45.8416Z" fill="#E6E6E6"/>
</g>
<path d="M24.4492 45.8415V35.5023L33.672 34.7368" stroke="#081017" stroke-width="0.273403" stroke-miterlimit="10"/>
<g style="mix-blend-mode:multiply">
<path d="M62.2511 19.3942L58.2549 16.9062V47.9922L62.1053 49.0676L62.2511 19.3942Z" fill="#E6E6E6"/>
</g>
<g style="mix-blend-mode:multiply">
<path d="M62.3062 45.7915L74.8417 48.9584V35.99L62.3927 30.0435L62.3062 45.7915Z" fill="#E6E6E6"/>
</g>
<path d="M81.7134 61.8311V73.961" stroke="#E6E6E6" stroke-width="1.18475" stroke-miterlimit="10"/>
<mask id="mask1_2827_16412" style="mask-type:luminance" maskUnits="userSpaceOnUse" x="71" y="40" width="21" height="22">
<path d="M81.6408 61.0292C87.2503 61.0292 91.7978 56.4818 91.7978 50.8723C91.7978 45.2628 87.2503 40.7153 81.6408 40.7153C76.0313 40.7153 71.4839 45.2628 71.4839 50.8723C71.4839 56.4818 76.0313 61.0292 81.6408 61.0292Z" fill="white"/>
</mask>
<g mask="url(#mask1_2827_16412)">
<path d="M85.965 70.1333C97.6269 70.1333 107.081 61.6852 107.081 51.2639C107.081 40.8426 97.6269 32.3945 85.965 32.3945C74.303 32.3945 64.8491 40.8426 64.8491 51.2639C64.8491 61.6852 74.303 70.1333 85.965 70.1333Z" fill="white" stroke="#29ABE2" stroke-width="0.273403" stroke-miterlimit="10"/>
<path d="M81.6421 35.8095L56.4229 61.0288L81.6421 86.2481L106.861 61.0288L81.6421 35.8095Z" stroke="#F6B4DD" stroke-width="0.273403" stroke-miterlimit="10"/>
<path d="M81.6423 38.5032L59.1167 61.0288L81.6423 83.5544L104.168 61.0288L81.6423 38.5032Z" stroke="#F6B4DD" stroke-width="0.273403" stroke-miterlimit="10"/>
<path d="M81.642 41.1968L61.8101 61.0288L81.642 80.8608L101.474 61.0288L81.642 41.1968Z" stroke="#F6B4DD" stroke-width="0.273403" stroke-miterlimit="10"/>
<path d="M81.6422 43.8905L64.5039 61.0288L81.6422 78.1671L98.7805 61.0288L81.6422 43.8905Z" stroke="#F6B4DD" stroke-width="0.273403" stroke-miterlimit="10"/>
<path d="M81.6424 46.5842L67.1978 61.0288L81.6424 75.4734L96.087 61.0288L81.6424 46.5842Z" stroke="#F6B4DD" stroke-width="0.273403" stroke-miterlimit="10"/>
<path d="M81.6421 49.2778L69.8911 61.0288L81.6421 72.7798L93.393 61.0288L81.6421 49.2778Z" stroke="#F6B4DD" stroke-width="0.273403" stroke-miterlimit="10"/>
<path d="M81.6418 51.9715L72.5845 61.0288L81.6418 70.0861L90.6991 61.0288L81.6418 51.9715Z" stroke="#F6B4DD" stroke-width="0.273403" stroke-miterlimit="10"/>
<path d="M81.6415 54.6652L75.2778 61.0288L81.6415 67.3924L88.0051 61.0288L81.6415 54.6652Z" stroke="#F6B4DD" stroke-width="0.273403" stroke-miterlimit="10"/>
<path d="M81.6416 57.3588L77.9717 61.0288L81.6416 64.6988L85.3116 61.0288L81.6416 57.3588Z" stroke="#F6B4DD" stroke-width="0.273403" stroke-miterlimit="10"/>
<path d="M81.6423 60.0525L80.666 61.0288L81.6423 62.0051L82.6186 61.0288L81.6423 60.0525Z" stroke="#F6B4DD" stroke-width="0.273403" stroke-miterlimit="10"/>
</g>
<g style="mix-blend-mode:multiply">
<path d="M62.1194 51.5966L60.4106 51.0771V70.6437H62.1194V51.5966Z" fill="#E6E6E6"/>
</g>
<g style="mix-blend-mode:multiply">
<path d="M34.5515 53.5376L35.0209 53.5559L35.03 48.9946L33.7085 49.0766L33.6265 48.7212L10.41 49.833L10.4009 71.482L34.711 71.4547L34.7201 70.5342L25.634 70.4932L25.6431 54.0662L26.1671 53.8748L34.5515 53.5376Z" fill="#E6E6E6"/>
</g>
</svg>
