<svg width="89" height="61" viewBox="0 0 89 61" fill="none" xmlns="http://www.w3.org/2000/svg">
<path d="M35.6138 13.5478V26.1523C35.6138 31.2262 44.8198 35.3401 44.8198 35.3401C44.8198 35.3401 54.0259 31.2262 54.0259 26.1523V13.5478L44.8198 10.5947L35.6138 13.5478Z" fill="#E6E6E6" stroke="#E6E6E6" stroke-width="0.186165" stroke-linecap="round" stroke-linejoin="round"/>
<path d="M37.1686 24.8202L37.4022 25.6817L37.5008 26.1015L37.6103 26.5432L36.8949 26.3716L36.0954 25.6817L35.8618 24.7326L35.9129 22.1847C35.9129 22.1847 36.4933 19.8339 39.2018 19.2791C41.0014 19.1075 42.896 20.2136 43.2792 22.2979C43.3668 22.8637 43.2902 23.5426 43.2902 23.4696C43.2902 23.3966 43.2026 23.1484 42.7353 22.9659C42.2681 22.7834 40.494 22.0168 40.6182 22.5352C40.6437 22.9184 40.3736 22.9549 39.7311 22.8929C39.0887 22.8308 38.3623 22.2395 38.3623 22.2395C38.3623 22.2395 38.2382 23.5207 37.3037 23.5463C36.873 23.4477 36.4897 23.842 36.5152 24.1851C36.5408 24.5282 36.9715 24.8495 37.1686 24.8239V24.8202Z" fill="white"/>
<path d="M28.3311 6.09763V28.6711C28.3311 37.7567 44.8195 45.123 44.8195 45.123C44.8195 45.123 61.3079 37.7567 61.3079 28.6711V6.09763L44.8195 0.804688L28.3311 6.09763Z" stroke="#E10098" stroke-width="1.09509" stroke-miterlimit="10"/>
<path d="M52.5329 19.4541L52.9965 20.8485C52.9965 20.8485 52.9052 22.0787 51.9525 22.1736C50.9998 22.2685 49.8609 22.8708 50.047 20.6404C51.5327 20.4068 52.5329 19.4541 52.5329 19.4541Z" fill="white"/>
<path d="M32.0582 32.0148L29.9812 34.2706L28.543 34.1976L28.0977 31.7665L29.1818 30.3283L30.2659 30.3101L31.2406 30.54L32.0582 32.0148Z" fill="white"/>
<path d="M46.8747 30.613L46.8163 29.9888L45.4657 29.3536L44.721 29.2441L44.064 30.9853L44.648 31.0547L46.8747 30.613Z" fill="white"/>
<path d="M39.8587 41.5533L39.4243 41.681L40.3332 44.7327L42.6585 44.8604L41.9503 41.1152L39.8587 41.5533Z" fill="white"/>
<path d="M38.2198 26.5869L37.5043 28.2806L36.9604 29.018L39.1981 30.4745L40.3917 30.0401L40.5231 27.3462L38.2928 26.6125L38.2198 26.5869Z" fill="white"/>
<path d="M60.5926 14.979L61.0051 15.8295L61.2934 16.9429L61.9395 17.359H62.2754L62.1732 21.3524H59.9282L60.5926 14.979Z" fill="white"/>
<path d="M60.516 26.8423L62.2754 27.8644L60.4795 28.6017L60.516 26.8423Z" fill="white"/>
<path d="M54.4346 37.9133L55.7961 39.2712L56.8109 36.2779L56.4386 36.0078L54.4346 37.9133Z" fill="white"/>
<path d="M38.5049 40.6332L38.7276 41.8232L39.6401 41.6991L39.5416 40.0894L38.5049 40.6332Z" fill="white"/>
<path d="M30.0213 14.7851L27.4405 14.1025L26.1118 15.3947L26.4367 30.7698L27.7618 33.1717L28.1195 33.4601L29.0868 32.3468L29.3022 30.591L29.2328 29.5178V27.543L30.0213 14.7851Z" fill="white"/>
<path d="M68.9917 39.9395C68.9917 39.9395 73.4743 42.7721 73.9379 44.0095C74.4014 45.247 74.0912 47.0502 73.4232 47.4627C72.7552 47.8752 73.164 48.9082 70.4482 48.7914C69.8605 48.7659 72.1857 45.6084 72.1857 44.8856C72.1857 44.1629 68.9917 39.9395 68.9917 39.9395Z" fill="#E6E6E6"/>
<path d="M32.0438 20.301L31.6058 22.3087C31.2152 24.0864 29.4667 25.2983 27.6927 24.8821C25.7544 24.4295 24.5315 22.4985 24.9586 20.5456L24.86 20.5237C24.4658 20.436 24.2176 20.0491 24.3052 19.6585C24.3928 19.2643 24.7797 19.0161 25.1703 19.1037L25.3419 19.1402C25.3419 19.1402 25.8456 18.9139 26.0756 18.4028C26.6341 18.7569 29.2951 19.779 31.3503 19.6403" fill="white"/>
<path d="M32.0438 20.301L31.6058 22.3087C31.2152 24.0864 29.4667 25.2983 27.6927 24.8821C25.7544 24.4295 24.5315 22.4985 24.9586 20.5456L24.86 20.5237C24.4658 20.436 24.2176 20.0491 24.3052 19.6585C24.3928 19.2643 24.7797 19.0161 25.1703 19.1037L25.3419 19.1402C25.3419 19.1402 25.8456 18.9139 26.0756 18.4028C26.6341 18.7569 29.2951 19.779 31.3503 19.6403" stroke="#081017" stroke-width="0.248221" stroke-linecap="round" stroke-linejoin="round"/>
<path d="M53.438 37.2092C53.438 37.2092 56.8656 33.2341 57.2818 32.1426C57.6979 31.0512 57.2818 30.1167 57.2818 30.1167L56.8693 30.3613C56.8693 30.3613 53.6972 36.5266 53.438 37.2092Z" fill="#E6E6E6"/>
<path d="M79.2056 25.4038V34.5734" stroke="#E6E6E6" stroke-width="0.949078" stroke-miterlimit="10"/>
<path d="M79.2894 26.0499C83.4061 26.0499 86.7433 22.7127 86.7433 18.596C86.7433 14.4793 83.4061 11.1421 79.2894 11.1421C75.1727 11.1421 71.8354 14.4793 71.8354 18.596C71.8354 22.7127 75.1727 26.0499 79.2894 26.0499Z" fill="white" stroke="white" stroke-width="1.56963" stroke-miterlimit="10"/>
<mask id="mask0_2827_9152" style="mask-type:luminance" maskUnits="userSpaceOnUse" x="71" y="11" width="16" height="16">
<path d="M79.2862 26.0538C83.4049 26.0538 86.7438 22.7149 86.7438 18.5962C86.7438 14.4775 83.4049 11.1387 79.2862 11.1387C75.1675 11.1387 71.8286 14.4775 71.8286 18.5962C71.8286 22.7149 75.1675 26.0538 79.2862 26.0538Z" fill="white"/>
</mask>
<g mask="url(#mask0_2827_9152)">
<path d="M79.2812 8.81405L62.0391 26.0562L79.2812 43.2983L96.5233 26.0562L79.2812 8.81405Z" stroke="#E6E6E6" stroke-width="0.219018" stroke-miterlimit="10"/>
<path d="M79.2842 10.3189L63.5469 26.0562L79.2842 41.7934L95.0215 26.0562L79.2842 10.3189Z" stroke="#E6E6E6" stroke-width="0.219018" stroke-miterlimit="10"/>
<path d="M79.2836 11.8263L65.0537 26.0562L79.2836 40.286L93.5135 26.0562L79.2836 11.8263Z" stroke="#E6E6E6" stroke-width="0.219018" stroke-miterlimit="10"/>
<path d="M79.284 13.3336L66.5615 26.0562L79.284 38.7787L92.0065 26.0562L79.284 13.3336Z" stroke="#E6E6E6" stroke-width="0.219018" stroke-miterlimit="10"/>
<path d="M79.2815 14.8381L68.0664 26.0532L79.2815 37.2683L90.4966 26.0532L79.2815 14.8381Z" stroke="#E6E6E6" stroke-width="0.219018" stroke-miterlimit="10"/>
<path d="M79.2814 16.3455L69.5737 26.0532L79.2814 35.7609L88.9892 26.0532L79.2814 16.3455Z" stroke="#E6E6E6" stroke-width="0.219018" stroke-miterlimit="10"/>
<path d="M79.284 17.8503L71.0811 26.0532L79.284 34.2561L87.4869 26.0532L79.284 17.8503Z" stroke="#E6E6E6" stroke-width="0.219018" stroke-miterlimit="10"/>
<path d="M79.2839 19.3577L72.5884 26.0532L79.2839 32.7487L85.9794 26.0532L79.2839 19.3577Z" stroke="#E6E6E6" stroke-width="0.219018" stroke-miterlimit="10"/>
<path d="M79.2838 20.8651L74.0957 26.0532L79.2838 31.2413L84.4719 26.0532L79.2838 20.8651Z" stroke="#E6E6E6" stroke-width="0.219018" stroke-miterlimit="10"/>
<path d="M79.2838 22.3725L75.603 26.0532L79.2838 29.7339L82.9645 26.0532L79.2838 22.3725Z" stroke="#E6E6E6" stroke-width="0.219018" stroke-miterlimit="10"/>
<path d="M79.2812 23.8828L77.1079 26.0562L79.2812 28.2295L81.4546 26.0562L79.2812 23.8828Z" stroke="#E6E6E6" stroke-width="0.219018" stroke-miterlimit="10"/>
<path d="M79.2842 25.3876L78.6157 26.0562L79.2842 26.7247L79.9528 26.0562L79.2842 25.3876Z" stroke="#E6E6E6" stroke-width="0.219018" stroke-miterlimit="10"/>
</g>
<path d="M83.3558 29.2623C84.8073 29.2623 85.984 28.0856 85.984 26.6341C85.984 25.1826 84.8073 24.0059 83.3558 24.0059C81.9042 24.0059 80.7275 25.1826 80.7275 26.6341C80.7275 28.0856 81.9042 29.2623 83.3558 29.2623Z" fill="white" stroke="white" stroke-width="1.56963" stroke-miterlimit="10"/>
<mask id="mask1_2827_9152" style="mask-type:luminance" maskUnits="userSpaceOnUse" x="80" y="24" width="6" height="6">
<path d="M83.3558 29.2623C84.8073 29.2623 85.984 28.0856 85.984 26.6341C85.984 25.1826 84.8073 24.0059 83.3558 24.0059C81.9042 24.0059 80.7275 25.1826 80.7275 26.6341C80.7275 28.0856 81.9042 29.2623 83.3558 29.2623Z" fill="white"/>
</mask>
<g mask="url(#mask1_2827_9152)">
<path d="M83.3595 23.1849L77.2783 29.2661L83.3595 35.3473L89.4407 29.2661L83.3595 23.1849Z" stroke="#F6B4DD" stroke-width="0.219018" stroke-miterlimit="10"/>
<path d="M83.3541 24.1606L78.2485 29.2661L83.3541 34.3716L88.4596 29.2661L83.3541 24.1606Z" stroke="#F6B4DD" stroke-width="0.219018" stroke-miterlimit="10"/>
<path d="M83.3565 25.1337L79.2241 29.2661L83.3565 33.3985L87.489 29.2661L83.3565 25.1337Z" stroke="#F6B4DD" stroke-width="0.219018" stroke-miterlimit="10"/>
<path d="M83.3569 26.1094L80.2002 29.2661L83.3569 32.4229L86.5137 29.2661L83.3569 26.1094Z" stroke="#F6B4DD" stroke-width="0.219018" stroke-miterlimit="10"/>
<path d="M83.357 27.0844L81.1733 29.2681L83.357 31.4517L85.5407 29.2681L83.357 27.0844Z" stroke="#F6B4DD" stroke-width="0.219018" stroke-miterlimit="10"/>
<path d="M83.357 28.0556L82.1465 29.2661L83.357 30.4767L84.5676 29.2661L83.357 28.0556Z" stroke="#F6B4DD" stroke-width="0.219018" stroke-miterlimit="10"/>
<path d="M83.357 29.0312L83.1221 29.2661L83.357 29.501L83.5918 29.2661L83.357 29.0312Z" stroke="#F6B4DD" stroke-width="0.219018" stroke-miterlimit="10"/>
</g>
<path d="M7.80225 25.2764V33.3837" stroke="#E6E6E6" stroke-width="0.949078" stroke-miterlimit="10"/>
<mask id="mask2_2827_9152" style="mask-type:luminance" maskUnits="userSpaceOnUse" x="0" y="11" width="15" height="14">
<path d="M7.75076 24.7432C11.4985 24.7432 14.5367 21.7051 14.5367 17.9573C14.5367 14.2095 11.4985 11.1714 7.75076 11.1714C4.003 11.1714 0.964844 14.2095 0.964844 17.9573C0.964844 21.7051 4.003 24.7432 7.75076 24.7432Z" fill="white"/>
</mask>
<g mask="url(#mask2_2827_9152)">
<path d="M7.75553 7.89144L-9.09424 24.7412L7.75553 41.591L24.6053 24.7412L7.75553 7.89144Z" stroke="#F6B4DD" stroke-width="0.219018" stroke-miterlimit="10"/>
<path d="M7.75276 9.91765L-7.0708 24.7412L7.75276 39.5648L22.5763 24.7412L7.75276 9.91765Z" stroke="#F6B4DD" stroke-width="0.219018" stroke-miterlimit="10"/>
<path d="M7.75258 11.9413L-5.04736 24.7412L7.75258 37.5412L20.5525 24.7412L7.75258 11.9413Z" stroke="#F6B4DD" stroke-width="0.219018" stroke-miterlimit="10"/>
<path d="M7.7503 13.9675L-3.02344 24.7412L7.7503 35.5149L18.524 24.7412L7.7503 13.9675Z" stroke="#F6B4DD" stroke-width="0.219018" stroke-miterlimit="10"/>
<path d="M7.75011 15.9911L-1 24.7412L7.75011 33.4913L16.5002 24.7412L7.75011 15.9911Z" stroke="#F6B4DD" stroke-width="0.219018" stroke-miterlimit="10"/>
<path d="M7.75529 18.0147L1.02881 24.7412L7.75529 31.4677L14.4818 24.7412L7.75529 18.0147Z" stroke="#F6B4DD" stroke-width="0.219018" stroke-miterlimit="10"/>
<path d="M7.75253 20.0409L3.05225 24.7412L7.75252 29.4415L12.4528 24.7412L7.75253 20.0409Z" stroke="#F6B4DD" stroke-width="0.219018" stroke-miterlimit="10"/>
<path d="M7.75283 22.0646L5.07617 24.7412L7.75283 27.4179L10.4295 24.7412L7.75283 22.0646Z" stroke="#F6B4DD" stroke-width="0.219018" stroke-miterlimit="10"/>
<path d="M7.75264 24.0882L7.09961 24.7412L7.75264 25.3942L8.40567 24.7412L7.75264 24.0882Z" stroke="#F6B4DD" stroke-width="0.219018" stroke-miterlimit="10"/>
</g>
<path d="M16.7124 25.981V34.0372" stroke="#E6E6E6" stroke-width="0.949078" stroke-miterlimit="10"/>
<path d="M17.1361 25.8528C19.4908 25.8528 21.3997 23.9439 21.3997 21.5892C21.3997 19.2345 19.4908 17.3257 17.1361 17.3257C14.7814 17.3257 12.8726 19.2345 12.8726 21.5892C12.8726 23.9439 14.7814 25.8528 17.1361 25.8528Z" fill="white" stroke="white" stroke-width="1.56963" stroke-miterlimit="10"/>
<mask id="mask3_2827_9152" style="mask-type:luminance" maskUnits="userSpaceOnUse" x="12" y="17" width="10" height="9">
<path d="M17.1319 25.8567C19.4887 25.8567 21.3992 23.9462 21.3992 21.5895C21.3992 19.2328 19.4887 17.3223 17.1319 17.3223C14.7752 17.3223 12.8647 19.2328 12.8647 21.5895C12.8647 23.9462 14.7752 25.8567 17.1319 25.8567Z" fill="white"/>
</mask>
<g mask="url(#mask3_2827_9152)">
<path d="M17.1311 15.9924L7.26855 25.855L17.1311 35.7176L26.9937 25.855L17.1311 15.9924Z" stroke="#E6E6E6" stroke-width="0.219018" stroke-miterlimit="10"/>
<path d="M17.1306 17.5721L8.84766 25.855L17.1306 34.1379L25.4135 25.855L17.1306 17.5721Z" stroke="#E6E6E6" stroke-width="0.219018" stroke-miterlimit="10"/>
<path d="M17.1334 19.1493L10.4302 25.8525L17.1334 32.5558L23.8367 25.8525L17.1334 19.1493Z" stroke="#E6E6E6" stroke-width="0.219018" stroke-miterlimit="10"/>
<path d="M17.1334 20.729L12.0098 25.8525L17.1334 30.9761L22.2569 25.8525L17.1334 20.729Z" stroke="#E6E6E6" stroke-width="0.219018" stroke-miterlimit="10"/>
<path d="M17.1307 22.3112L13.5894 25.8525L17.1307 29.3939L20.672 25.8525L17.1307 22.3112Z" stroke="#E6E6E6" stroke-width="0.219018" stroke-miterlimit="10"/>
<path d="M17.1311 23.8909L15.1694 25.8525L17.1311 27.8142L19.0928 25.8525L17.1311 23.8909Z" stroke="#E6E6E6" stroke-width="0.219018" stroke-miterlimit="10"/>
<path d="M17.1315 25.4705L16.7495 25.8525L17.1315 26.2345L17.5135 25.8525L17.1315 25.4705Z" stroke="#E6E6E6" stroke-width="0.219018" stroke-miterlimit="10"/>
</g>
<path d="M12.0838 17.8878C13.5353 17.8878 14.712 16.7111 14.712 15.2596C14.712 13.808 13.5353 12.6313 12.0838 12.6313C10.6323 12.6313 9.45557 13.808 9.45557 15.2596C9.45557 16.7111 10.6323 17.8878 12.0838 17.8878Z" fill="white" stroke="white" stroke-width="1.56963" stroke-miterlimit="10"/>
<mask id="mask4_2827_9152" style="mask-type:luminance" maskUnits="userSpaceOnUse" x="9" y="12" width="6" height="6">
<path d="M12.0838 17.8878C13.5353 17.8878 14.712 16.7111 14.712 15.2596C14.712 13.808 13.5353 12.6313 12.0838 12.6313C10.6323 12.6313 9.45557 13.808 9.45557 15.2596C9.45557 16.7111 10.6323 17.8878 12.0838 17.8878Z" fill="white"/>
</mask>
<g mask="url(#mask4_2827_9152)">
<path d="M12.0885 11.8099L6.00732 17.8911L12.0885 23.9723L18.1697 17.8911L12.0885 11.8099Z" stroke="#F6B4DD" stroke-width="0.219018" stroke-miterlimit="10"/>
<path d="M12.0835 12.7856L6.97803 17.8911L12.0835 22.9966L17.1891 17.8911L12.0835 12.7856Z" stroke="#F6B4DD" stroke-width="0.219018" stroke-miterlimit="10"/>
<path d="M12.0865 13.7587L7.9541 17.8911L12.0865 22.0235L16.219 17.8911L12.0865 13.7587Z" stroke="#F6B4DD" stroke-width="0.219018" stroke-miterlimit="10"/>
<path d="M12.0864 14.7344L8.92969 17.8911L12.0864 21.0479L15.2432 17.8911L12.0864 14.7344Z" stroke="#F6B4DD" stroke-width="0.219018" stroke-miterlimit="10"/>
<path d="M12.0836 15.7075L9.8999 17.8911L12.0836 20.0748L14.2672 17.8911L12.0836 15.7075Z" stroke="#F6B4DD" stroke-width="0.219018" stroke-miterlimit="10"/>
<path d="M12.086 16.6806L10.8755 17.8911L12.086 19.1017L13.2966 17.8911L12.086 16.6806Z" stroke="#F6B4DD" stroke-width="0.219018" stroke-miterlimit="10"/>
<path d="M12.086 17.6562L11.8511 17.8911L12.086 18.126L12.3208 17.8911L12.086 17.6562Z" stroke="#F6B4DD" stroke-width="0.219018" stroke-miterlimit="10"/>
</g>
<path d="M11.7336 47.8133C11.7336 47.8133 11.6825 47.3497 12.1716 46.7328C12.6608 46.1159 13.8471 45.1084 13.8471 45.1084C13.8471 45.1084 15.3401 43.9476 15.2634 43.9476C15.1868 43.9476 14.8765 43.7505 14.8765 43.7505C14.8765 43.7505 12.9565 45.3019 12.6681 45.5282C12.3797 45.7545 11.7081 46.3714 11.5036 46.7583C11.2992 47.1453 11.3978 47.9264 11.3978 47.9264L11.7373 47.8169L11.7336 47.8133Z" fill="#E10098"/>
<path d="M42.8452 22.9802C41.4982 22.3998 40.4324 22.1151 40.6039 22.6042C40.7755 23.0933 39.5015 23.1517 38.3736 22.21C38.2312 23.4803 37.2931 23.5131 37.2931 23.5131H37.1398C36.7857 23.5131 36.501 23.7978 36.501 24.1519C36.501 24.506 36.7857 24.7907 37.1398 24.7907H37.2274C37.2274 26.5465 38.6364 27.9738 40.3886 27.9993C41.9874 28.0212 43.265 26.656 43.265 25.0535V23.2466" fill="white"/>
<path d="M42.8452 22.9802C41.4982 22.3998 40.4324 22.1151 40.6039 22.6042C40.7755 23.0933 39.5015 23.1517 38.3736 22.21C38.2312 23.4803 37.2931 23.5131 37.2931 23.5131H37.1398C36.7857 23.5131 36.501 23.7978 36.501 24.1519C36.501 24.506 36.7857 24.7907 37.1398 24.7907H37.2274C37.2274 26.5465 38.6364 27.9738 40.3886 27.9993C41.9874 28.0212 43.265 26.656 43.265 25.0535V23.2466" stroke="#081017" stroke-width="0.219018" stroke-linecap="round" stroke-linejoin="round"/>
<path d="M67.9551 47.558C67.9551 47.558 69.3458 48.3574 70.868 49.9818C71.3134 50.4563 72.4157 52.3764 72.4157 52.3764L72.4669 52.5808C72.4669 52.5808 72.872 52.2523 72.5545 51.7084C72.2369 51.1645 70.7147 49.3357 70.7147 49.3357C70.7147 49.3357 69.7109 47.7879 69.375 47.6602C69.0392 47.5324 68.3457 47.401 68.2143 47.4266C68.0828 47.4521 67.9551 47.5543 67.9551 47.5543V47.558Z" fill="#E10098"/>
<path d="M57.1323 53.4823C57.1323 53.4823 57.6726 54.0408 58.472 54.0225C59.7094 53.997 63.0093 53.2998 63.4948 53.0954C64.2942 52.7595 64.8089 52.3763 64.8089 52.3763L64.7323 51.7812C64.7323 51.7812 61.7682 53.5589 57.1323 53.4823Z" fill="#E10098"/>
<path d="M64.9146 26.1779L65.0168 25.9042L67.4223 24.3564C67.4223 24.3564 67.3201 25.2143 67.3895 25.6267C67.4588 26.0392 67.9407 26.9336 67.9407 26.9336C67.9407 26.9336 67.7691 27.5176 67.2544 28.0688C66.7397 28.62 64.9511 26.5211 64.9182 26.1779H64.9146Z" fill="white"/>
<path d="M72.3027 35.6611H84.4984" stroke="#081017" stroke-width="0.219018" stroke-linecap="round" stroke-linejoin="round"/>
<path d="M76.4971 37.3696H88.6927" stroke="#081017" stroke-width="0.219018" stroke-linecap="round" stroke-linejoin="round"/>
<path d="M3.78662 35.6611H20.0305" stroke="#081017" stroke-width="0.219018" stroke-linecap="round" stroke-linejoin="round"/>
<path d="M9.375 37.3696H25.6152" stroke="#081017" stroke-width="0.219018" stroke-linecap="round" stroke-linejoin="round"/>
<path d="M58.8843 24.3311L61.9323 26.7403L62.0418 30.9892L58.8441 36.6727L57.3037 35.282L58.8843 24.3311Z" fill="white"/>
<path d="M60.7682 49.8721C60.7682 49.8721 60.2425 50.8467 59.3847 51.4052C58.5269 51.9637 56.95 52.7521 57.0266 53.088C57.1033 53.4238 57.1033 54.0626 58.8627 54.0224C60.6222 53.9823 62.7174 53.4238 63.7286 53.0478C64.7397 52.6718 64.8127 52.3725 64.8127 52.3725L64.7762 50.0509C64.7762 50.0509 62.0421 50.4269 60.7718 49.8647L60.7682 49.8721Z" stroke="#081017" stroke-width="0.219018" stroke-linecap="round" stroke-linejoin="round"/>
<path d="M67.1702 42.1954L65.2246 50.0582C65.2246 50.0582 61.7824 50.321 60.3223 49.6092C60.6581 47.8862 62.1328 39.5088 62.1328 39.5088" stroke="#081017" stroke-width="0.219018" stroke-linecap="round" stroke-linejoin="round"/>
<path d="M66.1958 46.3528L67.5428 47.6633L68.2108 47.4297C68.6561 47.3822 69.1014 47.5319 69.4263 47.8385L70.463 48.7876C70.463 48.7876 72.2225 49.2366 73.1204 47.9626C74.0184 46.6887 74.8799 45.119 73.7191 43.6589C72.5583 42.1988 69.0759 39.8042 69.0759 39.8042L68.2509 39.4282" stroke="#081017" stroke-width="0.219018" stroke-linecap="round" stroke-linejoin="round"/>
<path d="M69.7151 32.128L71.5512 36.0959L76.2308 34.2999L74.2086 29.9561C74.2086 29.9561 71.7373 26.8131 67.9958 27.0723C67.8461 27.9338 66.9481 29.8794 65.561 30.0291C64.9989 30.1057 63.4256 30.1422 63.5387 28.0068C63.0898 27.8206 61.0675 27.8206 60.2462 29.0179C59.4249 30.2152 57.1763 34.5591 57.1763 34.5591L60.8813 36.5047L61.6661 35.5483L60.8813 31.7885L62.0786 37.5523" stroke="#081017" stroke-width="0.219018" stroke-linecap="round" stroke-linejoin="round"/>
<path d="M67.397 24.6411C67.397 24.6411 67.4736 25.0171 67.4736 25.6887C67.4736 26.3604 67.9993 27.0722 67.9993 27.0722" stroke="#081017" stroke-width="0.219018" stroke-linecap="round" stroke-linejoin="round"/>
<path d="M74.3213 41.5967L74.2593 44.6958" stroke="#081017" stroke-width="0.219018" stroke-linecap="round" stroke-linejoin="round"/>
<path d="M56.6685 44.0531L61.4869 43.1113" stroke="#081017" stroke-width="0.219018" stroke-linecap="round" stroke-linejoin="round"/>
<path d="M53.139 44.7104C53.139 44.7104 50.4488 45.6668 50.4962 47.4409C50.5364 48.8462 50.8832 49.5325 51.6716 49.945" fill="white"/>
<path d="M53.139 44.7104C53.139 44.7104 50.4488 45.6668 50.4962 47.4409C50.5364 48.8462 50.8832 49.5325 51.6716 49.945" stroke="#081017" stroke-width="0.219018" stroke-linecap="round" stroke-linejoin="round"/>
<path d="M53.8428 50.6206L59.9169 50.9199" stroke="#081017" stroke-width="0.219018" stroke-linecap="round" stroke-linejoin="round"/>
<path d="M56.2559 45.7651L60.9173 46.163" stroke="#081017" stroke-width="0.219018" stroke-linecap="round" stroke-linejoin="round"/>
<path d="M65.8599 47.9998C65.8599 47.9998 67.4332 47.7734 68.1048 47.4376C68.7035 47.2113 69.189 47.4376 69.7146 48.0728C70.1052 48.5473 71.2988 49.949 71.8902 50.6389C72.164 50.9602 72.3866 51.3179 72.5509 51.7085C72.6312 51.9019 72.6969 52.0954 72.7115 52.2305C72.748 52.6064 72.3355 52.9788 71.9632 52.9423C71.5909 52.9058 67.5828 50.4345 67.5828 50.4345L67.3967 51.2595H64.9619" stroke="#081017" stroke-width="0.219018" stroke-linecap="round" stroke-linejoin="round"/>
<path d="M66.8198 47.8755C66.8198 47.8755 67.4294 47.8499 67.5827 50.4344L66.8198 47.8755Z" fill="white"/>
<path d="M66.8198 47.8755C66.8198 47.8755 67.4294 47.8499 67.5827 50.4344" stroke="#081017" stroke-width="0.219018" stroke-linecap="round" stroke-linejoin="round"/>
<path d="M49.1637 45.1923L51.2992 39.3883L52.6096 36.8039L50.2515 35.3438C50.2515 35.3438 48.9776 37.888 48.7549 38.8261C48.5322 39.7643 47.9299 42.2684 47.9299 42.2684C47.9299 42.2684 45.236 41.9325 45.0462 42.0421C44.8564 42.1516 44.3709 42.6042 44.7469 43.0167C45.1228 43.4292 48.4519 45.2251 49.1637 45.1886V45.1923Z" fill="white" stroke="#081017" stroke-width="0.219018" stroke-linecap="round" stroke-linejoin="round"/>
<path d="M49.2365 44.7216C49.2365 44.7216 45.4985 42.4219 45.1591 42.3452L44.8232 42.2686" fill="white"/>
<path d="M49.2365 44.7216C49.2365 44.7216 45.4985 42.4219 45.1591 42.3452L44.8232 42.2686" stroke="#081017" stroke-width="0.219018" stroke-linecap="round" stroke-linejoin="round"/>
<path d="M49.7621 43.506C49.7621 43.506 49.346 42.3744 47.999 42.2612L49.7621 43.506Z" fill="white"/>
<path d="M49.7621 43.506C49.7621 43.506 49.346 42.3744 47.999 42.2612" stroke="#081017" stroke-width="0.219018" stroke-linecap="round" stroke-linejoin="round"/>
<path d="M52.4819 32.1498L49.9121 35.0481L53.5077 37.293C53.5077 37.293 53.6172 37.1507 53.796 36.9171C54.4604 36.0483 56.0957 33.9019 56.8039 32.9893C57.7019 31.8285 57.4792 30.8941 57.2894 29.9961C55.3438 31.6424 50.3647 31.2299 50.3647 31.2299L51.0802 33.504" stroke="#081017" stroke-width="0.219018" stroke-linecap="round" stroke-linejoin="round"/>
<path d="M44.6448 28.9632L47.9666 25.8385L46.2911 24.5317H45.8968L43.1372 28.2003L44.6448 28.9632Z" fill="white"/>
<path d="M54.0039 37.3517L56.6504 35.4974L56.2452 33.9277" fill="white"/>
<path d="M54.0039 37.3517L56.6504 35.4974L56.2452 33.9277" stroke="#081017" stroke-width="0.219018" stroke-linecap="round" stroke-linejoin="round"/>
<path d="M54.9679 24.4515L56.501 25.4627L58.4466 23.0681C58.4466 23.0681 55.603 20.261 53.0186 20.1113C53.1318 20.637 53.0989 21.7905 52.201 22.1263C51.303 22.4621 50.5109 22.3563 50.248 22.0569C49.9852 21.7576 50.0035 21.0604 50.0035 21.0604C50.0035 21.0604 48.7149 21.1772 48.0287 21.5751C47.3899 21.9474 46.094 23.6302 45.9443 24.2654C46.4298 24.791 47.9666 25.8387 47.9666 25.8387L48.8025 25.0794" fill="white"/>
<path d="M54.9679 24.4515L56.501 25.4627L58.4466 23.0681C58.4466 23.0681 55.603 20.261 53.0186 20.1113C53.1318 20.637 53.0989 21.7905 52.201 22.1263C51.303 22.4621 50.5109 22.3563 50.248 22.0569C49.9852 21.7576 50.0035 21.0604 50.0035 21.0604C50.0035 21.0604 48.7149 21.1772 48.0287 21.5751C47.3899 21.9474 46.094 23.6302 45.9443 24.2654C46.4298 24.791 47.9666 25.8387 47.9666 25.8387L48.8025 25.0794" stroke="#081017" stroke-width="0.219018" stroke-linecap="round" stroke-linejoin="round"/>
<path d="M47.9663 25.8384L44.6445 28.963" stroke="#081017" stroke-width="0.219018" stroke-linecap="round" stroke-linejoin="round"/>
<path d="M46.0206 24.4258L43.1733 28.0834" stroke="#081017" stroke-width="0.219018" stroke-linecap="round" stroke-linejoin="round"/>
<path d="M59.6945 24.9407L58.1395 23.5024L56.7305 25.3239L60.6545 28.5143" fill="white"/>
<path d="M59.6945 24.9407L58.1395 23.5024L56.7305 25.3239L60.6545 28.5143" stroke="#081017" stroke-width="0.219018" stroke-linecap="round" stroke-linejoin="round"/>
<path d="M42.465 31.3395H43.9251L44.7501 29.1676C44.7501 29.1676 44.6734 28.9814 44.0747 28.6055C43.4761 28.2295 41.8298 27.8206 41.8298 27.8206L40.669 28.1528C40.4062 28.9011 40.1032 29.1056 39.4316 29.1676C37.8984 29.2808 37.6539 27.7148 37.6539 27.7148C37.6539 27.7148 36.3982 26.9592 33.8539 29.5034L33.1421 30.2152C33.1421 30.2152 34.4891 31.6754 34.8249 32.3872C35.6864 31.9382 36.3215 31.303 36.3215 31.303" fill="white"/>
<path d="M42.465 31.3395H43.9251L44.7501 29.1676C44.7501 29.1676 44.6734 28.9814 44.0747 28.6055C43.4761 28.2295 41.8298 27.8206 41.8298 27.8206L40.669 28.1528C40.4062 28.9011 40.1032 29.1056 39.4316 29.1676C37.8984 29.2808 37.6539 27.7148 37.6539 27.7148C37.6539 27.7148 36.3982 26.9592 33.8539 29.5034L33.1421 30.2152C33.1421 30.2152 34.4891 31.6754 34.8249 32.3872C35.6864 31.9382 36.3215 31.303 36.3215 31.303" stroke="#081017" stroke-width="0.219018" stroke-linecap="round" stroke-linejoin="round"/>
<path d="M53.6426 37.1982L55.4896 38.9029" stroke="#081017" stroke-width="0.219018" stroke-linecap="round" stroke-linejoin="round"/>
<path d="M56.1646 35.833L56.6902 36.2455" stroke="#081017" stroke-width="0.219018" stroke-linecap="round" stroke-linejoin="round"/>
<path d="M42.3522 30.5913L41.717 36.8443C41.717 36.8443 41.1184 37.2933 38.8734 37.1071C36.6285 36.9209 34.8034 36.618 34.6172 36.5048" fill="white"/>
<path d="M42.3522 30.5913L41.717 36.8443C41.717 36.8443 41.1184 37.2933 38.8734 37.1071C36.6285 36.9209 34.8034 36.618 34.6172 36.5048" stroke="#081017" stroke-width="0.219018" stroke-linecap="round" stroke-linejoin="round"/>
<path d="M34.6792 32.3506L34.9858 33.1281" stroke="#081017" stroke-width="0.219018" stroke-linecap="round" stroke-linejoin="round"/>
<path d="M30.0792 33.683C30.0792 33.683 29.2689 34.1758 29.0973 34.2597C28.8746 34.3729 28.7615 34.7452 29.0608 34.7854C29.3601 34.8255 30.0354 34.4861 30.0354 34.4861C30.0354 34.4861 29.1338 34.873 29.2178 35.165C29.2725 35.3512 29.5682 35.4935 30.1084 35.1614C30.3238 35.03 30.6706 34.7124 30.6706 34.7124C30.6706 34.7124 30.4516 35.2198 30.6414 35.2453C30.8312 35.2709 31.0612 35.3694 31.2291 35.0117C31.4226 34.5992 31.6051 34.1867 31.8277 34.0006C32.0504 33.8144 34.5107 31.9893 34.5107 31.9893" fill="white"/>
<path d="M30.0792 33.683C30.0792 33.683 29.2689 34.1758 29.0973 34.2597C28.8746 34.3729 28.7615 34.7452 29.0608 34.7854C29.3601 34.8255 30.0354 34.4861 30.0354 34.4861C30.0354 34.4861 29.1338 34.873 29.2178 35.165C29.2725 35.3512 29.5682 35.4935 30.1084 35.1614C30.3238 35.03 30.6706 34.7124 30.6706 34.7124C30.6706 34.7124 30.4516 35.2198 30.6414 35.2453C30.8312 35.2709 31.0612 35.3694 31.2291 35.0117C31.4226 34.5992 31.6051 34.1867 31.8277 34.0006C32.0504 33.8144 34.5107 31.9893 34.5107 31.9893" stroke="#081017" stroke-width="0.219018" stroke-linecap="round" stroke-linejoin="round"/>
<path d="M41.4537 37.1436C41.6034 37.1801 42.4283 41.0384 42.4283 41.0384L38.7233 41.9364L38.2378 39.5418" fill="white"/>
<path d="M41.4537 37.1436C41.6034 37.1801 42.4283 41.0384 42.4283 41.0384L38.7233 41.9364L38.2378 39.5418" stroke="#081017" stroke-width="0.219018" stroke-linecap="round" stroke-linejoin="round"/>
<path d="M33.7484 36.7856L33.252 41.1843C33.252 41.1843 35.6867 42.0092 36.9972 41.8961C37.4096 40.5126 37.5228 39.538 37.5228 39.538L39.2056 39.2021" fill="white"/>
<path d="M33.7484 36.7856L33.252 41.1843C33.252 41.1843 35.6867 42.0092 36.9972 41.8961C37.4096 40.5126 37.5228 39.538 37.5228 39.538L39.2056 39.2021" stroke="#081017" stroke-width="0.219018" stroke-linecap="round" stroke-linejoin="round"/>
<path d="M41.9761 41.2974L42.812 45.8967" stroke="#081017" stroke-width="0.219018" stroke-linecap="round" stroke-linejoin="round"/>
<path d="M36.3252 42.0459L35.0513 46.5759" stroke="#081017" stroke-width="0.219018" stroke-linecap="round" stroke-linejoin="round"/>
<path d="M33.628 41.5239L33.106 46.0905" stroke="#081017" stroke-width="0.219018" stroke-linecap="round" stroke-linejoin="round"/>
<path d="M34.1537 48.9337C34.1537 48.9337 35.1648 48.8972 35.351 48.5979C35.5371 48.2986 35.2816 47.9628 35.1685 47.4736C35.0553 46.9845 35.0918 46.4953 35.0918 46.4953C35.0918 46.4953 33.5514 46.3493 33.4382 46.2763C33.325 46.2033 32.7629 45.977 32.7629 46.5756C32.7629 47.1743 31.9781 48.5614 34.1464 48.9337H34.1537Z" fill="#E10098" stroke="#081017" stroke-width="0.219018" stroke-linecap="round" stroke-linejoin="round"/>
<path d="M40.808 46.2983C40.808 46.2983 40.6657 47.9628 40.965 48.0395C41.2643 48.1161 42.1623 48.3023 43.0238 48.1526C43.8852 48.003 44.6336 47.8168 44.9329 47.5905C45.2322 47.3642 45.6082 47.105 45.046 46.8057C44.4839 46.5063 43.0603 45.9442 43.0603 45.9442C43.0603 45.9442 41.7498 46.3567 41.1512 46.3202C40.8153 46.2837 40.7387 46.2435 40.7387 46.2435L39.5049 41.8267" fill="#E10098"/>
<path d="M40.808 46.2983C40.808 46.2983 40.6657 47.9628 40.965 48.0395C41.2643 48.1161 42.1623 48.3023 43.0238 48.1526C43.8852 48.003 44.6336 47.8168 44.9329 47.5905C45.2322 47.3642 45.6082 47.105 45.046 46.8057C44.4839 46.5063 43.0603 45.9442 43.0603 45.9442C43.0603 45.9442 41.7498 46.3567 41.1512 46.3202C40.8153 46.2837 40.7387 46.2435 40.7387 46.2435L39.5049 41.8267" stroke="#081017" stroke-width="0.219018" stroke-linecap="round" stroke-linejoin="round"/>
<path d="M44.1118 31.0801L46.8459 31.3064L48.0067 31.9416C48.0067 31.9416 48.4192 31.9781 48.4557 31.7554C48.4922 31.5328 47.93 31.1568 47.93 31.1568C47.93 31.1568 48.828 31.4196 48.8645 31.2334C48.901 31.0473 48.6017 30.7078 48.4155 30.6713C48.2294 30.6348 49.0908 30.8209 49.2003 30.6348C49.3098 30.4486 49.3865 30.1493 49.0142 30.0726C48.6418 29.996 48.2294 30.0361 48.2294 30.0361C48.2294 30.0361 49.1273 29.7003 49.0908 29.401C49.0543 29.1016 48.4922 29.1381 48.379 29.2513C48.2659 29.3645 47.8169 29.5871 47.8169 29.5871" fill="white"/>
<path d="M44.1118 31.0801L46.8459 31.3064L48.0067 31.9416C48.0067 31.9416 48.4192 31.9781 48.4557 31.7554C48.4922 31.5328 47.93 31.1568 47.93 31.1568C47.93 31.1568 48.828 31.4196 48.8645 31.2334C48.901 31.0473 48.6017 30.7078 48.4155 30.6713C48.2294 30.6348 49.0908 30.8209 49.2003 30.6348C49.3098 30.4486 49.3865 30.1493 49.0142 30.0726C48.6418 29.996 48.2294 30.0361 48.2294 30.0361C48.2294 30.0361 49.1273 29.7003 49.0908 29.401C49.0543 29.1016 48.4922 29.1381 48.379 29.2513C48.2659 29.3645 47.8169 29.5871 47.8169 29.5871" stroke="#081017" stroke-width="0.219018" stroke-linecap="round" stroke-linejoin="round"/>
<path d="M44.7466 29.1712L46.7689 29.5836C46.7689 29.5836 47.1047 29.507 47.2945 28.985C47.5573 28.7222 47.8201 28.7587 47.78 29.0215C47.7398 29.2843 47.4442 30.5181 47.4442 30.5181" fill="white"/>
<path d="M44.7466 29.1712L46.7689 29.5836C46.7689 29.5836 47.1047 29.507 47.2945 28.985C47.5573 28.7222 47.8201 28.7587 47.78 29.0215C47.7398 29.2843 47.4442 30.5181 47.4442 30.5181" stroke="#081017" stroke-width="0.219018" stroke-linecap="round" stroke-linejoin="round"/>
<path d="M31.7115 31.5915L31.2734 30.668C31.2734 30.668 30.788 28.2734 30.3755 27.6346C29.963 26.9958 28.6635 25.7583 27.729 25.459" fill="white"/>
<path d="M31.7115 31.5915L31.2734 30.668C31.2734 30.668 30.788 28.2734 30.3755 27.6346C29.963 26.9958 28.6635 25.7583 27.729 25.459" stroke="#081017" stroke-width="0.219018" stroke-linecap="round" stroke-linejoin="round"/>
<path d="M27.415 26.6999C27.415 26.6999 27.3785 25.2763 27.9407 24.8638L27.415 26.6999Z" fill="white"/>
<path d="M27.415 26.6999C27.415 26.6999 27.3785 25.2763 27.9407 24.8638" stroke="#081017" stroke-width="0.219018" stroke-linecap="round" stroke-linejoin="round"/>
<path d="M28.0505 25.7512C28.0505 25.7512 28.5323 27.934 26.667 27.9742C25.9187 27.9377 23.5496 27.5544 23.9475 25.2036" fill="white"/>
<path d="M28.0505 25.7512C28.0505 25.7512 28.5323 27.934 26.667 27.9742C25.9187 27.9377 23.5496 27.5544 23.9475 25.2036" stroke="#081017" stroke-width="0.219018" stroke-linecap="round" stroke-linejoin="round"/>
<path d="M29.2875 29.2808C29.2875 29.2808 29.6233 31.825 28.5757 33.026C27.528 34.2233 27.1156 34.6723 27.1156 34.6723L26.9878 35.3695" fill="white"/>
<path d="M29.2875 29.2808C29.2875 29.2808 29.6233 31.825 28.5757 33.026C27.528 34.2233 27.1156 34.6723 27.1156 34.6723L26.9878 35.3695" stroke="#081017" stroke-width="0.219018" stroke-linecap="round" stroke-linejoin="round"/>
<path d="M25.3013 39.6113L29.2691 42.798C29.8678 43.2799 30.3934 43.853 30.7913 44.51C31.0322 44.9116 31.233 45.3423 31.233 45.6781C31.233 46.5396 31.4958 48.7845 27.7141 48.7845" fill="white"/>
<path d="M25.3013 39.6113L29.2691 42.798C29.8678 43.2799 30.3934 43.853 30.7913 44.51C31.0322 44.9116 31.233 45.3423 31.233 45.6781C31.233 46.5396 31.4958 48.7845 27.7141 48.7845" stroke="#081017" stroke-width="0.219018" stroke-linecap="round" stroke-linejoin="round"/>
<path d="M22.2497 41.4111L26.3526 45.2038C26.6483 45.4775 26.9038 45.7915 27.1083 46.1419C27.7033 47.1676 28.51 49.2045 26.1811 49.9565C25.6153 50.139 25.0057 50.1572 24.4216 50.0477C21.9577 49.5768 16.234 48.3576 16.234 48.3576C16.234 48.3576 15.6244 47.2151 16.1099 46.1674C16.5954 45.1198 17.1247 44.7511 17.351 44.7511C17.5773 44.7511 22.6987 47.2917 22.6987 47.2917L17.121 44.3715C17.121 44.3715 13.938 41.9368 15.8872 38.082" fill="white"/>
<path d="M22.2497 41.4111L26.3526 45.2038C26.6483 45.4775 26.9038 45.7915 27.1083 46.1419C27.7033 47.1676 28.51 49.2045 26.1811 49.9565C25.6153 50.139 25.0057 50.1572 24.4216 50.0477C21.9577 49.5768 16.234 48.3576 16.234 48.3576C16.234 48.3576 15.6244 47.2151 16.1099 46.1674C16.5954 45.1198 17.1247 44.7511 17.351 44.7511C17.5773 44.7511 22.6987 47.2917 22.6987 47.2917L17.121 44.3715C17.121 44.3715 13.938 41.9368 15.8872 38.082" stroke="#081017" stroke-width="0.219018" stroke-linecap="round" stroke-linejoin="round"/>
<path d="M11.3939 47.9228C11.3939 47.9228 10.9084 46.9482 12.6679 45.5282C14.4273 44.1046 14.8763 43.7505 14.8763 43.7505C14.8763 43.7505 15.8108 44.0316 16.1466 44.5171C16.4824 45.0025 16.3729 45.3785 16.3729 45.3785C16.3766 45.4114 15.2888 45.3311 14.8398 46.313C14.6901 46.6342 14.5259 47.4811 15.464 48.0798C13.7046 48.1163 11.3976 47.9228 11.3976 47.9228H11.3939Z" stroke="#081017" stroke-width="0.219018" stroke-linecap="round" stroke-linejoin="round"/>
<path d="M8.77295 48.7112C8.77295 48.7112 11.9816 47.5832 16.0626 48.2184L8.77295 48.7112Z" fill="white"/>
<path d="M8.77295 48.7112C8.77295 48.7112 11.9816 47.5832 16.0626 48.2184" stroke="#081017" stroke-width="0.219018" stroke-linecap="round" stroke-linejoin="round"/>
<path d="M59.3115 39.4141C59.3115 39.4141 60.7716 40.4361 61.1622 40.5676C61.5528 40.699 61.5565 40.7537 61.5565 40.699C61.5565 40.6442 60.5599 43.2031 60.5599 43.2031" fill="white"/>
<path d="M59.3115 39.4141C59.3115 39.4141 60.7716 40.4361 61.1622 40.5676C61.5528 40.699 61.5565 40.7537 61.5565 40.699C61.5565 40.6442 60.5599 43.2031 60.5599 43.2031" stroke="#081017" stroke-width="0.219018" stroke-linecap="round" stroke-linejoin="round"/>
<path d="M58.0488 43.7432C58.1036 43.725 58.8994 42.7029 58.9541 42.4036C59.0089 42.1043 59.049 41.5786 59.049 41.5786L58.3591 41.0493" fill="white"/>
<path d="M58.0488 43.7432C58.1036 43.725 58.8994 42.7029 58.9541 42.4036C59.0089 42.1043 59.049 41.5786 59.049 41.5786L58.3591 41.0493" stroke="#081017" stroke-width="0.219018" stroke-linecap="round" stroke-linejoin="round"/>
<path d="M60.3662 40.1475C60.3662 40.1475 59.8479 41.4251 59.1543 41.5382L60.3662 40.1475Z" fill="white"/>
<path d="M60.3662 40.1475C60.3662 40.1475 59.8479 41.4251 59.1543 41.5382" stroke="#081017" stroke-width="0.219018" stroke-linecap="round" stroke-linejoin="round"/>
<path d="M16.0629 48.0289C16.0629 48.0289 15.4095 47.9413 15.3584 47.9595L16.0629 48.0289Z" fill="white"/>
<path d="M16.0629 48.0289C16.0629 48.0289 15.4095 47.9413 15.3584 47.9595" stroke="#081017" stroke-width="0.219018" stroke-linecap="round" stroke-linejoin="round"/>
<path d="M29.5544 23.119L27.4263 22.7759C27.4263 22.7759 27.4153 23.6994 28.4922 23.944" fill="white"/>
<path d="M29.5544 23.119L27.4263 22.7759C27.4263 22.7759 27.4153 23.6994 28.4922 23.944" stroke="#081017" stroke-width="0.226319" stroke-linecap="round" stroke-linejoin="round"/>
<path d="M28.4663 21.9328C28.4663 21.9328 28.9993 21.6955 29.2949 22.0496L28.4663 21.9328Z" fill="white"/>
<path d="M28.4663 21.9328C28.4663 21.9328 28.9993 21.6955 29.2949 22.0496" stroke="#081017" stroke-width="0.219018" stroke-linecap="round" stroke-linejoin="round"/>
<path d="M28.0498 21.0385C28.2191 21.0385 28.3564 20.9013 28.3564 20.7319C28.3564 20.5626 28.2191 20.4253 28.0498 20.4253C27.8804 20.4253 27.7432 20.5626 27.7432 20.7319C27.7432 20.9013 27.8804 21.0385 28.0498 21.0385Z" fill="black"/>
<path d="M30.1235 21.3486C30.2929 21.3486 30.4301 21.2113 30.4301 21.042C30.4301 20.8726 30.2929 20.7354 30.1235 20.7354C29.9542 20.7354 29.8169 20.8726 29.8169 21.042C29.8169 21.2113 29.9542 21.3486 30.1235 21.3486Z" fill="black"/>
<path d="M41.4944 26.1558H39.5342C39.5342 26.1558 39.8554 26.9515 40.7461 27.1121" fill="white"/>
<path d="M41.4944 26.1558H39.5342C39.5342 26.1558 39.8554 26.9515 40.7461 27.1121" stroke="#081017" stroke-width="0.219018" stroke-linecap="round" stroke-linejoin="round"/>
<path d="M39.4136 24.6777C39.5829 24.6777 39.7202 24.5404 39.7202 24.3711C39.7202 24.2017 39.5829 24.0645 39.4136 24.0645C39.2442 24.0645 39.1069 24.2017 39.1069 24.3711C39.1069 24.5404 39.2442 24.6777 39.4136 24.6777Z" fill="black"/>
<path d="M42.1079 24.7177C42.2772 24.7177 42.4145 24.5805 42.4145 24.4111C42.4145 24.2418 42.2772 24.1045 42.1079 24.1045C41.9385 24.1045 41.8013 24.2418 41.8013 24.4111C41.8013 24.5805 41.9385 24.7177 42.1079 24.7177Z" fill="black"/>
<path d="M41.0233 24.9917C41.0233 24.9917 41.4687 25.3348 41.2277 25.4042L40.9868 25.4735" fill="white"/>
<path d="M41.0233 24.9917C41.0233 24.9917 41.4687 25.3348 41.2277 25.4042L40.9868 25.4735" stroke="#081017" stroke-width="0.219018" stroke-linecap="round" stroke-linejoin="round"/>
<path d="M75.0697 37.6689L65.411 36.2453C65.411 36.2453 63.6625 36.0336 62.9763 36.6213C62.3886 37.125 61.538 37.9865 61.6147 38.6253C61.6658 38.9356 61.8045 38.9356 61.9797 38.9319C62.0491 38.9319 62.0783 38.8151 62.1805 38.6837C62.5163 38.2603 63.3267 37.4207 64.1042 37.0046C63.3486 37.4353 62.4397 38.3917 62.0162 39.1145C61.8739 39.3517 62.2608 39.6693 62.4762 39.4977C62.8449 39.1984 63.4253 38.5925 63.7757 38.3807C64.3378 38.0449 64.3597 37.9683 64.7686 37.7857C63.2719 38.7604 62.4652 39.6036 62.4506 39.7387C62.4324 39.892 62.5893 40.2205 63.0091 39.9942C63.1405 39.9248 63.4216 39.7752 63.5348 39.6511C63.7538 39.4065 64.1079 39.1035 64.4802 38.8626C64.9766 38.5377 65.1811 38.4209 65.1811 38.4209C65.1811 38.4209 63.9472 39.0086 63.6917 39.7058C63.6443 39.8372 63.7538 39.9686 63.8925 39.965C64.1809 39.954 64.5021 39.7679 64.7321 39.6218C65.0314 39.4357 65.5169 39.1364 65.5169 39.1364C65.5169 39.1364 66.4149 39.6985 67.7253 39.2495C68.5503 39.662 74.3141 41.6076 74.3141 41.6076C74.3141 41.6076 76.7854 41.8704 76.7087 39.735C76.632 37.5996 75.7742 34.5698 75.7742 34.5698L72.029 35.8438L72.3648 37.0411" fill="white"/>
<path d="M75.0697 37.6689L65.411 36.2453C65.411 36.2453 63.6625 36.0336 62.9763 36.6213C62.3886 37.125 61.538 37.9865 61.6147 38.6253C61.6658 38.9356 61.8045 38.9356 61.9797 38.9319C62.0491 38.9319 62.0783 38.8151 62.1805 38.6837C62.5163 38.2603 63.3267 37.4207 64.1042 37.0046C63.3486 37.4353 62.4397 38.3917 62.0162 39.1145C61.8739 39.3517 62.2608 39.6693 62.4762 39.4977C62.8449 39.1984 63.4253 38.5925 63.7757 38.3807C64.3378 38.0449 64.3597 37.9683 64.7686 37.7857C63.2719 38.7604 62.4652 39.6036 62.4506 39.7387C62.4324 39.892 62.5893 40.2205 63.0091 39.9942C63.1405 39.9248 63.4216 39.7752 63.5348 39.651C63.7538 39.4065 64.1079 39.1035 64.4802 38.8626C64.9766 38.5377 65.1811 38.4209 65.1811 38.4209C65.1811 38.4209 63.9472 39.0086 63.6917 39.7058C63.6443 39.8372 63.7538 39.9686 63.8925 39.965C64.1809 39.954 64.5021 39.7679 64.7321 39.6218C65.0314 39.4357 65.5169 39.1364 65.5169 39.1364C65.5169 39.1364 66.4149 39.6985 67.7253 39.2495C68.5503 39.662 74.3141 41.6076 74.3141 41.6076C74.3141 41.6076 76.7854 41.8704 76.7087 39.735C76.632 37.5996 75.7742 34.5698 75.7742 34.5698L72.029 35.8438L72.3648 37.0411" stroke="#081017" stroke-width="0.219018" stroke-linecap="round" stroke-linejoin="round"/>
<path d="M57.3915 34.9019L52.9089 45.3271C52.9089 45.3271 51.8248 46.2616 51.6751 47.4224C51.5255 48.5832 51.489 49.1453 51.6386 49.2585C51.7883 49.3716 52.0146 48.2839 52.0146 48.2839L52.2774 47.3494C52.2774 47.3494 51.6021 49.8936 51.7518 50.2696C51.7919 50.85 52.2008 50.6456 52.2008 50.6456C52.2008 50.6456 52.5001 48.9993 52.6863 48.3605C52.8724 47.7217 52.9491 47.5355 52.9491 47.5355C52.9491 47.5355 51.9854 50.5544 52.4234 50.9778C52.6643 51.0398 52.7228 51.2041 53.2082 50.0433C53.6937 48.8825 53.9566 47.8349 53.9566 47.8349C53.9566 47.8349 52.9235 50.9522 53.0221 51.1274C53.2338 51.5071 53.6572 51.1275 53.8069 50.715C53.9566 50.3025 55.0042 47.8312 55.0042 47.8312L55.5663 49.514C55.5663 49.514 56.0664 50.0762 56.165 49.2147C56.2197 48.7547 56.165 46.1083 56.165 46.1083C56.165 46.1083 56.0518 45.5096 55.8657 45.3965C56.092 45.0606 60.8447 36.5992 60.8447 36.5992" fill="white"/>
<path d="M57.3915 34.9019L52.9089 45.3271C52.9089 45.3271 51.8248 46.2616 51.6751 47.4224C51.5255 48.5832 51.489 49.1453 51.6386 49.2585C51.7883 49.3716 52.0146 48.2839 52.0146 48.2839L52.2774 47.3494C52.2774 47.3494 51.6021 49.8936 51.7518 50.2696C51.7919 50.85 52.2008 50.6456 52.2008 50.6456C52.2008 50.6456 52.5001 48.9993 52.6863 48.3605C52.8724 47.7217 52.9491 47.5355 52.9491 47.5355C52.9491 47.5355 51.9854 50.5544 52.4234 50.9778C52.6643 51.0398 52.7228 51.2041 53.2082 50.0433C53.6937 48.8825 53.9566 47.8349 53.9566 47.8349C53.9566 47.8349 52.9235 50.9522 53.0221 51.1274C53.2338 51.5071 53.6572 51.1275 53.8069 50.715C53.9566 50.3025 55.0042 47.8312 55.0042 47.8312L55.5663 49.514C55.5663 49.514 56.0664 50.0762 56.165 49.2147C56.2197 48.7547 56.165 46.1083 56.165 46.1083C56.165 46.1083 56.0518 45.5096 55.8657 45.3965C56.092 45.0606 60.8447 36.5992 60.8447 36.5992" stroke="#081017" stroke-width="0.219018" stroke-linecap="round" stroke-linejoin="round"/>
<path d="M33.6245 47.5104C33.6245 47.5104 34.0041 47.9412 34.5845 47.4849" stroke="#081017" stroke-width="0.219018" stroke-linecap="round" stroke-linejoin="round"/>
<path d="M41.9102 47.0793C41.9102 47.0793 42.4906 47.4334 43.2243 46.853" stroke="#081017" stroke-width="0.219018" stroke-linecap="round" stroke-linejoin="round"/>
<path d="M33.2738 30.4233C33.2738 30.4233 31.1968 32.2047 30.861 32.8033C30.1492 33.0297 29.514 33.0296 29.514 33.0296C29.514 33.0296 28.7255 33.2268 29.2147 33.5553C29.5615 33.7889 30.0397 33.4786 30.2988 33.6319C30.558 33.7853 30.6347 34.0079 30.6347 34.0079" fill="white"/>
<path d="M33.2738 30.4233C33.2738 30.4233 31.1968 32.2047 30.861 32.8033C30.1492 33.0297 29.514 33.0296 29.514 33.0296C29.514 33.0296 28.7255 33.2268 29.2147 33.5553C29.5615 33.7889 30.0397 33.4786 30.2988 33.6319C30.558 33.7853 30.6347 34.0079 30.6347 34.0079" stroke="#081017" stroke-width="0.219018" stroke-linecap="round" stroke-linejoin="round"/>
<path d="M56.2017 25.3893C56.2017 25.3893 57.2494 28.795 57.2859 29.9923C55.1906 31.7153 50.3613 31.2262 50.3613 31.2262L48.4521 23.4766" fill="white"/>
<path d="M56.2017 25.3893C56.2017 25.3893 57.2494 28.795 57.2859 29.9923C55.1906 31.7153 50.3613 31.2262 50.3613 31.2262L48.4521 23.4766" stroke="#081017" stroke-width="0.219018" stroke-linecap="round" stroke-linejoin="round"/>
<path d="M10.1856 41.5712C10.1856 41.5712 10.3243 40.2644 10.5981 40.1987C10.8719 40.133 9.9812 40.7499 9.70378 41.2281C9.42636 41.7063 8.39697 40.5418 8.39697 40.5418C8.39697 40.5418 8.94817 41.3668 9.08323 41.6405" stroke="#E6E6E6" stroke-width="0.248221" stroke-linecap="round" stroke-linejoin="round"/>
<path d="M81.8848 41.5712C81.8848 41.5712 82.0236 40.2644 82.2973 40.1987C82.5711 40.133 81.6804 40.7499 81.403 41.2281C81.1256 41.7063 80.0962 40.5418 80.0962 40.5418C80.0962 40.5418 80.6474 41.3668 80.7824 41.6405" stroke="#E6E6E6" stroke-width="0.248221" stroke-linecap="round" stroke-linejoin="round"/>
<path d="M83.6843 53.117C83.6843 53.117 83.7938 52.0621 84.0165 52.0037C84.2391 51.9453 83.5164 52.449 83.2937 52.8359C83.071 53.2229 82.2388 52.2811 82.2388 52.2811C82.2388 52.2811 82.6841 52.9491 82.7936 53.1718" stroke="#E6E6E6" stroke-width="0.248221" stroke-linecap="round" stroke-linejoin="round"/>
<path d="M41.2789 54.0077C41.2789 54.0077 41.4176 52.7009 41.6914 52.6352C41.9651 52.5695 41.0745 53.1864 40.797 53.6646C40.5196 54.1428 39.4902 52.9783 39.4902 52.9783C39.4902 52.9783 40.0414 53.8033 40.1765 54.0771" stroke="#E6E6E6" stroke-width="0.248221" stroke-linecap="round" stroke-linejoin="round"/>
<path d="M27.7071 57.1693C27.7071 57.1693 27.8458 55.8625 28.1196 55.7968C28.3934 55.7311 27.5027 56.348 27.2253 56.8262C26.9478 57.3044 25.9185 56.14 25.9185 56.14C25.9185 56.14 26.4697 56.9649 26.6047 57.2387" stroke="#F6B4DD" stroke-width="0.219018" stroke-linecap="round" stroke-linejoin="round"/>
<path d="M5.30916 45.4882C5.30916 45.4882 5.44787 44.1814 5.72164 44.1157C5.99541 44.05 5.10474 44.6669 4.82732 45.1451C4.54989 45.6233 3.52051 44.4588 3.52051 44.4588C3.52051 44.4588 4.0717 45.2838 4.20677 45.5576" stroke="#F6B4DD" stroke-width="0.219018" stroke-linecap="round" stroke-linejoin="round"/>
<path d="M17.7784 53.8946C17.7784 53.8946 17.8697 53.0368 18.0485 52.993C18.2274 52.9492 17.6434 53.3544 17.4608 53.6683C17.2783 53.9823 16.603 53.2157 16.603 53.2157C16.603 53.2157 16.9644 53.7559 17.0557 53.9384" stroke="#E6E6E6" stroke-width="0.248221" stroke-linecap="round" stroke-linejoin="round"/>
<path d="M86.9405 42.798C86.9405 42.798 87.0318 41.9401 87.2107 41.8963C87.3895 41.8525 86.8055 42.2577 86.623 42.5716C86.4404 42.8856 85.7651 42.119 85.7651 42.119C85.7651 42.119 86.1265 42.6592 86.2178 42.8418" stroke="#E6E6E6" stroke-width="0.248221" stroke-linecap="round" stroke-linejoin="round"/>
<path d="M57.7745 60.7609C57.7745 60.7609 57.8658 59.903 58.0446 59.8592C58.2235 59.8154 57.6395 60.2206 57.4569 60.5345C57.2744 60.8485 56.5991 60.0819 56.5991 60.0819C56.5991 60.0819 56.9605 60.6221 57.0518 60.8047" stroke="#E6E6E6" stroke-width="0.248221" stroke-linecap="round" stroke-linejoin="round"/>
<path d="M77.7013 51.4161C77.7013 51.4161 77.7925 50.5583 77.9714 50.5145C78.1503 50.4707 77.5662 50.8759 77.3837 51.1898C77.2012 51.5037 76.5259 50.7372 76.5259 50.7372C76.5259 50.7372 76.8873 51.2774 76.9785 51.4599" stroke="#F6B4DD" stroke-width="0.219018" stroke-linecap="round" stroke-linejoin="round"/>
<path d="M63.8889 58.1218H34.734C34.2083 58.1218 33.7812 57.6947 33.7812 57.169C33.7812 56.6434 34.2083 56.2163 34.734 56.2163H54.4529" stroke="#F6B4DD" stroke-width="0.219018" stroke-linecap="round" stroke-linejoin="round"/>
<path d="M25.2063 38.6766L25.283 39.5016C25.283 39.5016 23.936 40.5492 21.5013 40.0272C19.0665 39.5052 17.6465 39.1292 16.9347 38.6036C16.2229 38.078 15.7739 37.7056 15.7739 37.7056C15.7739 37.7056 17.8692 34.4131 18.3948 32.2411C18.9205 30.0692 19.4169 27.8608 19.9681 27.1125C21.4574 25.0829 22.8044 25.0427 23.3301 24.8931L23.8958 25.2727C23.8958 25.2727 23.6221 26.7839 25.1151 27.5906" fill="white"/>
<path d="M25.2063 38.6766L25.283 39.5016C25.283 39.5016 23.936 40.5492 21.5013 40.0272C19.0665 39.5052 17.6465 39.1292 16.9347 38.6036C16.2229 38.078 15.7739 37.7056 15.7739 37.7056C15.7739 37.7056 17.8692 34.4131 18.3948 32.2411C18.9205 30.0692 19.4169 27.8608 19.9681 27.1125C21.4574 25.0829 22.8044 25.0427 23.3301 24.8931L23.8958 25.2727C23.8958 25.2727 23.6221 26.7839 25.1151 27.5906" stroke="#081017" stroke-width="0.219018" stroke-linecap="round" stroke-linejoin="round"/>
<path d="M21.0596 33.548C21.0596 33.548 22.2605 36.1725 22.7716 37.0668C23.1548 37.7385 23.9214 38.5781 25.2501 38.5452C27.1957 38.5014 30.1853 37.629 30.1853 37.629L31.8681 37.1435C31.8681 37.1435 32.3938 37.0303 32.9157 36.9938C33.4377 36.9573 35.3103 36.0959 35.3103 36.0959C35.3103 36.0959 36.3616 35.8732 36.7997 35.7162C37.2377 35.5593 37.4823 35.176 36.4346 35.2709C35.6863 35.3403 34.8249 35.4205 34.8249 35.4205C34.8249 35.4205 36.807 35.1468 37.0698 35.0847C37.3801 35.0081 37.4713 34.6357 37.3545 34.5189C37.1757 34.3401 37.172 34.4313 36.3105 34.5043C35.4491 34.5773 34.8249 34.7453 34.8249 34.7453C34.8249 34.7453 37.1099 34.3182 37.2961 34.1831C37.6903 33.8984 37.2195 33.5479 36.5843 33.6575C35.9492 33.767 34.562 34.1429 34.562 34.1429C34.562 34.1429 36.9201 33.6575 36.9566 33.4676C36.9931 33.2778 36.661 33.1099 35.909 33.0917C34.2372 33.0552 32.2039 34.8511 31.9411 35.0008C31.6783 35.1504 30.7438 35.3768 28.7982 35.4498C26.8526 35.5228 25.3158 35.1504 25.3158 35.1504L23.4432 28.8975" fill="white"/>
<path d="M21.0596 33.548C21.0596 33.548 22.2605 36.1725 22.7716 37.0668C23.1548 37.7385 23.9214 38.5781 25.2501 38.5452C27.1957 38.5014 30.1853 37.629 30.1853 37.629L31.8681 37.1435C31.8681 37.1435 32.3938 37.0303 32.9157 36.9938C33.4377 36.9573 35.3103 36.0959 35.3103 36.0959C35.3103 36.0959 36.3616 35.8732 36.7997 35.7162C37.2377 35.5593 37.4823 35.176 36.4346 35.2709C35.6863 35.3403 34.8249 35.4205 34.8249 35.4205C34.8249 35.4205 36.807 35.1468 37.0698 35.0847C37.3801 35.0081 37.4713 34.6357 37.3545 34.5189C37.1757 34.3401 37.172 34.4313 36.3105 34.5043C35.4491 34.5773 34.8249 34.7453 34.8249 34.7453C34.8249 34.7453 37.1099 34.3182 37.2961 34.1831C37.6903 33.8984 37.2195 33.5479 36.5843 33.6575C35.9492 33.767 34.562 34.1429 34.562 34.1429C34.562 34.1429 36.9201 33.6575 36.9566 33.4676C36.9931 33.2778 36.661 33.1099 35.909 33.0917C34.2372 33.0552 32.2039 34.8511 31.9411 35.0008C31.6783 35.1504 30.7438 35.3768 28.7982 35.4498C26.8526 35.5228 25.3158 35.1504 25.3158 35.1504L23.4432 28.8975" stroke="#081017" stroke-width="0.219018" stroke-linecap="round" stroke-linejoin="round"/>
<path d="M56.1469 34.0117L56.5192 35.4463L54.7524 36.702L56.1469 34.0117Z" fill="#E6E6E6"/>
<path d="M38.6729 23.6922C38.6729 23.6922 39.0452 23.3308 39.3555 23.5242L38.6729 23.6922Z" fill="white"/>
<path d="M38.6729 23.6922C38.6729 23.6922 39.0452 23.3308 39.3555 23.5242" stroke="#081017" stroke-width="0.219018" stroke-linecap="round" stroke-linejoin="round"/>
<path d="M41.7573 23.4436C41.7573 23.4436 42.272 23.3779 42.4034 23.7174L41.7573 23.4436Z" fill="white"/>
<path d="M41.7573 23.4436C41.7573 23.4436 42.272 23.3779 42.4034 23.7174" stroke="#081017" stroke-width="0.219018" stroke-linecap="round" stroke-linejoin="round"/>
<path d="M27.4409 20.4506C27.4409 20.4506 27.5833 20.0235 27.868 19.9761L27.4409 20.4506Z" fill="white"/>
<path d="M27.4409 20.4506C27.4409 20.4506 27.5833 20.0235 27.868 19.9761" stroke="#081017" stroke-width="0.219018" stroke-linecap="round" stroke-linejoin="round"/>
<path d="M30.3755 20.334C30.3755 20.334 30.6712 20.6005 30.6493 20.8268L30.3755 20.334Z" fill="white"/>
<path d="M30.3755 20.334C30.3755 20.334 30.6712 20.6005 30.6493 20.8268" stroke="#081017" stroke-width="0.219018" stroke-linecap="round" stroke-linejoin="round"/>
<path d="M49.2732 44.6191L49.4156 44.2212L45.977 42.1332C45.977 42.1332 45.3455 42.042 45.0096 42.1478C44.9038 42.1807 45.4805 42.3778 46.2069 42.7903C47.4736 43.5167 49.2732 44.6191 49.2732 44.6191Z" fill="#E10098"/>
<path d="M19.8149 30.5913C19.8149 30.5913 20.7129 33.5845 20.8261 33.5845C20.9392 33.5845 24.4107 32.223 24.4107 32.223" fill="white"/>
<path d="M19.8149 30.5913C19.8149 30.5913 20.7129 33.5845 20.8261 33.5845C20.9392 33.5845 24.4107 32.223 24.4107 32.223" stroke="#081017" stroke-width="0.219018" stroke-linecap="round" stroke-linejoin="round"/>
<path d="M23.1115 25.4515C21.2206 24.7068 20.3592 22.513 21.2389 20.6805L23.2867 16.8331C24.2905 14.7452 26.6851 13.7158 28.8899 14.4276L29.1637 14.5152C31.2334 15.1832 32.5621 17.1945 32.3614 19.3591" stroke="#E10098" stroke-width="0.219018" stroke-linecap="round" stroke-linejoin="round"/>
<path d="M43.3452 23.0023C43.3452 20.9143 41.6368 19.2279 39.5416 19.2607C37.4755 19.2936 35.8584 21.0713 35.8584 23.1373V24.7325C35.8584 25.7473 36.6797 26.5686 37.6945 26.5686" stroke="#E10098" stroke-width="0.226319" stroke-linecap="round" stroke-linejoin="round"/>
<path d="M49.9085 10.8394L48.1819 11.2701L46.886 12.1535L45.6887 13.8801L45.3931 16.3696L45.6267 17.8406L46.5685 19.0744H46.9006L46.605 18.348L46.448 16.7017L46.5466 15.7016C46.5466 15.7016 46.2144 15.2124 47.4701 14.7598C48.7258 14.3071 49.4303 14.0918 49.569 14.1903C49.7077 14.2889 49.7661 14.9934 50.1166 14.9934C50.467 14.9934 52.0768 14.5225 52.2155 14.2889C52.3542 14.0553 52.4893 14.2706 52.5294 14.7014C52.5696 15.1321 53.2558 15.5847 54.4312 15.6614L54.5298 14.1721L54.0406 13.1135L49.9012 10.8394H49.9085Z" fill="white"/>
<path d="M46.5244 15.3036V17.4828C46.5244 19.4138 48.0648 21.0637 49.9958 21.0382C52.1094 21.0053 53.8104 19.286 53.8104 17.1652H53.9199C54.347 17.1652 54.6901 16.8184 54.6901 16.395C54.6901 15.9679 54.3434 15.6248 53.9199 15.6248H53.7338C53.7338 15.6248 52.5985 15.581 52.427 14.0479C51.0654 15.1831 49.525 15.1174 49.733 14.5224C49.9411 13.9274 48.6562 14.2778 47.0282 14.975" fill="white"/>
<path d="M46.5244 15.3036V17.4828C46.5244 19.4138 48.0648 21.0637 49.9958 21.0382C52.1094 21.0053 53.8104 19.286 53.8104 17.1652H53.9199C54.347 17.1652 54.6901 16.8184 54.6901 16.395C54.6901 15.9679 54.3434 15.6248 53.9199 15.6248H53.7338C53.7338 15.6248 52.5985 15.581 52.427 14.0479C51.0654 15.1831 49.525 15.1174 49.733 14.5224C49.9411 13.9274 48.6562 14.2778 47.0282 14.975" stroke="#081017" stroke-width="0.219018" stroke-linecap="round" stroke-linejoin="round"/>
<path d="M46.7362 19.1875C45.9368 18.6509 45.4111 17.742 45.4111 16.7053V15.6211C45.4111 12.9601 47.5685 10.8027 50.2295 10.8027H50.4339C51.8503 10.8027 53.1388 11.4999 53.92 12.606C54.5186 13.2119 54.6281 14.2486 56.2927 14.2486H59.1801C60.1912 14.2486 61.0089 15.0663 61.0089 16.0774C61.0089 16.7929 61.5893 17.3696 62.3011 17.3696H64.8088C65.9112 17.3696 66.8056 18.264 66.8056 19.3663C66.8056 20.4687 65.9112 21.3631 64.8088 21.3631H59.1399C58.4573 21.3631 57.9025 20.8082 57.9025 20.1256C57.9025 19.37 57.2929 18.7604 56.5373 18.7604H55.0516H53.6572" stroke="#F61BA3" stroke-width="0.219018" stroke-linecap="round" stroke-linejoin="round"/>
<path d="M47.8198 18.7788L49.9224 18.6948C49.9224 18.6948 49.8859 19.8118 48.6375 20.0892" fill="white"/>
<path d="M47.8198 18.7788L49.9224 18.6948C49.9224 18.6948 49.8859 19.8118 48.6375 20.0892" stroke="#081017" stroke-width="0.219018" stroke-linecap="round" stroke-linejoin="round"/>
<path d="M47.2217 16.9355C47.391 16.9355 47.5283 16.7982 47.5283 16.6289C47.5283 16.4596 47.391 16.3223 47.2217 16.3223C47.0523 16.3223 46.915 16.4596 46.915 16.6289C46.915 16.7982 47.0523 16.9355 47.2217 16.9355Z" fill="black"/>
<path d="M49.7656 17.0703C49.935 17.0703 50.0722 16.933 50.0722 16.7637C50.0722 16.5943 49.935 16.457 49.7656 16.457C49.5963 16.457 49.459 16.5943 49.459 16.7637C49.459 16.933 49.5963 17.0703 49.7656 17.0703Z" fill="black"/>
<path d="M48.1157 17.4536C48.1157 17.4536 47.7725 18.2092 48.5975 18.0048L48.1157 17.4536Z" fill="white"/>
<path d="M48.1157 17.4536C48.1157 17.4536 47.7725 18.2092 48.5975 18.0048" stroke="#081017" stroke-width="0.219018" stroke-linecap="round" stroke-linejoin="round"/>
<path d="M53.3026 16.1689C53.3026 16.1689 54.0034 16.8333 53.0981 17.2823L53.3026 16.1689Z" fill="white"/>
<path d="M53.3026 16.1689C53.3026 16.1689 54.0034 16.8333 53.0981 17.2823" stroke="#081017" stroke-width="0.219018" stroke-linecap="round" stroke-linejoin="round"/>
<path d="M49.7368 15.7308C49.7368 15.7308 50.2552 15.6979 50.361 16.0484L49.7368 15.7308Z" fill="white"/>
<path d="M49.7368 15.7308C49.7368 15.7308 50.2552 15.6979 50.361 16.0484" stroke="#081017" stroke-width="0.219018" stroke-linecap="round" stroke-linejoin="round"/>
<path d="M46.5757 16.0227C46.5757 16.0227 46.948 15.6613 47.2583 15.8548L46.5757 16.0227Z" fill="white"/>
<path d="M46.5757 16.0227C46.5757 16.0227 46.948 15.6613 47.2583 15.8548" stroke="#081017" stroke-width="0.219018" stroke-linecap="round" stroke-linejoin="round"/>
<path d="M61.8192 21.5092C63.4472 20.8084 64.7321 20.4616 64.524 21.0566C64.316 21.6516 65.8528 21.7173 67.218 20.582C67.3895 22.1152 68.5248 22.159 68.5248 22.159H68.7109C69.138 22.159 69.4812 22.5057 69.4812 22.9292C69.4812 23.3563 69.1344 23.6994 68.7109 23.6994H68.6014C68.6014 25.8202 66.8967 27.5432 64.7869 27.5724C62.8559 27.6016 61.3154 25.948 61.3154 24.017V21.8377" fill="white"/>
<path d="M61.8192 21.5092C63.4472 20.8084 64.7321 20.4616 64.524 21.0566C64.316 21.6516 65.8528 21.7173 67.218 20.582C67.3895 22.1152 68.5248 22.159 68.5248 22.159H68.7109C69.138 22.159 69.4812 22.5057 69.4812 22.9292C69.4812 23.3563 69.1344 23.6994 68.7109 23.6994H68.6014C68.6014 25.8202 66.8967 27.5432 64.7869 27.5724C62.8559 27.6016 61.3154 25.948 61.3154 24.017V21.8377" stroke="#081017" stroke-width="0.219018" stroke-linecap="round" stroke-linejoin="round"/>
<path d="M64.4108 22.9585L64.5714 22.7906C64.7321 22.6227 64.9584 22.5278 65.192 22.5351L66.2652 22.5679C66.5828 22.5789 66.8675 22.7687 66.9952 23.0607L67.0135 23.1045C67.0975 23.298 67.1048 23.5133 67.0317 23.7105L66.9733 23.8747C66.8602 24.1923 66.5609 24.4077 66.225 24.4186L65.1409 24.4515C64.9182 24.4588 64.7029 24.3748 64.5422 24.2179L64.4364 24.1156C64.2539 23.9368 64.1663 23.6849 64.1955 23.433C64.2174 23.2578 64.294 23.0899 64.4181 22.9621L64.4108 22.9585Z" fill="#F41BA2"/>
<path d="M66.9883 23.0607L68.5762 22.0532" stroke="#081017" stroke-width="0.219018" stroke-linecap="round" stroke-linejoin="round"/>
<path d="M63.48 23.4733C63.48 23.4733 63.7318 23.2762 64.2429 23.528" stroke="#081017" stroke-width="0.219018" stroke-linecap="round" stroke-linejoin="round"/>
<path d="M62.7975 22.6482C63.0311 22.7139 63.2282 22.8818 63.3268 23.1117L63.345 23.1555C63.429 23.349 63.4363 23.5644 63.3633 23.7615L63.3049 23.9258C63.1917 24.2433 62.8924 24.4587 62.5566 24.4697L61.4724 24.5025C61.2498 24.5098 61.0344 24.4259 60.8738 24.2689L60.7679 24.1667C60.5854 23.9878 60.4978 23.7359 60.527 23.4841C60.5489 23.3089 60.6256 23.1409 60.7497 23.0132L60.9103 22.8453C61.0709 22.6774 61.2972 22.5824 61.5308 22.5897L62.604 22.6226C62.6734 22.6226 62.7391 22.6336 62.8048 22.6518" fill="#F41BA2"/>
<path d="M62.9761 25.1997L65.6189 25.2435C65.6189 25.2435 65.5313 26.4153 64.1551 26.6197" stroke="#081017" stroke-width="0.219018" stroke-linecap="round" stroke-linejoin="round"/>
<path d="M41.9286 30.8613H37.811V33.0844H41.9286V30.8613Z" fill="white"/>
<path d="M54.4892 23.6846H52.4194V25.9149H54.4892V23.6846Z" fill="white"/>
</svg>
