<svg width="70" height="53" viewBox="0 0 70 53" fill="none" xmlns="http://www.w3.org/2000/svg">
<path d="M50.2078 46.5952H27.5103C27.0553 46.5952 26.6528 46.9277 26.6178 47.3827C26.6003 47.8727 26.9853 48.2752 27.4578 48.2752H50.1903C50.6453 48.2752 51.0303 47.9077 51.0303 47.4352C51.0303 46.9802 50.6628 46.5952 50.1903 46.5952H50.2078Z" fill="#E6E6E6"/>
<path d="M38.8334 30.1977L37.8184 34.3102L43.8034 33.9777C43.8034 33.9777 45.7284 33.6627 44.4334 31.5802C43.8384 31.6152 43.0684 31.6852 42.6134 31.3002C42.4559 31.1777 42.4559 31.1777 42.2459 31.1602C41.0734 31.0727 39.9709 30.5827 38.8509 30.1977H38.8334Z" fill="#E6E6E6"/>
<path d="M22.6812 32.3327C22.6812 32.3327 22.5762 32.2802 22.5762 32.2277V19.4702C22.5762 19.3127 22.7162 19.1727 22.8737 19.1727H24.7462V5.4352C24.7462 5.4352 24.7462 5.3477 24.7812 5.2952L26.9512 0.990203C27.0037 0.885203 27.1087 0.832703 27.2137 0.832703C27.3187 0.832703 27.4237 0.902703 27.4762 0.990203L29.6462 5.1902C29.6462 5.1902 29.6812 5.2777 29.6812 5.3302V12.1377H31.2737V11.5602C31.2737 11.4027 31.4137 11.2627 31.5712 11.2627H35.8412C35.9987 11.2627 36.1387 11.4027 36.1387 11.5602V21.9027C36.1387 21.9027 36.0862 22.0077 36.0337 22.0077C35.9812 22.0077 35.9287 21.9552 35.9287 21.9027V11.5602C35.9287 11.5602 35.8937 11.4727 35.8412 11.4727H31.5712C31.5712 11.4727 31.4837 11.5077 31.4837 11.5602V12.2427C31.4837 12.2427 31.4312 12.3477 31.3787 12.3477H29.5587C29.5587 12.3477 29.4537 12.2952 29.4537 12.2427V5.3127C29.4537 5.3127 29.4537 5.2952 29.4537 5.2777L27.2837 1.0777C27.2837 1.0777 27.2487 1.0252 27.2137 1.0252C27.1787 1.0252 27.1612 1.0252 27.1437 1.0777L24.9737 5.4002C24.9737 5.4002 24.9737 5.4177 24.9737 5.4352V19.2777C24.9737 19.2777 24.9212 19.3827 24.8687 19.3827H22.8912C22.8912 19.3827 22.8037 19.4177 22.8037 19.4702V32.2277C22.8037 32.2277 22.7512 32.3327 22.6987 32.3327H22.6812Z" fill="#E6E6E6"/>
<path d="M18.1831 34.9402C18.1831 34.9402 18.0781 34.8877 18.0781 34.8352V19.2777C18.0781 19.2777 18.1306 19.1727 18.1831 19.1727H18.2356V15.0602C18.2356 14.9027 18.3756 14.7627 18.5331 14.7627H20.8256C20.9831 14.7627 21.1231 14.9027 21.1231 15.0602V32.9977C21.1231 32.9977 21.0706 33.1027 21.0181 33.1027C20.9656 33.1027 20.9131 33.0502 20.9131 32.9977V15.0602C20.9131 15.0602 20.8781 14.9727 20.8256 14.9727H18.5331C18.5331 14.9727 18.4456 15.0077 18.4456 15.0602V19.2777C18.4456 19.2777 18.3931 19.3827 18.3406 19.3827H18.2881V34.8352C18.2881 34.8352 18.2356 34.9402 18.1831 34.9402Z" fill="#E6E6E6"/>
<path d="M38.3434 25.1402C39.0434 25.1402 39.7434 25.1402 40.4259 25.1402C40.9509 25.1402 41.4759 25.0527 41.9834 25.1052C42.3684 25.1577 42.6659 25.3327 42.9109 25.5952C43.0684 24.8077 43.3834 24.0552 43.9609 23.4777C44.7484 22.6902 45.9034 22.4977 46.9884 22.5327V8.56771C46.9884 8.46271 46.9009 8.37521 46.7959 8.37521H42.4034C42.2984 8.37521 42.2109 8.46271 42.2109 8.56771V14.8852H38.0109C37.9059 14.8852 37.8184 14.9727 37.8184 15.0777V25.3327C37.8184 25.3327 37.9584 25.3502 38.0284 25.3677C38.0634 25.2277 38.1509 25.1227 38.3259 25.1227L38.3434 25.1402Z" fill="#E6E6E6"/>
<path d="M42.9103 25.7002C42.9103 25.7002 42.8578 25.7002 42.8228 25.6652C42.5778 25.4027 42.2978 25.2627 41.9653 25.2102C41.6503 25.1752 41.3178 25.2102 40.9853 25.2102C40.7928 25.2102 40.6003 25.2277 40.4078 25.2277C39.9353 25.2277 39.4803 25.2277 39.0078 25.2277H38.3078C38.1678 25.2277 38.1328 25.3327 38.1153 25.3852C38.1153 25.4377 38.0453 25.4727 37.9928 25.4727H37.9228C37.9228 25.4727 37.8353 25.4377 37.7828 25.4377C37.7303 25.4377 37.6953 25.3852 37.6953 25.3327V15.0777C37.6953 14.9202 37.8353 14.7802 37.9928 14.7802H42.0878V8.5677C42.0878 8.4102 42.2278 8.2702 42.3853 8.2702H46.7778C46.9353 8.2702 47.0753 8.4102 47.0753 8.5677V22.5327C47.0753 22.5327 47.0753 22.5852 47.0403 22.6027C47.0053 22.6202 46.9878 22.6377 46.9528 22.6377C45.6578 22.5852 44.6778 22.8827 43.9953 23.5477C43.4878 24.0377 43.1553 24.7377 42.9803 25.6127C42.9803 25.6477 42.9453 25.6827 42.9103 25.7002C42.9103 25.7002 42.8928 25.7002 42.8753 25.7002H42.9103ZM41.5803 24.9827C41.7203 24.9827 41.8603 24.9827 42.0003 25.0002C42.3153 25.0352 42.5953 25.1752 42.8403 25.3852C43.0328 24.5627 43.3828 23.8977 43.8728 23.4077C44.5728 22.7252 45.5703 22.3927 46.8653 22.4277V8.5677C46.8653 8.5677 46.8303 8.4802 46.7778 8.4802H42.3853C42.3853 8.4802 42.2978 8.5152 42.2978 8.5677V14.8852C42.2978 14.8852 42.2453 14.9902 42.1928 14.9902H37.9928C37.9928 14.9902 37.9053 15.0252 37.9053 15.0777V25.2452C37.9053 25.2452 37.9228 25.2452 37.9403 25.2452C38.0103 25.1052 38.1503 25.0177 38.3078 25.0177H39.0078C39.4803 25.0177 39.9353 25.0177 40.4078 25.0177C40.6003 25.0177 40.7753 25.0177 40.9678 25.0002C41.1603 25.0002 41.3703 24.9827 41.5628 24.9827H41.5803Z" fill="#E6E6E6"/>
<path d="M57.6976 26.6102C57.6976 26.6102 57.5926 26.5577 57.5926 26.5052V11.6477C57.5926 11.6477 57.5576 11.5602 57.5051 11.5602H53.3401C53.3401 11.5602 53.2526 11.5952 53.2526 11.6477C53.2526 11.7002 53.2001 11.7527 53.1476 11.7527C53.0951 11.7527 53.0426 11.7002 53.0426 11.6477V10.7377H48.8776C48.8776 10.7377 48.7901 10.7727 48.7901 10.8252V23.4952C48.7901 23.4952 48.7376 23.6002 48.6851 23.6002C48.6326 23.6002 48.5801 23.5477 48.5801 23.4952V10.8252C48.5801 10.6677 48.7201 10.5277 48.8776 10.5277H53.1476C53.1476 10.5277 53.2526 10.5802 53.2526 10.6327V11.3502C53.2526 11.3502 53.3051 11.3502 53.3401 11.3502H57.5051C57.6626 11.3502 57.8026 11.4902 57.8026 11.6477V26.5052C57.8026 26.5052 57.7501 26.6102 57.6976 26.6102Z" fill="#E6E6E6"/>
<path d="M0.980391 41.0127L1.48789 41.6777L2.76539 41.6077C3.15039 41.5902 3.50039 41.8352 3.62289 42.2027L4.37539 44.6002C4.41039 44.7052 4.41039 44.8102 4.37539 44.9152C4.30539 45.1427 4.09539 45.3002 3.85039 45.3002H1.87289C1.59289 45.3002 1.34789 45.5277 1.33039 45.8077L1.61039 45.7027L4.51539 45.7727L5.21539 45.0202L3.79789 40.8727L0.962891 41.0127H0.980391Z" fill="#E6E6E6"/>
<path d="M51.9057 30.4777L53.5507 32.8927C53.6557 33.0502 53.8482 33.1202 54.0232 33.0852L57.7157 32.3852C58.1182 32.3152 58.2407 31.7727 57.8907 31.5452L56.2282 30.3727C56.2282 30.3727 56.1057 30.3027 56.0357 30.2852L52.3607 29.7427C51.9582 29.6902 51.6782 30.1277 51.9057 30.4777Z" fill="#E10098"/>
<path d="M53.9348 33.1902C53.7423 33.1902 53.5673 33.1027 53.4623 32.9452L51.8173 30.5302C51.6948 30.3377 51.6773 30.1102 51.8173 29.9177C51.9398 29.7252 52.1498 29.6202 52.3773 29.6552L56.0523 30.1977C56.0523 30.1977 56.2273 30.2502 56.2973 30.3027L57.9598 31.4752C58.1523 31.6152 58.2398 31.8252 58.1873 32.0527C58.1348 32.2802 57.9598 32.4377 57.7323 32.4902L54.0398 33.1902C54.0398 33.1902 53.9698 33.1902 53.9348 33.1902ZM52.2723 29.8477C52.1323 29.8477 52.0098 29.9352 51.9573 30.0227C51.8873 30.1277 51.8698 30.2852 51.9573 30.4252L53.6023 32.8402C53.6898 32.9627 53.8298 33.0152 53.9698 32.9977L57.6623 32.2977C57.8373 32.2627 57.9248 32.1227 57.9598 32.0177C57.9773 31.8952 57.9598 31.7377 57.8023 31.6327L56.1398 30.4602C56.1398 30.4602 56.0348 30.4077 55.9823 30.3902L52.3073 29.8477C52.3073 29.8477 52.2723 29.8477 52.2548 29.8477H52.2723Z" fill="white"/>
<path d="M9.95797 37.3552L8.85547 37.7052L21.0005 37.0927L37.608 36.7427L49.998 36.3927L55.1605 35.6927L61.8455 35.4652L55.5805 35.0802L49.0705 35.9552L24.413 36.3927L9.95797 37.3552Z" fill="#E6E6E6"/>
<path d="M52.2556 37.2852C53.2511 37.2852 54.0581 37.058 54.0581 36.7777C54.0581 36.4974 53.2511 36.2702 52.2556 36.2702C51.2601 36.2702 50.4531 36.4974 50.4531 36.7777C50.4531 37.058 51.2601 37.2852 52.2556 37.2852Z" fill="#E6E6E6"/>
<path d="M34.947 38.0902C35.9425 38.0902 36.7495 37.863 36.7495 37.5827C36.7495 37.3024 35.9425 37.0752 34.947 37.0752C33.9515 37.0752 33.1445 37.3024 33.1445 37.5827C33.1445 37.863 33.9515 38.0902 34.947 38.0902Z" fill="#E6E6E6"/>
<path d="M38.0109 31.3177V30.4777C38.0109 30.0752 37.6784 29.7427 37.2759 29.7427C36.8734 29.7427 36.5409 30.0752 36.5409 30.4777V31.3177C36.5409 31.6852 36.8034 31.9827 37.1534 32.0352V32.2802H37.1009C36.7859 32.2802 36.5234 32.5427 36.5234 32.8577V34.5902H37.9934V32.8577C37.9934 32.5427 37.7309 32.2802 37.4159 32.2802H37.3634V32.0352C37.7134 31.9827 37.9759 31.6677 37.9759 31.3177H38.0109Z" fill="#E6E6E6"/>
<path d="M21.5254 47.7502L21.6129 45.5627C21.6129 45.5627 22.9429 43.0952 26.0929 42.7802C29.2429 42.4652 49.5954 42.5877 49.5954 42.5877C49.5954 42.5877 47.7754 45.4927 48.3879 47.7502C34.2829 47.9077 21.5254 47.7502 21.5254 47.7502Z" fill="#E6E6E6"/>
<path d="M5.5132 37.9502L3.2207 39.2102L7.1407 38.8602L8.5932 37.8452L5.5132 37.9502Z" fill="#E10098"/>
<path d="M33.1105 31.7552C33.2072 31.7552 33.2855 31.6768 33.2855 31.5802C33.2855 31.4835 33.2072 31.4052 33.1105 31.4052C33.0139 31.4052 32.9355 31.4835 32.9355 31.5802C32.9355 31.6768 33.0139 31.7552 33.1105 31.7552Z" fill="black"/>
<path d="M28.0532 35.0102C28.0532 35.0102 27.9482 34.9752 27.9482 34.9052V33.3827C27.9482 33.2602 27.8432 33.1552 27.7207 33.1552C27.5982 33.1552 27.4932 33.2602 27.4932 33.3827V34.9052C27.4932 34.9052 27.4582 35.0102 27.3882 35.0102C27.3182 35.0102 27.2832 34.9752 27.2832 34.9052V33.3827C27.2832 33.1552 27.4757 32.9627 27.7032 32.9627C27.9307 32.9627 28.1232 33.1552 28.1232 33.3827V34.9052C28.1232 34.9052 28.0882 35.0102 28.0182 35.0102H28.0532Z" fill="#F61BA3"/>
<path d="M35.1934 32.6127C35.1934 32.6127 35.0884 32.5777 35.0884 32.5077C35.0884 32.4377 35.1234 32.4027 35.1934 32.4027C35.4559 32.4027 35.6659 32.1927 35.6659 31.9302C35.6659 31.6677 35.4559 31.4577 35.1934 31.4577H34.8259C34.8259 31.4577 34.7559 31.4402 34.7384 31.4052L34.6859 31.3002H34.2834C33.5834 31.3002 33.0059 30.7227 33.0059 30.0227C33.0059 29.9702 33.0409 29.9177 33.1109 29.9177C33.1809 29.9177 33.2159 29.9527 33.2159 30.0227C33.2159 30.6177 33.7059 31.0902 34.3009 31.0902H34.7734C34.7734 31.0902 34.8434 31.1077 34.8609 31.1427L34.9134 31.2477H35.2109C35.5784 31.2477 35.8759 31.5452 35.8759 31.9127C35.8759 32.2802 35.5784 32.5777 35.2109 32.5777L35.1934 32.6127Z" fill="#081017"/>
<path d="M33.8109 33.6627C32.8834 33.6627 32.1309 32.9102 32.1309 31.9827C32.1309 31.4752 32.3584 30.9852 32.7609 30.6702C32.7959 30.6352 32.8659 30.6352 32.9009 30.6702C32.9359 30.7052 32.9359 30.7752 32.9009 30.8102C32.5509 31.0902 32.3409 31.5277 32.3409 31.9827C32.3409 32.9277 33.1984 33.6627 34.1959 33.4352C34.2484 33.4352 34.3009 33.4527 34.3184 33.5052C34.3184 33.5577 34.3009 33.6102 34.2484 33.6277C34.1084 33.6627 33.9859 33.6802 33.8459 33.6802L33.8109 33.6627Z" fill="#081017"/>
<path d="M33.0936 33.1027C33.0936 33.1027 33.0061 33.0852 33.0061 33.0327C33.0061 32.9802 33.0061 32.9277 33.0761 32.9102C33.3211 32.8227 33.3911 32.5777 33.4086 32.4202L32.7436 32.6127C32.7436 32.6127 32.6386 32.6127 32.6211 32.5427C32.6211 32.4902 32.6211 32.4377 32.6911 32.4202L33.4786 32.1927C33.4786 32.1927 33.5311 32.1927 33.5661 32.1927C33.5836 32.1927 33.6011 32.2277 33.6011 32.2627C33.6186 32.4902 33.5486 32.9452 33.1461 33.0677C33.1461 33.0677 33.1286 33.0677 33.1111 33.0677L33.0936 33.1027Z" fill="#081017"/>
<path d="M35.1762 33.6452C35.1762 33.6452 35.1062 33.6277 35.0887 33.5927C35.0712 33.5402 35.0887 33.4877 35.1237 33.4527C35.8062 33.0677 36.4887 32.5602 36.4887 31.0027C36.4887 30.6177 36.3837 30.3027 36.1562 30.0927C35.6662 29.6027 34.7212 29.6202 34.1437 29.6202H33.9687C33.2512 29.6202 32.8487 29.9002 32.8487 30.3727C32.8487 30.8102 32.9887 30.8977 32.9887 30.9152C33.0412 30.9327 33.0587 31.0027 33.0237 31.0377C33.0062 31.0902 32.9362 31.1077 32.8837 31.0727C32.8487 31.0552 32.6387 30.9152 32.6387 30.3727C32.6387 29.7952 33.1287 29.4452 33.9512 29.4452H34.1262C34.7212 29.4452 35.7187 29.4277 36.2787 29.9702C36.5412 30.2327 36.6637 30.5827 36.6637 31.0202C36.6637 32.6827 35.9462 33.2252 35.2112 33.6452C35.2112 33.6452 35.1762 33.6452 35.1587 33.6452H35.1762Z" fill="#F61BA3"/>
<path d="M28.0523 35.0102C28.0523 35.0102 27.9648 34.9752 27.9473 34.9227C27.9473 34.8702 27.9823 34.8177 28.0348 34.8177L32.4973 34.4152L33.4598 34.2577L34.0898 33.9602C34.2473 33.9252 35.4723 33.6452 35.8923 33.8727C36.2948 34.0827 36.5573 34.2402 36.5748 34.2577C36.6273 34.2927 36.6273 34.3452 36.6098 34.3977C36.5748 34.4502 36.5223 34.4502 36.4698 34.4327C36.4698 34.4327 36.2073 34.2577 35.8048 34.0652C35.4898 33.9077 34.5098 34.0827 34.1598 34.1702L33.5473 34.4677C33.5473 34.4677 33.5473 34.4677 33.5298 34.4677L32.5498 34.6252L28.0698 35.0452L28.0523 35.0102Z" fill="#081017"/>
<path d="M67.9352 36.2177L66.9027 35.4652H62.0027C61.7052 35.4652 61.5827 35.8677 61.8452 36.0252L63.7002 37.2152C64.2077 37.5302 64.7852 37.7052 65.3802 37.7052H69.3352" fill="#E10098"/>
<path d="M69.3168 37.7927H65.3618C64.7493 37.7927 64.1543 37.6177 63.6293 37.2852L61.7743 36.0952C61.6168 35.9902 61.5468 35.8152 61.5993 35.6402C61.6518 35.4652 61.8093 35.3602 61.9843 35.3602H66.8843C66.8843 35.3602 66.9193 35.3602 66.9368 35.3777L67.9693 36.1302C67.9693 36.1302 68.0218 36.2177 67.9868 36.2702C67.9518 36.3052 67.8993 36.3227 67.8468 36.2877L66.8318 35.5527H61.9493C61.8268 35.5527 61.7743 35.6227 61.7568 35.7102C61.7393 35.7977 61.7568 35.8852 61.8443 35.9377L63.6993 37.1277C64.1893 37.4427 64.7493 37.6002 65.3268 37.6002H69.2818C69.2818 37.6002 69.3868 37.6352 69.3868 37.7052C69.3868 37.7752 69.3518 37.8102 69.2818 37.8102L69.3168 37.7927Z" fill="white"/>
<path d="M68.4777 45.9302H62.9827C62.5102 41.7477 60.2527 39.7002 56.2452 39.7002C48.4402 39.7002 48.5977 46.8927 48.5977 46.8927H47.6002L44.5377 46.2452H24.2202L22.5227 46.7877H21.5077C21.5077 46.7877 21.5427 45.6852 20.8252 43.4102C20.1077 41.1352 17.5002 39.1402 12.3727 39.5777C7.24516 40.0152 6.96516 46.2102 6.96516 46.2102H0.910156L3.13266 48.1177H5.05766L8.12016 49.4477V45.8427C8.12016 42.8852 10.5177 40.5052 13.4577 40.5052H14.5602C17.7802 40.5052 20.3877 43.1127 20.3877 46.3327V48.3977H49.5602V46.3327C49.5602 43.1127 52.1677 40.5052 55.3876 40.5052H56.4902C59.4477 40.5052 61.8277 42.9027 61.8277 45.8427V47.8902L67.4452 47.0502C68.0751 46.9627 68.6352 46.5777 68.9502 46.0352L69.2477 45.5452C69.0552 45.7727 68.7752 45.9302 68.4426 45.9302H68.4777Z" fill="#E10098"/>
<path d="M8.11969 49.5527H8.08469L5.03969 48.2227H3.13219C3.13219 48.2227 3.07969 48.2227 3.06219 48.2052L0.839687 46.2977C0.839687 46.2977 0.804688 46.2277 0.804688 46.1927C0.804688 46.1577 0.857187 46.1227 0.892187 46.1227H6.87719C6.91219 45.7552 7.05219 44.4077 7.66469 43.0252C8.60969 40.8902 10.2372 39.6652 12.3722 39.4902C19.0047 38.9127 20.5972 42.3252 20.9297 43.3927C21.5247 45.3177 21.6122 46.3852 21.6122 46.7002H22.5047L24.1847 46.1752C24.1847 46.1752 24.2022 46.1752 24.2197 46.1752H44.5372L47.6172 46.8227H48.4922C48.4922 46.2802 48.6672 43.6027 50.5397 41.6952C51.8872 40.3127 53.8122 39.6302 56.2447 39.6302C60.2697 39.6302 62.5622 41.7302 63.0697 45.8602H68.4772C68.7572 45.8602 69.0197 45.7377 69.1947 45.5102C69.2122 45.4927 69.2472 45.4752 69.2822 45.4752C69.3172 45.4752 69.3522 45.4927 69.3522 45.5277C69.3522 45.5627 69.3522 45.5977 69.3522 45.6152L69.0547 46.1052C68.7047 46.6827 68.1272 47.0677 67.4797 47.1552L61.8622 47.9952C61.8622 47.9952 61.8097 47.9952 61.7922 47.9777C61.7747 47.9602 61.7572 47.9252 61.7572 47.9077V45.8602C61.7572 42.9727 59.3947 40.6102 56.5072 40.6102H55.4047C52.2372 40.6102 49.6647 43.1827 49.6647 46.3502V48.4152C49.6647 48.4152 49.6297 48.5202 49.5597 48.5202H20.4047C20.4047 48.5202 20.2997 48.4852 20.2997 48.4152V46.3502C20.2997 43.1827 17.7272 40.6102 14.5597 40.6102H13.4572C10.5697 40.6102 8.20719 42.9727 8.20719 45.8602V49.4652C8.20719 49.4652 8.20719 49.5352 8.17219 49.5527C8.17219 49.5527 8.13719 49.5527 8.11969 49.5527ZM3.16719 48.0127H5.05719H5.09219L8.01469 49.2902V45.8252C8.01469 42.8327 10.4647 40.3827 13.4572 40.3827H14.5597C17.8322 40.3827 20.4922 43.0427 20.4922 46.3152V48.2752H49.4722V46.3152C49.4722 43.0427 52.1322 40.3827 55.4047 40.3827H56.5072C59.4997 40.3827 61.9497 42.8152 61.9497 45.8252V47.7677L67.4622 46.9452C68.0572 46.8577 68.5822 46.5077 68.8972 45.9827L68.9322 45.9127C68.7922 45.9827 68.6347 46.0177 68.4772 46.0177H62.9822C62.9822 46.0177 62.8947 45.9827 62.8947 45.9302C62.4222 41.8002 60.2522 39.7877 56.2622 39.7877C53.8822 39.7877 52.0097 40.4702 50.6972 41.8002C48.6672 43.8652 48.7022 46.8577 48.7022 46.8927C48.7022 46.9102 48.7022 46.9452 48.6672 46.9627C48.6497 46.9802 48.6322 46.9977 48.5972 46.9977H47.5997L44.5197 46.3502H24.2372L22.5572 46.8752C22.5572 46.8752 22.5397 46.8752 22.5222 46.8752H21.5072C21.5072 46.8752 21.4547 46.8752 21.4372 46.8402C21.4197 46.8227 21.4022 46.7877 21.4022 46.7702C21.4022 46.7702 21.4197 45.6502 20.7197 43.4277C20.4047 42.3952 18.8472 39.1052 12.3722 39.6652C10.2897 39.8402 8.74969 40.9952 7.82219 43.0777C7.12219 44.6527 7.05219 46.1752 7.05219 46.1927C7.05219 46.2452 6.99969 46.2802 6.94719 46.2802H1.17219L3.16719 47.9952V48.0127Z" fill="white"/>
<path d="M7.78766 49.5527H7.75266L4.70766 48.2227H2.80016C2.80016 48.2227 2.74766 48.2227 2.73016 48.2052L0.507656 46.2977C0.507656 46.2977 0.472656 46.2277 0.472656 46.1927C0.472656 46.1577 0.525156 46.1227 0.560156 46.1227H6.54516C6.58016 45.7552 6.72016 44.4077 7.33266 43.0252C8.27766 40.8902 9.90516 39.6652 12.0402 39.4902C18.6727 38.9127 20.2652 42.3252 20.5977 43.3927C21.1927 45.3177 21.2802 46.3852 21.2802 46.7002H22.1727L23.8527 46.1752C23.8527 46.1752 23.8702 46.1752 23.8877 46.1752H44.2052L47.2852 46.8227H48.1602C48.1602 46.2802 48.3352 43.6027 50.2077 41.6952C51.5552 40.3127 53.4802 39.6302 55.9127 39.6302C59.9377 39.6302 62.2301 41.7302 62.7376 45.8602H68.1451C68.4251 45.8602 68.6876 45.7377 68.8626 45.5102C68.8801 45.4927 68.9152 45.4752 68.9502 45.4752C68.9852 45.4752 69.0201 45.4927 69.0201 45.5277C69.0201 45.5627 69.0201 45.5977 69.0201 45.6152L68.7226 46.1052C68.3727 46.6827 67.7952 47.0677 67.1477 47.1552L61.5302 47.9952C61.5302 47.9952 61.4776 47.9952 61.4601 47.9777C61.4426 47.9602 61.4251 47.9252 61.4251 47.9077V45.8602C61.4251 42.9727 59.0626 40.6102 56.1751 40.6102H55.0727C51.9052 40.6102 49.3327 43.1827 49.3327 46.3502V48.4152C49.3327 48.4152 49.2976 48.5202 49.2276 48.5202H20.0727C20.0727 48.5202 19.9677 48.4852 19.9677 48.4152V46.3502C19.9677 43.1827 17.3952 40.6102 14.2277 40.6102H13.1252C10.2377 40.6102 7.87516 42.9727 7.87516 45.8602V49.4652C7.87516 49.4652 7.87516 49.5352 7.84016 49.5527C7.84016 49.5527 7.80516 49.5527 7.78766 49.5527ZM2.83516 48.0127H4.72516H4.76016L7.68266 49.2902V45.8252C7.68266 42.8327 10.1327 40.3827 13.1252 40.3827H14.2277C17.5002 40.3827 20.1602 43.0427 20.1602 46.3152V48.2752H49.1402V46.3152C49.1402 43.0427 51.8002 40.3827 55.0727 40.3827H56.1751C59.1676 40.3827 61.6176 42.8152 61.6176 45.8252V47.7677L67.1301 46.9452C67.7252 46.8577 68.2502 46.5077 68.5652 45.9827L68.6002 45.9127C68.4602 45.9827 68.3027 46.0177 68.1451 46.0177H62.6502C62.6502 46.0177 62.5627 45.9827 62.5627 45.9302C62.0902 41.8002 59.9202 39.7877 55.9301 39.7877C53.5502 39.7877 51.6777 40.4702 50.3652 41.8002C48.3352 43.8652 48.3702 46.8577 48.3702 46.8927C48.3702 46.9102 48.3702 46.9452 48.3352 46.9627C48.3177 46.9802 48.3002 46.9977 48.2652 46.9977H47.2677L44.1877 46.3502H23.9052L22.2252 46.8752C22.2252 46.8752 22.2077 46.8752 22.1902 46.8752H21.1752C21.1752 46.8752 21.1227 46.8752 21.1052 46.8402C21.0877 46.8227 21.0702 46.7877 21.0702 46.7702C21.0702 46.7702 21.0877 45.6502 20.3877 43.4277C20.0727 42.3952 18.5152 39.1052 12.0402 39.6652C9.95766 39.8402 8.41766 40.9952 7.49016 43.0777C6.79016 44.6527 6.72016 46.1752 6.72016 46.1927C6.72016 46.2452 6.66766 46.2802 6.61516 46.2802H0.840156L2.83516 47.9952V48.0127Z" fill="#081017"/>
<path d="M49.2455 41.2752C48.9305 41.2752 48.3355 40.8902 47.863 40.1727C47.4255 39.5077 46.323 39.4552 46.3055 39.4552H38.7105C38.7105 39.4552 38.6055 39.4202 38.6055 39.3502C38.6055 39.2802 38.6405 39.2452 38.7105 39.2452H46.3055C46.3055 39.2452 47.513 39.3152 48.0205 40.0502C48.493 40.7502 49.0355 41.0827 49.2455 41.0827C49.298 41.0827 49.3505 41.1177 49.3505 41.1877C49.3505 41.2577 49.3155 41.2927 49.2455 41.2927V41.2752Z" fill="#081017"/>
<path d="M33.9329 38.0552C33.9329 38.0552 33.9329 38.0552 33.9154 38.0552L32.9704 37.8102C32.9704 37.8102 32.9179 37.7752 32.9004 37.7577C32.9004 37.7227 32.9004 37.7052 32.9004 37.6702L33.0929 37.3377C33.0929 37.3377 33.1104 37.3027 33.1279 37.3027C34.3179 36.6552 36.0329 37.0402 36.1029 37.0402C36.1554 37.0402 36.1904 37.1102 36.1729 37.1627C36.1729 37.2152 36.1204 37.2502 36.0504 37.2327C36.0504 37.2327 34.3529 36.8652 33.2329 37.4602L33.1104 37.6702L33.9329 37.8802C33.9329 37.8802 34.0204 37.9502 34.0029 38.0027C34.0029 38.0377 33.9504 38.0727 33.9154 38.0727L33.9329 38.0552Z" fill="#081017"/>
<path d="M35.5943 38.0027C35.5943 38.0027 35.5243 37.9852 35.5068 37.9502C35.5068 37.9502 35.4368 37.8277 35.2443 37.8102C34.9643 37.8102 34.2818 37.8102 34.1768 37.8452C34.1243 37.8452 34.0718 37.8452 34.0543 37.7927C34.0368 37.7402 34.0543 37.6877 34.1068 37.6702C34.2468 37.6177 35.0693 37.6177 35.2443 37.6177C35.4543 37.6177 35.5768 37.7402 35.6293 37.8102C35.7518 37.8102 36.1018 37.7752 36.3293 37.7052C36.4868 37.6702 36.5393 37.5127 36.5743 37.4252C36.3643 37.4077 35.9093 37.3552 35.5068 37.3552C34.9643 37.3552 33.2143 37.4777 33.1968 37.4777C33.1443 37.4777 33.0918 37.4427 33.0918 37.3902C33.0918 37.3377 33.1268 37.2852 33.1793 37.2852C33.2493 37.2852 34.9818 37.1452 35.5068 37.1627C36.0493 37.1627 36.6968 37.2502 36.6968 37.2502C36.7493 37.2502 36.7843 37.3027 36.7843 37.3552C36.7843 37.3727 36.7493 37.8102 36.3818 37.8977C36.0668 37.9852 35.6118 38.0027 35.5768 38.0027H35.5943Z" fill="#081017"/>
<path d="M51.2044 37.3027C51.2044 37.3027 51.2044 37.3027 51.1869 37.3027L50.2419 37.0577C50.2419 37.0577 50.1894 37.0227 50.1719 37.0052C50.1719 36.9702 50.1719 36.9527 50.1719 36.9177L50.3644 36.5852C50.3644 36.5852 50.3819 36.5502 50.3994 36.5502C51.5894 35.9027 53.3044 36.2877 53.3744 36.2877C53.4269 36.2877 53.4619 36.3577 53.4444 36.4102C53.4444 36.4627 53.3919 36.4977 53.3219 36.4802C53.3219 36.4802 51.6244 36.0952 50.5044 36.7077L50.3819 36.9177L51.2044 37.1277C51.2044 37.1277 51.2919 37.1977 51.2744 37.2502C51.2744 37.3027 51.2219 37.3202 51.1869 37.3202L51.2044 37.3027Z" fill="#081017"/>
<path d="M52.8502 37.2502C52.8502 37.2502 52.7802 37.2327 52.7627 37.1977C52.7627 37.1977 52.6927 37.0752 52.5002 37.0577C52.2202 37.0577 51.5202 37.0577 51.4327 37.0927C51.3802 37.0927 51.3277 37.0927 51.3102 37.0402C51.2927 36.9877 51.3102 36.9352 51.3627 36.9177C51.5027 36.8652 52.3252 36.8652 52.5002 36.8652C52.7102 36.8652 52.8327 36.9877 52.8852 37.0577C53.0077 37.0577 53.3577 37.0227 53.5852 36.9527C53.7427 36.9177 53.7952 36.7602 53.8302 36.6727C53.6202 36.6552 53.1652 36.6027 52.7627 36.6027C52.2202 36.6027 50.4702 36.7252 50.4527 36.7252C50.4002 36.7252 50.3477 36.6902 50.3477 36.6377C50.3477 36.5852 50.3827 36.5327 50.4352 36.5327C50.5052 36.5327 52.2377 36.4102 52.7627 36.4102C53.3052 36.4102 53.9527 36.4977 53.9527 36.4977C54.0052 36.4977 54.0402 36.5502 54.0402 36.6027C54.0402 36.6202 54.0052 37.0577 53.6377 37.1452C53.3227 37.2327 52.8677 37.2502 52.8327 37.2502H52.8502Z" fill="#081017"/>
<path d="M37.2925 48.4852C37.2925 48.4852 37.1875 48.4502 37.1875 48.3802V39.2102L37.8175 34.3802L38.3075 31.8602C38.3075 31.8602 38.36 31.7727 38.4125 31.7902C38.465 31.7902 38.5 31.8427 38.4825 31.8952L37.9925 34.4152L37.3625 39.2277V48.3977C37.3625 48.3977 37.3275 48.5027 37.275 48.5027L37.2925 48.4852Z" fill="#081017"/>
<path d="M13.9292 47.7677C14.2288 47.7677 14.4717 47.5248 14.4717 47.2252C14.4717 46.9256 14.2288 46.6827 13.9292 46.6827C13.6296 46.6827 13.3867 46.9256 13.3867 47.2252C13.3867 47.5248 13.6296 47.7677 13.9292 47.7677Z" fill="black"/>
<path d="M13.9288 47.8552C13.5788 47.8552 13.2988 47.5752 13.2988 47.2252C13.2988 46.8752 13.5788 46.5952 13.9288 46.5952C14.2788 46.5952 14.5588 46.8752 14.5588 47.2252C14.5588 47.5752 14.2788 47.8552 13.9288 47.8552ZM13.9288 46.7877C13.6838 46.7877 13.4913 46.9802 13.4913 47.2252C13.4913 47.4702 13.6838 47.6627 13.9288 47.6627C14.1738 47.6627 14.3663 47.4702 14.3663 47.2252C14.3663 46.9802 14.1738 46.7877 13.9288 46.7877Z" fill="#081017"/>
<path d="M13.266 43.3927C13.3535 43.2352 13.5285 43.1477 13.7035 43.1477C13.9835 43.1477 14.386 43.1477 14.6485 43.2177C14.7885 43.2352 14.876 43.3752 14.8235 43.4977C14.5085 44.5477 14.0885 46.0352 14.0885 46.0352L14.3335 45.8952C14.3335 45.8952 14.3685 45.8602 14.386 45.8427L15.156 44.1452C15.226 44.0052 15.3485 43.8827 15.4885 43.8127C15.716 43.7077 15.961 43.7427 16.1535 43.9002L16.5385 44.2152C16.5385 44.2152 16.626 44.4077 16.5385 44.4602L13.9135 46.4902C13.651 46.6827 13.2835 46.5252 13.2485 46.2102L13.056 44.1102C13.0385 43.8652 13.091 43.6202 13.2135 43.4102L13.266 43.3927Z" fill="#E6E6E6"/>
<path d="M17.413 45.4402C17.588 45.4752 17.728 45.6152 17.7805 45.7902C17.8505 46.0527 17.9555 46.4377 17.9905 46.7177C18.008 46.8577 17.903 46.9802 17.763 46.9802C16.678 46.9802 15.1205 47.0152 15.1205 47.0152L15.3305 47.2077C15.3305 47.2077 15.383 47.2427 15.4005 47.2427L17.238 47.4877C17.3955 47.5052 17.553 47.5927 17.658 47.7152C17.8155 47.9077 17.8505 48.1527 17.763 48.3802L17.588 48.8527C17.553 48.9577 17.4305 48.9927 17.343 48.9227L14.6305 46.9977C14.368 46.8052 14.4205 46.4027 14.718 46.2802L16.6605 45.4927C16.888 45.4052 17.133 45.3877 17.378 45.4402H17.413Z" fill="#E6E6E6"/>
<path d="M16.6603 50.0077C16.6603 50.1827 16.5903 50.3577 16.4328 50.4627C16.2053 50.6202 15.8728 50.8302 15.6103 50.9352C15.4878 50.9877 15.3478 50.9352 15.2953 50.7952C14.9628 49.7627 14.4903 48.2927 14.4903 48.2927L14.3678 48.5552C14.3678 48.5552 14.3678 48.6077 14.3678 48.6427L14.6653 50.4802C14.7003 50.6377 14.6653 50.8127 14.5778 50.9352C14.4553 51.1452 14.2103 51.2502 13.9653 51.2327L13.4753 51.1977C13.3703 51.1977 13.3003 51.0927 13.3353 50.9877L14.3853 47.8377C14.4903 47.5227 14.8928 47.4527 15.0853 47.7152L16.4153 49.3427C16.5728 49.5352 16.6603 49.7627 16.6778 50.0077H16.6603Z" fill="#E6E6E6"/>
<path d="M12.0754 50.6202C11.9004 50.6902 11.7079 50.6552 11.5679 50.5327C11.3579 50.3577 11.0604 50.0952 10.8679 49.8852C10.7804 49.7802 10.7979 49.6227 10.9029 49.5527C11.7954 48.9402 13.0729 48.0477 13.0729 48.0477L12.7929 48.0127C12.7929 48.0127 12.7404 48.0127 12.7054 48.0127L11.0429 48.8352C10.9029 48.9052 10.7279 48.9227 10.5704 48.8877C10.3429 48.8177 10.1504 48.6252 10.0979 48.3977L9.99291 47.9077C9.97541 47.8027 10.0454 47.7152 10.1504 47.7152L13.4754 47.7852C13.8079 47.7852 13.9829 48.1527 13.8079 48.4327L12.6354 50.1827C12.4954 50.3927 12.3029 50.5327 12.0754 50.6202Z" fill="#E6E6E6"/>
<path d="M10.1513 46.4202C10.0463 46.2802 10.0113 46.0877 10.0813 45.9127C10.1863 45.6677 10.3438 45.3002 10.5013 45.0552C10.5713 44.9327 10.7288 44.9152 10.8338 45.0027C11.6913 45.6852 12.8988 46.6302 12.8988 46.6302L12.8638 46.3502C12.8638 46.3502 12.8638 46.2977 12.8288 46.2802L11.5513 44.9327C11.4463 44.8102 11.3763 44.6527 11.3763 44.4952C11.3763 44.2502 11.4988 44.0227 11.7088 43.9002L12.1463 43.6552C12.2338 43.6027 12.3563 43.6552 12.3738 43.7427L13.2663 46.9452C13.3538 47.2602 13.0563 47.5402 12.7588 47.4527L10.7463 46.8402C10.5188 46.7702 10.3088 46.6302 10.1513 46.4377V46.4202Z" fill="#E6E6E6"/>
<path d="M13.9299 41.5902C10.8149 41.5902 8.29492 44.1102 8.29492 47.2252C8.29492 50.3402 10.8149 52.8602 13.9299 52.8602C17.0449 52.8602 19.5649 50.3402 19.5649 47.2252C19.5649 44.1102 17.0449 41.5902 13.9299 41.5902ZM13.9299 51.4602C11.5849 51.4602 9.69492 49.5702 9.69492 47.2252C9.69492 44.8802 11.5849 42.9902 13.9299 42.9902C16.2749 42.9902 18.1649 44.8802 18.1649 47.2252C18.1649 49.5702 16.2749 51.4602 13.9299 51.4602Z" fill="#E10098"/>
<path d="M13.9295 52.9652C10.762 52.9652 8.18945 50.3927 8.18945 47.2252C8.18945 44.0577 10.762 41.4852 13.9295 41.4852C17.097 41.4852 19.6695 44.0577 19.6695 47.2252C19.6695 50.3927 17.097 52.9652 13.9295 52.9652ZM13.9295 41.6777C10.867 41.6777 8.38195 44.1627 8.38195 47.2252C8.38195 50.2877 10.867 52.7727 13.9295 52.7727C16.992 52.7727 19.477 50.2877 19.477 47.2252C19.477 44.1627 16.992 41.6777 13.9295 41.6777ZM13.9295 51.5652C11.532 51.5652 9.58945 49.6227 9.58945 47.2252C9.58945 44.8277 11.532 42.8852 13.9295 42.8852C16.327 42.8852 18.2695 44.8277 18.2695 47.2252C18.2695 49.6227 16.327 51.5652 13.9295 51.5652ZM13.9295 43.0777C11.637 43.0777 9.78195 44.9327 9.78195 47.2252C9.78195 49.5177 11.637 51.3727 13.9295 51.3727C16.222 51.3727 18.077 49.5177 18.077 47.2252C18.077 44.9327 16.222 43.0777 13.9295 43.0777Z" fill="#081017"/>
<path d="M20.0731 48.3802V46.3152C20.0731 44.5652 19.3031 43.0077 18.0956 41.9402C17.4831 41.7127 16.8006 41.5727 16.1006 41.5727C15.7331 41.5727 15.3656 41.6077 15.0156 41.6777C17.6056 42.1852 19.5656 44.4777 19.5656 47.2077C19.5656 49.9377 17.6056 52.2302 15.0156 52.7377C15.3656 52.8077 15.7331 52.8427 16.1006 52.8427C18.8131 52.8427 21.0881 50.9177 21.6306 48.3627H20.0731V48.3802Z" fill="black"/>
<path d="M16.1002 52.9652C15.7327 52.9652 15.3652 52.9302 14.9977 52.8602C14.9452 52.8602 14.9277 52.8077 14.9277 52.7727C14.9277 52.7377 14.9627 52.6852 14.9977 52.6852C17.5877 52.1777 19.4777 49.8852 19.4777 47.2427C19.4777 44.6002 17.5877 42.3077 14.9977 41.8002C14.9452 41.8002 14.9277 41.7477 14.9277 41.7127C14.9277 41.6777 14.9627 41.6252 14.9977 41.6252C16.0477 41.4152 17.1327 41.5202 18.1302 41.8877C18.1302 41.8877 18.1477 41.8877 18.1652 41.9052C19.4427 43.0252 20.1777 44.6527 20.1777 46.3502V48.3102H21.6302C21.6302 48.3102 21.6827 48.3102 21.7002 48.3452C21.7177 48.3627 21.7177 48.3977 21.7177 48.4327C21.1577 51.0752 18.7952 52.9827 16.1002 52.9827V52.9652ZM15.5227 52.7377C15.7152 52.7552 15.9077 52.7727 16.1002 52.7727C18.6727 52.7727 20.9302 50.9702 21.5077 48.4852H20.0727C20.0727 48.4852 19.9677 48.4502 19.9677 48.3802V46.3152C19.9677 44.6702 19.2677 43.1127 18.0427 42.0277C17.2377 41.7302 16.3802 41.6077 15.5227 41.7127C17.9552 42.4127 19.6702 44.6527 19.6702 47.2252C19.6702 49.7977 17.9552 52.0377 15.5227 52.7377Z" fill="#081017"/>
<path d="M49.6661 47.2252C49.6661 44.3552 51.8186 41.9752 54.6011 41.6252C54.3736 41.5902 54.1461 41.5727 53.9011 41.5727C52.5886 41.5727 51.3986 42.0102 50.4361 42.7627C49.6836 43.7427 49.2286 44.9677 49.2286 46.3152V48.3802H48.3711C48.9136 50.9352 51.1711 52.8602 53.9011 52.8602C54.1461 52.8602 54.3736 52.8602 54.6011 52.8077C51.8186 52.4577 49.6661 50.0952 49.6661 47.2077V47.2252Z" fill="black"/>
<path d="M53.9183 52.9652C51.2233 52.9652 48.8608 51.0402 48.3008 48.4152C48.3008 48.3802 48.3008 48.3627 48.3183 48.3277C48.3358 48.3102 48.3708 48.2927 48.3883 48.2927H49.1408V46.3327C49.1408 45.0202 49.5608 43.7777 50.3658 42.7277C51.3808 41.9402 52.6058 41.5202 53.8833 41.5202C54.1108 41.5202 54.3558 41.5202 54.6008 41.5727C54.6533 41.5727 54.6883 41.6252 54.6883 41.6602C54.6883 41.6952 54.6533 41.7477 54.6008 41.7477C51.8358 42.0977 49.7533 44.4602 49.7533 47.2427C49.7533 50.0252 51.8358 52.4052 54.6008 52.7377C54.6533 52.7377 54.6883 52.7902 54.6883 52.8252C54.6883 52.8602 54.6533 52.9127 54.6008 52.9127C54.3558 52.9477 54.1108 52.9652 53.8833 52.9652H53.9183ZM48.5108 48.4852C49.0883 50.9527 51.2933 52.7377 53.8308 52.7727C51.3633 52.1077 49.5783 49.8502 49.5783 47.2252C49.5783 44.6002 51.3633 42.3427 53.8308 41.6777C52.6233 41.6777 51.4683 42.0977 50.5058 42.8327C49.7358 43.8477 49.3333 45.0377 49.3333 46.3152V48.3802C49.3333 48.3802 49.2983 48.4852 49.2283 48.4852H48.4933H48.5108Z" fill="#081017"/>
<path d="M22.0328 45.0552C22.0328 45.0552 21.9978 45.0552 21.9628 45.0377C21.9278 45.0027 21.9103 44.9502 21.9628 44.8977C22.0328 44.8102 23.8003 42.6927 26.1103 42.6927C28.4203 42.6927 44.0478 42.5002 44.2228 42.5002C44.2228 42.5002 44.3103 42.5352 44.3278 42.5877C44.3278 42.6402 44.2928 42.6927 44.2403 42.6927C44.0828 42.6927 28.3853 42.8852 26.1278 42.8852C23.8703 42.8852 22.1553 45.0027 22.1378 45.0202C22.1203 45.0377 22.0853 45.0552 22.0678 45.0552H22.0328Z" fill="#081017"/>
<path d="M21.5248 46.3327C21.5248 46.3327 21.4373 46.2977 21.4198 46.2452L20.9123 37.0927C20.8948 36.7777 20.9123 36.4627 20.9998 36.1477L21.1923 35.3777C21.1923 35.3777 21.2623 35.2902 21.3148 35.3077C21.3673 35.3077 21.4023 35.3777 21.3848 35.4302L21.1923 36.2002C21.1223 36.4977 21.0873 36.7952 21.1048 37.0927L21.6123 46.2452C21.6123 46.2452 21.5773 46.3502 21.5248 46.3502V46.3327Z" fill="#081017"/>
<path d="M25.8823 35.2377C25.8823 35.2377 25.7948 35.2027 25.7773 35.1502C25.7773 35.0977 25.8123 35.0452 25.8648 35.0452L37.7298 34.4677C37.7298 34.4677 37.8348 34.5027 37.8348 34.5552C37.8348 34.6077 37.7998 34.6602 37.7473 34.6602L25.8823 35.2377Z" fill="#081017"/>
<path d="M38.9898 34.6602C38.9898 34.6602 38.9023 34.6252 38.8848 34.5727C38.8848 34.5202 38.9198 34.4677 38.9723 34.4677L50.6623 33.7852L58.3273 32.2802L55.7898 30.3727C55.7898 30.3727 55.2473 30.1802 54.5123 30.0052C54.4598 30.0052 54.4248 29.9352 54.4423 29.8827C54.4423 29.8302 54.5123 29.7952 54.5648 29.8127C55.3873 30.0052 55.8773 30.1802 55.8773 30.1802C55.8773 30.1802 55.8773 30.1802 55.8948 30.1802L58.6073 32.2277C58.6073 32.2277 58.6598 32.2977 58.6423 32.3327C58.6423 32.3677 58.6073 32.4027 58.5723 32.4027L50.6798 33.9427L38.9898 34.6252V34.6602Z" fill="#081017"/>
<path d="M51.9061 29.5677C51.5911 29.5327 51.5736 29.5327 51.3986 29.5152C51.3286 29.5152 51.2411 29.5152 51.0836 29.4977C51.0311 29.4977 50.9961 29.4452 50.9961 29.3927C50.9961 29.3402 51.0486 29.2877 51.1011 29.3052C51.2411 29.3052 51.3461 29.3052 51.4161 29.3052C51.5911 29.3052 51.6261 29.3052 51.9411 29.3577C51.9936 29.3577 52.0286 29.4102 52.0286 29.4627C52.0286 29.5152 51.9761 29.5502 51.9411 29.5502L51.9061 29.5677Z" fill="#081017"/>
<path d="M25.2172 32.7352C25.2172 32.7352 25.1472 32.7352 25.1297 32.6827C25.0947 32.6302 25.1297 32.5777 25.1647 32.5427C25.1997 32.5427 28.0347 30.7927 31.0097 29.7252C32.0597 29.3402 33.1797 29.0777 34.3697 28.9202L37.1347 28.6577C37.1347 28.6577 37.2397 28.6927 37.2397 28.7452C37.2397 28.7977 37.2047 28.8502 37.1522 28.8502L34.3872 29.1127C33.2147 29.2702 32.0947 29.5327 31.0622 29.9177C28.1222 30.9852 25.2872 32.7002 25.2522 32.7177C25.2522 32.7177 25.2172 32.7177 25.1997 32.7177L25.2172 32.7352Z" fill="#081017"/>
<path d="M53.0261 33.0677C53.0261 33.0677 52.9561 33.0502 52.9386 33.0152L50.9961 29.4627C50.9961 29.4627 50.9961 29.3577 51.0311 29.3402C51.0836 29.3227 51.1361 29.3402 51.1536 29.3752L53.0961 32.9277C53.0961 32.9277 53.0961 33.0327 53.0611 33.0502C53.0611 33.0502 53.0261 33.0502 53.0086 33.0502L53.0261 33.0677Z" fill="#081017"/>
<path d="M54.0923 38.7027C54.0923 38.7027 54.0748 38.7027 54.0573 38.7027C54.0048 38.6852 53.9873 38.6327 54.0048 38.5802C54.0048 38.5627 54.8973 36.3752 55.0723 35.6752C55.2123 35.1502 54.0923 34.2927 53.6548 33.9952C53.6023 33.9602 53.6023 33.9077 53.6198 33.8552C53.6548 33.8027 53.7073 33.8027 53.7598 33.8202C53.9348 33.9252 55.4398 34.9402 55.2473 35.7102C55.0723 36.4277 54.2148 38.5452 54.1798 38.6327C54.1798 38.6677 54.1273 38.6852 54.0923 38.6852V38.7027Z" fill="#081017"/>
<path d="M8.54055 37.6702C8.54055 37.6702 8.45305 37.6352 8.43555 37.5827C8.43555 37.5302 8.47055 37.4777 8.52305 37.4777C8.62805 37.4777 18.393 36.7602 22.9955 36.4452C27.6155 36.1302 41.493 35.9552 41.633 35.9552C41.633 35.9552 41.7205 35.9902 41.738 36.0427C41.738 36.0952 41.703 36.1477 41.6505 36.1477C41.5105 36.1477 27.633 36.3227 23.0305 36.6377C18.4105 36.9527 8.64555 37.6527 8.55805 37.6702H8.54055Z" fill="#081017"/>
<path d="M44.5386 36.0427C44.5386 36.0427 44.4336 36.0077 44.4336 35.9377C44.4336 35.8677 44.4686 35.8327 44.5386 35.8327H49.0711L54.2511 35.3077C54.2511 35.3077 54.3561 35.3427 54.3561 35.3952C54.3561 35.4477 54.3211 35.5002 54.2686 35.5002L49.0886 36.0427H44.5561H44.5386Z" fill="#081017"/>
<path d="M4.67258 39.6127C4.67258 39.6127 4.60258 39.5952 4.58508 39.5427C4.58508 39.5077 4.58508 39.4552 4.62008 39.4202L4.77758 39.3152L1.82008 39.5952C1.82008 39.5952 1.80258 39.5952 1.78508 39.5952L1.40008 39.5252C1.40008 39.5252 1.33008 39.4902 1.33008 39.4552C1.33008 39.4202 1.33008 39.3852 1.36508 39.3502C2.17008 38.7202 3.06258 38.2127 4.00758 37.8452L4.18258 37.7752C4.18258 37.7752 4.20008 37.7752 4.21758 37.7752L8.20758 37.5477C8.20758 37.5477 8.29508 37.5652 8.31258 37.6177C8.31258 37.6527 8.31258 37.7052 8.27758 37.7227L5.89758 39.4377C5.89758 39.4377 5.86258 39.4377 5.84508 39.4377L4.70758 39.5777L4.67258 39.6127ZM1.66258 39.3852L1.82008 39.4202L5.14508 39.1052C5.14508 39.1052 5.23258 39.1227 5.25008 39.1752C5.25008 39.2102 5.25008 39.2627 5.21508 39.2802L5.07508 39.3677L5.79258 39.2802L7.89258 37.7752L4.23508 37.9852L4.07758 38.0552C3.22008 38.3877 2.41508 38.8427 1.66258 39.4027V39.3852Z" fill="#081017"/>
<path d="M4.55039 45.8777H1.41789C1.41789 45.8777 1.31289 45.8427 1.31289 45.7727C1.31289 45.7027 1.34789 45.6677 1.41789 45.6677H4.49789L5.11039 44.9852L3.74539 40.9602L1.06789 41.1002C1.06789 41.1002 0.980391 41.0652 0.962891 41.0127C0.962891 40.9602 0.997891 40.9077 1.05039 40.9077L3.81539 40.7677C3.81539 40.7677 3.90289 40.7852 3.92039 40.8377L5.33789 44.9852C5.33789 44.9852 5.33789 45.0552 5.32039 45.0727L4.63789 45.8252C4.63789 45.8252 4.58539 45.8602 4.56789 45.8602L4.55039 45.8777Z" fill="#081017"/>
<path d="M4.27047 42.7977H2.39797C2.39797 42.7977 2.29297 42.7627 2.29297 42.6927V42.2902C2.29297 42.2902 2.32797 42.1852 2.39797 42.1852C2.46797 42.1852 2.50297 42.2202 2.50297 42.2902V42.5877H4.27047C4.27047 42.5877 4.37547 42.6227 4.37547 42.6927C4.37547 42.7627 4.34047 42.7977 4.27047 42.7977Z" fill="#081017"/>
<path d="M4.74297 43.6727H2.83547C2.83547 43.6727 2.73047 43.6377 2.73047 43.5677V43.2352C2.73047 43.2352 2.76547 43.1302 2.83547 43.1302C2.90547 43.1302 2.94047 43.1652 2.94047 43.2352V43.4802H4.76047C4.76047 43.4802 4.86547 43.5152 4.86547 43.5852C4.86547 43.6552 4.83047 43.6902 4.76047 43.6902L4.74297 43.6727Z" fill="#081017"/>
<path d="M24.9201 35.3077H20.6851C20.6851 35.3077 20.5801 35.2727 20.5801 35.2027C20.5801 35.1327 20.6151 35.0977 20.6851 35.0977H24.8326V35.0627H23.7651C23.3101 35.0627 22.9426 34.6952 22.9426 34.2402C22.9426 33.7852 23.2226 33.3302 23.6601 33.1377L24.1851 32.9102C24.7276 32.6652 25.3401 32.6302 25.9176 32.8052C26.3376 32.9277 26.6176 33.3127 26.6176 33.7502V34.0652C26.6176 34.5377 26.2326 34.9227 25.7601 34.9227C25.7076 34.9227 25.6551 34.8877 25.6551 34.8177C25.6551 34.7477 25.6901 34.7127 25.7601 34.7127C26.1276 34.7127 26.4251 34.4152 26.4251 34.0477V33.7327C26.4251 33.3827 26.1976 33.0677 25.8651 32.9627C25.3401 32.8052 24.7801 32.8227 24.2726 33.0502L23.7476 33.2777C23.3801 33.4352 23.1351 33.8027 23.1351 34.2052C23.1351 34.5552 23.4151 34.8352 23.7651 34.8352H24.9376C24.9376 34.8352 25.0426 34.8702 25.0426 34.9402V35.1677C25.0426 35.1677 25.0076 35.2727 24.9376 35.2727L24.9201 35.3077Z" fill="#081017"/>
<path d="M68.7405 37.7402H65.2405C63.998 37.7402 62.7905 37.2327 61.9155 36.3402L61.583 35.9902C61.478 35.8852 61.443 35.7277 61.513 35.6052C61.5655 35.4652 61.7055 35.3777 61.8455 35.3777H65.888C65.888 35.3777 65.958 35.3777 65.9755 35.4127L66.098 35.5877H67.8305C67.8305 35.5877 67.9355 35.6227 67.9355 35.6927C67.9355 35.7627 67.9005 35.7977 67.8305 35.7977H66.0455C66.0455 35.7977 65.9755 35.7977 65.958 35.7627L65.8355 35.5877H61.8455C61.8455 35.5877 61.723 35.6227 61.688 35.6927C61.653 35.7627 61.688 35.8327 61.723 35.8677L62.0555 36.2177C62.8955 37.0752 64.0505 37.5652 65.2405 37.5652H68.7405C68.7405 37.5652 68.8455 37.6002 68.8455 37.6702C68.8455 37.7402 68.8105 37.7752 68.7405 37.7752V37.7402Z" fill="#081017"/>
<path d="M68.5302 37.2852H66.7277C66.7277 37.2852 66.6752 37.2852 66.6577 37.2502L65.4327 35.9552H62.2827C62.2827 35.9552 62.1777 35.9202 62.1777 35.8502C62.1777 35.7802 62.2127 35.7452 62.2827 35.7452H65.4677C65.4677 35.7452 65.5202 35.7452 65.5377 35.7802L66.7627 37.0752H68.5302C68.5302 37.0752 68.6352 37.1102 68.6352 37.1802C68.6352 37.2502 68.6002 37.2852 68.5302 37.2852Z" fill="#081017"/>
<path d="M48.2827 46.9977H47.2852L44.2052 46.3502H23.9227L22.2427 46.8752C22.2427 46.8752 22.2252 46.8752 22.2077 46.8752H21.1927C21.1927 46.8752 21.1402 46.8752 21.1227 46.8402C21.1052 46.8227 21.0877 46.7877 21.0877 46.7702C21.0877 46.7702 21.1052 45.6502 20.4052 43.4277C20.0902 42.3952 18.5327 39.1052 12.0577 39.6652C7.07023 40.1027 6.73773 46.1402 6.73773 46.1927C6.73773 46.2452 6.68523 46.2802 6.63273 46.2802H0.595234C0.595234 46.2802 0.490234 46.2452 0.490234 46.1752V40.1377C0.490234 40.1377 0.490234 40.0852 0.525234 40.0677L0.857734 39.7702C1.78523 38.9477 2.83523 38.3002 3.99023 37.8452L8.43524 36.1127C8.43524 36.1127 8.43523 36.1127 8.45273 36.1127L18.4627 35.0802L28.0352 30.0052C29.0502 29.4627 30.1352 29.0077 31.2377 28.6402C31.8327 28.4477 32.4977 28.2902 33.1977 28.1852L34.5102 27.9752C34.5102 27.9752 34.6152 28.0102 34.6152 28.0627C34.6152 28.1152 34.5802 28.1677 34.5277 28.1677L33.2152 28.3777C32.5327 28.4827 31.8852 28.6402 31.2902 28.8327C30.2052 29.2002 29.1377 29.6552 28.1227 30.1802L18.5327 35.2552C18.5327 35.2552 18.5152 35.2552 18.4977 35.2552L8.48773 36.2877L4.06023 38.0202C2.92273 38.4577 1.89023 39.1052 0.980234 39.9102L0.665234 40.1902V46.0877H6.56273C6.59773 45.7202 6.73773 44.3727 7.35023 42.9902C8.29523 40.8552 9.92273 39.6302 12.0577 39.4552C18.6902 38.8777 20.2827 42.2902 20.6152 43.3577C21.2102 45.2827 21.2977 46.3502 21.2977 46.6652H22.1902L23.8702 46.1402C23.8702 46.1402 23.8877 46.1402 23.9052 46.1402H44.2227L47.3027 46.7877H48.1777C48.1777 46.2452 48.3527 43.5677 50.2252 41.6602C51.5727 40.2777 53.4977 39.5952 55.9302 39.5952C59.9552 39.5952 62.2477 41.6952 62.7552 45.8252H68.1627C68.6877 45.8252 69.1077 45.4052 69.1077 44.8802V37.9502C69.1077 37.7227 69.0377 37.4952 68.8977 37.3202L68.1277 36.3227C68.0227 36.1827 67.9702 35.9902 67.9877 35.8152L68.0402 35.2377C68.0752 34.8352 67.8827 34.4502 67.5327 34.2402L61.7052 30.7752C61.7052 30.7752 61.6527 30.7227 61.6527 30.6877C61.6527 30.6527 61.6877 30.6177 61.7227 30.6002L62.7027 30.3377C62.8602 30.3027 62.9652 30.1627 63.0002 30.0052V29.8827L60.2352 29.5327C60.1827 29.5327 60.1477 29.4802 60.1477 29.4277C60.1477 29.3752 60.2002 29.3402 60.2527 29.3402L63.1402 29.6902C63.1402 29.6902 63.1927 29.6902 63.2102 29.7252C63.2277 29.7602 63.2277 29.7777 63.2277 29.7952L63.1927 30.0227C63.1577 30.2677 62.9827 30.4602 62.7552 30.5127L61.9852 30.7227L67.6202 34.0652C68.0227 34.3102 68.2677 34.7827 68.2152 35.2552L68.1627 35.8327C68.1627 35.9727 68.1802 36.0952 68.2677 36.2002L69.0377 37.1977C69.1952 37.4077 69.3002 37.6877 69.3002 37.9502V44.8802C69.3002 45.5102 68.7927 46.0177 68.1627 46.0177H62.6677C62.6677 46.0177 62.5802 45.9827 62.5802 45.9302C62.1077 41.8002 59.9377 39.7877 55.9477 39.7877C53.5677 39.7877 51.6952 40.4702 50.3827 41.8002C48.3527 43.8652 48.3877 46.8577 48.3877 46.8927C48.3877 46.9102 48.3877 46.9452 48.3527 46.9627C48.3352 46.9802 48.3177 46.9977 48.2827 46.9977Z" fill="#081017"/>
<path d="M55.3179 47.7677C55.6175 47.7677 55.8604 47.5248 55.8604 47.2252C55.8604 46.9256 55.6175 46.6827 55.3179 46.6827C55.0183 46.6827 54.7754 46.9256 54.7754 47.2252C54.7754 47.5248 55.0183 47.7677 55.3179 47.7677Z" fill="black"/>
<path d="M55.3175 47.8552C54.9675 47.8552 54.6875 47.5752 54.6875 47.2252C54.6875 46.8752 54.9675 46.5952 55.3175 46.5952C55.6675 46.5952 55.9475 46.8752 55.9475 47.2252C55.9475 47.5752 55.6675 47.8552 55.3175 47.8552ZM55.3175 46.7877C55.0725 46.7877 54.88 46.9802 54.88 47.2252C54.88 47.4702 55.0725 47.6627 55.3175 47.6627C55.5625 47.6627 55.755 47.4702 55.755 47.2252C55.755 46.9802 55.5625 46.7877 55.3175 46.7877Z" fill="#081017"/>
<path d="M54.6547 43.3927C54.7422 43.2352 54.9172 43.1477 55.0922 43.1477C55.3722 43.1477 55.7747 43.1477 56.0372 43.2177C56.1772 43.2352 56.2647 43.3752 56.2122 43.4977C55.8972 44.5477 55.4772 46.0352 55.4772 46.0352L55.7222 45.8952C55.7222 45.8952 55.7572 45.8602 55.7747 45.8427L56.5447 44.1452C56.6147 44.0052 56.7372 43.8827 56.8772 43.8127C57.1047 43.7077 57.3497 43.7427 57.5422 43.9002L57.9272 44.2152C57.9272 44.2152 58.0147 44.4077 57.9272 44.4602L55.3022 46.4902C55.0397 46.6827 54.6722 46.5252 54.6372 46.2102L54.4447 44.1102C54.4272 43.8652 54.4797 43.6202 54.6022 43.4102L54.6547 43.3927Z" fill="#E6E6E6"/>
<path d="M58.8016 45.4402C58.9766 45.4752 59.1166 45.6152 59.1691 45.7902C59.2391 46.0527 59.3441 46.4377 59.3791 46.7177C59.3966 46.8577 59.2916 46.9802 59.1516 46.9802C58.0666 46.9802 56.5091 47.0152 56.5091 47.0152L56.7191 47.2077C56.7191 47.2077 56.7716 47.2427 56.7891 47.2427L58.6266 47.4877C58.7841 47.5052 58.9416 47.5927 59.0466 47.7152C59.2041 47.9077 59.2391 48.1527 59.1516 48.3802L58.9766 48.8527C58.9416 48.9577 58.8191 48.9927 58.7316 48.9227L56.0191 46.9977C55.7566 46.8052 55.8091 46.4027 56.1066 46.2802L58.0491 45.4927C58.2766 45.4052 58.5216 45.3877 58.7666 45.4402H58.8016Z" fill="#E6E6E6"/>
<path d="M58.0489 50.0077C58.0489 50.1827 57.9789 50.3577 57.8214 50.4627C57.5939 50.6202 57.2614 50.8302 56.9989 50.9352C56.8764 50.9877 56.7364 50.9352 56.6839 50.7952C56.3514 49.7627 55.8789 48.2927 55.8789 48.2927L55.7564 48.5552C55.7564 48.5552 55.7564 48.6077 55.7564 48.6427L56.0539 50.4802C56.0889 50.6377 56.0539 50.8127 55.9664 50.9352C55.8439 51.1452 55.5989 51.2502 55.3539 51.2327L54.8639 51.1977C54.7589 51.1977 54.6889 51.0927 54.7239 50.9877L55.7739 47.8377C55.8789 47.5227 56.2814 47.4527 56.4739 47.7152L57.8039 49.3427C57.9614 49.5352 58.0489 49.7627 58.0664 50.0077H58.0489Z" fill="#E6E6E6"/>
<path d="M53.4641 50.6202C53.2891 50.6902 53.0966 50.6552 52.9566 50.5327C52.7466 50.3577 52.4491 50.0952 52.2566 49.8852C52.1691 49.7802 52.1866 49.6227 52.2916 49.5527C53.1841 48.9402 54.4616 48.0477 54.4616 48.0477L54.1816 48.0127C54.1816 48.0127 54.1291 48.0127 54.0941 48.0127L52.4316 48.8352C52.2916 48.9052 52.1166 48.9227 51.9591 48.8877C51.7316 48.8177 51.5391 48.6252 51.4866 48.3977L51.3816 47.9077C51.3641 47.8027 51.4341 47.7152 51.5391 47.7152L54.8641 47.7852C55.1966 47.7852 55.3716 48.1527 55.1966 48.4327L54.0241 50.1827C53.8841 50.3927 53.6916 50.5327 53.4641 50.6202Z" fill="#E6E6E6"/>
<path d="M51.54 46.4202C51.435 46.2802 51.4 46.0877 51.47 45.9127C51.575 45.6677 51.7325 45.3002 51.89 45.0552C51.96 44.9327 52.1175 44.9152 52.2225 45.0027C53.08 45.6852 54.2875 46.6302 54.2875 46.6302L54.2525 46.3502C54.2525 46.3502 54.2525 46.2977 54.2175 46.2802L52.94 44.9327C52.835 44.8102 52.765 44.6527 52.765 44.4952C52.765 44.2502 52.8875 44.0227 53.0975 43.9002L53.535 43.6552C53.6225 43.6027 53.745 43.6552 53.7625 43.7427L54.655 46.9452C54.7425 47.2602 54.445 47.5402 54.1475 47.4527L52.135 46.8402C51.9075 46.7702 51.6975 46.6302 51.54 46.4377V46.4202Z" fill="#E6E6E6"/>
<path d="M55.3186 41.5902C52.2036 41.5902 49.6836 44.1102 49.6836 47.2252C49.6836 50.3402 52.2036 52.8602 55.3186 52.8602C58.4336 52.8602 60.9536 50.3402 60.9536 47.2252C60.9536 44.1102 58.4336 41.5902 55.3186 41.5902ZM55.3186 51.4602C52.9736 51.4602 51.0836 49.5702 51.0836 47.2252C51.0836 44.8802 52.9736 42.9902 55.3186 42.9902C57.6636 42.9902 59.5536 44.8802 59.5536 47.2252C59.5536 49.5702 57.6636 51.4602 55.3186 51.4602Z" fill="#E10098"/>
<path d="M55.3181 52.9652C52.1506 52.9652 49.5781 50.3927 49.5781 47.2252C49.5781 44.0577 52.1506 41.4852 55.3181 41.4852C58.4856 41.4852 61.0581 44.0577 61.0581 47.2252C61.0581 50.3927 58.4856 52.9652 55.3181 52.9652ZM55.3181 41.6777C52.2556 41.6777 49.7706 44.1627 49.7706 47.2252C49.7706 50.2877 52.2556 52.7727 55.3181 52.7727C58.3806 52.7727 60.8656 50.2877 60.8656 47.2252C60.8656 44.1627 58.3806 41.6777 55.3181 41.6777ZM55.3181 51.5652C52.9206 51.5652 50.9781 49.6227 50.9781 47.2252C50.9781 44.8277 52.9206 42.8852 55.3181 42.8852C57.7156 42.8852 59.6581 44.8277 59.6581 47.2252C59.6581 49.6227 57.7156 51.5652 55.3181 51.5652ZM55.3181 43.0777C53.0256 43.0777 51.1706 44.9327 51.1706 47.2252C51.1706 49.5177 53.0256 51.3727 55.3181 51.3727C57.6106 51.3727 59.4656 49.5177 59.4656 47.2252C59.4656 44.9327 57.6106 43.0777 55.3181 43.0777Z" fill="#081017"/>
<path d="M43.8367 29.2877C42.9967 29.2877 41.7542 29.2177 40.6517 28.8852C39.7942 28.6402 39.0242 28.1152 38.4117 27.3802C37.5367 26.3477 37.0642 25.6477 37.0117 25.3152C37.0117 25.2627 37.0467 25.2102 37.0992 25.2102C37.1517 25.2102 37.2042 25.2452 37.2042 25.2977C37.2567 25.5777 37.7292 26.2777 38.5517 27.2577C39.1467 27.9577 39.8817 28.4477 40.7042 28.6927C42.5242 29.2352 44.7467 29.0427 44.7817 29.0427C44.8342 29.0427 44.8867 29.0777 44.8867 29.1302C44.8867 29.1827 44.8517 29.2352 44.7992 29.2352C44.7992 29.2352 44.4142 29.2702 43.8542 29.2702L43.8367 29.2877Z" fill="#081017"/>
<path d="M46.7417 30.4777C46.7417 30.4777 46.6542 30.4427 46.6367 30.3902C46.6367 30.3377 46.6717 30.2852 46.7242 30.2852C47.1792 30.2677 47.4942 30.1277 47.6517 29.9002C47.8617 29.6027 47.7742 29.2352 47.7742 29.2352C47.7742 29.1827 47.7917 29.1302 47.8442 29.1127C47.8967 29.1127 47.9492 29.1127 47.9667 29.1827C47.9667 29.2002 48.0892 29.6377 47.8092 30.0052C47.5992 30.2852 47.2317 30.4427 46.7242 30.4777H46.7417Z" fill="#081017"/>
<path d="M44.6959 34.3277C44.6959 34.3277 44.6259 34.3102 44.6084 34.2752C44.5909 34.2227 44.6084 34.1702 44.6434 34.1352C44.6434 34.1352 45.7284 33.5227 45.6234 32.5602C45.5184 31.5977 44.9409 31.2302 44.9409 31.2302C44.8884 31.1952 44.8884 31.1427 44.9059 31.0902C44.9409 31.0377 44.9934 31.0377 45.0459 31.0552C45.0809 31.0552 45.7109 31.4577 45.8334 32.5252C45.9559 33.6102 44.8184 34.2577 44.7659 34.2927C44.7659 34.2927 44.7309 34.2927 44.7134 34.2927L44.6959 34.3277Z" fill="#081017"/>
<path d="M51.8184 33.6277C51.8184 33.6277 51.7309 33.5927 51.7309 33.5577C51.1884 30.7227 48.7034 29.4452 48.6684 29.4277C48.6159 29.4102 48.5984 29.3402 48.6334 29.3052C48.6684 29.2702 48.7209 29.2352 48.7559 29.2702C48.7734 29.2702 51.3459 30.6177 51.9059 33.5402C51.9059 33.5927 51.8884 33.6452 51.8359 33.6452C51.8359 33.6452 51.8359 33.6452 51.8184 33.6452V33.6277Z" fill="#081017"/>
<path d="M50.2258 30.6177C50.2258 30.6177 50.1908 30.6177 50.1733 30.6177C50.1383 30.5827 50.1208 30.5302 50.1558 30.4777C50.1558 30.4602 50.5233 29.9527 51.2758 29.7427C51.3283 29.7427 51.3808 29.7427 51.3983 29.8127C51.3983 29.8652 51.3983 29.9177 51.3283 29.9352C50.6283 30.1277 50.3133 30.6002 50.3133 30.6002C50.2958 30.6352 50.2608 30.6352 50.2258 30.6352V30.6177Z" fill="#081017"/>
<path d="M43.6108 31.6852C43.1033 31.6852 42.8233 31.6327 42.7883 31.6327C42.7533 31.6327 42.7358 31.5977 42.7183 31.5802C42.7183 31.5452 42.7183 31.5102 42.7183 31.4927C43.1908 30.7052 42.3858 29.1827 42.3858 29.1827C42.3683 29.1302 42.3858 29.0777 42.4208 29.0602C42.4733 29.0427 42.5258 29.0602 42.5433 29.0952C42.5783 29.1652 43.3133 30.5827 42.9458 31.4752C43.2433 31.5102 44.0483 31.5627 45.2558 31.3527C45.3083 31.3527 45.3608 31.3877 45.3608 31.4227C45.3608 31.4752 45.3433 31.5277 45.2733 31.5277C44.5733 31.6502 44.0133 31.6852 43.5933 31.6852H43.6108Z" fill="#081017"/>
<path d="M42.4892 31.2477C39.4617 30.8802 37.7292 29.0427 36.8192 27.5552C36.7842 27.5027 36.8192 27.4502 36.8542 27.4152C36.9067 27.3802 36.9592 27.4152 36.9942 27.4502C37.8867 28.9027 39.5842 30.6877 42.5242 31.0552C42.5767 31.0552 42.6117 31.1077 42.6117 31.1602C42.6117 31.2127 42.5592 31.2477 42.5242 31.2477H42.4892Z" fill="#081017"/>
<path d="M46.9893 26.5227L46.8493 26.4702C46.7093 26.4177 46.5518 26.4177 46.4118 26.4702L45.7818 26.7677C45.5893 26.8552 45.4668 27.0477 45.4668 27.2577V27.2927C45.4668 27.4327 45.5193 27.5552 45.6068 27.6602L45.6768 27.7477C45.8343 27.9052 46.0618 27.9577 46.2718 27.8702L46.9368 27.6077C47.0768 27.5552 47.1818 27.4502 47.2343 27.3102L47.2693 27.2227C47.3393 27.0652 47.3218 26.8902 47.2343 26.7502C47.1818 26.6452 47.0943 26.5752 46.9718 26.5227H46.9893Z" fill="#E10098"/>
<path d="M45.4659 27.3452H44.9059C44.9059 27.3452 44.8184 27.2927 44.8184 27.2402C44.8184 27.1877 44.8709 27.1527 44.9234 27.1527H45.4834C45.4834 27.1527 45.5709 27.2052 45.5709 27.2577C45.5709 27.3102 45.5184 27.3452 45.4659 27.3452Z" fill="#081017"/>
<path d="M47.234 26.9077C47.234 26.9077 47.1815 26.9077 47.164 26.8902C47.129 26.8552 47.1115 26.8027 47.164 26.7502C47.444 26.4352 47.6715 26.4877 47.7065 26.4877C47.759 26.4877 47.794 26.5577 47.7765 26.6102C47.7765 26.6627 47.7065 26.6977 47.654 26.6802C47.654 26.6802 47.4965 26.6627 47.304 26.8727C47.2865 26.8902 47.2515 26.9077 47.234 26.9077Z" fill="#081017"/>
<path d="M47.8624 25.9102C47.7399 26.0152 47.6699 26.1552 47.6699 26.3302V26.3652C47.6699 26.5052 47.7224 26.6277 47.8099 26.7327L47.8799 26.8202C48.0374 26.9777 48.2649 27.0302 48.4749 26.9427L49.1399 26.6802C49.2799 26.6277 49.3849 26.5227 49.4374 26.3827L49.4724 26.2952C49.5424 26.1377 49.5249 25.9627 49.4374 25.8227C49.3849 25.7177 49.2974 25.6477 49.1749 25.5952L49.0349 25.5427C48.8949 25.4902 48.7374 25.4902 48.5974 25.5427L47.9674 25.8402C47.9674 25.8402 47.8974 25.8752 47.8624 25.9102Z" fill="#E10098"/>
<path d="M47.2155 29.0252C46.253 29.0252 46.0605 28.2202 46.0605 28.2202C46.0605 28.2027 46.0605 28.1677 46.0605 28.1502C46.0605 28.1327 46.0955 28.1152 46.1305 28.1152L47.4431 27.8702C47.4431 27.8702 47.548 27.8877 47.548 27.9402C47.548 27.9927 47.5305 28.0452 47.478 28.0452L46.288 28.2552C46.3755 28.4477 46.6205 28.8152 47.2505 28.8152C47.2505 28.8152 47.338 28.8502 47.3555 28.9027C47.3555 28.9552 47.3205 29.0077 47.268 29.0077C47.268 29.0077 47.268 29.0077 47.2505 29.0077L47.2155 29.0252Z" fill="#081017"/>
<path d="M44.7831 28.2552C44.2931 28.2552 43.8906 27.8527 43.8906 27.3627C43.8906 26.8727 44.2931 26.4702 44.7831 26.4702H45.2381L45.3256 26.2952C45.3256 26.2952 45.3781 26.2427 45.4131 26.2427H46.0781C46.9356 26.2427 47.6531 25.5427 47.6531 24.6677C47.6531 24.6152 47.6881 24.5627 47.7581 24.5627C47.8281 24.5627 47.8631 24.5977 47.8631 24.6677C47.8631 25.6477 47.0756 26.4352 46.0956 26.4352H45.4831L45.3956 26.6102C45.3956 26.6102 45.3431 26.6627 45.3081 26.6627H44.7831C44.3981 26.6627 44.0831 26.9777 44.0831 27.3627C44.0831 27.7477 44.3981 28.0627 44.7831 28.0627C44.8356 28.0627 44.8881 28.0977 44.8881 28.1677C44.8881 28.2377 44.8531 28.2727 44.7831 28.2727V28.2552Z" fill="#081017"/>
<path d="M59.1159 29.8302H53.1309C52.6759 29.8302 52.2909 29.4627 52.2909 28.9902C52.2909 28.5877 51.9584 28.2727 51.5734 28.2727H48.5284C48.5284 28.2727 48.4234 28.2377 48.4234 28.1677C48.4234 28.0977 48.4584 28.0627 48.5284 28.0627H51.5734C52.0809 28.0627 52.4834 28.4652 52.4834 28.9727C52.4834 29.3227 52.7809 29.6202 53.1309 29.6202H59.1159C59.7284 29.6202 60.2184 29.1302 60.2184 28.5177C60.2184 27.9052 59.7284 27.4152 59.1159 27.4152H56.2984C55.8259 27.4152 55.4234 27.0302 55.4234 26.5402C55.4234 25.9977 54.9684 25.5427 54.4259 25.5427H51.4159C50.4009 25.5427 49.4034 25.1927 48.6159 24.5277C48.6159 24.5277 48.6159 24.5277 48.6159 24.5102C48.1609 23.8627 47.4084 23.4777 46.6034 23.4777H46.4809C44.9409 23.4777 43.6984 24.7377 43.6984 26.2602V26.9077C43.6984 27.8352 44.4509 28.6052 45.3959 28.6052C45.4484 28.6052 45.5009 28.6402 45.5009 28.7102C45.5009 28.7802 45.4659 28.8152 45.3959 28.8152C44.3634 28.8152 43.5059 27.9752 43.5059 26.9252V26.2777C43.5059 24.6327 44.8534 23.2852 46.4984 23.2852H46.6209C47.4784 23.2852 48.2834 23.7052 48.7734 24.3877C49.5259 25.0002 50.4709 25.3502 51.4334 25.3502H54.4434C55.1084 25.3502 55.6334 25.8927 55.6334 26.5402C55.6334 26.9077 55.9309 27.2227 56.3159 27.2227H59.1334C59.8509 27.2227 60.4284 27.8002 60.4284 28.5177C60.4284 29.2352 59.8509 29.8127 59.1334 29.8127L59.1159 29.8302Z" fill="#F61BA3"/>
<path d="M37.1177 25.4202C37.0652 25.4202 37.0302 25.3677 37.0302 25.3152L37.1702 23.4952C37.1702 23.4952 37.1352 23.4077 37.0652 23.3902C37.0302 23.3902 37.0127 23.3902 36.9777 23.4077C36.9602 23.4252 36.9427 23.4602 36.9427 23.4777L36.9077 23.8452C36.9077 23.9852 36.7852 24.1077 36.6452 24.1427C36.5752 24.1602 36.5227 24.2127 36.5052 24.2827L36.4002 24.7377C36.4002 24.7377 36.3302 24.8252 36.2777 24.8077C36.2252 24.8077 36.1902 24.7377 36.2077 24.6852L36.3127 24.2302C36.3477 24.0902 36.4527 23.9852 36.5927 23.9502C36.6452 23.9502 36.6977 23.8802 36.6977 23.8277L36.7327 23.4602C36.7327 23.4602 36.7852 23.3027 36.8377 23.2502C36.9077 23.1977 36.9777 23.1802 37.0652 23.1802C37.2227 23.1977 37.3277 23.3202 37.3277 23.4777L37.1877 25.3152C37.1877 25.3152 37.1352 25.4027 37.0827 25.4027L37.1177 25.4202Z" fill="#081017"/>
<path d="M36.5569 24.1602C36.5569 24.1602 36.4694 24.1252 36.4694 24.0902L36.0144 22.5327C36.0144 22.5327 35.9094 22.4277 35.8394 22.4452C35.7694 22.4627 35.7169 22.5502 35.7344 22.6202L36.0319 23.8977C36.0319 23.8977 36.0144 24.0027 35.9619 24.0202C35.9094 24.0202 35.8569 24.0027 35.8394 23.9502L35.5419 22.6727C35.5069 22.4977 35.6119 22.3227 35.7869 22.2702C35.9619 22.2177 36.1369 22.3227 36.1894 22.4802L36.6444 24.0377C36.6444 24.0377 36.6444 24.1427 36.5744 24.1602C36.5744 24.1602 36.5569 24.1602 36.5394 24.1602H36.5569Z" fill="#081017"/>
<path d="M35.5066 24.2827C35.5066 24.2827 35.4366 24.2652 35.4191 24.2127L34.9116 22.7952C34.8416 22.6202 34.9116 22.4277 35.0866 22.3577C35.1741 22.3227 35.2616 22.3227 35.3491 22.3577C35.4366 22.3927 35.5066 22.4627 35.5416 22.5502L35.9791 23.7227C35.9791 23.7227 35.9791 23.8277 35.9266 23.8452C35.8741 23.8627 35.8216 23.8452 35.8041 23.7927L35.3666 22.6202C35.3666 22.6202 35.3316 22.5502 35.2791 22.5502C35.2441 22.5502 35.1916 22.5502 35.1566 22.5502C35.0866 22.5852 35.0516 22.6727 35.0866 22.7427L35.5941 24.1602C35.5941 24.1602 35.5941 24.2652 35.5416 24.2827C35.5416 24.2827 35.5241 24.2827 35.5066 24.2827Z" fill="#081017"/>
<path d="M35.2442 24.7377C35.2442 24.7377 35.1742 24.7202 35.1567 24.6852L34.6142 23.4602C34.6142 23.4602 34.5792 23.3027 34.5967 23.2327C34.6142 23.1627 34.6667 23.0927 34.7542 23.0577C34.8942 22.9877 35.0692 23.0402 35.1567 23.1802L35.6117 24.1602C35.6117 24.1602 35.6117 24.2652 35.5592 24.2827C35.5067 24.3002 35.4542 24.2827 35.4367 24.2302L34.9992 23.2677C34.9992 23.2677 34.9117 23.2152 34.8592 23.2327C34.8242 23.2327 34.8067 23.2677 34.8067 23.3027C34.8067 23.3377 34.8067 23.3552 34.8067 23.3902L35.3492 24.6327C35.3492 24.6327 35.3492 24.7377 35.2967 24.7552C35.2967 24.7552 35.2792 24.7552 35.2617 24.7552L35.2442 24.7377Z" fill="#081017"/>
<path d="M36.89 27.5902C36.89 27.5902 36.82 27.5902 36.8025 27.5377L35.8925 26.1202C35.8925 26.1202 35.735 25.9977 35.6125 25.8927C35.315 25.6477 35.07 25.3327 34.9125 24.9827L34.545 24.1602C34.475 24.0377 34.5275 23.8627 34.65 23.7927C34.685 23.7752 34.72 23.7752 34.755 23.7927C34.86 23.8277 34.965 23.9677 35.14 24.2827L35.245 24.4927C35.245 24.4927 35.245 24.5977 35.21 24.6152C35.1575 24.6327 35.105 24.6152 35.0875 24.5802L34.9825 24.3702C34.8425 24.1077 34.7725 24.0202 34.7375 23.9852C34.72 24.0202 34.7025 24.0552 34.7375 24.0902L35.105 24.9127C35.245 25.2452 35.4725 25.5252 35.7525 25.7527C35.91 25.8752 36.05 25.9977 36.05 25.9977C36.05 25.9977 36.05 25.9977 36.0675 26.0152L36.9775 27.4502C36.9775 27.4502 36.9775 27.5552 36.9425 27.5902C36.9425 27.5902 36.9075 27.5902 36.89 27.5902Z" fill="#081017"/>
<path d="M46.7602 29.5852C45.6052 29.5852 44.6602 28.6402 44.6602 27.4852C44.6602 27.4327 44.6952 27.3802 44.7652 27.3802C44.8352 27.3802 44.8702 27.4152 44.8702 27.4852C44.8702 28.5352 45.7277 29.3927 46.7777 29.3927C47.8277 29.3927 48.6852 28.5352 48.6852 27.4852C48.6852 27.3277 48.6677 27.1527 48.6327 27.0127C48.6327 26.9602 48.6502 26.9077 48.7027 26.8902C48.7552 26.8902 48.8077 26.9077 48.8252 26.9602C48.8777 27.1352 48.8952 27.3102 48.8952 27.4852C48.8952 28.6402 47.9502 29.5852 46.7952 29.5852H46.7602Z" fill="#081017"/>
</svg>
