<svg width="24" height="25" viewBox="0 0 24 25" fill="none" xmlns="http://www.w3.org/2000/svg">
<mask id="mask0_1238_34742" style="mask-type:alpha" maskUnits="userSpaceOnUse" x="0" y="0" width="24" height="25">
<rect y="0.51123" width="24" height="24" fill="#D9D9D9"/>
</mask>
<g mask="url(#mask0_1238_34742)">
<path d="M11.95 18.5112C12.3 18.5112 12.5958 18.3904 12.8375 18.1487C13.0792 17.9071 13.2 17.6112 13.2 17.2612C13.2 16.9112 13.0792 16.6154 12.8375 16.3737C12.5958 16.1321 12.3 16.0112 11.95 16.0112C11.6 16.0112 11.3042 16.1321 11.0625 16.3737C10.8208 16.6154 10.7 16.9112 10.7 17.2612C10.7 17.6112 10.8208 17.9071 11.0625 18.1487C11.3042 18.3904 11.6 18.5112 11.95 18.5112ZM11.05 14.6612H12.9C12.9 14.1112 12.9625 13.6779 13.0875 13.3612C13.2125 13.0446 13.5667 12.6112 14.15 12.0612C14.5833 11.6279 14.925 11.2154 15.175 10.8237C15.425 10.4321 15.55 9.96123 15.55 9.41123C15.55 8.4779 15.2083 7.76123 14.525 7.26123C13.8417 6.76123 13.0333 6.51123 12.1 6.51123C11.15 6.51123 10.3792 6.76123 9.7875 7.26123C9.19583 7.76123 8.78333 8.36123 8.55 9.06123L10.2 9.71123C10.2833 9.41123 10.4708 9.08623 10.7625 8.73623C11.0542 8.38623 11.5 8.21123 12.1 8.21123C12.6333 8.21123 13.0333 8.35706 13.3 8.64873C13.5667 8.9404 13.7 9.26123 13.7 9.61123C13.7 9.94456 13.6 10.2571 13.4 10.5487C13.2 10.8404 12.95 11.1112 12.65 11.3612C11.9167 12.0112 11.4667 12.5029 11.3 12.8362C11.1333 13.1696 11.05 13.7779 11.05 14.6612ZM12 22.5112C10.6167 22.5112 9.31667 22.2487 8.1 21.7237C6.88333 21.1987 5.825 20.4862 4.925 19.5862C4.025 18.6862 3.3125 17.6279 2.7875 16.4112C2.2625 15.1946 2 13.8946 2 12.5112C2 11.1279 2.2625 9.8279 2.7875 8.61123C3.3125 7.39456 4.025 6.33623 4.925 5.43623C5.825 4.53623 6.88333 3.82373 8.1 3.29873C9.31667 2.77373 10.6167 2.51123 12 2.51123C13.3833 2.51123 14.6833 2.77373 15.9 3.29873C17.1167 3.82373 18.175 4.53623 19.075 5.43623C19.975 6.33623 20.6875 7.39456 21.2125 8.61123C21.7375 9.8279 22 11.1279 22 12.5112C22 13.8946 21.7375 15.1946 21.2125 16.4112C20.6875 17.6279 19.975 18.6862 19.075 19.5862C18.175 20.4862 17.1167 21.1987 15.9 21.7237C14.6833 22.2487 13.3833 22.5112 12 22.5112Z" fill="#3C68B0"/>
</g>
</svg>
