<svg width="102" height="32" viewBox="0 0 102 32" fill="none" xmlns="http://www.w3.org/2000/svg">
<path d="M3.25693 15.736C1.64489 14.0405 0.838867 11.868 0.838867 9.16272C0.838867 6.45745 1.66805 4.33122 3.33105 2.58484C4.97089 0.866248 7.08785 0.00463867 9.63562 0.00463867C13.8973 0.00463867 16.7184 2.51072 17.7051 6.95774L13.9993 7.91663C13.2951 4.93342 11.7804 3.44181 9.48739 3.44181C8.10233 3.44181 6.99057 3.97453 6.11044 5.03533C5.2303 6.09613 4.77633 7.46266 4.77633 9.15808C4.77633 10.8535 5.2303 12.22 6.11044 13.253C6.99057 14.3138 8.15328 14.8466 9.56614 14.8466C11.836 14.8466 13.2951 13.6329 13.9529 11.2287L17.8348 11.8587C16.7277 16.1343 13.9529 18.2837 9.49202 18.2837C6.94425 18.2837 4.87824 17.4221 3.2662 15.7313L3.25693 15.736Z" fill="#E10098"/>
<path d="M19.7666 17.9363V0.356689H32.3711V3.61784H23.5234V7.43486H30.7591V10.696H23.5234V14.6659H32.4962V17.927H19.7666V17.9363Z" fill="#E10098"/>
<path d="M34.1636 17.9363V0.356689H37.9204L45.8092 12.1691V0.356689H49.4409V17.9363H45.661L37.7953 6.15171V17.9363H34.1636Z" fill="#E10098"/>
<path d="M56.547 17.9363V3.7985H51.1504V0.356689H65.6727V3.7985H60.3038V17.9363H56.547Z" fill="#E10098"/>
<path d="M82.1867 14.3972V17.89C81.8856 17.9919 81.5289 18.0429 81.1028 18.0429C79.5139 18.0429 78.1798 17.663 77.0958 16.8801C76.0118 16.1204 74.9788 14.6798 74.0477 12.5536L73.5197 11.465H71.1479V17.9409H67.3911V0.356689H75.2568C77.1468 0.356689 78.6847 0.861611 79.8474 1.84829C81.0055 2.83498 81.5891 4.20151 81.5891 5.94326C81.5891 8.59757 80.0744 10.3949 77.4525 10.9276C78.8885 13.6838 80.0744 14.4667 81.5614 14.4667C81.8115 14.4667 82.0153 14.4389 82.1913 14.3926L82.1867 14.3972ZM71.1433 3.62247V8.22698H74.8491C76.716 8.22698 77.647 7.46729 77.647 5.92473C77.647 4.38217 76.6882 3.62247 74.7982 3.62247H71.1433Z" fill="#E10098"/>
<path d="M92.1646 18.2884C89.5659 18.2884 87.398 17.4268 85.7118 15.7082C84.021 13.9896 83.1641 11.8124 83.1641 9.15808C83.1641 6.50376 84.021 4.32658 85.7118 2.5802C87.4026 0.86161 89.5706 0 92.1646 0C94.7587 0 96.9313 0.86161 98.6174 2.5802C100.308 4.32658 101.165 6.49913 101.165 9.15808C101.165 11.817 100.308 13.9896 98.6174 15.7082C96.9267 17.4268 94.7587 18.2884 92.1646 18.2884ZM95.8242 13.2808C96.7553 12.2432 97.237 10.8535 97.237 9.15808C97.237 7.46265 96.7599 6.07296 95.8242 5.01216C94.8931 3.97452 93.6562 3.44181 92.1693 3.44181C90.6823 3.44181 89.4733 3.97452 88.5375 5.01216C87.6065 6.07296 87.1247 7.46728 87.1247 9.15808C87.1247 10.8489 87.6018 12.2432 88.5375 13.2808C89.4686 14.3185 90.6823 14.8512 92.1693 14.8512C93.6562 14.8512 94.8931 14.3185 95.8242 13.2808Z" fill="#E10098"/>
<path d="M0.783203 31.7777V20.4656H5.22559C7.28697 20.4656 9.0843 21.2809 10.2053 23.0365C10.7751 23.9166 11.0484 24.9404 11.0484 26.1309C11.0484 28.4934 9.79768 30.3139 8.0652 31.1431C7.20359 31.5646 6.24933 31.7777 5.22559 31.7777H0.783203ZM3.20127 29.5634H4.97081C5.99455 29.5634 6.83763 29.2855 7.51858 28.7157C8.19953 28.1598 8.54232 27.2982 8.54232 26.1124C8.54232 24.9265 8.19953 24.0788 7.51858 23.509C6.83763 22.9531 5.99455 22.6798 4.97081 22.6798H3.20127V29.5634Z" fill="#E10098"/>
<path d="M12.4658 31.7777V20.4656H20.577V22.564H14.8839V25.0238H19.5394V27.1222H14.8839V29.6792H20.6604V31.7777H12.4705H12.4658Z" fill="#E10098"/>
<path d="M26.0434 31.0272C25.1818 30.3925 24.7603 29.5448 24.7603 28.5211C24.7603 28.081 24.8436 27.6085 24.9872 27.136L27.308 27.6734C27.2246 27.8865 27.1783 28.1459 27.1783 28.4238C27.1783 29.4012 28.1511 30.0173 29.6427 30.0173C30.9907 30.0173 31.8153 29.48 31.8153 28.5859C31.8153 27.9004 31.3103 27.4649 30.2912 27.2657L28.7996 27.0063C26.187 26.5524 25.0382 25.4591 25.0382 23.6386C25.0382 22.6612 25.4273 21.8459 26.2241 21.1974C27.0023 20.5628 28.0399 20.2385 29.337 20.2385C32.3063 20.2385 33.8442 21.5912 34.0249 24.0648L31.6392 24.3566C31.4586 22.9392 30.6665 22.2258 29.2536 22.2258C28.1974 22.2258 27.4516 22.7307 27.4516 23.5136C27.4516 24.213 28.0353 24.6716 29.2212 24.8801L30.7128 25.1395C33.1772 25.5796 34.2148 26.6218 34.2148 28.3636C34.2148 29.4522 33.7933 30.3323 32.9502 30.9994C32.0886 31.6664 30.9722 32.0092 29.5918 32.0092C28.0816 32.0092 26.9004 31.685 26.0388 31.0318L26.0434 31.0272Z" fill="#E10098"/>
<path d="M35.6138 31.7777V20.4656H43.7249V22.564H38.0318V25.0238H42.6873V27.1222H38.0318V29.6792H43.8083V31.7777H35.6184H35.6138Z" fill="#E10098"/>
<path d="M46.1427 30.3604C45.1189 29.2718 44.6001 27.8682 44.6001 26.1264C44.6001 24.3847 45.1513 23.0182 46.2399 21.8925C47.3285 20.7854 48.7043 20.2341 50.3766 20.2341C53.1004 20.2341 54.9672 21.5868 55.5046 23.9446L53.0541 24.5792C52.7113 23.1479 51.7061 22.3974 50.2978 22.3974C49.3714 22.3974 48.6256 22.7402 48.028 23.4397C47.4258 24.1392 47.134 25.0332 47.134 26.1264C47.134 27.2845 47.4582 28.1924 48.0929 28.8595C48.7275 29.5265 49.5196 29.8693 50.4924 29.8693C52.1647 29.8693 53.4293 28.9243 53.6238 27.4281H50.4136V25.5057H55.9632V31.7732H53.7721V29.999C53.0726 31.3331 51.8404 32.0002 50.057 32.0002C48.4681 32.0002 47.171 31.4443 46.1473 30.3557L46.1427 30.3604Z" fill="#E10098"/>
<path d="M62.5275 32.0047C60.9525 32.0047 59.7527 31.597 58.9282 30.7678C58.0851 29.9387 57.6636 28.7667 57.6636 27.2519V20.4656H60.0816V26.9786C60.0816 28.8037 60.9247 29.795 62.5321 29.795C64.1395 29.795 64.9826 28.8037 64.9826 26.9786V20.4656H67.4007V27.2519C67.4007 28.7806 66.9791 29.9525 66.15 30.7678C65.3069 31.597 64.1071 32.0047 62.5321 32.0047H62.5275Z" fill="#E10098"/>
<path d="M78.722 29.4986V31.7453C78.5275 31.8101 78.3005 31.8425 78.0225 31.8425C76.9988 31.8425 76.1418 31.597 75.4423 31.0921C74.7429 30.6057 74.0804 29.6746 73.4782 28.3081L73.1355 27.6086H71.6114V31.7777H69.1934V20.4656H74.2565C75.4748 20.4656 76.4615 20.7898 77.2073 21.4245C77.9531 22.0591 78.3283 22.9392 78.3283 24.0602C78.3283 25.7696 77.3555 26.9276 75.6693 27.2658C76.5958 29.04 77.3555 29.5449 78.3144 29.5449C78.4765 29.5449 78.6062 29.5264 78.722 29.4939V29.4986ZM71.6161 22.564V25.5287H74.0017C75.2015 25.5287 75.8037 25.0423 75.8037 24.0464C75.8037 23.0504 75.1876 22.564 73.9693 22.564H71.6161Z" fill="#E10098"/>
<path d="M85.1468 32.0048C83.4746 32.0048 82.0802 31.449 80.9963 30.3418C79.9077 29.2347 79.3564 27.8358 79.3564 26.1264C79.3564 24.4171 79.9077 23.0182 80.9963 21.8925C82.0849 20.7854 83.4792 20.2341 85.1468 20.2341C86.8145 20.2341 88.2134 20.79 89.2974 21.8925C90.386 23.0135 90.9372 24.4171 90.9372 26.1264C90.9372 27.8358 90.386 29.2347 89.2974 30.3418C88.2088 31.449 86.8145 32.0048 85.1468 32.0048ZM87.4954 28.7807C88.0976 28.1137 88.4033 27.2197 88.4033 26.1264C88.4033 25.0332 88.0976 24.1392 87.4954 23.4582C86.8932 22.7912 86.1011 22.4484 85.1422 22.4484C84.1833 22.4484 83.4051 22.7912 82.8075 23.4582C82.2053 24.1438 81.8996 25.0378 81.8996 26.1264C81.8996 27.215 82.21 28.1137 82.8075 28.7807C83.4051 29.4478 84.1879 29.7906 85.1422 29.7906C86.0965 29.7906 86.8932 29.4478 87.4954 28.7807Z" fill="#E10098"/>
<path d="M93.0449 31.0272C92.1833 30.3925 91.7617 29.5448 91.7617 28.5211C91.7617 28.081 91.8451 27.6085 91.9887 27.136L94.3095 27.6734C94.2261 27.8865 94.1798 28.1459 94.1798 28.4238C94.1798 29.4012 95.1526 30.0173 96.6442 30.0173C97.9922 30.0173 98.8167 29.48 98.8167 28.5859C98.8167 27.9004 98.3118 27.4649 97.2927 27.2657L95.8011 27.0063C93.1885 26.5524 92.0397 25.4591 92.0397 23.6386C92.0397 22.6612 92.4288 21.8459 93.2255 21.1974C94.0038 20.5628 95.0414 20.2385 96.3384 20.2385C99.3078 20.2385 100.846 21.5912 101.026 24.0648L98.6407 24.3566C98.46 22.9392 97.6679 22.2258 96.2551 22.2258C95.1989 22.2258 94.4531 22.7307 94.4531 23.5136C94.4531 24.213 95.0368 24.6716 96.2226 24.8801L97.7142 25.1395C100.179 25.5796 101.216 26.6218 101.216 28.3636C101.216 29.4522 100.795 30.3323 99.9516 30.9994C99.09 31.6664 97.9737 32.0092 96.5932 32.0092C95.0831 32.0092 93.9019 31.685 93.0402 31.0318L93.0449 31.0272Z" fill="#E10098"/>
</svg>
