<svg width="25" height="24" viewBox="0 0 25 24" fill="none" xmlns="http://www.w3.org/2000/svg">
<path d="M12.5 22C10.1833 21.4167 8.27067 20.0873 6.762 18.012C5.25333 15.9367 4.49933 13.6327 4.5 11.1V5L12.5 2L20.5 5V11.1C20.5 13.6333 19.746 15.9377 18.238 18.013C16.73 20.0883 14.8173 21.4173 12.5 22ZM12.5 19.9C14.2333 19.35 15.6667 18.25 16.8 16.6C17.9333 14.95 18.5 13.1167 18.5 11.1V6.375L12.5 4.125L6.5 6.375V11.1C6.5 13.1167 7.06667 14.95 8.2 16.6C9.33333 18.25 10.7667 19.35 12.5 19.9Z" fill="white"/>
</svg>
