<svg width="24" height="25" viewBox="0 0 24 25" fill="none" xmlns="http://www.w3.org/2000/svg">
<path d="M8.99913 10.8589C9.00949 10.0664 9.32889 9.30938 9.88927 8.749C10.4496 8.18862 11.2067 7.86922 11.9991 7.85886C12.7916 7.86922 13.5486 8.18862 14.109 8.749C14.6694 9.30938 14.9888 10.0664 14.9991 10.8589C14.9888 11.6513 14.6694 12.4083 14.109 12.9687C13.5486 13.5291 12.7916 13.8485 11.9991 13.8589C11.2067 13.8485 10.4496 13.5291 9.88927 12.9687C9.32889 12.4083 9.00949 11.6513 8.99913 10.8589ZM11.9991 19.8589L15.9991 20.8589V17.7789C14.7928 18.5053 13.4072 18.8794 11.9991 18.8589C10.5911 18.8794 9.20545 18.5053 7.99913 17.7789V20.8589M11.9991 4.85886C11.2111 4.84448 10.4285 4.99143 9.6993 5.29065C8.97015 5.58988 8.30989 6.03507 7.75913 6.59886C7.18924 7.15023 6.7389 7.81296 6.43612 8.54583C6.13334 9.27871 5.98459 10.066 5.99913 10.8589C5.98871 11.6467 6.13946 12.4283 6.44212 13.1557C6.74478 13.8831 7.19296 14.541 7.75913 15.0889C8.30733 15.6581 8.96642 16.1088 9.6957 16.4133C10.425 16.7177 11.2089 16.8694 11.9991 16.8589C12.7893 16.8694 13.5733 16.7177 14.3026 16.4133C15.0318 16.1088 15.6909 15.6581 16.2391 15.0889C16.8053 14.541 17.2535 13.8831 17.5561 13.1557C17.8588 12.4283 18.0096 11.6467 17.9991 10.8589C18.0137 10.066 17.8649 9.27871 17.5621 8.54583C17.2594 7.81296 16.809 7.15023 16.2391 6.59886C15.6884 6.03507 15.0281 5.58988 14.299 5.29065C13.5698 4.99143 12.7872 4.84448 11.9991 4.85886ZM19.9991 10.8589C19.9787 11.8188 19.7856 12.7673 19.4291 13.6589C19.1095 14.5667 18.6247 15.4075 17.9991 16.1389V23.8589L11.9991 21.8589L5.99913 23.8589V16.1389C4.70482 14.6853 3.99263 12.8051 3.99913 10.8589C3.98151 9.80945 4.17917 8.76756 4.57991 7.79751C4.98066 6.82747 5.57598 5.94986 6.32913 5.21886C7.06283 4.45896 7.94449 3.8575 8.91969 3.45159C9.89489 3.04569 10.9429 2.84396 11.9991 2.85886C13.0553 2.84396 14.1034 3.04569 15.0786 3.45159C16.0538 3.8575 16.9354 4.45896 17.6691 5.21886C18.4223 5.94986 19.0176 6.82747 19.4183 7.79751C19.8191 8.76756 20.0168 9.80945 19.9991 10.8589Z" fill="white"/>
</svg>
