<svg width="57" height="45" viewBox="0 0 57 45" fill="none" xmlns="http://www.w3.org/2000/svg">
<g clip-path="url(#clip0_1238_34429)">
<path d="M18.5688 39.1584H15.4015V39.1833H18.5688V39.1584Z" fill="#EBEBEB"/>
<path d="M8.48069 39.6909H0.737305V39.7158H8.48069V39.6909Z" fill="#EBEBEB"/>
<path d="M19.8573 30.6343H16.7023V38.5779H19.8573V30.6343Z" fill="#E6E6E6"/>
<path d="M34.6978 36.3178H28.2757C28.1103 36.3173 27.9519 36.2692 27.8349 36.1841C27.718 36.0991 27.652 35.9838 27.6512 35.8635V31.3991C27.6516 31.2788 27.7176 31.1635 27.8346 31.0785C27.9517 30.9935 28.1103 30.9458 28.2757 30.9458H34.6909C34.8563 30.9458 35.0149 30.9935 35.132 31.0785C35.2491 31.1635 35.315 31.2788 35.3154 31.3991V35.8635C35.3147 35.983 35.2496 36.0975 35.1341 36.1824C35.0186 36.2674 34.862 36.316 34.6978 36.3178ZM28.2757 31.0492C28.1471 31.0492 28.0238 31.0862 27.9327 31.1521C27.8415 31.2181 27.79 31.3076 27.7893 31.4011V35.8655C27.7885 35.9119 27.8004 35.9581 27.8242 36.0012C27.848 36.0443 27.8832 36.0837 27.9279 36.1169C27.9725 36.1501 28.0257 36.1766 28.0845 36.1949C28.1432 36.2132 28.2063 36.2228 28.2702 36.2233H34.6923C34.8211 36.2239 34.9449 36.1872 35.0366 36.1214C35.1283 36.0557 35.1804 35.9661 35.1815 35.8724V31.3991C35.1815 31.3528 35.1689 31.307 35.1445 31.2642C35.1201 31.2214 35.0844 31.1826 35.0393 31.1499C34.9943 31.1172 34.9408 31.0913 34.8819 31.0737C34.8231 31.0561 34.76 31.0471 34.6964 31.0472L28.2757 31.0492Z" fill="#E0E0E0"/>
<path d="M26.7699 36.3178H20.3478C20.1824 36.3173 20.024 36.2692 19.9071 36.1841C19.7901 36.0991 19.7241 35.9838 19.7234 35.8635V31.3991C19.7238 31.2788 19.7897 31.1635 19.9068 31.0785C20.0238 30.9935 20.1825 30.9458 20.3478 30.9458H26.7699C26.9353 30.9458 27.0939 30.9935 27.211 31.0785C27.328 31.1635 27.394 31.2788 27.3944 31.3991V35.8635C27.394 35.9839 27.3281 36.0993 27.2111 36.1844C27.094 36.2696 26.9354 36.3175 26.7699 36.3178ZM20.3478 31.0492C20.2842 31.0491 20.2212 31.0581 20.1623 31.0757C20.1035 31.0933 20.05 31.1192 20.0049 31.1519C19.9599 31.1846 19.9241 31.2234 19.8997 31.2662C19.8753 31.3089 19.8628 31.3548 19.8628 31.4011V35.8655C19.8628 35.9118 19.8753 35.9577 19.8997 36.0005C19.9241 36.0433 19.9598 36.0822 20.0048 36.115C20.0499 36.1478 20.1034 36.1738 20.1622 36.1915C20.2211 36.2092 20.2841 36.2184 20.3478 36.2184H26.7699C26.8986 36.2181 27.0219 36.1809 27.113 36.1148C27.2041 36.0487 27.2556 35.9591 27.2564 35.8655V31.3991C27.2556 31.3056 27.2041 31.2161 27.1129 31.1501C27.0218 31.0842 26.8985 31.0472 26.7699 31.0472L20.3478 31.0492Z" fill="#E0E0E0"/>
<path d="M26.1739 32.3558C26.0547 32.3558 25.9383 32.3301 25.8392 32.282C25.7402 32.2338 25.6629 32.1654 25.6173 32.0854C25.5716 32.0053 25.5596 31.9172 25.5828 31.8322C25.6059 31.7472 25.6632 31.6691 25.7473 31.6078C25.8314 31.5464 25.9387 31.5046 26.0555 31.4875C26.1723 31.4705 26.2934 31.4791 26.4035 31.5121C26.5137 31.5451 26.6079 31.6012 26.6742 31.6731C26.7406 31.7451 26.7762 31.8297 26.7765 31.9164C26.7765 32.0328 26.713 32.1444 26.6 32.2267C26.4871 32.3091 26.3338 32.3555 26.1739 32.3558Z" fill="#FAFAFA"/>
<path d="M28.8772 32.3558C28.758 32.3564 28.6413 32.3312 28.5417 32.2835C28.4422 32.2359 28.3643 32.1678 28.318 32.0879C28.2716 32.008 28.2588 31.9199 28.2813 31.8348C28.3038 31.7496 28.3604 31.6712 28.4441 31.6095C28.5278 31.5478 28.6348 31.5055 28.7515 31.488C28.8682 31.4705 28.9895 31.4786 29.0999 31.5112C29.2103 31.5439 29.3049 31.5996 29.3718 31.6714C29.4387 31.7431 29.4748 31.8277 29.4757 31.9144V31.9233C29.4739 32.0381 29.4101 32.1478 29.2981 32.2287C29.1862 32.3096 29.035 32.3553 28.8772 32.3558Z" fill="#FAFAFA"/>
<path d="M19.9338 38.5779H19.334V37.3373H20.5624L19.9338 38.5779Z" fill="#F0F0F0"/>
<path d="M18.8533 30.6343H15.6982V38.5779H18.8533V30.6343Z" fill="#E6E6E6"/>
<path d="M18.2535 38.5779H18.8534V37.3373H17.625L18.2535 38.5779Z" fill="#F0F0F0"/>
<path d="M17.8327 36.3178H11.4106C11.245 36.3178 11.0861 36.2699 10.969 36.1847C10.8519 36.0995 10.7861 35.984 10.7861 35.8635V31.3991C10.7865 31.2788 10.8524 31.1635 10.9695 31.0785C11.0866 30.9935 11.2452 30.9458 11.4106 30.9458H17.8258C17.9912 30.9458 18.1498 30.9935 18.2669 31.0785C18.384 31.1635 18.4499 31.2788 18.4503 31.3991V35.8635C18.4503 35.9831 18.3854 36.0979 18.2698 36.183C18.1542 36.268 17.9971 36.3165 17.8327 36.3178ZM11.4106 31.0492C11.3469 31.0491 11.2839 31.0581 11.2251 31.0757C11.1662 31.0933 11.1127 31.1192 11.0677 31.1519C11.0226 31.1846 10.9868 31.2234 10.9625 31.2662C10.9381 31.3089 10.9255 31.3548 10.9255 31.4011V35.8655C10.9248 35.9119 10.9367 35.9581 10.9604 36.0012C10.9842 36.0443 11.0194 36.0837 11.0641 36.1169C11.1088 36.1501 11.162 36.1766 11.2207 36.1949C11.2795 36.2132 11.3426 36.2228 11.4065 36.2233H17.8286C17.9575 36.2239 18.0814 36.1873 18.1733 36.1215C18.2652 36.0558 18.3177 35.9662 18.3191 35.8724V31.3991C18.3184 31.3058 18.267 31.2164 18.1761 31.1505C18.0853 31.0846 17.9623 31.0475 17.834 31.0472L11.4106 31.0492Z" fill="#E0E0E0"/>
<path d="M9.31012 32.356C9.19094 32.3562 9.07436 32.3307 8.97512 32.2827C8.87587 32.2347 8.79843 32.1663 8.75257 32.0863C8.70671 32.0063 8.6945 31.9182 8.71749 31.8331C8.74048 31.748 8.79762 31.6698 8.8817 31.6084C8.96579 31.5469 9.07302 31.505 9.18986 31.4879C9.3067 31.4708 9.42788 31.4792 9.53809 31.5122C9.6483 31.5452 9.74259 31.6013 9.80903 31.6733C9.87546 31.7452 9.91107 31.8299 9.91134 31.9166C9.9117 31.9742 9.89642 32.0313 9.86636 32.0846C9.83631 32.1379 9.79208 32.1864 9.73622 32.2272C9.68035 32.268 9.61395 32.3004 9.54083 32.3225C9.46771 32.3446 9.38931 32.356 9.31012 32.356Z" fill="#FAFAFA"/>
<path d="M12.0128 32.356C11.8936 32.3566 11.7769 32.3315 11.6773 32.2838C11.5778 32.2361 11.4999 32.168 11.4536 32.0881C11.4072 32.0083 11.3945 31.9202 11.4169 31.835C11.4394 31.7499 11.496 31.6715 11.5797 31.6098C11.6634 31.548 11.7704 31.5058 11.8871 31.4883C12.0039 31.4708 12.1251 31.4789 12.2355 31.5115C12.3459 31.5441 12.4406 31.5998 12.5074 31.6716C12.5743 31.7434 12.6105 31.8279 12.6113 31.9146V31.9236C12.6095 32.0384 12.5457 32.1481 12.4338 32.229C12.3218 32.3099 12.1706 32.3555 12.0128 32.356Z" fill="#FAFAFA"/>
<path d="M29.0595 43.0138C43.6913 43.0138 55.5527 42.51 55.5527 41.8885C55.5527 41.267 43.6913 40.7632 29.0595 40.7632C14.4278 40.7632 2.56641 41.267 2.56641 41.8885C2.56641 42.51 14.4278 43.0138 29.0595 43.0138Z" fill="#F5F5F5"/>
<path d="M26.3166 13.0007C26.0146 13.5346 24.2369 13.4978 22.3745 12.9391C20.5121 12.3804 19.2455 11.4947 19.5474 10.9609C19.6185 10.8376 19.8207 10.3754 20.0229 10.3118C20.7171 10.0981 22.0384 10.5782 23.469 11.0076C24.8012 11.4053 26.3248 11.6647 26.5612 12.1906C26.7033 12.5107 26.4027 12.8487 26.3166 13.0007Z" fill="#E10098"/>
<path opacity="0.2" d="M26.5609 12.1903C26.6743 12.6088 26.4243 12.8096 26.3163 13.0005C26.2084 13.1914 25.8927 13.3166 25.4514 13.3604C25.3962 13.3672 25.3406 13.3718 25.2847 13.3743C24.9463 13.3888 24.6067 13.3758 24.2722 13.3355C24.2244 13.3355 24.1765 13.3246 24.1274 13.3186C23.7347 13.2673 23.3479 13.1949 22.97 13.1019L22.8334 13.0681C22.6817 13.0293 22.5259 12.9866 22.3702 12.9399C22.2144 12.8932 22.0668 12.8405 21.9206 12.7937L21.7949 12.75C21.4505 12.6261 21.1185 12.4846 20.8015 12.3265L20.6895 12.2689C20.4128 12.1266 20.1593 11.9618 19.9339 11.7778C19.8997 11.75 19.8683 11.7231 19.8382 11.6953C19.5444 11.4249 19.4283 11.1664 19.5444 10.9607C19.621 10.8285 19.7849 10.3762 20.02 10.3105C20.309 10.2513 20.615 10.2513 20.904 10.3105L21.0407 10.3344C21.7239 10.4616 22.5847 10.745 23.4633 11.0084C24.499 11.3195 25.7247 11.6426 26.3259 12.0154C26.3617 12.0373 26.3959 12.0605 26.4284 12.085C26.4763 12.1175 26.5207 12.1527 26.5609 12.1903Z" fill="black"/>
<g opacity="0.2">
<path d="M21.109 10.2494L21.0461 10.3329L19.9366 11.7773C19.9024 11.7494 19.871 11.7226 19.8409 11.6948L20.9067 10.309L20.9901 10.2017L21.109 10.2494Z" fill="black"/>
</g>
<g opacity="0.2">
<path d="M21.948 10.8382L20.8043 12.3293L20.6923 12.2717L21.8291 10.7925L21.948 10.8382Z" fill="black"/>
</g>
<g opacity="0.2">
<path d="M24.0505 11.6938L22.9696 13.1024L22.833 13.0686L23.9261 11.6411L24.0505 11.6938Z" fill="black"/>
</g>
<g opacity="0.2">
<path d="M23.0725 11.2954L21.9233 12.7934L21.7976 12.7497L22.9536 11.2427L23.0725 11.2954Z" fill="black"/>
</g>
<g opacity="0.2">
<path d="M25.3253 11.9662L24.2718 13.336C24.224 13.336 24.1761 13.3251 24.127 13.3191L25.205 11.9165L25.3253 11.9662Z" fill="black"/>
</g>
<path d="M26.5527 12.5352C26.2507 13.069 24.4949 13.0481 22.6311 12.4885C20.7674 11.9288 19.5021 11.0441 19.8054 10.5103C20.1088 9.97644 21.8632 9.99831 23.727 10.557C25.5907 11.1157 26.8547 11.9984 26.5527 12.5352Z" fill="#E10098"/>
<path opacity="0.2" d="M25.9187 12.3416C25.7055 12.7184 24.3364 12.6657 22.862 12.2233C21.3877 11.7809 20.3656 11.1159 20.5788 10.7392C20.7919 10.3624 22.1611 10.4151 23.6368 10.8574C25.1125 11.2998 26.1332 11.9648 25.9187 12.3416Z" fill="white"/>
<path d="M35.7331 8.1759C36.2195 8.63218 35.2931 9.7366 33.6985 10.6342C32.1039 11.5319 30.4191 11.8898 29.9341 11.4295C29.822 11.3241 29.3684 10.9712 29.3957 10.8062C29.4873 10.2625 30.7157 9.66801 31.94 8.97812C33.0795 8.33595 34.144 7.50291 34.8886 7.61524C35.3409 7.68781 35.5951 8.04667 35.7331 8.1759Z" fill="#E10098"/>
<path opacity="0.2" d="M34.8887 7.61865C35.4448 7.75583 35.5596 8.01628 35.7331 8.17533C35.9067 8.33439 35.8998 8.5998 35.7331 8.90101C35.714 8.93779 35.6908 8.97457 35.6662 9.01234C35.5165 9.23334 35.3332 9.44141 35.1196 9.63265C35.0909 9.66048 35.0595 9.68732 35.0281 9.71515C34.7711 9.93812 34.4916 10.1468 34.1918 10.3394L34.0866 10.406C33.965 10.4826 33.8366 10.5591 33.704 10.6337C33.5715 10.7082 33.439 10.7788 33.3051 10.8454C33.2682 10.8653 33.2285 10.8842 33.1916 10.9031C32.8724 11.0589 32.5381 11.1977 32.1914 11.3186C32.1491 11.3345 32.1081 11.3474 32.0685 11.3613C31.7604 11.465 31.4373 11.543 31.1052 11.594C31.056 11.6019 31.0081 11.6079 30.9603 11.6128C30.4916 11.6635 30.1254 11.6128 29.9382 11.4329C29.818 11.3196 29.3603 10.9906 29.3999 10.8106C29.4714 10.5979 29.6233 10.404 29.8385 10.251C29.8686 10.2261 29.9014 10.2013 29.9355 10.1754C30.4288 9.80363 31.1926 9.405 31.9441 8.98252C32.8309 8.48549 33.8257 7.87015 34.5676 7.6773C34.6124 7.66534 34.658 7.65505 34.7042 7.64649C34.7647 7.63395 34.8264 7.62464 34.8887 7.61865Z" fill="black"/>
<g opacity="0.2">
<path d="M29.8632 10.0942L29.9315 10.1758L31.1012 11.5943C31.052 11.6022 31.0042 11.6082 30.9563 11.6132L29.8345 10.2493L29.7471 10.1499L29.8632 10.0942Z" fill="black"/>
</g>
<g opacity="0.2">
<path d="M30.9826 9.85693L32.1878 11.3182C32.1454 11.3341 32.1044 11.3471 32.0648 11.361L30.8651 9.90763L30.9826 9.85693Z" fill="black"/>
</g>
<g opacity="0.2">
<path d="M33.0472 8.95654L34.1881 10.3403L34.0829 10.4069L32.9297 9.00724L33.0472 8.95654Z" fill="black"/>
</g>
<g opacity="0.2">
<path d="M32.0876 9.37549L33.301 10.8457C33.2641 10.8656 33.2245 10.8845 33.1876 10.9034L31.9688 9.42619L32.0876 9.37549Z" fill="black"/>
</g>
<g opacity="0.2">
<path d="M34.0062 8.28564L35.1157 9.63262C35.087 9.66045 35.0556 9.68729 35.0241 9.71512L33.8887 8.33734L34.0062 8.28564Z" fill="black"/>
</g>
<path d="M33.2857 10.2433C34.8793 9.34537 35.7774 8.24762 35.2917 7.79145C34.806 7.33527 33.1205 7.69341 31.527 8.59138C29.9334 9.48934 29.0353 10.5871 29.521 11.0433C30.0067 11.4994 31.6922 11.1413 33.2857 10.2433Z" fill="#E10098"/>
<path opacity="0.2" d="M33.0877 9.96742C34.3489 9.25672 35.093 8.41914 34.7497 8.09665C34.4063 7.77416 33.1055 8.08887 31.8443 8.79958C30.5831 9.51028 29.839 10.3479 30.1824 10.6703C30.5257 10.9928 31.8265 10.6781 33.0877 9.96742Z" fill="white"/>
<path d="M29.1375 6.03778C28.9818 6.69188 26.965 6.96823 24.6803 6.67001C22.3957 6.37178 20.6727 5.60337 20.8325 4.94927C20.8694 4.79717 20.9337 4.24347 21.1482 4.13313C21.8573 3.7693 23.5052 4.07349 25.2597 4.30013C26.8994 4.51187 28.6934 4.52877 29.1375 5.07849C29.4067 5.41648 29.1826 5.85089 29.1375 6.03778Z" fill="#E10098"/>
<path opacity="0.2" d="M29.1379 5.0795C29.4112 5.53081 29.1939 5.8002 29.1379 6.0348C29.0819 6.2694 28.769 6.46524 28.288 6.59447C28.2292 6.61136 28.1678 6.62528 28.1049 6.6392C27.7287 6.71613 27.3419 6.76247 26.9517 6.77738C26.8956 6.77738 26.841 6.77737 26.7836 6.78433C26.3239 6.79663 25.8635 6.78434 25.4063 6.74755L25.2464 6.73264C25.0619 6.71574 24.872 6.69586 24.6821 6.67101C24.4921 6.64616 24.3077 6.61832 24.126 6.58751C24.074 6.57955 24.0221 6.56961 23.9702 6.56067C23.5409 6.48355 23.1198 6.38388 22.7104 6.26244C22.6598 6.24853 22.612 6.23262 22.5642 6.21871C22.2048 6.10741 21.8637 5.96703 21.5476 5.8002C21.4997 5.77535 21.456 5.7505 21.4109 5.72465C20.9873 5.47315 20.7701 5.20276 20.8316 4.95126C20.8726 4.78823 20.9053 4.25541 21.1458 4.13513C21.3863 4.01484 21.7307 3.97707 22.1406 3.97607H22.3045C23.1244 3.99596 24.1806 4.16197 25.2587 4.30114C26.5294 4.46615 28.0175 4.61029 28.8182 4.92243C28.8651 4.94054 28.9107 4.96045 28.9548 4.98208C29.0192 5.01103 29.0805 5.0436 29.1379 5.0795Z" fill="black"/>
<g opacity="0.2">
<path d="M22.3493 3.87509L22.3055 3.97947L21.5458 5.8026C21.498 5.77775 21.4543 5.7529 21.4092 5.72705L22.1388 3.97847L22.1962 3.84229L22.3493 3.87509Z" fill="black"/>
</g>
<g opacity="0.2">
<path d="M23.4917 4.38391L22.7087 6.26172C22.6581 6.2478 22.6103 6.2319 22.5625 6.21798L23.3413 4.34912L23.4917 4.38391Z" fill="black"/>
</g>
<g opacity="0.2">
<path d="M26.1469 4.97276L25.405 6.75116L25.2451 6.73625L25.9953 4.93896L26.1469 4.97276Z" fill="black"/>
</g>
<g opacity="0.2">
<path d="M24.9131 4.70034L24.1246 6.58908C24.0727 6.58113 24.0208 6.57119 23.9689 6.56224L24.7614 4.66455L24.9131 4.70034Z" fill="black"/>
</g>
<g opacity="0.2">
<path d="M27.6731 5.04989L26.9503 6.78058C26.8943 6.78058 26.8396 6.78058 26.7822 6.78754L27.5214 5.01709L27.6731 5.04989Z" fill="black"/>
</g>
<path d="M29.2443 5.46677C29.4043 4.81274 27.6813 4.0427 25.3959 3.74684C23.1106 3.45098 21.1282 3.74133 20.9682 4.39536C20.8083 5.04939 22.5313 5.81943 24.8166 6.1153C27.102 6.41116 29.0844 6.12081 29.2443 5.46677Z" fill="#E10098"/>
<path opacity="0.2" d="M28.4663 5.36696C28.5794 4.90482 27.205 4.34039 25.3966 4.10628C23.5882 3.87217 22.0306 4.05702 21.9176 4.51917C21.8045 4.98131 23.1789 5.54574 24.9873 5.77985C26.7957 6.01397 28.3533 5.82911 28.4663 5.36696Z" fill="white"/>
<path d="M38.9582 23.3533L24.8966 24.035C24.3999 24.0593 23.9125 24.1578 23.4578 24.3259L8.18417 30.0069C7.91618 30.1049 7.69672 30.2763 7.56243 30.4926C7.42814 30.7089 7.38715 30.957 7.44631 31.1954L9.97005 41.1202C10.0127 41.28 10.0988 41.4296 10.2216 41.5575C10.3445 41.6854 10.5009 41.7883 10.6789 41.8583C10.8569 41.9282 11.0518 41.9634 11.2486 41.9611C11.4455 41.9588 11.6391 41.9191 11.8147 41.8451L26.8902 35.5868L40.8111 35.1994C40.9824 35.1956 41.1507 35.1615 41.3049 35.0994C41.4592 35.0372 41.5957 34.9485 41.7054 34.8391C41.8152 34.7296 41.8957 34.602 41.9415 34.4647C41.9873 34.3274 41.9974 34.1835 41.9711 34.0427L40.1087 24.5395C40.0117 24.0486 39.5635 23.3385 38.9582 23.3533Z" fill="#E10098"/>
<path opacity="0.1" d="M38.9582 23.3533L24.8966 24.035C24.3999 24.0593 23.9125 24.1578 23.4578 24.3259L8.18417 30.0069C7.91618 30.1049 7.69672 30.2763 7.56243 30.4926C7.42814 30.7089 7.38715 30.957 7.44631 31.1954L9.97005 41.1202C10.0127 41.28 10.0988 41.4296 10.2216 41.5575C10.3445 41.6854 10.5009 41.7883 10.6789 41.8583C10.8569 41.9282 11.0518 41.9634 11.2486 41.9611C11.4455 41.9588 11.6391 41.9191 11.8147 41.8451L26.8902 35.5868L40.8111 35.1994C40.9824 35.1956 41.1507 35.1615 41.3049 35.0994C41.4592 35.0372 41.5957 34.9485 41.7054 34.8391C41.8152 34.7296 41.8957 34.602 41.9415 34.4647C41.9873 34.3274 41.9974 34.1835 41.9711 34.0427L40.1087 24.5395C40.0117 24.0486 39.5635 23.3385 38.9582 23.3533Z" fill="black"/>
<path d="M10.7328 16.891L3.35352 22.5474L16.596 34.4931L23.9753 28.8367L10.7328 16.891Z" fill="#E10098"/>
<path opacity="0.5" d="M23.9739 28.8381L16.5939 34.4942L3.35352 22.5492L8.19604 18.8372L10.7334 16.892L11.1557 17.2737L23.9739 28.8381Z" fill="#FAFAFA"/>
<path d="M10.7808 17.6217L4.26953 22.6127L16.6563 33.7864L23.1676 28.7954L10.7808 17.6217Z" stroke="#E10098" stroke-miterlimit="10"/>
<path d="M15.1839 27.0265C15.9308 26.454 15.8363 25.3586 14.9729 24.5798C14.1096 23.8009 12.8042 23.6337 12.0574 24.2061C11.3105 24.7786 11.405 25.874 12.2684 26.6529C13.1317 27.4317 14.4371 27.599 15.1839 27.0265Z" fill="#E10098"/>
<path opacity="0.1" d="M16.5153 29.6459L13.8932 30.3992L8.19531 18.8372L10.7327 16.892L11.1549 17.2737L16.5153 29.6459Z" fill="black"/>
<path d="M17.0269 12.2114L7.5918 15.0562L14.2518 30.3298L23.6869 27.4851L17.0269 12.2114Z" fill="#E10098"/>
<path opacity="0.5" d="M17.0269 12.2114L7.5918 15.0562L14.2518 30.3298L23.6869 27.4851L17.0269 12.2114Z" fill="#FAFAFA"/>
<path d="M16.7305 12.9005L8.40527 15.4106L14.6349 29.6973L22.9602 27.1872L16.7305 12.9005Z" stroke="#E10098" stroke-miterlimit="10"/>
<path d="M16.4206 22.9886C17.3755 22.7007 17.7976 21.6601 17.3634 20.6643C16.9292 19.6684 15.8031 19.0946 14.8482 19.3825C13.8933 19.6704 13.4711 20.7111 13.9054 21.7069C14.3396 22.7027 15.4657 23.2765 16.4206 22.9886Z" fill="#E10098"/>
<path d="M39.0494 23.7565L25.1804 24.4065C24.6888 24.4289 24.2064 24.5271 23.758 24.6962L8.70844 30.3454C8.44336 30.4451 8.2271 30.6169 8.09542 30.8326C7.96374 31.0483 7.92452 31.2949 7.98425 31.5316L10.508 41.461C10.5486 41.6198 10.6325 41.7688 10.7532 41.8965C10.8739 42.0241 11.0282 42.1271 11.2043 42.1974C11.3803 42.2677 11.5734 42.3036 11.7687 42.3022C11.9639 42.3008 12.1562 42.2622 12.3308 42.1893L27.1835 35.9663L40.9131 35.605C41.0831 35.6005 41.25 35.5659 41.4026 35.5036C41.5552 35.4412 41.6901 35.3525 41.7982 35.2433C41.9063 35.1342 41.9852 35.0071 42.0295 34.8706C42.0739 34.7341 42.0827 34.5913 42.0554 34.4517L40.1876 24.9496C40.0906 24.4542 39.6478 23.7429 39.0494 23.7565Z" fill="#E10098"/>
<path opacity="0.2" d="M25.7441 26.1456L37.6441 25.5366" stroke="black" stroke-width="2" stroke-linecap="round" stroke-linejoin="round"/>
<path opacity="0.2" d="M24.3193 26.401L26.4933 34.7044" stroke="black" stroke-width="2" stroke-linecap="round" stroke-linejoin="round"/>
<path opacity="0.2" d="M9.82422 33.8979L11.3573 40.2846C11.3573 40.2846 12.5324 37.7508 9.82422 33.8979Z" fill="#FAFAFA"/>
<path opacity="0.2" d="M10.0254 33.9722C10.0787 34.0859 23.6429 29.2456 23.6429 29.2456C23.6797 30.343 23.3497 31.4273 22.6897 32.3781C22.0298 33.3289 21.0656 34.1088 19.9045 34.6312C15.8217 36.5344 10.0254 33.9722 10.0254 33.9722Z" fill="#FAFAFA"/>
<path d="M19.0358 34.1612C19.3603 34.1612 19.6233 33.9425 19.6233 33.6727C19.6233 33.4028 19.3603 33.1841 19.0358 33.1841C18.7113 33.1841 18.4482 33.4028 18.4482 33.6727C18.4482 33.9425 18.7113 34.1612 19.0358 34.1612Z" fill="#E10098"/>
<path opacity="0.2" d="M23.6504 29.2456C23.6504 29.2456 25.3324 31.351 24.9252 34.9369L23.6504 29.2456Z" fill="black"/>
<g opacity="0.2">
<path d="M9.17578 31.3886L9.48869 31.2738" stroke="#FAFAFA" stroke-linecap="round" stroke-linejoin="round"/>
<path d="M10.1377 31.0356L22.8042 26.3794" stroke="#FAFAFA" stroke-linecap="round" stroke-linejoin="round" stroke-dasharray="5.2 5.2"/>
<path d="M23.1299 26.2598L23.4414 26.145" stroke="#FAFAFA" stroke-linecap="round" stroke-linejoin="round"/>
</g>
<path opacity="0.2" d="M26.1436 28.0121L38.0435 27.402" stroke="black" stroke-width="2" stroke-linecap="round" stroke-linejoin="round"/>
<path opacity="0.2" d="M26.6797 30.3402L38.5797 29.7301" stroke="black" stroke-width="2" stroke-linecap="round" stroke-linejoin="round"/>
<path d="M36.7546 17.5717L33.8687 26.402C33.7728 26.6977 33.5783 26.9614 33.3104 27.1589C33.0425 27.3565 32.7134 27.4789 32.3657 27.5103C32.1443 27.5289 31.9209 27.511 31.7071 27.4574L26.1909 26.0618C25.745 25.9486 25.3683 25.6845 25.1434 25.3274C24.9185 24.9702 24.8638 24.5492 24.9912 24.1566L27.8784 15.3239C28.0074 14.9321 28.3076 14.6013 28.7133 14.4039C29.119 14.2065 29.5971 14.1587 30.0428 14.2709L35.5631 15.6652C36.008 15.7797 36.3832 16.0446 36.6065 16.4019C36.8299 16.7593 36.8831 17.1799 36.7546 17.5717Z" fill="#E10098"/>
<path opacity="0.2" d="M36.7546 17.5717L33.8687 26.402C33.7728 26.6977 33.5783 26.9614 33.3104 27.1589C33.0425 27.3565 32.7134 27.4789 32.3657 27.5103C32.1443 27.5289 31.9209 27.511 31.7071 27.4574L26.1909 26.0618C25.745 25.9486 25.3683 25.6845 25.1434 25.3274C24.9185 24.9702 24.8638 24.5492 24.9912 24.1566L27.8784 15.3239C28.0074 14.9321 28.3076 14.6013 28.7133 14.4039C29.119 14.2065 29.5971 14.1587 30.0428 14.2709L35.5631 15.6652C36.008 15.7797 36.3832 16.0446 36.6065 16.4019C36.8299 16.7593 36.8831 17.1799 36.7546 17.5717Z" fill="black"/>
<path d="M36.2749 17.6763L33.3891 26.5078C33.3161 26.7326 33.1858 26.9398 33.0079 27.1135C32.8301 27.2873 32.6095 27.423 32.3629 27.5103C32.1416 27.5289 31.9182 27.511 31.7043 27.4574L26.1909 26.0618C25.745 25.9486 25.3683 25.6845 25.1434 25.3274C24.9185 24.9702 24.8638 24.5492 24.9912 24.1566L27.8784 15.3238C27.9515 15.0994 28.0819 14.8925 28.2598 14.7192C28.4376 14.5458 28.6582 14.4106 28.9046 14.3237C29.1259 14.3039 29.3496 14.3219 29.5632 14.3766L35.0725 15.777C35.5176 15.8895 35.894 16.1524 36.1193 16.5083C36.3446 16.8642 36.4006 17.2842 36.2749 17.6763Z" fill="#E10098"/>
<path opacity="0.5" d="M36.2749 17.6763L33.3891 26.5078C33.3161 26.7326 33.1858 26.9398 33.0079 27.1135C32.8301 27.2873 32.6095 27.423 32.3629 27.5103C32.1416 27.5289 31.9182 27.511 31.7043 27.4574L26.1909 26.0618C25.745 25.9486 25.3683 25.6845 25.1434 25.3274C24.9185 24.9702 24.8638 24.5492 24.9912 24.1566L27.8784 15.3238C27.9515 15.0994 28.0819 14.8925 28.2598 14.7192C28.4376 14.5458 28.6582 14.4106 28.9046 14.3237C29.1259 14.3039 29.3496 14.3219 29.5632 14.3766L35.0725 15.777C35.5176 15.8895 35.894 16.1524 36.1193 16.5083C36.3446 16.8642 36.4006 17.2842 36.2749 17.6763Z" fill="#FAFAFA"/>
<path d="M28.5163 18.4272L27.9258 18.2808L25.8004 24.9149L26.3909 25.0613L28.5163 18.4272Z" fill="#FAFAFA"/>
<path d="M27.2387 25.2718L26.6484 25.1215L28.7732 18.4897L29.3621 18.6388L27.2387 25.2718Z" fill="#FAFAFA"/>
<path d="M28.0971 25.4884L27.5068 25.3394L29.6316 18.7076L30.2219 18.8567L28.0971 25.4884Z" fill="#FAFAFA"/>
<path opacity="0.5" d="M33.6579 19.7259L33.0674 19.5795L30.942 26.2136L31.5325 26.36L33.6579 19.7259Z" fill="black"/>
<path d="M33.5835 17.8508L33.2965 18.7511L32.9467 18.6645C32.7773 18.6223 32.6338 18.5226 32.5477 18.3874C32.4617 18.2522 32.44 18.0925 32.4876 17.9433L32.6789 17.3423L33.3853 17.5202C33.4614 17.541 33.525 17.5874 33.5621 17.6494C33.5993 17.7114 33.607 17.7838 33.5835 17.8508Z" fill="#FAFAFA"/>
<path d="M33.4154 17.4094L32.709 17.2315L32.9208 16.5728C32.9444 16.4989 32.9844 16.4298 33.0384 16.3695C33.0924 16.3092 33.1594 16.2588 33.2355 16.2213C33.3117 16.1838 33.3955 16.1599 33.4821 16.1509C33.5688 16.1419 33.6566 16.148 33.7406 16.1689L34.1041 16.259L33.7871 17.2291C33.7766 17.2626 33.7585 17.294 33.734 17.3213C33.7095 17.3486 33.6791 17.3713 33.6444 17.3881C33.6098 17.4049 33.5717 17.4155 33.5324 17.4191C33.493 17.4228 33.4533 17.4195 33.4154 17.4094Z" fill="#FAFAFA"/>
<path d="M34.0848 17.6999L34.7953 17.879L34.6067 18.4668C34.5834 18.5408 34.5436 18.6101 34.4897 18.6706C34.4358 18.7311 34.3688 18.7815 34.2925 18.8191C34.2163 18.8566 34.1324 18.8805 34.0456 18.8894C33.9588 18.8982 33.8709 18.8919 33.7869 18.8707L33.418 18.7793L33.7117 17.8802C33.7226 17.8467 33.7409 17.8154 33.7655 17.7882C33.7902 17.7609 33.8208 17.7383 33.8555 17.7215C33.8902 17.7047 33.9283 17.6942 33.9677 17.6905C34.007 17.6868 34.0468 17.6899 34.0848 17.6999Z" fill="#FAFAFA"/>
<path d="M35.0466 17.0991L34.8321 17.7674L34.1216 17.5883C34.0455 17.5687 33.9813 17.5235 33.9429 17.4625C33.9045 17.4015 33.895 17.3296 33.9166 17.2625L34.2336 16.2925L34.5875 16.3802C34.6713 16.4009 34.7497 16.4359 34.8181 16.4832C34.8865 16.5305 34.9437 16.5892 34.9863 16.656C35.0289 16.7227 35.0562 16.7962 35.0666 16.8722C35.0769 16.9483 35.0701 17.0253 35.0466 17.0991Z" fill="#FAFAFA"/>
</g>
<defs>
<clipPath id="clip0_1238_34429">
<rect width="56" height="44" fill="white" transform="translate(0.5 0.51123)"/>
</clipPath>
</defs>
</svg>
