<svg width="24" height="25" viewBox="0 0 24 25" fill="none" xmlns="http://www.w3.org/2000/svg">
<path d="M19.0501 5.42123C17.1801 3.54123 14.6901 2.51123 12.04 2.51123C6.58005 2.51123 2.13005 6.96123 2.13005 12.4212C2.13005 14.1712 2.59005 15.8712 3.45005 17.3712L2.05005 22.5112L7.30005 21.1312C8.75005 21.9212 10.38 22.3412 12.04 22.3412C17.5001 22.3412 21.9501 17.8912 21.9501 12.4312C21.9501 9.78123 20.9201 7.29123 19.0501 5.42123ZM12.04 20.6612C10.5601 20.6612 9.11005 20.2612 7.84005 19.5112L7.54005 19.3312L4.42005 20.1512L5.25005 17.1112L5.05005 16.8012C4.23005 15.4912 3.79005 13.9712 3.79005 12.4212C3.79005 7.88123 7.49005 4.18123 12.03 4.18123C14.2301 4.18123 16.3001 5.04123 17.8501 6.60123C19.4101 8.16123 20.2601 10.2312 20.2601 12.4312C20.2801 16.9712 16.5801 20.6612 12.04 20.6612ZM16.5601 14.5012C16.3101 14.3812 15.09 13.7812 14.8701 13.6912C14.64 13.6112 14.4801 13.5712 14.3101 13.8112C14.1401 14.0612 13.67 14.6212 13.53 14.7812C13.39 14.9512 13.24 14.9712 12.99 14.8412C12.74 14.7212 11.9401 14.4512 11 13.6112C10.26 12.9512 9.77005 12.1412 9.62005 11.8912C9.48005 11.6412 9.60005 11.5112 9.73005 11.3812C9.84005 11.2712 9.98005 11.0912 10.1 10.9512C10.22 10.8112 10.2701 10.7012 10.35 10.5412C10.43 10.3712 10.39 10.2312 10.33 10.1112C10.27 9.99123 9.77005 8.77123 9.57005 8.27123C9.37005 7.79123 9.16005 7.85123 9.01005 7.84123C8.86005 7.84123 8.70005 7.84123 8.53005 7.84123C8.36005 7.84123 8.10005 7.90123 7.87005 8.15123C7.65005 8.40123 7.01005 9.00123 7.01005 10.2212C7.01005 11.4412 7.90005 12.6212 8.02005 12.7812C8.14005 12.9512 9.77005 15.4512 12.25 16.5212C12.84 16.7812 13.3 16.9312 13.66 17.0412C14.25 17.2312 14.7901 17.2012 15.2201 17.1412C15.7001 17.0712 16.6901 16.5412 16.89 15.9612C17.1 15.3812 17.1001 14.8912 17.0301 14.7812C16.9601 14.6712 16.8101 14.6212 16.5601 14.5012Z" fill="#3C68B0"/>
</svg>
